<svg xmlns="http://www.w3.org/2000/svg" xmlns:xlink="http://www.w3.org/1999/xlink" xmlns:inkscape="http://www.inkscape.org/namespaces/inkscape" version="1.1" width="344" height="457" viewBox="0 0 344 457">
<path transform="matrix(1.00002,0,0,-1.00003,115.48393,228.5784)" d="M0-226.77448V-113.38724 0 113.38724 226.77448H113.38724V113.38724 0-113.38724-226.77448H0Z" fill="#fff799"/>
<path transform="matrix(1.00002,0,0,-1.00003,115.48393,228.5784)" stroke-width=".3985" stroke-linecap="butt" stroke-miterlimit="10" stroke-linejoin="miter" fill="none" stroke="#000000" d="M0 113.38724H113.38724"/>
<path transform="matrix(1.00002,0,0,-1.00003,115.48393,228.5784)" d="M-113.38724 0H0 113.38724 226.77448V-113.38724H113.38724 0-113.38724V0" fill="#80ff80"/>
<path transform="matrix(1.00002,0,0,-1.00003,115.48393,228.5784)" d="M0 0V113.38724H113.38724V0Z" fill="#8080ff"/>
<path transform="matrix(1.00002,0,0,-1.00003,115.48393,228.5784)" d="M0-113.38724V0H113.38724V-113.38724Z" fill="#ffbf80"/>
<path transform="matrix(1.00002,0,0,-1.00003,115.48393,228.5784)" d="M-113.38724-113.38724H0V0H-113.38724Z" fill="#6dcff6"/>
<path transform="matrix(1.00002,0,0,-1.00003,115.48393,228.5784)" d="M113.38724-113.38724H226.77448V0H113.38724Z" fill="#df809f"/>
<path transform="matrix(1.00002,0,0,-1.00003,115.48393,228.5784)" stroke-width=".3985" stroke-linecap="butt" stroke-miterlimit="10" stroke-linejoin="miter" fill="none" stroke="#000000" d="M0-226.77448V-113.38724 0 113.38724 226.77448H113.38724V113.38724 0-113.38724-226.77448H0Z"/>
<path transform="matrix(1.00002,0,0,-1.00003,115.48393,228.5784)" stroke-width=".3985" stroke-linecap="butt" stroke-miterlimit="10" stroke-linejoin="miter" fill="none" stroke="#000000" d="M-113.38724 0H0 113.38724 226.77448V-113.38724H113.38724 0-113.38724V0"/>
</svg>
