<svg xmlns="http://www.w3.org/2000/svg" xmlns:xlink="http://www.w3.org/1999/xlink" xmlns:inkscape="http://www.inkscape.org/namespaces/inkscape" version="1.1" width="298" height="242" viewBox="0 0 298 242">
<defs>
<path id="font_1_1" d="M.6589966 .23046875C.6759949 .23046875 .69400027 .23046875 .69400027 .25045777 .69400027 .27046205 .6759949 .27046205 .6589966 .27046205H.117996219C.100997928 .27046205 .08299255 .27046205 .08299255 .25045777 .08299255 .23046875 .100997928 .23046875 .117996219 .23046875H.6589966Z"/>
<path id="font_2_6" d="M.44898988 .20022583C.44898988 .3193512 .36698915 .41944886 .25898744 .41944886 .21099854 .41944886 .16799927 .40345765 .13198853 .36842347V.5637665C.1519928 .5577698 .18499756 .55078127 .21699524 .55078127 .33999635 .55078127 .4099884 .6417694 .4099884 .6547699 .4099884 .6607666 .40699769 .6657715 .3999939 .6657715 .39898683 .6657715 .39698792 .6657715 .3919983 .66278079 .37199403 .6537781 .32299806 .6337738 .2559967 .6337738 .21598816 .6337738 .16999817 .6407776 .12298584 .6617737 .114990238 .66477969 .11299133 .66477969 .11099243 .66477969 .100997928 .66477969 .100997928 .6567688 .100997928 .6407776V.34439088C.100997928 .32637025 .100997928 .31835938 .114990238 .31835938 .12199402 .31835938 .12399292 .32136537 .12799073 .32736207 .13899231 .3433838 .17599488 .39746095 .25698854 .39746095 .30899049 .39746095 .33399964 .35139466 .34199525 .33337403 .35798646 .29632569 .3600006 .25727845 .3600006 .20722962 .3600006 .17222595 .3600006 .11222839 .33599855 .07035828 .31199647 .031463624 .2749939 .0055389406 .22898865 .0055389406 .1559906 .0055389406 .09899902 .058380128 .08198547 .11723328 .084991458 .1162262 .08799744 .115234378 .09899902 .115234378 .13198853 .115234378 .14898682 .14022827 .14898682 .16423035 .14898682 .18823242 .13198853 .21322632 .09899902 .21322632 .084991458 .21322632 .049987794 .20622254 .049987794 .16023255 .049987794 .07434082 .11898804-.022460938 .23098755-.022460938 .34700013-.022460938 .44898988 .073349 .44898988 .20022583Z"/>
<path id="font_2_5" d="M.2939911 .16503906V.07800293C.2939911 .041992189 .2919922 .0309906 .21798706 .0309906H.19699097V0C.23799134 .0029907227 .2899933 .0029907227 .33198548 .0029907227 .37399293 .0029907227 .4269867 .0029907227 .46798707 0V.0309906H.44699098C.37298585 .0309906 .37098695 .041992189 .37098695 .07800293V.16503906H.47099305V.19602967H.37098695V.65075686C.37098695 .67074587 .37098695 .6767578 .35499574 .6767578 .34599305 .6767578 .34298707 .6767578 .33499146 .66474917L.027999878 .19602967V.16503906H.2939911M.2999878 .19602967H.055999757L.2999878 .5688019V.19602967Z"/>
<path id="font_2_4" d="M.2899933 .35191346C.37199403 .37893678 .42999269 .4490509 .42999269 .52809146 .42999269 .6100464 .34199525 .6660156 .24598694 .6660156 .14498902 .6660156 .068984989 .60606387 .068984989 .53009036 .068984989 .49710084 .09098816 .47808839 .11999512 .47808839 .15098572 .47808839 .17098999 .50009158 .17098999 .5290985 .17098999 .57910159 .12399292 .57910159 .10899353 .57910159 .13999939 .62802127 .20599365 .64100649 .24198914 .64100649 .2829895 .64100649 .33799745 .6190338 .33799745 .5290985 .33799745 .51708987 .33599855 .45906068 .30999757 .4149933 .27999879 .36691285 .24598694 .36390687 .22099304 .36291505 .21299744 .36190797 .18899536 .35990907 .18199158 .35990907 .17399597 .35890199 .16699219 .35791017 .16699219 .3479004 .16699219 .33691407 .17399597 .33691407 .19099427 .33691407H.23498535C.31698609 .33691407 .35398866 .2686615 .35398866 .17037964 .35398866 .034469606 .2849884 .0055389406 .24099732 .0055389406 .19799805 .0055389406 .12298584 .022491456 .08799744 .08137512 .12298584 .07637024 .1539917 .09837341 .1539917 .1363678 .1539917 .17237854 .1269989 .19238281 .09799194 .19238281 .07398987 .19238281 .041992189 .17837525 .041992189 .1343689 .041992189 .043441774 .1349945-.022460938 .24398804-.022460938 .3659973-.022460938 .45700074 .06838989 .45700074 .17037964 .45700074 .252594 .3939972 .33088685 .2899933 .35191346Z"/>
<path id="font_2_3" d="M.1269989 .07699585 .23298645 .18003845C.3889923 .31811524 .44898988 .3721466 .44898988 .47216798 .44898988 .5860901 .35899354 .6660156 .23699951 .6660156 .12399292 .6660156 .049987794 .57411196 .049987794 .48516847 .049987794 .4291687 .099990848 .4291687 .102996829 .4291687 .11999512 .4291687 .15499878 .44117738 .15499878 .48217774 .15499878 .5081787 .13699341 .5341797 .101989749 .5341797 .09399414 .5341797 .09199524 .5341797 .08898926 .5331726 .11199951 .59806826 .1659851 .63500979 .22399903 .63500979 .31498719 .63500979 .35798646 .5541382 .35798646 .47216798 .35798646 .39215089 .30799867 .31311036 .25299073 .25108338L.06098938 .036987306C.049987794 .025985718 .049987794 .023986817 .049987794 0H.42099L.44898988 .17404175H.42399598C.4189911 .14402771 .4119873 .1000061 .4019928 .084991458 .394989 .07699585 .32899476 .07699585 .30699159 .07699585H.1269989Z"/>
<path id="font_2_2" d="M.2939911 .64004519C.2939911 .66400149 .2939911 .6660156 .2709961 .6660156 .20899964 .60227969 .12098694 .60227969 .08898926 .60227969V.57128909C.10899353 .57128909 .16799927 .57128909 .21998596 .5972748V.07902527C.21998596 .042999269 .21699524 .0309906 .1269989 .0309906H.09498596V0C.12998963 .0029907227 .21699524 .0029907227 .25698854 .0029907227 .29699708 .0029907227 .38398744 .0029907227 .4189911 0V.0309906H.3869934C.29699708 .0309906 .2939911 .041992189 .2939911 .07902527V.64004519Z"/>
<path id="font_2_7" d="M.13198853 .327713V.35173036C.13198853 .6047821 .2559967 .64100649 .30699159 .64100649 .33099366 .64100649 .37298585 .634964 .394989 .6007538 .37998963 .6007538 .33999635 .6007538 .33999635 .5557556 .33999635 .524765 .3639984 .5097656 .38598634 .5097656 .4019928 .5097656 .43199159 .51875308 .43199159 .5577545 .43199159 .6178589 .3880005 .6660156 .30499269 .6660156 .1769867 .6660156 .041992189 .5367584 .041992189 .31570436 .041992189 .048553468 .1579895-.022460938 .25099183-.022460938 .3619995-.022460938 .45700074 .07156372 .45700074 .2036438 .45700074 .33070375 .36799623 .4267578 .25698854 .4267578 .18899536 .4267578 .1519928 .37573243 .13198853 .327713M.25099183 .0055389406C.18798828 .0055389406 .1579895 .06556702 .1519928 .080566409 .13398743 .127594 .13398743 .2076416 .13398743 .22564698 .13398743 .30369569 .1659851 .40374757 .2559967 .40374757 .27198792 .40374757 .31799317 .40374757 .34899903 .34172059 .36698915 .30470277 .36698915 .2536621 .36698915 .20463562 .36698915 .15661621 .36698915 .10658264 .34999085 .0705719 .31999208 .010528564 .27398683 .0055389406 .25099183 .0055389406Z"/>
<clipPath id="clip_3">
<path transform="matrix(1.00008,0,0,-1.00005,25.710618,220.56021)" d="M-24.61197-19.88782H270.7168V218.75402H-24.61197Z"/>
</clipPath>
<path id="font_4_2" d="M.48599244 .38136292C.48999024 .39537049 .48999024 .39736939 .48999024 .40437318 .48999024 .42237855 .47599793 .43138124 .46099855 .43138124 .45098878 .43138124 .43499757 .42536927 .42599488 .41036988 .42399598 .405365 .41600038 .37435914 .4119873 .35635377 .40499879 .33035279 .397995 .30334474 .3919983 .27633668L.34700013 .09628296C.34298707 .08126831 .2999878 .011245728 .23399353 .011245728 .18299866 .011245728 .17199707 .055267335 .17199707 .0922699 .17199707 .1382904 .18899536 .20030213 .22299195 .28833009 .23899842 .3293457 .24299622 .3403473 .24299622 .36035157 .24299622 .405365 .21099854 .4423828 .16099549 .4423828 .06599426 .4423828 .0289917 .29733277 .0289917 .28833009 .0289917 .27833558 .038986207 .27833558 .040985109 .27833558 .050994874 .27833558 .051986696 .28033448 .056991579 .29634095 .083999637 .3903656 .12399292 .42037965 .1579895 .42037965 .1659851 .42037965 .18299866 .42037965 .18299866 .3883667 .18299866 .36335755 .17298889 .3373413 .1659851 .31834413 .12599182 .21231079 .10798645 .1552887 .10798645 .10827637 .10798645 .019256592 .17098999-.0107421879 .22999573-.0107421879 .2689972-.0107421879 .30299378 .0062561037 .33099366 .03425598 .31799317-.017745972 .30599977-.06674194 .2659912-.11973572 .23999024-.15385437 .20199585-.18309021 .1559906-.18309021 .14199829-.18309021 .09700012-.18005371 .07998657-.14074707 .09599304-.14074707 .10899353-.14074707 .12298584-.1287384 .1329956-.11973572 .14299011-.10673523 .14299011-.08773804 .14299011-.056747438 .115997318-.052734376 .10598755-.052734376 .08299255-.052734376 .049987794-.068740848 .049987794-.11773682 .049987794-.16796875 .09399414-.20507813 .1559906-.20507813 .25898744-.20507813 .3619995-.11373901 .3899994-.00074768069L.48599244 .38136292Z"/>
<path id="font_2_8" d="M.68699648 .32714845C.70199587 .32714845 .72099307 .32714845 .72099307 .34713746 .72099307 .36714173 .70199587 .36714173 .6879883 .36714173H.08898926C.07499695 .36714173 .055999757 .36714173 .055999757 .34713746 .055999757 .32714845 .07499695 .32714845 .08999634 .32714845H.68699648M.6879883 .13284302C.70199587 .13284302 .72099307 .13284302 .72099307 .15284729 .72099307 .17285156 .70199587 .17285156 .68699648 .17285156H.08999634C.07499695 .17285156 .055999757 .17285156 .055999757 .15284729 .055999757 .13284302 .07499695 .13284302 .08898926 .13284302H.6879883Z"/>
<path id="font_5_1" d="M.33499146 .63612368C.33499146 .6630554 .33299256 .6640625 .30499269 .6640625 .24099732 .6014404 .1499939 .6004486 .10899353 .6004486V.5644531C.1329956 .5644531 .19898987 .5644531 .2539978 .592453V.08203125C.2539978 .04899597 .2539978 .035995485 .1539917 .035995485H.115997318V0C.13398743 .0009918213 .25698854 .0039978029 .2939911 .0039978029 .32499696 .0039978029 .45098878 .0009918213 .47299195 0V.035995485H.43499757C.33499146 .035995485 .33499146 .04899597 .33499146 .08203125V.63612368Z"/>
<path id="font_5_2" d="M.5049896 .18203736H.47099305C.46798707 .16001892 .45799256 .100997928 .44499208 .09098816 .43699647 .084991458 .3600006 .084991458 .34599305 .084991458H.1619873C.2669983 .17803955 .3019867 .20603943 .3619995 .25306703 .43598939 .312088 .5049896 .374115 .5049896 .46914674 .5049896 .5900879 .39898683 .6640625 .2709961 .6640625 .14698792 .6640625 .06298828 .57710269 .06298828 .4851532 .06298828 .43414308 .10598755 .42915345 .115997318 .42915345 .13999939 .42915345 .16899109 .44615174 .16899109 .48214723 .16899109 .5001526 .1619873 .53515627 .10998535 .53515627 .14099121 .6060791 .20899964 .62805178 .2559967 .62805178 .35598756 .62805178 .4079895 .5501404 .4079895 .46914674 .4079895 .38212586 .34599305 .3130951 .31399537 .27708436L.07299805 .038986207C.06298828 .02999878 .06298828 .027999878 .06298828 0H.47499085L.5049896 .18203736Z"/>
<path id="font_4_1" d="M.33399964 .30233766C.33999635 .32835389 .36299134 .42037965 .43299867 .42037965 .43798829 .42037965 .46199037 .42037965 .48298646 .40734864 .45498658 .402359 .43499757 .37734986 .43499757 .35334779 .43499757 .33735658 .44599916 .31835938 .47299195 .31835938 .49499513 .31835938 .5269928 .3363495 .5269928 .37635804 .5269928 .42837525 .46798707 .4423828 .43399049 .4423828 .37599183 .4423828 .34098817 .38935853 .32899476 .36634828 .3039856 .43237306 .25 .4423828 .22099304 .4423828 .116989139 .4423828 .05999756 .3133545 .05999756 .28834535 .05999756 .27833558 .069992069 .27833558 .07199097 .27833558 .07998657 .27833558 .08299255 .28033448 .084991458 .28933717 .11898804 .39535523 .18499756 .42037965 .21899414 .42037965 .23799134 .42037965 .272995 .4113617 .272995 .35334779 .272995 .32235719 .2559967 .25532533 .21899414 .11528015 .20298767 .053268434 .16799927 .011245728 .12399292 .011245728 .117996219 .011245728 .09498596 .011245728 .07398987 .024276734 .09899902 .029266358 .12098694 .05027771 .12098694 .07827759 .12098694 .105270389 .09899902 .11328125 .083999637 .11328125 .053985597 .11328125 .0289917 .08728027 .0289917 .055267335 .0289917 .009246826 .07899475-.0107421879 .12298584-.0107421879 .18899536-.0107421879 .22499085 .059280397 .22799683 .0652771 .23999024 .028274537 .27598573-.0107421879 .33599855-.0107421879 .43899537-.0107421879 .49598695 .118270877 .49598695 .14328003 .49598695 .1532898 .4869995 .1532898 .48399354 .1532898 .47499085 .1532898 .47299195 .14929199 .47099305 .14228821 .43798829 .03527832 .36999513 .011245728 .33799745 .011245728 .29899598 .011245728 .2829895 .043273927 .2829895 .07727051 .2829895 .09927368 .2889862 .121276859 .2999878 .16529846L.33399964 .30233766Z"/>
<path id="font_2_1" d="M.40899659 .23046875H.6879883C.70199587 .23046875 .72099307 .23046875 .72099307 .25045777 .72099307 .27046205 .70199587 .27046205 .6879883 .27046205H.40899659V.5500183C.40899659 .56399539 .40899659 .5830078 .3889923 .5830078 .36898805 .5830078 .36898805 .56399539 .36898805 .5500183V.27046205H.08898926C.07499695 .27046205 .055999757 .27046205 .055999757 .25045777 .055999757 .23046875 .07499695 .23046875 .08898926 .23046875H.36898805V-.05000305C.36898805-.06401062 .36898805-.08300781 .3889923-.08300781 .40899659-.08300781 .40899659-.06401062 .40899659-.05000305V.23046875Z"/>
</defs>
<path transform="matrix(1.00008,0,0,-1.00005,25.710618,220.56021)" stroke-width=".3985" stroke-linecap="butt" stroke-miterlimit="10" stroke-linejoin="miter" fill="none" stroke="#bfbfbf" d="M0-19.88782V218.75402M24.61047-19.88782V218.75402M49.22096-19.88782V218.75402M73.83144-19.88782V218.75402M98.44193-19.88782V218.75402M147.66289-19.88782V218.75402M172.27338-19.88782V218.75402M196.88385-19.88782V218.75402M221.49434-19.88782V218.75402M246.10483-19.88782V218.75402"/>
<path transform="matrix(1.00008,0,0,-1.00005,25.710618,220.56021)" stroke-width=".3985" stroke-linecap="butt" stroke-miterlimit="10" stroke-linejoin="miter" fill="none" stroke="#bfbfbf" d="M-24.61197 0H270.7168M-24.61197 24.85826H270.7168M-24.61197 74.57481H270.7168M-24.61197 99.43309H270.7168M-24.61197 124.29137H270.7168M-24.61197 149.14965H270.7168M-24.61197 174.00792H270.7168M-24.61197 198.8662H270.7168"/>
<path transform="matrix(1.00008,0,0,-1.00005,25.710618,220.56021)" stroke-width=".19925" stroke-linecap="butt" stroke-miterlimit="10" stroke-linejoin="miter" fill="none" stroke="#7f807f" d="M0 47.59064V51.84244M24.61047 47.59064V51.84244M49.22096 47.59064V51.84244M73.83144 47.59064V51.84244M98.44193 47.59064V51.84244M147.66289 47.59064V51.84244M172.27338 47.59064V51.84244M196.88385 47.59064V51.84244M221.49434 47.59064V51.84244M246.10483 47.59064V51.84244"/>
<path transform="matrix(1.00008,0,0,-1.00005,25.710618,220.56021)" stroke-width=".19925" stroke-linecap="butt" stroke-miterlimit="10" stroke-linejoin="miter" fill="none" stroke="#7f807f" d="M120.92647 0H125.17833M120.92647 24.85826H125.17833M120.92647 74.57481H125.17833M120.92647 99.43309H125.17833M120.92647 124.29137H125.17833M120.92647 149.14965H125.17833M120.92647 174.00792H125.17833M120.92647 198.8662H125.17833"/>
<path transform="matrix(1.00008,0,0,-1.00005,25.710618,220.56021)" stroke-width=".3985" stroke-linecap="butt" stroke-miterlimit="10" stroke-linejoin="miter" fill="none" stroke="#000000" d="M-24.61197 49.71654H268.72428"/>
<path transform="matrix(1.00008,0,0,-1.00005,294.45637,170.84119)" d="M1.99252 0-1.19551 1.59401 0 0-1.19551-1.59401"/>
<path transform="matrix(1.00008,0,0,-1.00005,25.710618,220.56021)" stroke-width=".3985" stroke-linecap="butt" stroke-miterlimit="10" stroke-linejoin="miter" fill="none" stroke="#000000" d="M123.05241-19.88782V216.76149"/>
<path transform="matrix(0,-1.00005,-1.00008,-0,148.77286,3.7878876)" d="M1.99252 0-1.19551 1.59401 0 0-1.19551-1.59401"/>
<use data-text="&#x2212;" xlink:href="#font_1_1" transform="matrix(9.963397,0,0,-9.963098,19.345108,182.90833)"/>
<use data-text="5" xlink:href="#font_2_6" transform="matrix(9.963397,0,0,-9.963098,27.094735,182.90833)"/>
<use data-text="&#x2212;" xlink:href="#font_1_1" transform="matrix(9.963397,0,0,-9.963098,43.957078,182.90833)"/>
<use data-text="4" xlink:href="#font_2_5" transform="matrix(9.963397,0,0,-9.963098,51.706705,182.90833)"/>
<use data-text="&#x2212;" xlink:href="#font_1_1" transform="matrix(9.963397,0,0,-9.963098,68.570049,182.90833)"/>
<use data-text="3" xlink:href="#font_2_4" transform="matrix(9.963397,0,0,-9.963098,76.31967,182.90833)"/>
<use data-text="&#x2212;" xlink:href="#font_1_1" transform="matrix(9.963397,0,0,-9.963098,93.182018,182.90833)"/>
<use data-text="2" xlink:href="#font_2_3" transform="matrix(9.963397,0,0,-9.963098,100.93164,182.90833)"/>
<use data-text="&#x2212;" xlink:href="#font_1_1" transform="matrix(9.963397,0,0,-9.963098,117.79498,182.90833)"/>
<use data-text="1" xlink:href="#font_2_2" transform="matrix(9.963397,0,0,-9.963098,125.54461,182.90833)"/>
<use data-text="1" xlink:href="#font_2_2" transform="matrix(9.963397,0,0,-9.963098,170.89423,182.90833)"/>
<use data-text="2" xlink:href="#font_2_3" transform="matrix(9.963397,0,0,-9.963098,195.5072,182.90833)"/>
<use data-text="3" xlink:href="#font_2_4" transform="matrix(9.963397,0,0,-9.963098,220.11917,182.90833)"/>
<use data-text="4" xlink:href="#font_2_5" transform="matrix(9.963397,0,0,-9.963098,244.73212,182.90833)"/>
<use data-text="5" xlink:href="#font_2_6" transform="matrix(9.963397,0,0,-9.963098,269.3441,182.90833)"/>
<use data-text="&#x2212;" xlink:href="#font_1_1" transform="matrix(9.963397,0,0,-9.963098,130.39499,223.35535)"/>
<use data-text="2" xlink:href="#font_2_3" transform="matrix(9.963397,0,0,-9.963098,138.14463,223.35535)"/>
<use data-text="&#x2212;" xlink:href="#font_1_1" transform="matrix(9.963397,0,0,-9.963098,130.39499,198.49611)"/>
<use data-text="1" xlink:href="#font_2_2" transform="matrix(9.963397,0,0,-9.963098,138.14463,198.49611)"/>
<use data-text="1" xlink:href="#font_2_2" transform="matrix(9.963397,0,0,-9.963098,138.14463,149.19165)"/>
<use data-text="2" xlink:href="#font_2_3" transform="matrix(9.963397,0,0,-9.963098,138.14463,124.332408)"/>
<use data-text="3" xlink:href="#font_2_4" transform="matrix(9.963397,0,0,-9.963098,138.14463,99.47316)"/>
<use data-text="4" xlink:href="#font_2_5" transform="matrix(9.963397,0,0,-9.963098,138.14463,74.61392)"/>
<use data-text="5" xlink:href="#font_2_6" transform="matrix(9.963397,0,0,-9.963098,138.14463,49.753679)"/>
<use data-text="6" xlink:href="#font_2_7" transform="matrix(9.963397,0,0,-9.963098,138.14463,24.89444)"/>
<g clip-path="url(#clip_3)">
<path transform="matrix(1.00008,0,0,-1.00005,25.710618,220.56021)" stroke-width=".79701" stroke-linecap="butt" stroke-miterlimit="10" stroke-linejoin="miter" fill="none" stroke="#ff0000" d="M0 186.43706 10.25418 181.25833 20.50839 176.0796 30.76259 170.90088 41.0168 165.72216 51.27101 160.54344 61.5252 155.3647 71.77942 150.18598 82.03362 145.00727 92.28781 139.82852 102.54202 134.6498 112.79622 129.47107 123.05043 124.29236 133.30464 119.11363 143.55884 113.93489 153.81305 108.7562 164.06725 103.57745 174.32144 98.39873 184.57566 93.22002 194.82985 88.04128 205.08406 82.86255 215.33827 77.68384 225.59247 72.5051 235.84668 67.32637 246.10088 62.14766"/>
<use data-text="y" xlink:href="#font_4_2" transform="matrix(9.963397,0,0,-9.963098,226.13066,114.16689)"/>
<use data-text="=" xlink:href="#font_2_8" transform="matrix(9.963397,0,0,-9.963098,234.1403,114.16689)"/>
<use data-text="&#x2212;" xlink:href="#font_1_1" transform="matrix(9.963397,0,0,-9.963098,244.65715,114.16689)"/>
<use data-text="1" xlink:href="#font_5_1" transform="matrix(6.974358,0,0,-6.9741489,253.60187,110.2447)"/>
<path transform="matrix(1.00008,0,0,-1.00005,118.215038,-90.205318)" stroke-width=".3985" stroke-linecap="butt" stroke-miterlimit="10" stroke-linejoin="miter" fill="none" stroke="#000000" d="M135.376-201.871H139.348"/>
<use data-text="2" xlink:href="#font_5_2" transform="matrix(6.974358,0,0,-6.9741489,253.60187,117.603069)"/>
<use data-text="x" xlink:href="#font_4_1" transform="matrix(9.963397,0,0,-9.963098,258.7693,114.16689)"/>
<use data-text="+" xlink:href="#font_2_1" transform="matrix(9.963397,0,0,-9.963098,266.67793,114.16689)"/>
<use data-text="3" xlink:href="#font_2_4" transform="matrix(9.963397,0,0,-9.963098,276.63136,114.16689)"/>
</g>
<path transform="matrix(1.00008,0,0,-1.00005,25.710618,220.56021)" d="M27.10117 174.00792C27.10117 175.3835 25.98605 176.49861 24.61047 176.49861 23.2349 176.49861 22.11978 175.3835 22.11978 174.00792 22.11978 172.63234 23.2349 171.51723 24.61047 171.51723 25.98605 171.51723 27.10117 172.63234 27.10117 174.00792ZM24.61047 174.00792" fill="#0000ff"/>
<path transform="matrix(1.00008,0,0,-1.00005,25.710618,220.56021)" stroke-width=".3985" stroke-linecap="butt" stroke-miterlimit="10" stroke-linejoin="miter" fill="none" stroke="#0000ff" d="M27.10117 174.00792C27.10117 175.3835 25.98605 176.49861 24.61047 176.49861 23.2349 176.49861 22.11978 175.3835 22.11978 174.00792 22.11978 172.63234 23.2349 171.51723 24.61047 171.51723 25.98605 171.51723 27.10117 172.63234 27.10117 174.00792ZM24.61047 174.00792"/>
<path transform="matrix(1.00008,0,0,-1.00005,25.710618,220.56021)" d="M76.32213 149.14965C76.32213 150.52523 75.20702 151.64034 73.83144 151.64034 72.45586 151.64034 71.34074 150.52523 71.34074 149.14965 71.34074 147.77407 72.45586 146.65895 73.83144 146.65895 75.20702 146.65895 76.32213 147.77407 76.32213 149.14965ZM73.83144 149.14965" fill="#0000ff"/>
<path transform="matrix(1.00008,0,0,-1.00005,25.710618,220.56021)" stroke-width=".3985" stroke-linecap="butt" stroke-miterlimit="10" stroke-linejoin="miter" fill="none" stroke="#0000ff" d="M76.32213 149.14965C76.32213 150.52523 75.20702 151.64034 73.83144 151.64034 72.45586 151.64034 71.34074 150.52523 71.34074 149.14965 71.34074 147.77407 72.45586 146.65895 73.83144 146.65895 75.20702 146.65895 76.32213 147.77407 76.32213 149.14965ZM73.83144 149.14965"/>
<path transform="matrix(1.00008,0,0,-1.00005,25.710618,220.56021)" d="M125.5431 124.29137C125.5431 125.66695 124.428 126.78206 123.05241 126.78206 121.67682 126.78206 120.56172 125.66695 120.56172 124.29137 120.56172 122.91579 121.67682 121.80067 123.05241 121.80067 124.428 121.80067 125.5431 122.91579 125.5431 124.29137ZM123.05241 124.29137" fill="#0000ff"/>
<path transform="matrix(1.00008,0,0,-1.00005,25.710618,220.56021)" stroke-width=".3985" stroke-linecap="butt" stroke-miterlimit="10" stroke-linejoin="miter" fill="none" stroke="#0000ff" d="M125.5431 124.29137C125.5431 125.66695 124.428 126.78206 123.05241 126.78206 121.67682 126.78206 120.56172 125.66695 120.56172 124.29137 120.56172 122.91579 121.67682 121.80067 123.05241 121.80067 124.428 121.80067 125.5431 122.91579 125.5431 124.29137ZM123.05241 124.29137"/>
<path transform="matrix(1.00008,0,0,-1.00005,25.710618,220.56021)" d="M223.98503 74.57481C223.98503 75.9504 222.86992 77.0655 221.49434 77.0655 220.11876 77.0655 219.00365 75.9504 219.00365 74.57481 219.00365 73.19923 220.11876 72.08412 221.49434 72.08412 222.86992 72.08412 223.98503 73.19923 223.98503 74.57481ZM221.49434 74.57481" fill="#0000ff"/>
<path transform="matrix(1.00008,0,0,-1.00005,25.710618,220.56021)" stroke-width=".3985" stroke-linecap="butt" stroke-miterlimit="10" stroke-linejoin="miter" fill="none" stroke="#0000ff" d="M223.98503 74.57481C223.98503 75.9504 222.86992 77.0655 221.49434 77.0655 220.11876 77.0655 219.00365 75.9504 219.00365 74.57481 219.00365 73.19923 220.11876 72.08412 221.49434 72.08412 222.86992 72.08412 223.98503 73.19923 223.98503 74.57481ZM221.49434 74.57481"/>
<path transform="matrix(1.00008,0,0,-1.00005,25.710618,220.56021)" d="M174.76407 99.43309C174.76407 100.80867 173.64896 101.92378 172.27338 101.92378 170.8978 101.92378 169.78269 100.80867 169.78269 99.43309 169.78269 98.05751 170.8978 96.9424 172.27338 96.9424 173.64896 96.9424 174.76407 98.05751 174.76407 99.43309ZM172.27338 99.43309" fill="#0000ff"/>
<path transform="matrix(1.00008,0,0,-1.00005,25.710618,220.56021)" stroke-width=".3985" stroke-linecap="butt" stroke-miterlimit="10" stroke-linejoin="miter" fill="none" stroke="#0000ff" d="M174.76407 99.43309C174.76407 100.80867 173.64896 101.92378 172.27338 101.92378 170.8978 101.92378 169.78269 100.80867 169.78269 99.43309 169.78269 98.05751 170.8978 96.9424 172.27338 96.9424 173.64896 96.9424 174.76407 98.05751 174.76407 99.43309ZM172.27338 99.43309"/>
<path transform="matrix(1.00008,0,0,-1.00005,25.710618,220.56021)" stroke-width=".3985" stroke-linecap="butt" stroke-miterlimit="10" stroke-linejoin="miter" fill="none" stroke="#0000ff" d=""/>
<use data-text="x" xlink:href="#font_4_1" transform="matrix(9.963397,0,0,-9.963098,287.28654,167.31156)"/>
<use data-text="y" xlink:href="#font_4_2" transform="matrix(9.963397,0,0,-9.963098,152.31275,9.565674)"/>
</svg>
