<svg xmlns="http://www.w3.org/2000/svg" xmlns:xlink="http://www.w3.org/1999/xlink" xmlns:inkscape="http://www.inkscape.org/namespaces/inkscape" version="1.1" width="118" height="117" viewBox="0 0 118 117">
<path transform="matrix(1.00003,0,0,-1,2.2955018,87.038)" d="M0 56.69362 56.69362 85.04042 113.38724 56.69362 56.69362 28.3468Z" fill="#ffcc99"/>
<path transform="matrix(1.00003,0,0,-1,2.2955018,87.038)" stroke-width=".79701" stroke-linecap="butt" stroke-miterlimit="10" stroke-linejoin="miter" fill="none" stroke="#000000" d="M0 56.69362 56.69362 85.04042 113.38724 56.69362 56.69362 28.3468Z"/>
<path transform="matrix(1.00003,0,0,-1,2.2955018,87.038)" d="M0 56.69362 56.69362 28.3468V-28.3468L0 0Z" fill="#add8e6"/>
<path transform="matrix(1.00003,0,0,-1,2.2955018,87.038)" stroke-width=".79701" stroke-linecap="butt" stroke-miterlimit="10" stroke-linejoin="miter" fill="none" stroke="#000000" d="M0 56.69362 56.69362 28.3468V-28.3468L0 0Z"/>
<path transform="matrix(1.00003,0,0,-1,2.2955018,87.038)" d="M113.38724 56.69362 56.69362 28.3468V-28.3468L113.38724 0Z" fill="#add8e6"/>
<path transform="matrix(1.00003,0,0,-1,2.2955018,87.038)" stroke-width=".79701" stroke-linecap="butt" stroke-miterlimit="10" stroke-linejoin="miter" fill="none" stroke="#000000" d="M113.38724 56.69362 56.69362 28.3468V-28.3468L113.38724 0Z"/>
<path transform="matrix(1.00003,0,0,-1,2.2955018,87.038)" stroke-width=".79701" stroke-linecap="butt" stroke-miterlimit="10" stroke-linejoin="miter" fill="none" stroke="#000000" d="M0 56.69362 56.69362 85.04042 113.38724 56.69362"/>
<path transform="matrix(1.00003,0,0,-1,2.2955018,87.038)" stroke-width=".79701" stroke-linecap="butt" stroke-miterlimit="10" stroke-linejoin="miter" fill="none" stroke="#000000" d="M0 56.69362V0"/>
<path transform="matrix(1.00003,0,0,-1,2.2955018,87.038)" stroke-width=".79701" stroke-linecap="butt" stroke-miterlimit="10" stroke-linejoin="miter" fill="none" stroke="#000000" d="M113.38724 56.69362V0"/>
<path transform="matrix(1.00003,0,0,-1,2.2955018,87.038)" stroke-width=".79701" stroke-linecap="butt" stroke-miterlimit="10" stroke-linejoin="miter" fill="none" stroke="#000000" d="M0 0 56.69362-28.3468 113.38724 0"/>
</svg>
