<svg xmlns="http://www.w3.org/2000/svg" xmlns:xlink="http://www.w3.org/1999/xlink" xmlns:inkscape="http://www.inkscape.org/namespaces/inkscape" version="1.1" width="174" height="287" viewBox="0 0 174 287">
<defs>
<path id="font_1_2" d="M.2869873 .6603241C.29100038 .67433169 .29100038 .67633059 .29100038 .68032839 .29100038 .68933108 .2849884 .69433596 .27598573 .69433596 .2619934 .69433596 .17399597 .6863251 .1539917 .6843262 .14399719 .68333438 .1329956 .6823273 .1329956 .665329 .1329956 .6523285 .14399719 .6523285 .1599884 .6523285 .20698548 .6523285 .20698548 .6453247 .20698548 .6363373 .20698548 .6323395 .20698548 .6303406 .20199585 .6123352L.05899048 .037261964C.054992677 .023254395 .054992677 .021255494 .054992677 .018249512 .054992677 .002243042 .067993167-.0107421879 .085998538-.0107421879 .102996829-.0107421879 .116989139-.00074768069 .12399292 .013244629 .12599182 .018249512 .1349945 .054260255 .13999939 .07527161L.16299439 .16429138C.1659851 .17930603 .17599488 .21731568 .1789856 .23231507L.19099427 .27633668C.19599915 .29934693 .25299073 .41737367 .36099244 .41737367 .4149933 .41737367 .4149933 .36436463 .4149933 .34735108 .4149933 .28633119 .36799623 .16429138 .35699464 .13328552 .34498597 .10227966 .34098817 .0922699 .34098817 .073272708 .34098817 .019256592 .38198854-.0107421879 .4269867-.0107421879 .522995-.0107421879 .56199648 .1322937 .56199648 .14329529 .56199648 .14828491 .5589905 .1552887 .548996 .1552887 .5379944 .1552887 .5369873 .15029907 .5329895 .13728333 .5079956 .052261354 .46598817 .014251709 .42999269 .014251709 .4229889 .014251709 .40499879 .014251709 .40499879 .04626465 .40499879 .0712738 .4149933 .09727478 .4229889 .119277957 .44299317 .17030335 .48298646 .27633668 .48298646 .33235169 .48298646 .42137147 .4169922 .4423828 .3639984 .4423828 .3039856 .4423828 .25299073 .41438294 .21299744 .36535646L.2869873 .6603241Z"/>
<path id="font_2_1" d="M.3039856 .6392822C.3039856 .6642761 .30299378 .666275 .27799989 .666275 .21598816 .60227969 .12399292 .60227969 .09298706 .60227969V.57128909C.11199951 .57128909 .17298889 .57128909 .22698975 .5972748V.08001709C.22698975 .042999269 .22399903 .0309906 .1309967 .0309906H.09899902V0C.1349945 .0029907227 .22399903 .0029907227 .2649994 .0029907227 .30599977 .0029907227 .3959961 .0029907227 .43199159 0V.0309906H.3999939C.30699159 .0309906 .3039856 .042999269 .3039856 .08001709V.6392822Z"/>
<path id="font_2_2" d="M.0289917 .19602967V.16503906H.3019867V.07901001C.3019867 .041992189 .29899598 .0309906 .22399903 .0309906H.20199585V0C.2649994 .0029907227 .33499146 .0029907227 .34199525 .0029907227 .34700013 .0029907227 .4189911 .0029907227 .48199464 0V.0309906H.45999146C.3849945 .0309906 .38198854 .041992189 .38198854 .07901001V.16503906H.48399354V.19602967H.38198854V.64974978C.38198854 .669754 .38198854 .6767578 .36299134 .6767578 .35099793 .6767578 .34999085 .67575076 .34098817 .66174319L.0289917 .19602967M.06098938 .19602967 .30799867 .56581118V.19602967H.06098938Z"/>
<path id="font_1_1" d="M.4019928 .38200379C.3639984 .38101197 .34399415 .352005 .34399415 .3270111 .34399415 .29800416 .36999513 .29101563 .38198854 .29101563 .4019928 .29101563 .43798829 .30801393 .43798829 .355011 .43798829 .40827943 .3849945 .4423828 .31599427 .4423828 .17999268 .4423828 .042999269 .30400086 .042999269 .16012573 .042999269 .06021118 .10998535-.0107421879 .21099854-.0107421879 .36099244-.0107421879 .44499208 .093185428 .44499208 .106170658 .44499208 .11216736 .43798829 .120162967 .43099977 .120162967 .42599488 .120162967 .4249878 .119155887 .41600038 .108169559 .35598756 .034225465 .2649994 .014251709 .21299744 .014251709 .15699768 .014251709 .11999512 .051223756 .11999512 .12315369 .11999512 .16612244 .13899231 .2650299 .1789856 .32901 .20199585 .3650055 .2539978 .41737367 .31698609 .41737367 .33599855 .41737367 .37799073 .41333009 .4019928 .38200379Z"/>
<path id="font_1_3" d="M.18899536 .15730286C.19999695 .20431519 .21899414 .2773285 .21998596 .28533937 .22200012 .29133607 .24699402 .33935548 .2829895 .37435914 .31199647 .4013672 .34999085 .41737367 .3889923 .41737367 .44299317 .41737367 .44299317 .36436463 .44299317 .34735108 .44299317 .33535768 .44299317 .3213501 .43099977 .27233888L.4079895 .18330384C.37599183 .054260255 .36799623 .023254395 .36799623 .018249512 .36799623 .0052490236 .3769989-.0107421879 .39898683-.0107421879 .41299439-.0107421879 .42799378-.0017547608 .43499757 .010253906 .43798829 .01625061 .44599916 .04826355 .45098878 .06826782L.47399903 .15730286C.4850006 .20431519 .5039978 .2773285 .5049896 .28533937 .5069885 .29133607 .5319977 .33935548 .56799319 .37435914 .5970001 .4013672 .6349945 .41737367 .673996 .41737367 .7279968 .41737367 .7279968 .36436463 .7279968 .34735108 .7279968 .28633119 .68099978 .16429138 .66999819 .13328552 .6579895 .10227966 .6539917 .0922699 .6539917 .073272708 .6539917 .019256592 .69499209-.0107421879 .73999026-.0107421879 .83599856-.0107421879 .875 .1322937 .875 .14329529 .875 .14828491 .871994 .1552887 .8619995 .1552887 .8509979 .1552887 .84999087 .15029907 .84599307 .13728333 .82099917 .052261354 .7789917 .014251709 .7429962 .014251709 .73599246 .014251709 .71798709 .014251709 .71798709 .04626465 .71798709 .0712738 .7279968 .09727478 .73599246 .119277957 .7559967 .17030335 .79599 .27633668 .79599 .33235169 .79599 .42137147 .7299957 .4423828 .6769867 .4423828 .58200076 .4423828 .5299988 .3713684 .5119934 .34635926 .5019989 .42938233 .43399049 .4423828 .3919983 .4423828 .29899598 .4423828 .25 .37635804 .23399353 .35536195 .22799683 .40937806 .18699646 .4423828 .13699341 .4423828 .09498596 .4423828 .07398987 .41137696 .05999756 .3843689 .042999269 .34934999 .0289917 .29234315 .0289917 .28833009 .0289917 .2793274 .035995485 .27633668 .042999269 .27633668 .053985597 .27633668 .055999757 .28134156 .06098938 .30134584 .07998657 .3803711 .100997928 .41737367 .1349945 .41737367 .16499329 .41737367 .16499329 .38536073 .16499329 .37036134 .16499329 .34934999 .15699768 .31834413 .15098572 .29234315 .14399719 .2663269 .13398743 .22331238 .12998963 .21131897L.08999634 .04725647C.08299255 .023254395 .08299255 .021255494 .08299255 .018249512 .08299255 .0052490236 .09199524-.0107421879 .11399841-.0107421879 .12799073-.0107421879 .14299011-.0017547608 .1499939 .010253906 .15299988 .01625061 .16099549 .04826355 .1659851 .06826782L.18899536 .15730286Z"/>
</defs>
<path transform="matrix(1.00002,0,0,-1.00005,87.33537,143.73738)" d="M-85.04042-56.69362V56.69362H85.04042V-56.69362ZM85.04042 56.69362" fill="#cc3366"/>
<path transform="matrix(1.00002,0,0,-1.00005,87.33537,143.73738)" stroke-width=".79701" stroke-linecap="butt" stroke-miterlimit="10" stroke-linejoin="miter" fill="none" stroke="#000000" d="M-85.04042-56.69362V56.69362H85.04042V-56.69362ZM85.04042 56.69362"/>
<path transform="matrix(1.00002,0,0,-1.00005,87.33537,143.73738)" d="M42.5202 99.21382C42.5202 122.69737 23.48355 141.73403 0 141.73403-23.48355 141.73403-42.5202 122.69737-42.5202 99.21382-42.5202 75.73026-23.48355 56.69362 0 56.69362 23.48355 56.69362 42.5202 75.73026 42.5202 99.21382ZM0 99.21382" fill="#ff9933"/>
<path transform="matrix(1.00002,0,0,-1.00005,87.33537,143.73738)" stroke-width=".79701" stroke-linecap="butt" stroke-miterlimit="10" stroke-linejoin="miter" fill="none" stroke="#000000" d="M42.5202 99.21382C42.5202 122.69737 23.48355 141.73403 0 141.73403-23.48355 141.73403-42.5202 122.69737-42.5202 99.21382-42.5202 75.73026-23.48355 56.69362 0 56.69362 23.48355 56.69362 42.5202 75.73026 42.5202 99.21382ZM0 99.21382"/>
<path transform="matrix(1.00002,0,0,-1.00005,87.33537,143.73738)" d="M42.5202-99.21382C42.5202-75.73026 23.48355-56.69362 0-56.69362-23.48355-56.69362-42.5202-75.73026-42.5202-99.21382-42.5202-122.69737-23.48355-141.73403 0-141.73403 23.48355-141.73403 42.5202-122.69737 42.5202-99.21382ZM0-99.21382" fill="#ff9933"/>
<path transform="matrix(1.00002,0,0,-1.00005,87.33537,143.73738)" stroke-width=".79701" stroke-linecap="butt" stroke-miterlimit="10" stroke-linejoin="miter" fill="none" stroke="#000000" d="M42.5202-99.21382C42.5202-75.73026 23.48355-56.69362 0-56.69362-23.48355-56.69362-42.5202-75.73026-42.5202-99.21382-42.5202-122.69737-23.48355-141.73403 0-141.73403 23.48355-141.73403 42.5202-122.69737 42.5202-99.21382ZM0-99.21382"/>
<path transform="matrix(1.00002,0,0,-1.00005,87.33537,143.73738)" stroke-width=".3985" stroke-linecap="butt" stroke-dasharray="2.98883,2.98883" stroke-miterlimit="10" stroke-linejoin="miter" fill="none" stroke="#000000" d="M0-102.04868V102.04868"/>
<use data-text="h" xlink:href="#font_1_2" transform="matrix(8.966579,0,0,-8.966848,90.855449,146.85054)"/>
<path transform="matrix(1.00002,0,0,-1.00005,87.33537,143.73738)" stroke-width=".3985" stroke-linecap="butt" stroke-dasharray="2.98883,2.98883" stroke-miterlimit="10" stroke-linejoin="miter" fill="none" stroke="#000000" d="M0 102.04868H42.5202"/>
<path transform="matrix(1.00002,0,0,-1.00005,87.33537,143.73738)" stroke-width=".3985" stroke-linecap="butt" stroke-dasharray="2.98883,2.98883" stroke-miterlimit="10" stroke-linejoin="miter" fill="none" stroke="#000000" d="M0-102.04868H42.5202"/>
<use data-text="1" xlink:href="#font_2_1" transform="matrix(8.966579,0,0,-8.966848,102.19367,38.903146)"/>
<use data-text="4" xlink:href="#font_2_2" transform="matrix(8.966579,0,0,-8.966848,106.793529,38.903146)"/>
<use data-text="c" xlink:href="#font_1_1" transform="matrix(8.966579,0,0,-8.966848,111.40986,38.903146)"/>
<use data-text="m" xlink:href="#font_1_3" transform="matrix(8.966579,0,0,-8.966848,115.391017,38.903146)"/>
<use data-text="1" xlink:href="#font_2_1" transform="matrix(8.966579,0,0,-8.966848,102.19367,254.34992)"/>
<use data-text="4" xlink:href="#font_2_2" transform="matrix(8.966579,0,0,-8.966848,106.793529,254.34992)"/>
<use data-text="c" xlink:href="#font_1_1" transform="matrix(8.966579,0,0,-8.966848,111.40986,254.34992)"/>
<use data-text="m" xlink:href="#font_1_3" transform="matrix(8.966579,0,0,-8.966848,115.391017,254.34992)"/>
</svg>
