<svg xmlns="http://www.w3.org/2000/svg" xmlns:xlink="http://www.w3.org/1999/xlink" xmlns:inkscape="http://www.inkscape.org/namespaces/inkscape" version="1.1" width="118" height="89" viewBox="0 0 118 89">
<path transform="matrix(1.00002,0,0,-1.00002,30.642235,58.692857)" d="M0 0V28.3468H28.3468V0ZM28.3468 28.3468" fill="#add8e6"/>
<path transform="matrix(1.00002,0,0,-1.00002,30.642235,58.692857)" stroke-width=".79701" stroke-linecap="butt" stroke-miterlimit="10" stroke-linejoin="miter" fill="none" stroke="#000000" d="M0 0V28.3468H28.3468V0ZM28.3468 28.3468"/>
<path transform="matrix(1.00002,0,0,-1.00002,30.642235,58.692857)" d="M28.3468 0V28.3468H56.69362V0ZM56.69362 28.3468" fill="#add8e6"/>
<path transform="matrix(1.00002,0,0,-1.00002,30.642235,58.692857)" stroke-width=".79701" stroke-linecap="butt" stroke-miterlimit="10" stroke-linejoin="miter" fill="none" stroke="#000000" d="M28.3468 0V28.3468H56.69362V0ZM56.69362 28.3468"/>
<path transform="matrix(1.00002,0,0,-1.00002,30.642235,58.692857)" d="M56.69362 0V28.3468H85.04042V0ZM85.04042 28.3468" fill="#add8e6"/>
<path transform="matrix(1.00002,0,0,-1.00002,30.642235,58.692857)" stroke-width=".79701" stroke-linecap="butt" stroke-miterlimit="10" stroke-linejoin="miter" fill="none" stroke="#000000" d="M56.69362 0V28.3468H85.04042V0ZM85.04042 28.3468"/>
<path transform="matrix(1.00002,0,0,-1.00002,30.642235,58.692857)" d="M28.3468 28.3468V56.69362H56.69362V28.3468ZM56.69362 56.69362" fill="#ffcc99"/>
<path transform="matrix(1.00002,0,0,-1.00002,30.642235,58.692857)" stroke-width=".79701" stroke-linecap="butt" stroke-miterlimit="10" stroke-linejoin="miter" fill="none" stroke="#000000" d="M28.3468 28.3468V56.69362H56.69362V28.3468ZM56.69362 56.69362"/>
<path transform="matrix(1.00002,0,0,-1.00002,30.642235,58.692857)" d="M28.3468-28.3468V0H56.69362V-28.3468ZM56.69362 0" fill="#ffcc99"/>
<path transform="matrix(1.00002,0,0,-1.00002,30.642235,58.692857)" stroke-width=".79701" stroke-linecap="butt" stroke-miterlimit="10" stroke-linejoin="miter" fill="none" stroke="#000000" d="M28.3468-28.3468V0H56.69362V-28.3468ZM56.69362 0"/>
<path transform="matrix(1.00002,0,0,-1.00002,30.642235,58.692857)" d="M-28.3468 0V28.3468H0V0ZM0 28.3468" fill="#add8e6"/>
<path transform="matrix(1.00002,0,0,-1.00002,30.642235,58.692857)" stroke-width=".79701" stroke-linecap="butt" stroke-miterlimit="10" stroke-linejoin="miter" fill="none" stroke="#000000" d="M-28.3468 0V28.3468H0V0ZM0 28.3468"/>
</svg>
