<svg xmlns="http://www.w3.org/2000/svg" xmlns:xlink="http://www.w3.org/1999/xlink" xmlns:inkscape="http://www.inkscape.org/namespaces/inkscape" version="1.1" width="109" height="25" viewBox="0 0 109 25">
<defs>
<path id="font_1_1" d="M.36799623 .61460879C.3769989 .6516113 .3809967 .6536102 .41999818 .6536102H.49198915C.5779877 .6536102 .6419983 .62760928 .6419983 .54959109 .6419983 .49858094 .6159973 .3515625 .4149933 .3515625H.3019867L.36799623 .61460879M.5069885 .33955384C.6309967 .3665619 .7279968 .44657899 .7279968 .5325928 .7279968 .6105957 .6489868 .6826172 .5099945 .6826172H.23899842C.21899414 .6826172 .20999146 .6826172 .20999146 .66360476 .20999146 .6536102 .21699524 .6536102 .23599243 .6536102 .29599 .6536102 .29599 .6456146 .29599 .63461306 .29599 .6325989 .29599 .6266022 .2919922 .6116028L.15699768 .073516849C.147995 .038513185 .1459961 .028518677 .07699585 .028518677 .053985597 .028518677 .04699707 .028518677 .04699707 .009506226 .04699707-.00048828127 .057998659-.00048828127 .06098938-.00048828127 .07899475-.00048828127 .099990848 .0015106201 .11898804 .0015106201H.23699951C.25498963 .0015106201 .27598573-.00048828127 .2939911-.00048828127 .3019867-.00048828127 .31298829-.00048828127 .31298829 .018508912 .31298829 .028518677 .3039856 .028518677 .2889862 .028518677 .22799683 .028518677 .22799683 .036514284 .22799683 .04650879 .22799683 .04751587 .22799683 .054519655 .22999573 .06251526L.29699708 .33155824H.4169922C.5119934 .33155824 .5299988 .2715454 .5299988 .23854065 .5299988 .22354126 .519989 .1845398 .5130005 .15852356 .5019989 .11251831 .49899293 .10151672 .49899293 .08251953 .49899293 .011505127 .5569916-.021484375 .6239929-.021484375 .7049866-.021484375 .73999026 .07751465 .73999026 .09152222 .73999026 .098526 .7350006 .10151672 .72898867 .10151672 .72099307 .10151672 .71899417 .09552002 .71699526 .087524417 .69299319 .01651001 .6519928-.0014953613 .6269989-.0014953613 .60198977-.0014953613 .58599856 .009506226 .58599856 .054519655 .58599856 .07852173 .59799197 .16952515 .598999 .17453003 .60398867 .2115326 .60398867 .2155304 .60398867 .22354126 .60398867 .29655458 .54499819 .32754518 .5069885 .33955384Z"/>
<path id="font_1_2" d="M.30099488 .119277957C.29599 .102264408 .29599 .1002655 .28199769 .08125305 .2599945 .053237916 .21598816 .010223389 .16899109 .010223389 .12799073 .010223389 .10499573 .04724121 .10499573 .10626221 .10499573 .1612854 .13598633 .2733307 .15499878 .3153534 .18899536 .38539125 .23599243 .42140199 .2749939 .42140199 .34098817 .42140199 .35398866 .33937074 .35398866 .33135987 .35398866 .33036805 .35099793 .3173523 .34999085 .3153534L.30099488 .119277957M.36499024 .37538148C.35398866 .4013977 .32699586 .44140626 .2749939 .44140626 .1619873 .44140626 .039993287 .29534913 .039993287 .14727783 .039993287 .04824829 .09799194-.009765625 .1659851-.009765625 .22099304-.009765625 .2679901 .033233644 .29599 .06625366 .30599977 .007232666 .35299684-.009765625 .3829956-.009765625 .41299439-.009765625 .43699647 .008224487 .45498658 .04423523 .47099305 .07824707 .4850006 .13926697 .4850006 .14326477 .4850006 .14826966 .48098756 .15226746 .47499085 .15226746 .46598817 .15226746 .46499635 .14726258 .46099855 .13226319 .44599916 .07324219 .4269867 .010223389 .38598634 .010223389 .35699464 .010223389 .35499574 .036239625 .35499574 .056243898 .35499574 .07923889 .35798646 .09025574 .36698915 .1292572 .37399293 .15426636 .3789978 .17626953 .3869934 .20527649 .42399598 .35533143 .43299867 .39134217 .43299867 .39733888 .43299867 .41133119 .42199708 .42233277 .40699769 .42233277 .375 .42233277 .36698915 .3873291 .36499024 .3753357V.37538148Z"/>
<path id="font_1_3" d="M.5029907 .6693268C.5039978 .6733246 .5059967 .6793213 .5059967 .6843262 .5059967 .69433596 .49598695 .69433596 .49398805 .69433596 .49299623 .69433596 .44400025 .6903229 .43899537 .68933108 .42199708 .688324 .40699769 .6863251 .3889923 .68533328 .3639984 .68333438 .35699464 .6823273 .35699464 .6643219 .35699464 .6543274 .36499024 .6543274 .3789978 .6543274 .42799378 .6543274 .42900086 .6453247 .42900086 .6353302 .42900086 .6293335 .4269867 .6213379 .42599488 .61834719L.36499024 .37538148C.35398866 .4013977 .32699586 .44140626 .2749939 .44140626 .1619873 .44140626 .039993287 .29534913 .039993287 .14727783 .039993287 .04824829 .09799194-.009765625 .1659851-.009765625 .22099304-.009765625 .2679901 .033233644 .29599 .06625366 .30599977 .007232666 .35299684-.009765625 .3829956-.009765625 .41299439-.009765625 .43699647 .008224487 .45498658 .04423523 .47099305 .07826233 .4850006 .13928223 .4850006 .14328003 .4850006 .14828491 .48098756 .15228272 .47499085 .15228272 .46598817 .15228272 .46499635 .14727783 .46099855 .13227844 .44599916 .07325745 .4269867 .010223389 .38598634 .010223389 .35699464 .010223389 .35499574 .036239625 .35499574 .056243898 .35499574 .0602417 .35499574 .08125305 .3619995 .10926819L.5029907 .6693268M.30099488 .119277957C.29599 .102264408 .29599 .1002655 .28199769 .08125305 .2599945 .053237916 .21598816 .010223389 .16899109 .010223389 .12799073 .010223389 .10499573 .04724121 .10499573 .10626221 .10499573 .1612854 .13598633 .2733307 .15499878 .3153534 .18899536 .38539125 .23599243 .42140199 .2749939 .42140199 .34098817 .42140199 .35398866 .33937074 .35398866 .33135987 .35398866 .33036805 .35099793 .3173523 .34999085 .3153534L.30099488 .119277957Z"/>
<path id="font_1_4" d="M.2829895 .14328003C.2829895 .14828491 .2789917 .15228272 .272995 .15228272 .2639923 .15228272 .2630005 .14929199 .2579956 .13227844 .23199463 .041244508 .19099427 .010223389 .1579895 .010223389 .1459961 .010223389 .13198853 .01322937 .13198853 .04324341 .13198853 .070251468 .14399719 .1002655 .15499878 .13027954L.22499085 .31636048C.22799683 .32435609 .23498535 .34236146 .23498535 .3613739 .23498535 .4033966 .20498657 .44140626 .1559906 .44140626 .06399536 .44140626 .026992798 .29634095 .026992798 .28834535 .026992798 .28434754 .0309906 .27934266 .037994386 .27934266 .04699707 .27934266 .04798889 .28334046 .051986696 .29734803 .07598877 .38137818 .11399841 .42140199 .15299988 .42140199 .1619873 .42140199 .1789856 .4203949 .1789856 .38838197 .1789856 .36238099 .1659851 .32936097 .1579895 .3073578L.08799744 .121276859C.08198547 .105270389 .07598877 .089263919 .07598877 .071258548 .07598877 .026229859 .10699463-.009765625 .15499878-.009765625 .24699402-.009765625 .2829895 .13627625 .2829895 .14328003M.2749939 .6242218C.2749939 .6392212 .2630005 .65722659 .24099732 .65722659 .21798706 .65722659 .19198609 .6352234 .19198609 .6092224 .19198609 .58421328 .21299744 .57621768 .22499085 .57621768 .2519989 .57621768 .2749939 .6022186 .2749939 .6242218Z"/>
<path id="font_1_6" d="M.34098817 .058151246C.35398866 .0022277833 .4019928-.009765625 .42599488-.009765625 .45799256-.009765625 .48199464 .011230469 .49798585 .045181276 .5149994 .08113098 .5279999 .14004517 .5279999 .14303589 .5279999 .14802552 .5239868 .15202332 .5179901 .15202332 .5089874 .15202332 .5079956 .14703369 .5039978 .13204956 .48599244 .06315613 .46798707 .010223389 .42799378 .010223389 .397995 .010223389 .397995 .043182374 .397995 .056167604 .397995 .07913208 .40098573 .08911133 .41099549 .13105774 .41799928 .15802002 .4249878 .1849823 .43099977 .2129364L.47200013 .3757019C.47898866 .40066529 .47898866 .40266419 .47898866 .4056549 .47898866 .4206543 .46699525 .43066407 .45199586 .43066407 .4229889 .43066407 .41600038 .4056549 .4099884 .38069154 .3999939 .3417511 .34599305 .12705994 .33898927 .09210205 .33799745 .09225464 .29899598 .010223389 .22599793 .010223389 .17399597 .010223389 .1639862 .055252077 .1639862 .09225464 .1639862 .14929199 .19198609 .22932434 .21798706 .29634095 .22999573 .32835389 .23498535 .34136964 .23498535 .3613739 .23498535 .40438844 .20399475 .44140626 .1559906 .44140626 .06399536 .44140626 .026992798 .29634095 .026992798 .28834535 .026992798 .28434754 .0309906 .27934266 .037994386 .27934266 .04699707 .27934266 .04798889 .28334046 .051986696 .29734803 .07598877 .38337709 .114990238 .42140199 .15299988 .42140199 .16299439 .42140199 .1789856 .4203949 .1789856 .38838197 .1789856 .36238099 .16799927 .33335877 .15299988 .29534913 .10899353 .17630005 .10398865 .13827515 .10398865 .10826111 .10398865 .006225586 .18099976-.009765625 .22200012-.009765625 .28599549-.009765625 .32099916 .034194948 .34098817 .058151246Z"/>
<path id="font_1_5" d="M.22799683 .2002716C.24499512 .19728089 .27198792 .19128418 .27799989 .19029236 .29100038 .18629456 .33599855 .1703186 .33599855 .12234497 .33599855 .09135437 .30799867 .010223389 .19198609 .010223389 .17098999 .010223389 .09599304 .01322937 .07598877 .068359378 .115997318 .06333923 .13598633 .09434509 .13598633 .11634827 .13598633 .13734436 .12199402 .14834595 .101989749 .14834595 .07998657 .14834595 .050994874 .13134766 .050994874 .08634949 .050994874 .027267456 .11099243-.009765625 .19099427-.009765625 .34298707-.009765625 .3880005 .10235596 .3880005 .15434265 .3880005 .16932678 .3880005 .19728089 .35598756 .22923279 .33099366 .25320436 .30699159 .25819398 .25299073 .2691803 .22599793 .275177 .18299866 .28416444 .18299866 .32913209 .18299866 .34913636 .20098877 .42140199 .29599 .42140199 .33799745 .42140199 .3789978 .4053192 .3889923 .36914063 .34498597 .36914063 .34298707 .33113099 .34298707 .33013917 .34298707 .3091278 .3619995 .3031311 .37098695 .3031311 .3849945 .3031311 .41299439 .3141327 .41299439 .35614015 .41299439 .3982849 .375 .44140626 .29699708 .44140626 .1659851 .44140626 .1309967 .33813478 .1309967 .2971344 .1309967 .22125244 .20498657 .20527649 .22799683 .2002716Z"/>
<path id="font_2_85" d="M.38198854-.23503113C.38198854-.23002625 .3789978-.22503662 .3789978-.22503662 .34999085-.19802857 .2849884-.13702393 .24299622-.009033203 .21699524 .06997681 .20498657 .16197205 .20498657 .24998474 .20498657 .4469757 .2559967 .60398867 .3659973 .7149811 .3809967 .72998049 .38198854 .73098757 .38198854 .73599246 .38198854 .74697878 .37199403 .75 .3639984 .75 .34700013 .75 .30499269 .7129822 .2869873 .6959839 .1309967 .5409851 .10798645 .35697938 .10798645 .25097657 .10798645 .12597656 .14099121 .015975953 .18798828-.06703186 .2539978-.18203736 .34498597-.24902344 .3639984-.24902344 .37199403-.24902344 .38198854-.24603272 .38198854-.23503113Z"/>
<path id="font_2_35" d="M.59999087 .22319031C.59999087 .3561859 .5059967 .4501953 .36099244 .4501953 .28799439 .4501953 .23799134 .42118836 .21398926 .40118409V.69433596L.036987306 .6863251V.639328C.09899902 .639328 .10598755 .639328 .10598755 .600296V.00018310547H.15299988C.16899109 .019180298 .18598938 .03718567 .20199585 .05618286 .20999146 .04814148 .25898744-.005859375 .34799195-.005859375 .49699403-.005859375 .59999087 .08413696 .59999087 .22315979V.22319031M.47200013 .22315979C.47200013 .17614746 .47200013 .12113953 .44599916 .08213806 .4169922 .041137697 .37098695 .030136109 .33898927 .030136109 .2689972 .030136109 .22999573 .08413696 .21998596 .09913635V.35017396C.24699402 .3851776 .29499818 .41418458 .34999085 .41418458 .47200013 .41418458 .47200013 .2931671 .47200013 .22315979Z"/>
<path id="font_2_86" d="M.33799745 .24998474C.33799745 .37498475 .30499269 .48498536 .2579956 .5679779 .19198609 .6829834 .100997928 .75 .08198547 .75 .07398987 .75 .06399536 .74697878 .06399536 .73599246 .06399536 .73098757 .06399536 .72898867 .08099365 .7129822 .20698548 .5849762 .24099732 .40797425 .24099732 .25097657 .24099732 .053970338 .18998719-.103027347 .07998657-.21403504 .06498718-.22903443 .06399536-.23002625 .06399536-.23503113 .06399536-.24603272 .07398987-.24902344 .08198547-.24902344 .09899902-.24902344 .14099121-.21203614 .15899658-.19502259 .31498719-.040023805 .33799745 .14398194 .33799745 .24998474Z"/>
</defs>
<path transform="matrix(1,0,0,-1.00008,57.988008,21.071646)" d="M-56.69362 0C-56.69362-31.31142-31.3114-56.69363 0-56.69363V0Z" fill="#ffffff"/>
<path transform="matrix(1,0,0,-1.00008,57.988008,21.071646)" stroke-width=".79701" stroke-linecap="butt" stroke-miterlimit="10" stroke-linejoin="miter" fill="none" stroke="#000000" d="M0 0H-55.98625"/>
<path transform="matrix(-1,-0,0,1.00008,2.0017548,21.071646)" stroke-width=".6376" stroke-linecap="round" stroke-linejoin="round" fill="none" stroke="#000000" d="M-1.55415 2.0722C-1.42464 1.29512 0 .1295 .38852 0 0-.1295-1.42464-1.29512-1.55415-2.0722"/>
<use data-text="R" xlink:href="#font_1_1" transform="matrix(11.9552,0,0,-11.956157,10.938004,17.352349)"/>
<use data-text="a" xlink:href="#font_1_2" transform="matrix(11.9552,0,0,-11.956157,19.940278,17.352349)"/>
<use data-text="d" xlink:href="#font_1_3" transform="matrix(11.9552,0,0,-11.956157,26.08525,17.352349)"/>
<use data-text="i" xlink:href="#font_1_4" transform="matrix(11.9552,0,0,-11.956157,32.158494,17.352349)"/>
<use data-text="u" xlink:href="#font_1_6" transform="matrix(11.9552,0,0,-11.956157,36.151536,17.352349)"/>
<use data-text="s" xlink:href="#font_1_5" transform="matrix(11.9552,0,0,-11.956157,42.810579,17.352349)"/>
<path transform="matrix(1,0,0,-1.00008,57.988008,21.071646)" d="M1.99255 0C1.99255 1.10046 1.10046 1.99255 0 1.99255-1.10046 1.99255-1.99255 1.10046-1.99255 0-1.99255-1.10046-1.10046-1.99255 0-1.99255 1.10046-1.99255 1.99255-1.10046 1.99255 0ZM0 0"/>
<use data-text="(" xlink:href="#font_2_85" transform="matrix(9.9626,0,0,-9.963397,92.87201,9.392712)"/>
<use data-text="b" xlink:href="#font_2_35" transform="matrix(9.9626,0,0,-9.963397,97.32529,9.392712)"/>
<use data-text=")" xlink:href="#font_2_86" transform="matrix(9.9626,0,0,-9.963397,103.69139,9.392712)"/>
</svg>
