<svg xmlns="http://www.w3.org/2000/svg" xmlns:xlink="http://www.w3.org/1999/xlink" xmlns:inkscape="http://www.inkscape.org/namespaces/inkscape" version="1.1" width="259" height="32" viewBox="0 0 259 32">
<path transform="matrix(1.00008,0,0,-1.00003,2.0966492,30.147427)" d="M0 0V28.3468H28.3468V0ZM28.3468 28.3468" fill="#0000ff"/>
<path transform="matrix(1.00008,0,0,-1.00003,2.0966492,30.147427)" stroke-width=".3985" stroke-linecap="butt" stroke-miterlimit="10" stroke-linejoin="miter" fill="none" stroke="#000000" d="M0 0V28.3468H28.3468V0ZM28.3468 28.3468"/>
<path transform="matrix(1.00008,0,0,-1.00003,2.0966492,30.147427)" d="M28.3468 0V28.3468H56.69362V0ZM56.69362 28.3468" fill="#0000ff"/>
<path transform="matrix(1.00008,0,0,-1.00003,2.0966492,30.147427)" stroke-width=".3985" stroke-linecap="butt" stroke-miterlimit="10" stroke-linejoin="miter" fill="none" stroke="#000000" d="M28.3468 0V28.3468H56.69362V0ZM56.69362 28.3468"/>
<path transform="matrix(1.00008,0,0,-1.00003,2.0966492,30.147427)" d="M56.69362 0V28.3468H85.04042V0ZM85.04042 28.3468" fill="#0000ff"/>
<path transform="matrix(1.00008,0,0,-1.00003,2.0966492,30.147427)" stroke-width=".3985" stroke-linecap="butt" stroke-miterlimit="10" stroke-linejoin="miter" fill="none" stroke="#000000" d="M56.69362 0V28.3468H85.04042V0ZM85.04042 28.3468"/>
<path transform="matrix(1.00008,0,0,-1.00003,2.0966492,30.147427)" d="M85.04042 0V28.3468H113.38724V0ZM113.38724 28.3468" fill="#0000ff"/>
<path transform="matrix(1.00008,0,0,-1.00003,2.0966492,30.147427)" stroke-width=".3985" stroke-linecap="butt" stroke-miterlimit="10" stroke-linejoin="miter" fill="none" stroke="#000000" d="M85.04042 0V28.3468H113.38724V0ZM113.38724 28.3468"/>
<path transform="matrix(1.00008,0,0,-1.00003,2.0966492,30.147427)" d="M113.38724 0V28.3468H141.73404V0ZM141.73404 28.3468" fill="#bf0040"/>
<path transform="matrix(1.00008,0,0,-1.00003,2.0966492,30.147427)" stroke-width=".3985" stroke-linecap="butt" stroke-miterlimit="10" stroke-linejoin="miter" fill="none" stroke="#000000" d="M113.38724 0V28.3468H141.73404V0ZM141.73404 28.3468"/>
<path transform="matrix(1.00008,0,0,-1.00003,2.0966492,30.147427)" d="M141.73404 0V28.3468H170.08086V0ZM170.08086 28.3468" fill="#bf0040"/>
<path transform="matrix(1.00008,0,0,-1.00003,2.0966492,30.147427)" stroke-width=".3985" stroke-linecap="butt" stroke-miterlimit="10" stroke-linejoin="miter" fill="none" stroke="#000000" d="M141.73404 0V28.3468H170.08086V0ZM170.08086 28.3468"/>
<path transform="matrix(1.00008,0,0,-1.00003,2.0966492,30.147427)" d="M170.08086 0V28.3468H198.42766V0ZM198.42766 28.3468" fill="#bf0040"/>
<path transform="matrix(1.00008,0,0,-1.00003,2.0966492,30.147427)" stroke-width=".3985" stroke-linecap="butt" stroke-miterlimit="10" stroke-linejoin="miter" fill="none" stroke="#000000" d="M170.08086 0V28.3468H198.42766V0ZM198.42766 28.3468"/>
<path transform="matrix(1.00008,0,0,-1.00003,2.0966492,30.147427)" d="M198.42766 0V28.3468H226.77448V0ZM226.77448 28.3468" fill="#bf0040"/>
<path transform="matrix(1.00008,0,0,-1.00003,2.0966492,30.147427)" stroke-width=".3985" stroke-linecap="butt" stroke-miterlimit="10" stroke-linejoin="miter" fill="none" stroke="#000000" d="M198.42766 0V28.3468H226.77448V0ZM226.77448 28.3468"/>
<path transform="matrix(1.00008,0,0,-1.00003,2.0966492,30.147427)" d="M226.77448 0V28.3468H255.12128V0ZM255.12128 28.3468" fill="#bf0040"/>
<path transform="matrix(1.00008,0,0,-1.00003,2.0966492,30.147427)" stroke-width=".3985" stroke-linecap="butt" stroke-miterlimit="10" stroke-linejoin="miter" fill="none" stroke="#000000" d="M226.77448 0V28.3468H255.12128V0ZM255.12128 28.3468"/>
</svg>
