<svg xmlns="http://www.w3.org/2000/svg" xmlns:xlink="http://www.w3.org/1999/xlink" xmlns:inkscape="http://www.inkscape.org/namespaces/inkscape" version="1.1" width="288" height="287" viewBox="0 0 288 287">
<path transform="matrix(1.00006,0,0,-1.00005,144.03549,285.47648)" d="M0 0 141.73404 141.73404C141.73404 220.0126 78.27855 283.4681 0 283.4681-78.27855 283.4681-141.73404 220.0126-141.73404 141.73404Z" fill="#8080ff"/>
<path transform="matrix(1.00006,0,0,-1.00005,144.03549,285.47648)" stroke-width=".79701" stroke-linecap="butt" stroke-miterlimit="10" stroke-linejoin="miter" fill="none" stroke="#000000" d="M0 0 141.73404 141.73404"/>
<path transform="matrix(1.00006,0,0,-1.00005,144.03549,285.47648)" stroke-width=".79701" stroke-linecap="butt" stroke-miterlimit="10" stroke-linejoin="miter" fill="none" stroke="#000000" d="M0 0-141.73404 141.73404"/>
<path transform="matrix(1.00006,0,0,-1.00005,144.03549,285.47648)" stroke-width=".79701" stroke-linecap="butt" stroke-miterlimit="10" stroke-linejoin="miter" fill="none" stroke="#000000" d="M141.73404 141.73404C141.73404 220.0126 78.27855 283.4681 0 283.4681-78.27855 283.4681-141.73404 220.0126-141.73404 141.73404"/>
<path transform="matrix(1.00006,0,0,-1.00005,144.03549,285.47648)" d="M28.3468 184.25424C28.3468 199.90996 15.6557 212.60106 0 212.60106-15.6557 212.60106-28.3468 199.90996-28.3468 184.25424-28.3468 168.59854-15.6557 155.90744 0 155.90744 15.6557 155.90744 28.3468 168.59854 28.3468 184.25424ZM0 184.25424" fill="#ff8000"/>
<path transform="matrix(1.00006,0,0,-1.00005,144.03549,285.47648)" stroke-width=".79701" stroke-linecap="butt" stroke-miterlimit="10" stroke-linejoin="miter" fill="none" stroke="#000000" d="M28.3468 184.25424C28.3468 199.90996 15.6557 212.60106 0 212.60106-15.6557 212.60106-28.3468 199.90996-28.3468 184.25424-28.3468 168.59854-15.6557 155.90744 0 155.90744 15.6557 155.90744 28.3468 168.59854 28.3468 184.25424ZM0 184.25424"/>
</svg>
