<svg xmlns="http://www.w3.org/2000/svg" xmlns:xlink="http://www.w3.org/1999/xlink" xmlns:inkscape="http://www.inkscape.org/namespaces/inkscape" version="1.1" width="145" height="145" viewBox="0 0 145 145">
<path transform="matrix(1.00006,0,0,-1.00005,2.0959855,143.53838)" d="M0 0H113.38724V113.38724H0Z" fill="#8080ff"/>
<path transform="matrix(1.00006,0,0,-1.00005,2.0959855,143.53838)" stroke-width=".3985" stroke-linecap="butt" stroke-miterlimit="10" stroke-linejoin="miter" fill="none" stroke="#000000" d="M0 0H113.38724V113.38724H0Z"/>
<path transform="matrix(1.00006,0,0,-1.00005,2.0959855,143.53838)" d="M28.3468 28.3468H141.73404V141.73404H28.3468Z" fill="#b3b3ff"/>
<path transform="matrix(1.00006,0,0,-1.00005,2.0959855,143.53838)" stroke-width=".3985" stroke-linecap="butt" stroke-miterlimit="10" stroke-linejoin="miter" fill="none" stroke="#000000" d="M28.3468 28.3468H141.73404V141.73404H28.3468Z"/>
<path transform="matrix(1.00006,0,0,-1.00005,2.0959855,143.53838)" stroke-width=".3985" stroke-linecap="butt" stroke-miterlimit="10" stroke-linejoin="miter" fill="none" stroke="#000000" d="M0 0 28.3468 28.3468"/>
<path transform="matrix(1.00006,0,0,-1.00005,2.0959855,143.53838)" stroke-width=".3985" stroke-linecap="butt" stroke-miterlimit="10" stroke-linejoin="miter" fill="none" stroke="#000000" d="M113.38724 0 141.73404 28.3468"/>
<path transform="matrix(1.00006,0,0,-1.00005,2.0959855,143.53838)" stroke-width=".3985" stroke-linecap="butt" stroke-miterlimit="10" stroke-linejoin="miter" fill="none" stroke="#000000" d="M113.38724 113.38724 141.73404 141.73404"/>
<path transform="matrix(1.00006,0,0,-1.00005,2.0959855,143.53838)" stroke-width=".3985" stroke-linecap="butt" stroke-miterlimit="10" stroke-linejoin="miter" fill="none" stroke="#000000" d="M0 113.38724 28.3468 141.73404"/>
</svg>
