<svg xmlns="http://www.w3.org/2000/svg" xmlns:xlink="http://www.w3.org/1999/xlink" xmlns:inkscape="http://www.inkscape.org/namespaces/inkscape" version="1.1" width="282" height="241" viewBox="0 0 282 241">
<defs>
<path id="font_1_3" d="M.1269989 .07699585 .23298645 .18003845C.3889923 .31811524 .44898988 .3721466 .44898988 .47216798 .44898988 .5860901 .35899354 .6660156 .23699951 .6660156 .12399292 .6660156 .049987794 .57411196 .049987794 .48516847 .049987794 .4291687 .099990848 .4291687 .102996829 .4291687 .11999512 .4291687 .15499878 .44117738 .15499878 .48217774 .15499878 .5081787 .13699341 .5341797 .101989749 .5341797 .09399414 .5341797 .09199524 .5341797 .08898926 .5331726 .11199951 .59806826 .1659851 .63500979 .22399903 .63500979 .31498719 .63500979 .35798646 .5541382 .35798646 .47216798 .35798646 .39215089 .30799867 .31311036 .25299073 .25108338L.06098938 .036987306C.049987794 .025985718 .049987794 .023986817 .049987794 0H.42099L.44898988 .17404175H.42399598C.4189911 .14402771 .4119873 .1000061 .4019928 .084991458 .394989 .07699585 .32899476 .07699585 .30699159 .07699585H.1269989Z"/>
<path id="font_1_4" d="M.2939911 .16503906V.07800293C.2939911 .041992189 .2919922 .0309906 .21798706 .0309906H.19699097V0C.23799134 .0029907227 .2899933 .0029907227 .33198548 .0029907227 .37399293 .0029907227 .4269867 .0029907227 .46798707 0V.0309906H.44699098C.37298585 .0309906 .37098695 .041992189 .37098695 .07800293V.16503906H.47099305V.19602967H.37098695V.65075686C.37098695 .67074587 .37098695 .6767578 .35499574 .6767578 .34599305 .6767578 .34298707 .6767578 .33499146 .66474917L.027999878 .19602967V.16503906H.2939911M.2999878 .19602967H.055999757L.2999878 .5688019V.19602967Z"/>
<path id="font_1_6" d="M.13198853 .327713V.35173036C.13198853 .6047821 .2559967 .64100649 .30699159 .64100649 .33099366 .64100649 .37298585 .634964 .394989 .6007538 .37998963 .6007538 .33999635 .6007538 .33999635 .5557556 .33999635 .524765 .3639984 .5097656 .38598634 .5097656 .4019928 .5097656 .43199159 .51875308 .43199159 .5577545 .43199159 .6178589 .3880005 .6660156 .30499269 .6660156 .1769867 .6660156 .041992189 .5367584 .041992189 .31570436 .041992189 .048553468 .1579895-.022460938 .25099183-.022460938 .3619995-.022460938 .45700074 .07156372 .45700074 .2036438 .45700074 .33070375 .36799623 .4267578 .25698854 .4267578 .18899536 .4267578 .1519928 .37573243 .13198853 .327713M.25099183 .0055389406C.18798828 .0055389406 .1579895 .06556702 .1519928 .080566409 .13398743 .127594 .13398743 .2076416 .13398743 .22564698 .13398743 .30369569 .1659851 .40374757 .2559967 .40374757 .27198792 .40374757 .31799317 .40374757 .34899903 .34172059 .36698915 .30470277 .36698915 .2536621 .36698915 .20463562 .36698915 .15661621 .36698915 .10658264 .34999085 .0705719 .31999208 .010528564 .27398683 .0055389406 .25099183 .0055389406Z"/>
<path id="font_1_7" d="M.16299439 .4569702C.116989139 .486969 .11299133 .52098086 .11299133 .5379791 .11299133 .598999 .17799378 .64100649 .24899292 .64100649 .32199098 .64100649 .38598634 .58898928 .38598634 .51698306 .38598634 .45996095 .34700013 .4119568 .2869873 .37695313L.16299439 .4569702M.30899049 .36193849C.3809967 .3989563 .42999269 .45095826 .42999269 .51698306 .42999269 .6090088 .34098817 .6660156 .25 .6660156 .1499939 .6660156 .068984989 .59199526 .068984989 .49897767 .068984989 .4809723 .070999149 .43595887 .11299133 .38894654 .12399292 .37695313 .16099549 .35194398 .18598938 .33494569 .12799073 .30592347 .041992189 .24984741 .041992189 .15072632 .041992189 .04458618 .14399719-.022460938 .24899292-.022460938 .3619995-.022460938 .45700074 .06060791 .45700074 .16773987 .45700074 .20379639 .44599916 .24885559 .4079895 .2909088 .3889923 .31193543 .37298585 .3219452 .30899049 .36193849M.20899964 .3199463 .33198548 .24183655C.3600006 .2228241 .40699769 .19277954 .40699769 .13169861 .40699769 .05760193 .33198548 .0055389406 .25 .0055389406 .1639862 .0055389406 .09199524 .067611698 .09199524 .15072632 .09199524 .20880127 .12399292 .27288819 .20899964 .3199463Z"/>
<path id="font_1_2" d="M.2939911 .64004519C.2939911 .66400149 .2939911 .6660156 .2709961 .6660156 .20899964 .60227969 .12098694 .60227969 .08898926 .60227969V.57128909C.10899353 .57128909 .16799927 .57128909 .21998596 .5972748V.07902527C.21998596 .042999269 .21699524 .0309906 .1269989 .0309906H.09498596V0C.12998963 .0029907227 .21699524 .0029907227 .25698854 .0029907227 .29699708 .0029907227 .38398744 .0029907227 .4189911 0V.0309906H.3869934C.29699708 .0309906 .2939911 .041992189 .2939911 .07902527V.64004519Z"/>
<path id="font_1_1" d="M.45999146 .31976319C.45999146 .39982606 .45498658 .47988893 .41999818 .5539398 .37399293 .65000918 .2919922 .6660156 .25 .6660156 .18998719 .6660156 .116989139 .64001467 .07598877 .54693606 .04399109 .47789 .038986207 .39982606 .038986207 .31976319 .038986207 .24472046 .042999269 .15464783 .083999637 .07859802 .1269989-.0024719239 .19999695-.022460938 .24899292-.022460938 .30299378-.022460938 .3789978-.0014648438 .4229889 .09359741 .45498658 .16265869 .45999146 .2407074 .45999146 .31976319M.24899292-.00047302247C.20999146-.00047302247 .15098572 .024551392 .1329956 .12062073 .12199402 .18066406 .12199402 .2727356 .12199402 .3317871 .12199402 .39582826 .12199402 .46188355 .12998963 .5159149 .14898682 .63500979 .22399903 .64401248 .24899292 .64401248 .28199769 .64401248 .34799195 .6259918 .36698915 .52693179 .3769989 .47088624 .3769989 .39482118 .3769989 .3317871 .3769989 .25672914 .3769989 .18867493 .3659973 .12461853 .35099793 .029556275 .2939911-.00047302247 .24899292-.00047302247Z"/>
<path id="font_2_1" d="M.6589966 .23046875C.6759949 .23046875 .69400027 .23046875 .69400027 .25045777 .69400027 .27046205 .6759949 .27046205 .6589966 .27046205H.117996219C.100997928 .27046205 .08299255 .27046205 .08299255 .25045777 .08299255 .23046875 .100997928 .23046875 .117996219 .23046875H.6589966Z"/>
<path id="font_1_5" d="M.44898988 .20022583C.44898988 .3193512 .36698915 .41944886 .25898744 .41944886 .21099854 .41944886 .16799927 .40345765 .13198853 .36842347V.5637665C.1519928 .5577698 .18499756 .55078127 .21699524 .55078127 .33999635 .55078127 .4099884 .6417694 .4099884 .6547699 .4099884 .6607666 .40699769 .6657715 .3999939 .6657715 .39898683 .6657715 .39698792 .6657715 .3919983 .66278079 .37199403 .6537781 .32299806 .6337738 .2559967 .6337738 .21598816 .6337738 .16999817 .6407776 .12298584 .6617737 .114990238 .66477969 .11299133 .66477969 .11099243 .66477969 .100997928 .66477969 .100997928 .6567688 .100997928 .6407776V.34439088C.100997928 .32637025 .100997928 .31835938 .114990238 .31835938 .12199402 .31835938 .12399292 .32136537 .12799073 .32736207 .13899231 .3433838 .17599488 .39746095 .25698854 .39746095 .30899049 .39746095 .33399964 .35139466 .34199525 .33337403 .35798646 .29632569 .3600006 .25727845 .3600006 .20722962 .3600006 .17222595 .3600006 .11222839 .33599855 .07035828 .31199647 .031463624 .2749939 .0055389406 .22898865 .0055389406 .1559906 .0055389406 .09899902 .058380128 .08198547 .11723328 .084991458 .1162262 .08799744 .115234378 .09899902 .115234378 .13198853 .115234378 .14898682 .14022827 .14898682 .16423035 .14898682 .18823242 .13198853 .21322632 .09899902 .21322632 .084991458 .21322632 .049987794 .20622254 .049987794 .16023255 .049987794 .07434082 .11898804-.022460938 .23098755-.022460938 .34700013-.022460938 .44898988 .073349 .44898988 .20022583Z"/>
<clipPath id="clip_3">
<path transform="matrix(1.00006,0,0,-1.00005,41.06955,239.74123)" d="M0 0H238.63304V238.63533H0Z"/>
</clipPath>
<path id="font_4_104" d="M.68499758 .45214845 .66600039 .6767578H.054992677L.035995485 .45214845H.06098938C.07499695 .6128235 .08999634 .64575198 .24099732 .64575198 .25898744 .64575198 .2849884 .64575198 .29499818 .64375308 .31599427 .6397705 .31599427 .6287842 .31599427 .60583499V.07901001C.31599427 .04499817 .31599427 .0309906 .21099854 .0309906H.17098999V0C.21199036 .0029907227 .31399537 .0029907227 .3600006 .0029907227 .4059906 .0029907227 .5089874 .0029907227 .5499878 0V.0309906H.5099945C.40499879 .0309906 .40499879 .04499817 .40499879 .07901001V.60583499C.40499879 .62579348 .40499879 .6397705 .4229889 .64375308 .43399049 .64575198 .46099855 .64575198 .47999574 .64575198 .6309967 .64575198 .6459961 .6128235 .6599884 .45214845H.68499758Z"/>
<path id="font_4_66" d="M.24699402 0V.0309906C.18099976 .0309906 .1769867 .035995485 .1769867 .075042728V.4423828L.036987306 .43066407V.3996582C.101989749 .3996582 .11099243 .3936615 .11099243 .3447113V.07595825C.11099243 .0309906 .099990848 .0309906 .032989503 .0309906V0L.14299011 .0029907227C.17799378 .0029907227 .21299744 .0009918213 .24699402 0M.19198609 .603775C.19198609 .6307678 .16899109 .6567688 .13899231 .6567688 .10499573 .6567688 .084991458 .6287689 .084991458 .603775 .084991458 .57676699 .10798645 .55078127 .13798523 .55078127 .17199707 .55078127 .19198609 .5787811 .19198609 .603775Z"/>
<path id="font_4_75" d="M.8129883 0V.0309906C.7609863 .0309906 .73599246 .0309906 .7350006 .061019899V.25221253C.7350006 .3383026 .7350006 .36932374 .70399478 .405365 .6899872 .42237855 .6569977 .4423828 .598999 .4423828 .5149994 .4423828 .47099305 .38233949 .45399476 .34429933 .43998719 .43138124 .3659973 .4423828 .32099916 .4423828 .24798584 .4423828 .20098877 .39935304 .17298889 .33729554V.4423828L.03199768 .43066407V.3996582C.101989749 .3996582 .10998535 .39266969 .10998535 .34370423V.07595825C.10998535 .0309906 .09899902 .0309906 .03199768 .0309906V0L.14498902 .0029907227 .25698854 0V.0309906C.18998719 .0309906 .1789856 .0309906 .1789856 .07595825V.25978089C.1789856 .36431886 .25 .42037965 .31399537 .42037965 .3769989 .42037965 .3880005 .36631776 .3880005 .30926515V.076034549C.3880005 .0309906 .3769989 .0309906 .30999757 .0309906V0L.4229889 .0029907227 .5349884 0V.0309906C.46798707 .0309906 .45700074 .0309906 .45700074 .076034549V.2602234C.45700074 .36431886 .5279999 .42037965 .59199526 .42037965 .6549988 .42037965 .66600039 .36631776 .66600039 .30926515V.076034549C.66600039 .0309906 .6549988 .0309906 .58799746 .0309906V0L.70098879 .0029907227 .8129883 0Z"/>
<path id="font_4_50" d="M.4149933 .11933899C.4149933 .12934876 .40699769 .13134766 .4019928 .13134766 .3929901 .13134766 .3909912 .12535095 .3889923 .11734009 .35398866 .014251709 .2639923 .014251709 .2539978 .014251709 .20399475 .014251709 .1639862 .044281007 .14099121 .08131409 .11099243 .12934876 .11099243 .19540406 .11099243 .23144531H.3899994C.4119873 .23144531 .4149933 .23144531 .4149933 .2524414 .4149933 .35131837 .36099244 .4482422 .23599243 .4482422 .11999512 .4482422 .027999878 .34532167 .027999878 .22042847 .027999878 .08631897 .1329956-.0107421879 .24798584-.0107421879 .36999513-.0107421879 .4149933 .10032654 .4149933 .11933899M.34899903 .2524414H.11199951C.117996219 .40126039 .20199585 .426239 .23599243 .426239 .33898927 .426239 .34899903 .2913971 .34899903 .2524414Z"/>
<path id="font_4_85" d="M.33099366-.2400055C.33099366-.23701477 .33099366-.23500061 .31399537-.21800232 .18899536-.0920105 .15699768 .09700012 .15699768 .25 .15699768 .42399598 .19499207 .59799197 .31799317 .72299197 .33099366 .7350006 .33099366 .7369995 .33099366 .73999026 .33099366 .746994 .32699586 .75 .32099916 .75 .31098939 .75 .22099304 .6819916 .1619873 .5549927 .11099243 .44499208 .09899902 .33399964 .09899902 .25 .09899902 .17199707 .10998535 .050994874 .16499329-.06201172 .22499085-.18501282 .31098939-.25 .32099916-.25 .32699586-.25 .33099366-.24700928 .33099366-.2400055Z"/>
<path id="font_4_74" d="M.8789978 0V.0309906H.8549957C.7779999 .0309906 .776001 .041992189 .776001 .07795715V.6046295C.776001 .64060977 .7779999 .6516113 .8549957 .6516113H.8789978V.6826172H.70999148C.6839905 .6826172 .6839905 .6816101 .6769867 .66360476L.45799256 .10095215 .24099732 .660614C.23199463 .6826172 .22898865 .6826172 .20599365 .6826172H.036987306V.6516113H.06098938C.13798523 .6516113 .13999939 .64060977 .13999939 .6046295V.10494995C.13999939 .07795715 .13999939 .0309906 .036987306 .0309906V0L.1539917 .0029907227 .2709961 0V.0309906C.16799927 .0309906 .16799927 .07795715 .16799927 .10494995V.6436157H.16899109L.4099884 .021987915C.4149933 .008987427 .41999818 0 .42999269 0 .44099427 0 .44400025 .0079956059 .44799806 .018997193L.69400027 .6516113H.69499209V.07795715C.69499209 .041992189 .69299319 .0309906 .6159973 .0309906H.59199526V0C.6289978 .0029907227 .69699099 .0029907227 .73599246 .0029907227 .7749939 .0029907227 .84199526 .0029907227 .8789978 0Z"/>
<path id="font_4_77" d="M.5349884 0V.0309906C.48298646 .0309906 .45799256 .0309906 .45700074 .061019899V.25221253C.45700074 .3383026 .45700074 .36932374 .42599488 .405365 .4119873 .42237855 .3789978 .4423828 .32099916 .4423828 .24798584 .4423828 .20098877 .39935304 .17298889 .33729554V.4423828L.03199768 .43066407V.3996582C.101989749 .3996582 .10998535 .39266969 .10998535 .34370423V.07595825C.10998535 .0309906 .09899902 .0309906 .03199768 .0309906V0L.14498902 .0029907227 .25698854 0V.0309906C.18998719 .0309906 .1789856 .0309906 .1789856 .07595825V.25978089C.1789856 .36431886 .25 .42037965 .31399537 .42037965 .3769989 .42037965 .3880005 .36631776 .3880005 .30926515V.076034549C.3880005 .0309906 .3769989 .0309906 .30999757 .0309906V0L.4229889 .0029907227 .5349884 0Z"/>
<path id="font_4_109" d="M.5349884 0V.0309906C.46499635 .0309906 .45700074 .037994386 .45700074 .08705139V.4423828L.30999757 .43066407V.3996582C.37998963 .3996582 .3880005 .39266969 .3880005 .34373475V.16601563C.3880005 .07910156 .33999635 .011245728 .2669983 .011245728 .18299866 .011245728 .1789856 .058135988 .1789856 .11009216V.4423828L.03199768 .43066407V.3996582C.10998535 .3996582 .10998535 .39666749 .10998535 .3078003V.15802002C.10998535 .080093387 .10998535-.0107421879 .2619934-.0107421879 .31799317-.0107421879 .3619995 .017242432 .3909912 .07910156V-.0107421879L.5349884 0Z"/>
<path id="font_4_105" d="M.33198548 .12385559V.18066406H.30699159V.12585449C.30699159 .052108766 .2769928 .014251709 .23999024 .014251709 .17298889 .014251709 .17298889 .10491943 .17298889 .12187195V.3996582H.31599427V.43066407H.17298889V.6142578H.147995C.14698792 .5324249 .116989139 .42565919 .018997193 .42166139V.3996582H.10398865V.12408447C.10398865 .0012512207 .19699097-.0107421879 .23298645-.0107421879 .3039856-.0107421879 .33198548 .060180665 .33198548 .12408447V.12385559Z"/>
<path id="font_4_98" d="M.3600006 .12823487C.3600006 .18122864 .32998658 .21122742 .31799317 .22323609 .2849884 .25523377 .24598694 .26322938 .20399475 .27124024 .147995 .28224183 .08099365 .29522706 .08099365 .35324098 .08099365 .38822938 .10699463 .42922975 .19299317 .42922975 .30299378 .42922975 .30799867 .3392334 .30999757 .30822755 .31098939 .2992401 .32199098 .2992401 .32199098 .2992401 .33499146 .2992401 .33499146 .30422975 .33499146 .32322694V.4242401C.33499146 .4412384 .33499146 .4482422 .32398988 .4482422 .31900025 .4482422 .31698609 .4482422 .3039856 .43623353 .30099488 .43223573 .29100038 .42323304 .2869873 .42022706 .24899292 .4482422 .20799256 .4482422 .19299317 .4482422 .070999149 .4482422 .032989503 .38124085 .032989503 .3252411 .032989503 .29023744 .04899597 .26223756 .07598877 .24023438 .10798645 .2142334 .13598633 .2082367 .20799256 .19422913 .22999573 .19021607 .31199647 .17422486 .31199647 .10221863 .31199647 .051223756 .2769928 .011245728 .19898987 .011245728 .114990238 .011245728 .07899475 .068222049 .05999756 .1532135 .056991579 .16621399 .055999757 .17021179 .04598999 .17021179 .032989503 .17021179 .032989503 .16322327 .032989503 .1452179V.013214111C.032989503-.003753662 .032989503-.0107421879 .04399109-.0107421879 .04899597-.0107421879 .049987794-.009750366 .068984989 .009246826 .070999149 .011245728 .070999149 .013214111 .08898926 .032226564 .1329956-.009750366 .17799378-.0107421879 .19898987-.0107421879 .31399537-.0107421879 .3600006 .05621338 .3600006 .1282196V.12823487Z"/>
<path id="font_4_86" d="M.2889862 .25C.2889862 .32798768 .27799989 .44898988 .22299195 .56199648 .16299439 .68499758 .07699585 .75 .066986087 .75 .06098938 .75 .056991579 .74598696 .056991579 .73999026 .056991579 .7369995 .056991579 .7350006 .07598877 .71699526 .17399597 .6179962 .23098755 .45899964 .23098755 .25 .23098755 .07899475 .19400025-.09700012 .069992069-.2230072 .056991579-.23500061 .056991579-.23701477 .056991579-.2400055 .056991579-.2460022 .06098938-.25 .066986087-.25 .07699585-.25 .16699219-.18200684 .22599793-.055007936 .2769928 .054992677 .2889862 .16600037 .2889862 .25Z"/>
<path id="font_4_84" d="M.5209961 .21636963C.5209961 .34336854 .42399598 .4423828 .31199647 .4423828 .23399353 .4423828 .19198609 .39837647 .17199707 .3763733V.4423828L.027999878 .43066407V.3996582C.09899902 .3996582 .10598755 .3936615 .10598755 .34973146V-.117996219C.10598755-.16308594 .09498596-.16308594 .027999878-.16308594V-.1940918L.13999939-.19110108 .25299073-.1940918V-.16308594C.18598938-.16308594 .1749878-.16308594 .1749878-.117996219V.050186159 .059173585C.17999268 .04319763 .22200012-.0107421879 .2979889-.0107421879 .4169922-.0107421879 .5209961 .087127689 .5209961 .21594239V.21636963M.43798829 .21594239C.43798829 .09512329 .36799623 .011245728 .2939911 .011245728 .2539978 .011245728 .21598816 .031219483 .18899536 .07215881 .1749878 .09312439 .1749878 .09411621 .1749878 .114089969V.33674623C.20399475 .38838197 .25299073 .41737367 .3039856 .41737367 .3769989 .41737367 .43798829 .32937623 .43798829 .21636963V.21594239Z"/>
<path id="font_4_96" d="M.3639984 .38137818C.3639984 .41337586 .33299256 .4423828 .2899933 .4423828 .21699524 .4423828 .18099976 .37538148 .16699219 .3323822V.4423828L.027999878 .43066407V.3996582C.09799194 .3996582 .10598755 .39266969 .10598755 .34370423V.07595825C.10598755 .0309906 .09498596 .0309906 .027999878 .0309906V0L.14199829 .0029907227C.18199158 .0029907227 .22898865 .0029907227 .2689972 0V.0309906H.24798584C.17399597 .0309906 .17199707 .04197693 .17199707 .07795715V.23181153C.17199707 .33137513 .21398926 .42037965 .2899933 .42037965 .29699708 .42037965 .29899598 .42037965 .30099488 .41937257 .2979889 .41838075 .27799989 .40637208 .27799989 .3803711 .27799989 .35237123 .29899598 .33737184 .32099916 .33737184 .33898927 .33737184 .3639984 .3493805 .3639984 .38137818Z"/>
<path id="font_4_28" d="M.48298646 .08912659V.14511109H.45799256V.08912659C.45799256 .03112793 .43299867 .025131226 .42199708 .025131226 .3889923 .025131226 .3849945 .070129398 .3849945 .07511902V.27508546C.3849945 .31707765 .3849945 .3560791 .34899903 .39312745 .30999757 .43223573 .2599945 .4482422 .21199036 .4482422 .12998963 .4482422 .06098938 .40115357 .06098938 .335083 .06098938 .30508424 .08099365 .28808595 .10699463 .28808595 .1349945 .28808595 .15299988 .30807496 .15299988 .33407594 .15299988 .3460846 .147995 .37908937 .101989749 .38008119 .1289978 .41519166 .17799378 .426239 .20999146 .426239 .25898744 .426239 .31599427 .38710023 .31599427 .29808045V.26107789C.2649994 .25808717 .19499207 .25508119 .13198853 .22509766 .056991579 .19110108 .03199768 .13911438 .03199768 .09512329 .03199768 .014251709 .1289978-.0107421879 .19198609-.0107421879 .2579956-.0107421879 .3039856 .029251099 .32299806 .07624817 .32699586 .036132814 .35398866-.005859375 .40098573-.005859375 .42199708-.005859375 .48298646 .008132935 .48298646 .08912659M.31599427 .14013672C.31599427 .04525757 .24398804 .011245728 .19898987 .011245728 .1499939 .011245728 .10899353 .04624939 .10899353 .09625244 .10899353 .15124512 .15098572 .23425293 .31599427 .24024964V.14013672Z"/>
<path id="font_4_234" d="M.32598878 .5439453C.32598878 .62068179 .2639923 .6826172 .18798828 .6826172 .11099243 .6826172 .04899597 .62068179 .04899597 .5439453 .04899597 .46820069 .11099243 .40628053 .18798828 .40628053 .2639923 .40628053 .32598878 .46820069 .32598878 .5439453M.28599549 .5439453C.28599549 .49012757 .24198914 .44628907 .18798828 .44628907 .1329956 .44628907 .08898926 .49012757 .08898926 .5439453 .08898926 .5987549 .1329956 .64260867 .18798828 .64260867 .24198914 .64260867 .28599549 .5987549 .28599549 .5439453Z"/>
<path id="font_4_42" d="M.6649933 .23271179C.6649933 .24272156 .6649933 .24972534 .6519928 .24972534 .6409912 .24972534 .6409912 .24372864 .6399994 .23371887 .6319885 .09059143 .5249939 .008529663 .41600038 .008529663 .35499574 .008529663 .15899658 .042556764 .15899658 .34080506 .15899658 .64004519 .35398866 .67407229 .4149933 .67407229 .5239868 .67407229 .61299136 .58299258 .6329956 .4368744 .6349945 .42286683 .6349945 .41986085 .6489868 .41986085 .6649933 .41986085 .6649933 .42286683 .6649933 .44387818V.68107607C.6649933 .69807437 .6649933 .7050781 .6539917 .7050781 .6499939 .7050781 .6459961 .7050781 .6380005 .69306948L.58799746 .61901858C.5509949 .6550598 .5 .7050781 .4039917 .7050781 .21699524 .7050781 .055999757 .5459595 .055999757 .34179688 .055999757 .1346283 .21798706-.022460938 .4039917-.022460938 .5669861-.022460938 .6649933 .116622928 .6649933 .23271179Z"/>
</defs>
<path transform="matrix(1.00006,0,0,-1.00005,41.06955,239.74123)" stroke-width=".99628" stroke-linecap="butt" stroke-miterlimit="10" stroke-linejoin="miter" fill="none" stroke="#a6a6a6" d="M18.35638 0V238.63533M36.71277 0V238.63533M55.06915 0V238.63533M73.42555 0V238.63533M91.78194 0V238.63533M110.13832 0V238.63533M128.49472 0V238.63533M146.8511 0V238.63533M165.20749 0V238.63533M183.56389 0V238.63533M201.92028 0V238.63533M220.27666 0V238.63533"/>
<path transform="matrix(1.00006,0,0,-1.00005,41.06955,239.74123)" stroke-width=".99628" stroke-linecap="butt" stroke-miterlimit="10" stroke-linejoin="miter" fill="none" stroke="#a6a6a6" d="M0 7.9545H238.63304M0 47.72707H238.63304M0 79.5451H238.63304M0 111.36314H238.63304M0 143.1812H238.63304M0 174.99924H238.63304M0 206.81728H238.63304"/>
<path transform="matrix(1.00006,0,0,-1.00005,41.06955,239.74123)" stroke-width=".19925" stroke-linecap="butt" stroke-miterlimit="10" stroke-linejoin="miter" fill="none" stroke="#7f807f" d="M22.02766 46.3094V49.14471M25.69894 46.3094V49.14471M29.37021 46.3094V49.14471M33.04149 46.3094V49.14471M40.38405 46.3094V49.14471M44.05533 46.3094V49.14471M47.72661 46.3094V49.14471M51.39789 46.3094V49.14471M58.74043 46.3094V49.14471M62.41171 46.3094V49.14471M66.083 46.3094V49.14471M69.75427 46.3094V49.14471M77.09683 46.3094V49.14471M80.7681 46.3094V49.14471M84.43938 46.3094V49.14471M88.11066 46.3094V49.14471M95.45322 46.3094V49.14471M99.1245 46.3094V49.14471M102.79578 46.3094V49.14471M106.46704 46.3094V49.14471M113.8096 46.3094V49.14471M117.48088 46.3094V49.14471M121.15216 46.3094V49.14471M124.82344 46.3094V49.14471M132.16599 46.3094V49.14471M135.83727 46.3094V49.14471M139.50855 46.3094V49.14471M143.17983 46.3094V49.14471M150.52239 46.3094V49.14471M154.19367 46.3094V49.14471M157.86495 46.3094V49.14471M161.53621 46.3094V49.14471M168.87877 46.3094V49.14471M172.55005 46.3094V49.14471M176.22133 46.3094V49.14471M179.89261 46.3094V49.14471M187.23516 46.3094V49.14471M190.90644 46.3094V49.14471M194.57772 46.3094V49.14471M198.249 46.3094V49.14471M205.59156 46.3094V49.14471M209.26284 46.3094V49.14471M212.9341 46.3094V49.14471M216.60538 46.3094V49.14471"/>
<path transform="matrix(1.00006,0,0,-1.00005,41.06955,239.74123)" stroke-width=".19925" stroke-linecap="butt" stroke-miterlimit="10" stroke-linejoin="miter" fill="none" stroke="#7f807f" d="M18.35638 45.60078V49.85332M36.71277 45.60078V49.85332M55.06915 45.60078V49.85332M73.42555 45.60078V49.85332M91.78194 45.60078V49.85332M110.13832 45.60078V49.85332M128.49472 45.60078V49.85332M146.8511 45.60078V49.85332M165.20749 45.60078V49.85332M183.56389 45.60078V49.85332M201.92028 45.60078V49.85332M220.27666 45.60078V49.85332"/>
<path transform="matrix(1.00006,0,0,-1.00005,41.06955,239.74123)" stroke-width=".19925" stroke-linecap="butt" stroke-miterlimit="10" stroke-linejoin="miter" fill="none" stroke="#7f807f" d="M0 7.9545H4.25156M0 47.72707H4.25156M0 79.5451H4.25156M0 111.36314H4.25156M0 143.1812H4.25156M0 174.99924H4.25156M0 206.81728H4.25156M238.63304 7.9545H234.38147M238.63304 47.72707H234.38147M238.63304 79.5451H234.38147M238.63304 111.36314H234.38147M238.63304 143.1812H234.38147M238.63304 174.99924H234.38147M238.63304 206.81728H234.38147"/>
<path transform="matrix(1.00006,0,0,-1.00005,41.06955,239.74123)" stroke-width=".79701" stroke-linecap="butt" stroke-miterlimit="10" stroke-linejoin="miter" fill="none" stroke="#000000" d="M0 47.72707H236.04279"/>
<path transform="matrix(1.00006,0,0,-1.00005,277.1265,192.01178)" d="M2.59026 0-1.55415 2.0722 0 0-1.55415-2.0722"/>
<path transform="matrix(1.00006,0,0,-1.00005,41.06955,239.74123)" stroke-width=".79701" stroke-linecap="butt" stroke-miterlimit="10" stroke-linejoin="miter" fill="none" stroke="#000000" d="M0 0V238.63533"/>
<path transform="matrix(1.00006,0,0,-1.00005,41.06955,239.74123)" stroke-width=".79701" stroke-linecap="butt" stroke-miterlimit="10" stroke-linejoin="miter" fill="none" stroke="#000000" d="M238.63304 0V238.63533"/>
<use data-text="2" xlink:href="#font_1_3" transform="matrix(9.963197,0,0,-9.963098,56.9365,204.07845)"/>
<use data-text="4" xlink:href="#font_1_4" transform="matrix(9.963197,0,0,-9.963098,75.2936,204.07845)"/>
<use data-text="6" xlink:href="#font_1_6" transform="matrix(9.963197,0,0,-9.963098,93.650699,204.07845)"/>
<use data-text="8" xlink:href="#font_1_7" transform="matrix(9.963197,0,0,-9.963098,112.008808,204.07845)"/>
<use data-text="1" xlink:href="#font_1_2" transform="matrix(9.963197,0,0,-9.963098,127.875759,204.07845)"/>
<use data-text="0" xlink:href="#font_1_1" transform="matrix(9.963197,0,0,-9.963098,132.85736,204.07845)"/>
<use data-text="1" xlink:href="#font_1_2" transform="matrix(9.963197,0,0,-9.963098,146.23285,204.07845)"/>
<use data-text="2" xlink:href="#font_1_3" transform="matrix(9.963197,0,0,-9.963098,151.21445,204.07845)"/>
<use data-text="1" xlink:href="#font_1_2" transform="matrix(9.963197,0,0,-9.963098,164.58997,204.07845)"/>
<use data-text="4" xlink:href="#font_1_4" transform="matrix(9.963197,0,0,-9.963098,169.57157,204.07845)"/>
<use data-text="1" xlink:href="#font_1_2" transform="matrix(9.963197,0,0,-9.963098,182.94806,204.07845)"/>
<use data-text="6" xlink:href="#font_1_6" transform="matrix(9.963197,0,0,-9.963098,187.92966,204.07845)"/>
<use data-text="1" xlink:href="#font_1_2" transform="matrix(9.963197,0,0,-9.963098,201.30516,204.07845)"/>
<use data-text="8" xlink:href="#font_1_7" transform="matrix(9.963197,0,0,-9.963098,206.28676,204.07845)"/>
<use data-text="2" xlink:href="#font_1_3" transform="matrix(9.963197,0,0,-9.963098,219.66226,204.07845)"/>
<use data-text="0" xlink:href="#font_1_1" transform="matrix(9.963197,0,0,-9.963098,224.64386,204.07845)"/>
<use data-text="2" xlink:href="#font_1_3" transform="matrix(9.963197,0,0,-9.963098,238.02036,204.07845)"/>
<use data-text="2" xlink:href="#font_1_3" transform="matrix(9.963197,0,0,-9.963098,243.00196,204.07845)"/>
<use data-text="2" xlink:href="#font_1_3" transform="matrix(9.963197,0,0,-9.963098,256.37745,204.07845)"/>
<use data-text="4" xlink:href="#font_1_4" transform="matrix(9.963197,0,0,-9.963098,261.35908,204.07845)"/>
<use data-text="&#x2212;" xlink:href="#font_2_1" transform="matrix(9.963197,0,0,-9.963098,19.83728,234.58197)"/>
<use data-text="2" xlink:href="#font_1_3" transform="matrix(9.963197,0,0,-9.963098,27.586747,234.58197)"/>
<use data-text="5" xlink:href="#font_1_5" transform="matrix(9.963197,0,0,-9.963098,32.56833,234.58197)"/>
<use data-text="0" xlink:href="#font_1_1" transform="matrix(9.963197,0,0,-9.963098,32.56804,195.222)"/>
<use data-text="2" xlink:href="#font_1_3" transform="matrix(9.963197,0,0,-9.963098,27.58574,163.4024)"/>
<use data-text="0" xlink:href="#font_1_1" transform="matrix(9.963197,0,0,-9.963098,32.567338,163.4024)"/>
<use data-text="4" xlink:href="#font_1_4" transform="matrix(9.963197,0,0,-9.963098,27.58574,131.58283)"/>
<use data-text="0" xlink:href="#font_1_1" transform="matrix(9.963197,0,0,-9.963098,32.567338,131.58283)"/>
<use data-text="6" xlink:href="#font_1_6" transform="matrix(9.963197,0,0,-9.963098,27.58574,99.763248)"/>
<use data-text="0" xlink:href="#font_1_1" transform="matrix(9.963197,0,0,-9.963098,32.567338,99.763248)"/>
<use data-text="8" xlink:href="#font_1_7" transform="matrix(9.963197,0,0,-9.963098,27.58574,67.94365)"/>
<use data-text="0" xlink:href="#font_1_1" transform="matrix(9.963197,0,0,-9.963098,32.567338,67.94365)"/>
<use data-text="1" xlink:href="#font_1_2" transform="matrix(9.963197,0,0,-9.963098,22.604447,36.12407)"/>
<use data-text="0" xlink:href="#font_1_1" transform="matrix(9.963197,0,0,-9.963098,27.586045,36.12407)"/>
<use data-text="0" xlink:href="#font_1_1" transform="matrix(9.963197,0,0,-9.963098,32.567628,36.12407)"/>
<g clip-path="url(#clip_3)">
<path transform="matrix(1.00006,0,0,-1.00005,41.06955,239.74123)" stroke-width=".79701" stroke-linecap="butt" stroke-miterlimit="10" stroke-linejoin="miter" fill="none" stroke="#ff0000" d="M0 7.9545 18.35638 47.72707H36.71277L183.56389 206.81728H229.45485"/>
</g>
<path transform="matrix(1.00006,0,0,-1.00005,41.06955,239.74123)" stroke-width=".79701" stroke-linecap="butt" stroke-miterlimit="10" stroke-linejoin="miter" fill="none" stroke="#ff0000" d="M1.99255 7.9545C1.99255 9.05498 1.10046 9.94705 0 9.94705-1.10046 9.94705-1.99255 9.05498-1.99255 7.9545-1.99255 6.85403-1.10046 5.96194 0 5.96194 1.10046 5.96194 1.99255 6.85403 1.99255 7.9545ZM0 7.9545"/>
<path transform="matrix(1.00006,0,0,-1.00005,41.06955,239.74123)" stroke-width=".79701" stroke-linecap="butt" stroke-miterlimit="10" stroke-linejoin="miter" fill="none" stroke="#ff0000" d="M20.34894 47.72707C20.34894 48.82753 19.45685 49.71962 18.35638 49.71962 17.2559 49.71962 16.36383 48.82753 16.36383 47.72707 16.36383 46.62659 17.2559 45.73451 18.35638 45.73451 19.45685 45.73451 20.34894 46.62659 20.34894 47.72707ZM18.35638 47.72707"/>
<path transform="matrix(1.00006,0,0,-1.00005,41.06955,239.74123)" stroke-width=".79701" stroke-linecap="butt" stroke-miterlimit="10" stroke-linejoin="miter" fill="none" stroke="#ff0000" d="M38.70532 47.72707C38.70532 48.82753 37.81325 49.71962 36.71277 49.71962 35.6123 49.71962 34.72021 48.82753 34.72021 47.72707 34.72021 46.62659 35.6123 45.73451 36.71277 45.73451 37.81325 45.73451 38.70532 46.62659 38.70532 47.72707ZM36.71277 47.72707"/>
<path transform="matrix(1.00006,0,0,-1.00005,41.06955,239.74123)" stroke-width=".79701" stroke-linecap="butt" stroke-miterlimit="10" stroke-linejoin="miter" fill="none" stroke="#ff0000" d="M185.55644 206.81728C185.55644 207.91776 184.66436 208.80983 183.56389 208.80983 182.46341 208.80983 181.57134 207.91776 181.57134 206.81728 181.57134 205.71681 182.46341 204.82472 183.56389 204.82472 184.66436 204.82472 185.55644 205.71681 185.55644 206.81728ZM183.56389 206.81728"/>
<path transform="matrix(1.00006,0,0,-1.00005,41.06955,239.74123)" stroke-width=".79701" stroke-linecap="butt" stroke-miterlimit="10" stroke-linejoin="miter" fill="none" stroke="#ff0000" d="M231.4474 206.81728C231.4474 207.91776 230.55533 208.80983 229.45485 208.80983 228.35439 208.80983 227.4623 207.91776 227.4623 206.81728 227.4623 205.71681 228.35439 204.82472 229.45485 204.82472 230.55533 204.82472 231.4474 205.71681 231.4474 206.81728ZM229.45485 206.81728"/>
<path transform="matrix(1.00006,0,0,-1.00005,41.06955,239.74123)" stroke-width=".79701" stroke-linecap="butt" stroke-miterlimit="10" stroke-linejoin="miter" fill="none" stroke="#ff0000" d=""/>
<use data-text="T" xlink:href="#font_4_104" transform="matrix(9.963197,0,0,-9.963098,207.55553,185.99155)"/>
<use data-text="i" xlink:href="#font_4_66" transform="matrix(9.963197,0,0,-9.963098,214.74895,185.99155)"/>
<use data-text="m" xlink:href="#font_4_75" transform="matrix(9.963197,0,0,-9.963098,217.51873,185.99155)"/>
<use data-text="e" xlink:href="#font_4_50" transform="matrix(9.963197,0,0,-9.963098,225.81807,185.99155)"/>
<use data-text="(" xlink:href="#font_4_85" transform="matrix(9.963197,0,0,-9.963098,233.54952,185.99155)"/>
<use data-text="M" xlink:href="#font_4_74" transform="matrix(9.963197,0,0,-9.963098,237.4252,185.99155)"/>
<use data-text="i" xlink:href="#font_4_66" transform="matrix(9.963197,0,0,-9.963098,246.56147,185.99155)"/>
<use data-text="n" xlink:href="#font_4_77" transform="matrix(9.963197,0,0,-9.963098,249.33124,185.99155)"/>
<use data-text="u" xlink:href="#font_4_109" transform="matrix(9.963197,0,0,-9.963098,254.60176,185.99155)"/>
<use data-text="t" xlink:href="#font_4_105" transform="matrix(9.963197,0,0,-9.963098,260.1413,185.99155)"/>
<use data-text="e" xlink:href="#font_4_50" transform="matrix(9.963197,0,0,-9.963098,264.01698,185.99155)"/>
<use data-text="s" xlink:href="#font_4_98" transform="matrix(9.963197,0,0,-9.963098,268.44065,185.99155)"/>
<use data-text=")" xlink:href="#font_4_86" transform="matrix(9.963197,0,0,-9.963098,272.36616,185.99155)"/>
<use data-text="T" xlink:href="#font_4_104" transform="matrix(0,-9.963098,-9.963197,-0,8.688599,159.39925)"/>
<use data-text="e" xlink:href="#font_4_50" transform="matrix(0,-9.963098,-9.963197,-0,8.688599,153.03282)"/>
<use data-text="m" xlink:href="#font_4_75" transform="matrix(0,-9.963098,-9.963197,-0,8.688599,148.6092)"/>
<use data-text="p" xlink:href="#font_4_84" transform="matrix(0,-9.963098,-9.963197,-0,8.688599,140.30995)"/>
<use data-text="e" xlink:href="#font_4_50" transform="matrix(0,-9.963098,-9.963197,-0,8.688599,134.50147)"/>
<use data-text="r" xlink:href="#font_4_96" transform="matrix(0,-9.963098,-9.963197,-0,8.688599,130.07784)"/>
<use data-text="a" xlink:href="#font_4_28" transform="matrix(0,-9.963098,-9.963197,-0,8.688599,126.1723)"/>
<use data-text="t" xlink:href="#font_4_105" transform="matrix(0,-9.963098,-9.963197,-0,8.688599,121.190769)"/>
<use data-text="u" xlink:href="#font_4_109" transform="matrix(0,-9.963098,-9.963197,-0,8.688599,117.31511)"/>
<use data-text="r" xlink:href="#font_4_96" transform="matrix(0,-9.963098,-9.963197,-0,8.688599,111.775638)"/>
<use data-text="e" xlink:href="#font_4_50" transform="matrix(0,-9.963098,-9.963197,-0,8.688599,107.8701)"/>
<use data-text="(" xlink:href="#font_4_85" transform="matrix(0,-9.963098,-9.963197,-0,8.688599,100.12877)"/>
<use data-text="&#x00b0;" xlink:href="#font_4_234" transform="matrix(0,-9.963098,-9.963197,-0,8.688599,96.25311)"/>
<use data-text="C" xlink:href="#font_4_42" transform="matrix(0,-9.963098,-9.963197,-0,8.688599,92.51695)"/>
<use data-text=")" xlink:href="#font_4_86" transform="matrix(0,-9.963098,-9.963197,-0,8.688599,85.32361)"/>
</svg>
