<svg xmlns="http://www.w3.org/2000/svg" xmlns:xlink="http://www.w3.org/1999/xlink" xmlns:inkscape="http://www.inkscape.org/namespaces/inkscape" version="1.1" width="288" height="372" viewBox="0 0 288 372">
<path transform="matrix(1.00006,0,0,-1.00008,144.03549,370.53034)" d="M0 0 141.73404 141.73404C141.73404 220.0126 78.27855 283.4681 0 283.4681-78.27855 283.4681-141.73404 220.0126-141.73404 141.73404Z" fill="#8080ff"/>
<path transform="matrix(1.00006,0,0,-1.00008,144.03549,370.53034)" stroke-width=".79701" stroke-linecap="butt" stroke-miterlimit="10" stroke-linejoin="miter" fill="none" stroke="#000000" d="M0 0 141.73404 141.73404"/>
<path transform="matrix(1.00006,0,0,-1.00008,144.03549,370.53034)" stroke-width=".79701" stroke-linecap="butt" stroke-miterlimit="10" stroke-linejoin="miter" fill="none" stroke="#000000" d="M0 0-141.73404 141.73404"/>
<path transform="matrix(1.00006,0,0,-1.00008,144.03549,370.53034)" stroke-width=".79701" stroke-linecap="butt" stroke-miterlimit="10" stroke-linejoin="miter" fill="none" stroke="#000000" d="M141.73404 141.73404C141.73404 220.0126 78.27855 283.4681 0 283.4681-78.27855 283.4681-141.73404 220.0126-141.73404 141.73404"/>
<path transform="matrix(1.00006,0,0,-1.00008,144.03549,370.53034)" d="M42.5202 325.9883C42.5202 349.47187 23.48355 368.5085 0 368.5085-23.48355 368.5085-42.5202 349.47187-42.5202 325.9883-42.5202 302.50477-23.48355 283.4681 0 283.4681 23.48355 283.4681 42.5202 302.50477 42.5202 325.9883ZM0 325.9883" fill="#ff8000"/>
<path transform="matrix(1.00006,0,0,-1.00008,144.03549,370.53034)" stroke-width=".79701" stroke-linecap="butt" stroke-miterlimit="10" stroke-linejoin="miter" fill="none" stroke="#000000" d="M42.5202 325.9883C42.5202 349.47187 23.48355 368.5085 0 368.5085-23.48355 368.5085-42.5202 349.47187-42.5202 325.9883-42.5202 302.50477-23.48355 283.4681 0 283.4681 23.48355 283.4681 42.5202 302.50477 42.5202 325.9883ZM0 325.9883"/>
</svg>
