<svg xmlns="http://www.w3.org/2000/svg" xmlns:xlink="http://www.w3.org/1999/xlink" xmlns:inkscape="http://www.inkscape.org/namespaces/inkscape" version="1.1" width="174" height="287" viewBox="0 0 174 287">
<defs>
<path id="font_1_1" d="M.2869873 .6603241C.29100038 .67433169 .29100038 .67633059 .29100038 .68032839 .29100038 .68933108 .2849884 .69433596 .27598573 .69433596 .2619934 .69433596 .17399597 .6863251 .1539917 .6843262 .14399719 .68333438 .1329956 .6823273 .1329956 .665329 .1329956 .6523285 .14399719 .6523285 .1599884 .6523285 .20698548 .6523285 .20698548 .6453247 .20698548 .6363373 .20698548 .6323395 .20698548 .6303406 .20199585 .6123352L.05899048 .037261964C.054992677 .023254395 .054992677 .021255494 .054992677 .018249512 .054992677 .002243042 .067993167-.0107421879 .085998538-.0107421879 .102996829-.0107421879 .116989139-.00074768069 .12399292 .013244629 .12599182 .018249512 .1349945 .054260255 .13999939 .07527161L.16299439 .16429138C.1659851 .17930603 .17599488 .21731568 .1789856 .23231507L.19099427 .27633668C.19599915 .29934693 .25299073 .41737367 .36099244 .41737367 .4149933 .41737367 .4149933 .36436463 .4149933 .34735108 .4149933 .28633119 .36799623 .16429138 .35699464 .13328552 .34498597 .10227966 .34098817 .0922699 .34098817 .073272708 .34098817 .019256592 .38198854-.0107421879 .4269867-.0107421879 .522995-.0107421879 .56199648 .1322937 .56199648 .14329529 .56199648 .14828491 .5589905 .1552887 .548996 .1552887 .5379944 .1552887 .5369873 .15029907 .5329895 .13728333 .5079956 .052261354 .46598817 .014251709 .42999269 .014251709 .4229889 .014251709 .40499879 .014251709 .40499879 .04626465 .40499879 .0712738 .4149933 .09727478 .4229889 .119277957 .44299317 .17030335 .48298646 .27633668 .48298646 .33235169 .48298646 .42137147 .4169922 .4423828 .3639984 .4423828 .3039856 .4423828 .25299073 .41438294 .21299744 .36535646L.2869873 .6603241Z"/>
<path id="font_1_2" d="M.4039917 .40527345C.37098695 .39926148 .35398866 .3712616 .35398866 .3502655 .35398866 .3312683 .36799623 .31427003 .3929901 .31427003 .41999818 .31427003 .44799806 .337265 .44799806 .37426759 .44799806 .41334535 .4119873 .4423828 .36299134 .4423828 .28799439 .4423828 .24598694 .386261 .23199463 .3672638 .21998596 .42237855 .1749878 .4423828 .13699341 .4423828 .100997928 .4423828 .07798767 .42037965 .06098938 .38526917 .041992189 .34925843 .0289917 .29226686 .0289917 .28826905 .0289917 .27926637 .035995485 .27626039 .042999269 .27626039 .053985597 .27626039 .055999757 .28126527 .06098938 .30126954 .07998657 .38026429 .100997928 .41737367 .1349945 .41737367 .16499329 .41737367 .16499329 .38526917 .16499329 .37026979 .16499329 .34925843 .15699768 .31826783 .15098572 .29226686 .14399719 .26626588 .13398743 .2232666 .12998963 .21125794L.08999634 .04725647C.08299255 .023254395 .08299255 .021255494 .08299255 .018249512 .08299255 .0052490236 .09199524-.0107421879 .11399841-.0107421879 .1459961-.0107421879 .15299988 .01625061 .1599884 .04525757 .17199707 .088256839 .17199707 .09025574 .18199158 .1312561 .21899414 .28126527 .22499085 .30526734 .22698975 .31025697 .23298645 .32226563 .2789917 .41737367 .3619995 .41737367 .3849945 .41737367 .39898683 .40930177 .4039917 .40527345Z"/>
</defs>
<path transform="matrix(1.00002,0,0,-1.00005,87.33537,143.73738)" d="M-85.04042-56.69362V56.69362H85.04042V-56.69362ZM85.04042 56.69362" fill="#cc3366"/>
<path transform="matrix(1.00002,0,0,-1.00005,87.33537,143.73738)" stroke-width=".79701" stroke-linecap="butt" stroke-miterlimit="10" stroke-linejoin="miter" fill="none" stroke="#000000" d="M-85.04042-56.69362V56.69362H85.04042V-56.69362ZM85.04042 56.69362"/>
<path transform="matrix(1.00002,0,0,-1.00005,87.33537,143.73738)" d="M42.5202 99.21382C42.5202 122.69737 23.48355 141.73403 0 141.73403-23.48355 141.73403-42.5202 122.69737-42.5202 99.21382-42.5202 75.73026-23.48355 56.69362 0 56.69362 23.48355 56.69362 42.5202 75.73026 42.5202 99.21382ZM0 99.21382" fill="#ff9933"/>
<path transform="matrix(1.00002,0,0,-1.00005,87.33537,143.73738)" stroke-width=".79701" stroke-linecap="butt" stroke-miterlimit="10" stroke-linejoin="miter" fill="none" stroke="#000000" d="M42.5202 99.21382C42.5202 122.69737 23.48355 141.73403 0 141.73403-23.48355 141.73403-42.5202 122.69737-42.5202 99.21382-42.5202 75.73026-23.48355 56.69362 0 56.69362 23.48355 56.69362 42.5202 75.73026 42.5202 99.21382ZM0 99.21382"/>
<path transform="matrix(1.00002,0,0,-1.00005,87.33537,143.73738)" d="M42.5202-99.21382C42.5202-75.73026 23.48355-56.69362 0-56.69362-23.48355-56.69362-42.5202-75.73026-42.5202-99.21382-42.5202-122.69737-23.48355-141.73403 0-141.73403 23.48355-141.73403 42.5202-122.69737 42.5202-99.21382ZM0-99.21382" fill="#ff9933"/>
<path transform="matrix(1.00002,0,0,-1.00005,87.33537,143.73738)" stroke-width=".79701" stroke-linecap="butt" stroke-miterlimit="10" stroke-linejoin="miter" fill="none" stroke="#000000" d="M42.5202-99.21382C42.5202-75.73026 23.48355-56.69362 0-56.69362-23.48355-56.69362-42.5202-75.73026-42.5202-99.21382-42.5202-122.69737-23.48355-141.73403 0-141.73403 23.48355-141.73403 42.5202-122.69737 42.5202-99.21382ZM0-99.21382"/>
<path transform="matrix(1.00002,0,0,-1.00005,87.33537,143.73738)" stroke-width=".3985" stroke-linecap="butt" stroke-dasharray="2.98883,2.98883" stroke-miterlimit="10" stroke-linejoin="miter" fill="none" stroke="#000000" d="M0-102.04868V102.04868"/>
<use data-text="h" xlink:href="#font_1_1" transform="matrix(8.966579,0,0,-8.966848,90.855449,146.85054)"/>
<path transform="matrix(1.00002,0,0,-1.00005,87.33537,143.73738)" stroke-width=".3985" stroke-linecap="butt" stroke-dasharray="2.98883,2.98883" stroke-miterlimit="10" stroke-linejoin="miter" fill="none" stroke="#000000" d="M0 99.21382 42.5202 102.04868"/>
<path transform="matrix(1.00002,0,0,-1.00005,87.33537,143.73738)" stroke-width=".3985" stroke-linecap="butt" stroke-dasharray="2.98883,2.98883" stroke-miterlimit="10" stroke-linejoin="miter" fill="none" stroke="#000000" d="M0-102.04868H42.5202"/>
<use data-text="r" xlink:href="#font_1_2" transform="matrix(8.966579,0,0,-8.966848,119.20301,43.614389)"/>
<use data-text="r" xlink:href="#font_1_2" transform="matrix(8.966579,0,0,-8.966848,119.20301,247.72158)"/>
</svg>
