<svg xmlns="http://www.w3.org/2000/svg" xmlns:xlink="http://www.w3.org/1999/xlink" xmlns:inkscape="http://www.inkscape.org/namespaces/inkscape" version="1.1" width="122" height="93" viewBox="0 0 122 93">
<path transform="matrix(1,0,0,-1.00005,35.035005,58.69313)" d="M0 0H85.04042V56.69362H0Z" fill="#fff799"/>
<path transform="matrix(1,0,0,-1.00005,35.035005,58.69313)" d="M-32.74008-32.74008H52.30034V23.95352H-32.74008Z" fill="#fff799"/>
<path transform="matrix(1,0,0,-1.00005,35.035005,58.69313)" d="M0 0-32.74008-32.74008V23.95352L0 56.69362Z" fill="#fff799"/>
<path transform="matrix(1,0,0,-1.00005,35.035005,58.69313)" d="M85.04042 0 52.30034-32.74008V23.95352L85.04042 56.69362Z" fill="#fff799"/>
<path transform="matrix(1,0,0,-1.00005,35.035005,58.69313)" d="M0 56.69362H85.04042L52.30034 23.95352H-32.74008Z" fill="#ffbf80"/>
<path transform="matrix(1,0,0,-1.00005,35.035005,58.69313)" d="M0 0H85.04042L52.30034-32.74008H-32.74008Z" fill="#ffbf80"/>
<path transform="matrix(1,0,0,-1.00005,35.035005,58.69313)" stroke-width=".79701" stroke-linecap="butt" stroke-miterlimit="10" stroke-linejoin="miter" fill="none" stroke="#000000" d="M0 0H85.04042V56.69362H0Z"/>
<path transform="matrix(1,0,0,-1.00005,35.035005,58.69313)" stroke-width=".79701" stroke-linecap="butt" stroke-miterlimit="10" stroke-linejoin="miter" fill="none" stroke="#000000" d="M-32.74008-32.74008H52.30034V23.95352H-32.74008Z"/>
<path transform="matrix(1,0,0,-1.00005,35.035005,58.69313)" stroke-width=".79701" stroke-linecap="butt" stroke-miterlimit="10" stroke-linejoin="miter" fill="none" stroke="#000000" d="M0 0-32.74008-32.74008"/>
<path transform="matrix(1,0,0,-1.00005,35.035005,58.69313)" stroke-width=".79701" stroke-linecap="butt" stroke-miterlimit="10" stroke-linejoin="miter" fill="none" stroke="#000000" d="M85.04042 0 52.30034-32.74008"/>
<path transform="matrix(1,0,0,-1.00005,35.035005,58.69313)" stroke-width=".79701" stroke-linecap="butt" stroke-miterlimit="10" stroke-linejoin="miter" fill="none" stroke="#000000" d="M85.04042 56.69362 52.30034 23.95352"/>
<path transform="matrix(1,0,0,-1.00005,35.035005,58.69313)" stroke-width=".79701" stroke-linecap="butt" stroke-miterlimit="10" stroke-linejoin="miter" fill="none" stroke="#000000" d="M0 56.69362-32.74008 23.95352"/>
</svg>
