<svg xmlns="http://www.w3.org/2000/svg" xmlns:xlink="http://www.w3.org/1999/xlink" xmlns:inkscape="http://www.inkscape.org/namespaces/inkscape" version="1.1" width="288" height="287" viewBox="0 0 288 287">
<path transform="matrix(1.00006,0,0,-1.00005,144.03549,285.47648)" d="M0 0 141.73404 141.73404C141.73404 220.0126 78.27855 283.4681 0 283.4681-78.27855 283.4681-141.73404 220.0126-141.73404 141.73404Z" fill="#8080ff"/>
<path transform="matrix(1.00006,0,0,-1.00005,144.03549,285.47648)" stroke-width=".79701" stroke-linecap="butt" stroke-miterlimit="10" stroke-linejoin="miter" fill="none" stroke="#000000" d="M0 0 141.73404 141.73404"/>
<path transform="matrix(1.00006,0,0,-1.00005,144.03549,285.47648)" stroke-width=".79701" stroke-linecap="butt" stroke-miterlimit="10" stroke-linejoin="miter" fill="none" stroke="#000000" d="M0 0-141.73404 141.73404"/>
<path transform="matrix(1.00006,0,0,-1.00005,144.03549,285.47648)" stroke-width=".79701" stroke-linecap="butt" stroke-miterlimit="10" stroke-linejoin="miter" fill="none" stroke="#000000" d="M141.73404 141.73404C141.73404 220.0126 78.27855 283.4681 0 283.4681-78.27855 283.4681-141.73404 220.0126-141.73404 141.73404"/>
<path transform="matrix(1.00006,0,0,-1.00005,144.03549,285.47648)" d="M42.5202 198.42766C42.5202 221.91123 23.48355 240.94788 0 240.94788-23.48355 240.94788-42.5202 221.91123-42.5202 198.42766-42.5202 174.9441-23.48355 155.90746 0 155.90746 23.48355 155.90746 42.5202 174.9441 42.5202 198.42766ZM0 198.42766" fill="#ff8000"/>
<path transform="matrix(1.00006,0,0,-1.00005,144.03549,285.47648)" stroke-width=".79701" stroke-linecap="butt" stroke-miterlimit="10" stroke-linejoin="miter" fill="none" stroke="#000000" d="M42.5202 198.42766C42.5202 221.91123 23.48355 240.94788 0 240.94788-23.48355 240.94788-42.5202 221.91123-42.5202 198.42766-42.5202 174.9441-23.48355 155.90746 0 155.90746 23.48355 155.90746 42.5202 174.9441 42.5202 198.42766ZM0 198.42766"/>
</svg>
