<svg xmlns="http://www.w3.org/2000/svg" xmlns:xlink="http://www.w3.org/1999/xlink" xmlns:inkscape="http://www.inkscape.org/namespaces/inkscape" version="1.1" width="118" height="137" viewBox="0 0 118 137">
<path transform="matrix(1.00003,0,0,-1.00008,58.99022,115.391948)" stroke-width=".79701" stroke-linecap="butt" stroke-miterlimit="10" stroke-linejoin="miter" fill="none" stroke="#000000" d="M-56.69362 0C-56.69362-10.95894-31.31142-19.84267 0-19.84267 31.31142-19.84267 56.69362-10.95894 56.69362 0"/>
<path transform="matrix(1.00003,0,0,-1.00008,58.99022,115.391948)" stroke-width=".3985" stroke-linecap="butt" stroke-dasharray="2.98883,2.98883" stroke-miterlimit="10" stroke-linejoin="miter" fill="none" stroke="#000000" d="M56.69362 0C56.69362 10.95894 31.31142 19.84267 0 19.84267-31.31142 19.84267-56.69362 10.95894-56.69362 0"/>
<path transform="matrix(1.00003,0,0,-1.00008,58.99022,115.391948)" stroke-width=".79701" stroke-linecap="butt" stroke-miterlimit="10" stroke-linejoin="miter" fill="none" stroke="#000000" d="M-56.69362 0 0 113.38724"/>
<path transform="matrix(1.00003,0,0,-1.00008,58.99022,115.391948)" stroke-width=".79701" stroke-linecap="butt" stroke-miterlimit="10" stroke-linejoin="miter" fill="none" stroke="#000000" d="M56.69362 0 0 113.38724"/>
</svg>
