<svg xmlns="http://www.w3.org/2000/svg" xmlns:xlink="http://www.w3.org/1999/xlink" xmlns:inkscape="http://www.inkscape.org/namespaces/inkscape" version="1.1" width="385" height="247" viewBox="0 0 385 247">
<defs>
<path id="font_1_57" d="M.43798829 .16992188V.1959076H.33599855V.64694216C.33599855 .66793826 .33499146 .6689453 .31698609 .6689453L.019989014 .1959076V.16992188H.27799989V.07196045C.27799989 .035980226 .27598573 .025985718 .20599365 .025985718H.18699646V0C.21899414 .0019989014 .272995 .0019989014 .30699159 .0019989014 .34098817 .0019989014 .394989 .0019989014 .4269867 0V.025985718H.4079895C.33799745 .025985718 .33599855 .035980226 .33599855 .07196045V.16992188H.43798829M.2809906 .1959076H.039993287L.2809906 .5809326V.1959076Z"/>
<path id="font_1_66" d="M.21398926 0V.025985718C.15499878 .025985718 .15299988 .03199768 .15299988 .06803894V.43847657L.037994386 .4273529V.4013672C.09399414 .4013672 .101989749 .39535523 .101989749 .3473053V.06903076C.101989749 .0309906 .09799194 .025985718 .033996583 .025985718V0C.057998659 .0019989014 .100997928 .0019989014 .12599182 .0019989014 .1499939 .0019989014 .19099427 .0019989014 .21398926 0M.16499329 .60446169C.16499329 .62846377 .1459961 .64546206 .125 .64546206 .100997928 .64546206 .083999637 .62646487 .083999637 .60446169 .083999637 .58047488 .102996829 .56347659 .12399292 .56347659 .147995 .56347659 .16499329 .58247378 .16499329 .60446169Z"/>
<path id="font_1_77" d="M.48298646 0V.025985718C.4189911 .025985718 .4149933 .02999878 .4149933 .06904602V.3043213C.4149933 .35539247 .40499879 .43847657 .2869873 .43847657 .20799256 .43847657 .16699219 .3774109 .1519928 .33737184H.15098572V.43847657L.032989503 .4273529V.4013672C.09199524 .4013672 .100997928 .39535523 .100997928 .3473053V.06903076C.100997928 .0309906 .09700012 .025985718 .032989503 .025985718V0C.056991579 .0019989014 .100997928 .0019989014 .1269989 .0019989014 .15299988 .0019989014 .19799805 .0019989014 .22200012 0V.025985718C.1579895 .025985718 .1539917 .02999878 .1539917 .06903076V.26123048C.1539917 .35339356 .20999146 .4224701 .27999879 .4224701 .35398866 .4224701 .3619995 .35638429 .3619995 .30833436V.06904602C.3619995 .03100586 .35798646 .025985718 .2939911 .025985718V0C.31799317 .0019989014 .3619995 .0019989014 .3880005 .0019989014 .4139862 .0019989014 .45899964 .0019989014 .48298646 0Z"/>
<path id="font_1_88" d="M.1659851 .040985109C.1659851 .06599426 .1459961 .08198547 .125 .08198547 .10499573 .08198547 .083999637 .06599426 .083999637 .040985109 .083999637 .015991211 .10398865 0 .125 0 .14498902 0 .1659851 .015991211 .1659851 .040985109Z"/>
<path id="font_1_106" d="M.4249878 .17337036C.4249878 .27037049 .34498597 .34036256 .25 .35136415 .32598878 .3673706 .39898683 .43536378 .39898683 .5263672 .39898683 .6042328 .31999208 .6611328 .22999573 .6611328 .13899231 .6611328 .05899048 .6052246 .05899048 .5253601 .05899048 .4903717 .084991458 .484375 .09799194 .484375 .11898804 .484375 .13699341 .49736024 .13699341 .5233612 .13699341 .5493622 .11898804 .5623627 .09799194 .5623627 .09399414 .5625458 .08898926 .5625458 .084991458 .5605469 .11399841 .62654116 .19299317 .63853457 .22799683 .63853457 .2630005 .63853457 .32899476 .62153628 .32899476 .5255127 .32899476 .4974823 .32499696 .44744874 .29100038 .40341188 .26098634 .36436463 .22698975 .36236573 .19400025 .359375 .18899536 .359375 .1659851 .35736085 .1619873 .35736085 .15499878 .35598756 .15098572 .35499574 .15098572 .34799195 .15098572 .34136964 .1519928 .34036256 .17199707 .34036256H.22099304C.30999757 .34036256 .34899903 .2633667 .34899903 .17434693 .34899903 .054367067 .2849884 .008361816 .22698975 .008361816 .17399597 .008361816 .08799744 .034362794 .06098938 .11135864 .06599426 .10934448 .070999149 .10934448 .07598877 .10934448 .099990848 .10935974 .117996219 .12536621 .117996219 .15136719 .117996219 .18035889 .09599304 .19335938 .07598877 .19335938 .05899048 .19335938 .032989503 .18534851 .032989503 .1483612 .032989503 .056365968 .12298584-.015625 .22898865-.015625 .33999635-.015625 .4249878 .07136536 .4249878 .1733551V.17337036Z"/>
<path id="font_1_56" d="M.4169922 .20240784C.4169922 .32240296 .33898927 .41540528 .24198914 .41540528 .19099427 .41540528 .147995 .39640809 .11399841 .3604126V.58535769C.12399292 .5813446 .16499329 .5683594 .20698548 .5683594 .2999878 .5683594 .35099793 .61834719 .37998963 .64723208 .37998963 .6551819 .37998963 .66015627 .37399293 .66015627 .37399293 .66015627 .37098695 .66015627 .36299134 .6561737 .32798768 .64126589 .2869873 .62934878 .23699951 .62934878 .20698548 .62927249 .1619873 .63327029 .11299133 .65527346 .101989749 .66015627 .09899902 .66015627 .09899902 .66015627 .09399414 .66026309 .09298706 .65927127 .09298706 .63926699V.3493805C.09298706 .33137513 .09298706 .3263855 .102996829 .3263855 .10798645 .3263855 .10998535 .3283844 .114990238 .33538819 .14698792 .3804016 .19099427 .39941407 .24099732 .39941407 .27598573 .39941407 .35099793 .37739564 .35099793 .20632935 .35099793 .1743164 .35099793 .11630249 .32099916 .0703125 .29599 .029342652 .25698854 .008361816 .21398926 .008361816 .147995 .008361816 .08099365 .05432129 .06298828 .13130188 .066986087 .13009644 .07499695 .12809754 .07899475 .12809754 .09199524 .12809754 .116989139 .13510132 .116989139 .16609192 .116989139 .19309998 .09799194 .20410156 .07899475 .20410156 .055999757 .20410156 .040985109 .190094 .040985109 .16209412 .040985109 .07521057 .10998535-.015625 .21598816-.015625 .31900025-.015625 .4169922 .07322693 .4169922 .2020874V.20240784Z"/>
<path id="font_1_101" d="M.41999818 .20526123C.41999818 .33026124 .33898927 .42126466 .23699951 .42126466 .17599488 .42126466 .1309967 .38127137 .10598755 .31126405V.34526063C.10598755 .5844116 .21798706 .63812258 .2829895 .63812258 .3039856 .63812258 .35499574 .6341553 .375 .5954132 .35899354 .5954132 .32899476 .5954132 .32899476 .56040957 .32899476 .5334015 .35099793 .52441409 .36499024 .52441409 .37399293 .52441409 .40098573 .52841189 .40098573 .56240847 .40098573 .6251221 .35099793 .6611328 .28199769 .6611328 .16299439 .6611328 .037994386 .5371704 .037994386 .31625367 .037994386 .0443573 .15098572-.015625 .23098755-.015625 .32798768-.0155181889 .41999818 .07148743 .41999818 .20549011V.20526123M.35198976 .20648194C.35198976 .15245056 .35198976 .11242676 .33099366 .072402957 .30899049 .03138733 .2769928 .008361816 .23098755 .008361816 .10798645 .008361816 .10798645 .19247437 .10798645 .22949219 .10798645 .3013916 .14199829 .40527345 .23498535 .40527345 .2519989 .40527345 .30099488 .40527345 .33399964 .3363495 .35198976 .29748536 .35198976 .256485 .35198976 .20648194Z"/>
</defs>
<path transform="matrix(1.00006,0,0,-1.00003,41.353578,228.9764)" d="M0 0H226.77448L0 170.08086Z" fill="#00ff00"/>
<path transform="matrix(1.00006,0,0,-1.00003,41.353578,228.9764)" stroke-width="1.19553" stroke-linecap="butt" stroke-miterlimit="10" stroke-linejoin="miter" fill="none" stroke="#000000" d="M0 0H226.77448L0 170.08086Z"/>
<path transform="matrix(1.00006,0,0,-1.00003,41.353578,228.9764)" d="M113.38724 226.77448 340.1617 56.69362 113.38724 85.0404Z" fill="#00ff00"/>
<path transform="matrix(1.00006,0,0,-1.00003,41.353578,228.9764)" stroke-width="1.19553" stroke-linecap="butt" stroke-miterlimit="10" stroke-linejoin="miter" fill="none" stroke="#000000" d="M113.38724 226.77448 340.1617 56.69362 113.38724 85.0404Z"/>
<path transform="matrix(1.00006,0,0,-1.00003,41.353578,228.9764)" stroke-width="1.19553" stroke-linecap="butt" stroke-dasharray="2.98883,2.98883" stroke-miterlimit="10" stroke-linejoin="miter" fill="none" stroke="#000000" d="M113.38724 226.77448V85.0404"/>
<path transform="matrix(1.00006,0,0,-1.00003,41.353578,228.9764)" stroke-width="1.19553" stroke-linecap="butt" stroke-dasharray="2.98883,2.98883" stroke-miterlimit="10" stroke-linejoin="miter" fill="none" stroke="#000000" d="M340.1617 56.69362 113.38724 85.0404"/>
<path transform="matrix(1.00006,0,0,-1.00003,41.353578,228.9764)" stroke-width="1.19553" stroke-linecap="butt" stroke-dasharray="2.98883,2.98883" stroke-miterlimit="10" stroke-linejoin="miter" fill="none" stroke="#000000" d="M0 0 113.38724 85.0404"/>
<path transform="matrix(1.00006,0,0,-1.00003,41.353578,228.9764)" stroke-width="1.19553" stroke-linecap="butt" stroke-miterlimit="10" stroke-linejoin="miter" fill="none" stroke="#000000" d="M0 170.08086 113.38724 226.77448"/>
<path transform="matrix(1.00006,0,0,-1.00003,41.353578,228.9764)" stroke-width="1.19553" stroke-linecap="butt" stroke-miterlimit="10" stroke-linejoin="miter" fill="none" stroke="#000000" d="M113.38724 226.77448 340.1617 56.69362"/>
<path transform="matrix(1.00006,0,0,-1.00003,41.353578,228.9764)" stroke-width="1.19553" stroke-linecap="butt" stroke-miterlimit="10" stroke-linejoin="miter" fill="none" stroke="#000000" d="M226.77448 0 340.1617 56.69362"/>
<path transform="matrix(1.00006,0,0,-1.00003,41.353578,228.9764)" stroke-width="1.19553" stroke-linecap="butt" stroke-miterlimit="10" stroke-linejoin="miter" fill="none" stroke="#000000" d="M17.00824 0V17.00824H0"/>
<use data-text="4" xlink:href="#font_1_57" transform="matrix(20.66374,0,0,-20.66312,136.43927,246.31992)" fill="#0000ff"/>
<use data-text="i" xlink:href="#font_1_66" transform="matrix(20.66374,0,0,-20.66312,152.1437,246.31992)" fill="#0000ff"/>
<use data-text="n" xlink:href="#font_1_77" transform="matrix(20.66374,0,0,-20.66312,157.30965,246.31992)" fill="#0000ff"/>
<use data-text="." xlink:href="#font_1_88" transform="matrix(20.66374,0,0,-20.66312,167.8688,246.31992)" fill="#0000ff"/>
<use data-text="3" xlink:href="#font_1_106" transform="matrix(20.66374,0,0,-20.66312,1.2171707,150.59705)"/>
<use data-text="i" xlink:href="#font_1_66" transform="matrix(20.66374,0,0,-20.66312,16.9216,150.59705)"/>
<use data-text="n" xlink:href="#font_1_77" transform="matrix(20.66374,0,0,-20.66312,22.08754,150.59705)"/>
<use data-text="." xlink:href="#font_1_88" transform="matrix(20.66374,0,0,-20.66312,32.646699,150.59705)"/>
<use data-text="5" xlink:href="#font_1_56" transform="matrix(20.66374,0,0,-20.66312,101.57019,111.73487)"/>
<use data-text="i" xlink:href="#font_1_66" transform="matrix(20.66374,0,0,-20.66312,117.27461,111.73487)"/>
<use data-text="n" xlink:href="#font_1_77" transform="matrix(20.66374,0,0,-20.66312,122.44055,111.73487)"/>
<use data-text="." xlink:href="#font_1_88" transform="matrix(20.66374,0,0,-20.66312,132.99971,111.73487)"/>
<use data-text="6" xlink:href="#font_1_101" transform="matrix(20.66374,0,0,-20.66312,284.70219,189.45922)"/>
<use data-text="i" xlink:href="#font_1_66" transform="matrix(20.66374,0,0,-20.66312,300.40663,189.45922)"/>
<use data-text="n" xlink:href="#font_1_77" transform="matrix(20.66374,0,0,-20.66312,305.57255,189.45922)"/>
<use data-text="." xlink:href="#font_1_88" transform="matrix(20.66374,0,0,-20.66312,316.1317,189.45922)"/>
</svg>
