<svg xmlns="http://www.w3.org/2000/svg" xmlns:xlink="http://www.w3.org/1999/xlink" xmlns:inkscape="http://www.inkscape.org/namespaces/inkscape" version="1.1" width="118" height="117" viewBox="0 0 118 117">
<defs>
<path id="font_1_95" d="M.8580017 .09487915C.8580017 .11682129 .84399417 .11682129 .83399966 .11682129 .8129883 .11682129 .81199648 .1068573 .8109894 .09388733 .80599978 .04699707 .7769928 .024993897 .746994 .024993897 .68699648 .024993897 .6779938 .09587097 .6729889 .13778687 .67099 .14875794 .6629944 .21759033 .6619873 .22257996 .647995 .29241944 .59298709 .323349 .5499878 .3393402 .66600039 .36935426 .71699526 .43440248 .71699526 .5004425 .71699526 .6015167 .6069946 .6855469 .4189911 .6855469H.038986207V.63853457H.14698792V.04699707H.038986207V0C.07499695 .0029907227 .17298889 .0029907227 .21499634 .0029907227 .25698854 .0029907227 .35499574 .0029907227 .3909912 0V.04699707H.2829895V.32434083H.3999939C.4139862 .32434083 .45799256 .32434083 .4889984 .29042054 .5209961 .25550843 .5209961 .23654175 .5209961 .16371155 .5209961 .09786987 .5209961 .048980714 .59098818 .01499939 .6349945-.007003784 .69699099-.011001587 .73799136-.011001587 .8450012-.011001587 .8580017 .07891846 .8580017 .09487915M.56399539 .49943543C.56399539 .44340516 .56399539 .36035157 .39898683 .36035157H.2829895V.63853457H.40098573C.56199648 .63853457 .56399539 .56048586 .56399539 .49943543Z"/>
<path id="font_1_49" d="M.72299197 .27397157H.6759949C.6539917 .13598633 .6259918 .04699707 .44099427 .04699707H.2889862V.32896424H.34399415C.43998719 .32896424 .44999696 .28596498 .44999696 .2119751H.49699403V.4928894H.44999696C.44999696 .4189453 .44099427 .37597657 .34399415 .37597657H.2889862V.6328125H.44099427C.60198977 .6328125 .6279907 .5598297 .6439972 .43885804H.69099429L.6599884 .6798096H.038986207V.6328125H.14698792V.04699707H.038986207V0H.6769867L.72299197 .27397157Z"/>
<path id="font_1_46" d="M.81700137 .33676148C.81700137 .55659487 .6669922 .6855469 .46899415 .6855469H.038986207V.63853457H.14698792V.04699707H.038986207V0H.46998597C.6669922 0 .81700137 .12294006 .81700137 .33676148M.66999819 .33776856C.66999819 .22885132 .6579895 .17588806 .6259918 .13092041 .5779877 .06297302 .48999024 .04699707 .42900086 .04699707H.2829895V.63853457H.42900086C.49499513 .63853457 .5779877 .6195526 .6269989 .5496063 .6619873 .49864198 .66999819 .43069459 .66999819 .33776856Z"/>
<path id="font_1_34" d="M.7529907 .18592835C.7529907 .28189088 .6669922 .3488617 .5479889 .35786439 .6559906 .37686158 .72099307 .43678285 .72099307 .51368716 .72099307 .60557559 .6339874 .6855469 .47299195 .6855469H.038986207V.63853457H.14698792V.04699707H.038986207V0H.5029907C.6689911 0 .7529907 .08796692 .7529907 .18592835M.57899478 .51368716C.57899478 .43678285 .5309906 .37486268 .43399049 .37486268H.27799989V.63853457H.45999146C.5609894 .63853457 .57899478 .55963137 .57899478 .51368716M.60598757 .18693543C.60598757 .17492676 .60598757 .04699707 .46199037 .04699707H.27799989V.3388672H.47200013C.49198915 .3388672 .5389862 .3388672 .57299807 .29588319 .60598757 .253891 .60598757 .19792176 .60598757 .18693543Z"/>
<path id="font_1_71" d="M.6429901 .27381898H.59599307C.58799746 .2048645 .57099917 .04699707 .3919983 .04699707H.2889862V.63853457H.42399598V.6855469C.37998963 .6825409 .2709961 .6825409 .22200012 .6825409 .17799378 .6825409 .07699585 .6825409 .038986207 .6855469V.63853457H.14698792V.04699707H.038986207V0H.6119995L.6429901 .27381898Z"/>
<path id="font_1_108" d="M.8450012 .63853457V.6855469C.8069916 .6826172 .75 .6826172 .71099856 .6826172 .6689911 .6825409 .61698916 .6825409 .57598879 .6855469V.63853457H.6009979C.61898806 .63861086 .6359863 .63760378 .6539917 .63560488 .68299868 .63261416 .6839905 .63160708 .6839905 .6096344V.23303223C.6839905 .08520508 .57499697 .036254884 .46598817 .036254884 .29100038 .036254884 .2889862 .16711426 .2889862 .22305298V.63853457H.39698792V.6855469C.35899354 .6826172 .26098634 .6826172 .21798706 .6826172 .1749878 .6825409 .07699585 .6825409 .038986207 .6855469V.63853457H.14698792V.23101807C.14698792 .09817505 .25498963-.0107421879 .46199037-.0107421879 .6519928-.0107421879 .7369995 .106170658 .7369995 .22901917V.60957339C.7369995 .63160708 .73799136 .63261416 .7659912 .63560488 .7899933 .63853457 .7919922 .63853457 .81999209 .63853457H.8450012Z"/>
<path id="font_1_58" d="M.8450012 .22935486V.2763672C.80999758 .2733612 .72299197 .2733612 .6839905 .2733612 .6259918 .2733612 .5329895 .2733612 .47898866 .2763672V.22935486H.6230011V.1282959C.6230011 .109298709 .6230011 .08027649 .58399966 .057266237 .55799868 .042251588 .526001 .036254884 .49398805 .036254884 .4079895 .036254884 .32199098 .06526184 .272995 .12730408 .22999573 .18232727 .21699524 .25335694 .21699524 .3443451 .21699524 .4563141 .23699951 .5142975 .27398683 .5632782 .31399537 .613266 .3909912 .6502533 .4869995 .6502533 .59399417 .6502533 .68899539 .5742798 .71099856 .4473114 .71398928 .4283142 .71499636 .4263153 .73799136 .4263153 .7639923 .4263153 .7649994 .4283142 .7649994 .4543152V.6692505C.7649994 .68826296 .7649994 .6972656 .746994 .6972656 .73799136 .6972656 .73599246 .69525149 .7279968 .68826296L.6619873 .62927249C.58898928 .68725588 .5169983 .6972656 .46499635 .6972656 .21899414 .6972656 .06399536 .55029299 .06399536 .343338 .06399536 .14431763 .20899964-.0107421879 .46699525-.0107421879 .5-.0107421879 .6029968-.008743286 .6529999 .053253175 .6839905 .026245118 .74398806 .00024414063 .7509918 .00024414063 .7649994 .00024414063 .7649994 .013244629 .7649994 .028244019V.22935486H.8450012Z"/>
<path id="font_1_76" d="M.8600006 .63853457V.6855469C.82199099 .6826172 .7649994 .6826172 .7259979 .6826172 .6839905 .6825409 .6319885 .6825409 .59098818 .6855469V.63853457H.6159973C.6339874 .63861086 .651001 .63760378 .6689911 .63560488 .69799807 .63261416 .69898989 .63160708 .69898989 .6096039V.2046051L.30099488 .6726074C.2899933 .6845398 .2889862 .6855469 .2679901 .6855469H.038986207V.63853457H.14698792V.075912479C.14698792 .05392456 .1459961 .05291748 .117996219 .049926759 .09399414 .04699707 .09199524 .04699707 .06399536 .04699707H.038986207V0C.07699585 .0029296876 .13398743 .0029296876 .17298889 .0029296876 .21499634 .0029907227 .2669983 .0029907227 .30799867 0V.04699707H.2829895C.2649994 .046920778 .24798584 .047927858 .22999573 .049926759 .20098877 .05291748 .19999695 .05392456 .19999695 .075927738V.5989227L.69799807 .012924194C.70799258 .0009918213 .70899966 0 .72499087 0 .7519989 0 .7519989 .008987427 .7519989 .03199768V.60961917C.7519989 .63160708 .7529907 .63261416 .7809906 .63560488 .8049927 .63853457 .8069916 .63853457 .83499148 .63853457H.8600006Z"/>
<path id="font_1_117" d="M.848999 .63853457V.6855469L.7350006 .6826172C.69599917 .6825409 .6399994 .6825409 .6029968 .6855469V.63853457C.6259918 .63853457 .6529999 .63853457 .67900088 .62854006 .6769867 .62454226 .6769867 .62254336 .6719971 .61654666L.4850006 .34153749 .28199769 .63853457H.36698915V.6855469C.32598878 .6826172 .22898865 .6826172 .18399048 .6826172 .14399719 .6825409 .053985597 .6825409 .018997193 .6855469V.63853457H.116989139L.3659973 .27381898V.04699707H.2579956V0C.2939911 .0029907227 .3919983 .0029907227 .43399049 .0029907227 .47698976 .0029907227 .57299807 .0029907227 .61099246 0V.04699707H.5019989V.27381898L.7369995 .61854556C.74598696 .63261416 .7539978 .63261416 .776001 .63560488 .79299929 .6375427 .8109894 .63853457 .8279877 .63853457H.848999Z"/>
<path id="font_1_80" d="M.798996 .33924867C.798996 .5552521 .6539917 .6972656 .43199159 .6972656 .20298767 .6972656 .06399536 .5492554 .06399536 .33924867 .06399536 .13224793 .20399475-.0107421879 .43099977-.0107421879 .6609955-.0107421879 .798996 .13424683 .798996 .33924867M.6459961 .3542633C.6459961 .28425599 .6419983 .19525147 .59999087 .12625122 .5549927 .053253175 .4850006 .03125 .43099977 .03125 .37199403 .03125 .29899598 .059249879 .2579956 .1352539 .22499085 .19725037 .21699524 .2682495 .21699524 .3542633 .21699524 .41825868 .21998596 .5032654 .2639923 .57125857 .30499269 .6322632 .37199403 .6572571 .43099977 .6572571 .49499513 .6572571 .56399539 .6292572 .60398867 .56326296 .6419983 .49925233 .6459961 .42225648 .6459961 .3542633Z"/>
<path id="font_1_113" d="M1.1640015 .63853457V.6855469C1.1369934 .6845398 1.1019898 .6825409 1.0569916 .6825409 1.0189972 .6825409 .95700076 .6825409 .92099 .6855469V.63853457C.94599917 .63853457 .99398806 .63853457 1.022995 .6275482L.8509979 .1809845 .673996 .63853457H.769989V.6855469C.7319946 .6825409 .6380005 .6825409 .59498599 .6825409 .55599978 .6825409 .47698976 .6825409 .44198609 .6855469V.63853457H.5279999L.56900027 .53263857 .43299867 .1809845 .2559967 .63853457H.35198976V.6855469C.31399537 .6825409 .21998596 .6825409 .1769867 .6825409 .13798523 .6825409 .05899048 .6825409 .023986817 .6855469V.63853457H.10998535L.34999085 .018157959C.35598756 .002166748 .3600006-.0078125 .3849945-.0078125 .4099884-.0078125 .4139862 .002166748 .41999818 .018157959L.59399417 .4677124 .7679901 .018157959C.7739868 .002166748 .7779999-.0078125 .8029938-.0078125 .8279877-.0078125 .83200076 .002166748 .83799746 .018157959L1.0690003 .614563C1.074997 .631546 1.0759888 .6335449 1.1069946 .63653567 1.1269989 .63853457 1.147995 .63853457 1.1640015 .63853457Z"/>
</defs>
<path transform="matrix(1.00003,0,0,-1,58.99022,58.691)" d="M0 0H56.69362C56.69362 31.31142 31.31142 56.69362 0 56.69362Z" fill="#ff6464"/>
<path transform="matrix(1.00003,0,0,-1,58.99022,58.691)" d="M0 0V56.69362C-31.31142 56.69362-56.69362 31.31142-56.69362 0Z" fill="#6496ff"/>
<path transform="matrix(1.00003,0,0,-1,58.99022,58.691)" d="M0 0H-56.69362C-56.69362-31.31142-31.31142-56.69362 0-56.69362Z" fill="#64c864"/>
<path transform="matrix(1.00003,0,0,-1,58.99022,58.691)" d="M0 0V-56.69362C31.31142-56.69362 56.69362-31.31142 56.69362 0Z" fill="#ffe664"/>
<path transform="matrix(1.00003,0,0,-1,58.99022,58.691)" stroke-width=".79701" stroke-linecap="butt" stroke-miterlimit="10" stroke-linejoin="miter" fill="none" stroke="#000000" d="M56.69362 0C56.69362 31.31142 31.31142 56.69362 0 56.69362-31.31142 56.69362-56.69362 31.31142-56.69362 0-56.69362-31.31142-31.31142-56.69362 0-56.69362 31.31142-56.69362 56.69362-31.31142 56.69362 0ZM0 0"/>
<path transform="matrix(1.00003,0,0,-1,58.99022,58.691)" stroke-width=".79701" stroke-linecap="butt" stroke-miterlimit="10" stroke-linejoin="miter" fill="none" stroke="#000000" d="M0 0H56.69362"/>
<path transform="matrix(1.00003,0,0,-1,58.99022,58.691)" stroke-width=".79701" stroke-linecap="butt" stroke-miterlimit="10" stroke-linejoin="miter" fill="none" stroke="#000000" d="M0 0V56.69362"/>
<path transform="matrix(1.00003,0,0,-1,58.99022,58.691)" stroke-width=".79701" stroke-linecap="butt" stroke-miterlimit="10" stroke-linejoin="miter" fill="none" stroke="#000000" d="M0 0H-56.69362"/>
<path transform="matrix(1.00003,0,0,-1,58.99022,58.691)" stroke-width=".79701" stroke-linecap="butt" stroke-miterlimit="10" stroke-linejoin="miter" fill="none" stroke="#000000" d="M0 0V-56.69362"/>
<use data-text="R" xlink:href="#font_1_95" transform="matrix(9.962899,0,0,-9.9626,72.58963,35.996004)"/>
<use data-text="E" xlink:href="#font_1_49" transform="matrix(9.962899,0,0,-9.9626,81.18761,35.996004)"/>
<use data-text="D" xlink:href="#font_1_46" transform="matrix(9.962899,0,0,-9.9626,88.71954,35.996004)"/>
<use data-text="B" xlink:href="#font_1_34" transform="matrix(9.962899,0,0,-9.9626,17.234963,35.996004)"/>
<use data-text="L" xlink:href="#font_1_71" transform="matrix(9.962899,0,0,-9.9626,25.38462,35.996004)"/>
<use data-text="U" xlink:href="#font_1_108" transform="matrix(9.962899,0,0,-9.9626,32.27894,35.996004)"/>
<use data-text="E" xlink:href="#font_1_49" transform="matrix(9.962899,0,0,-9.9626,41.096109,35.996004)"/>
<use data-text="G" xlink:href="#font_1_58" transform="matrix(9.962899,0,0,-9.9626,12.113815,88.166)"/>
<use data-text="R" xlink:href="#font_1_95" transform="matrix(9.962899,0,0,-9.9626,21.12027,88.166)"/>
<use data-text="E" xlink:href="#font_1_49" transform="matrix(9.962899,0,0,-9.9626,29.718247,88.166)"/>
<use data-text="E" xlink:href="#font_1_49" transform="matrix(9.962899,0,0,-9.9626,37.2502,88.166)"/>
<use data-text="N" xlink:href="#font_1_76" transform="matrix(9.962899,0,0,-9.9626,44.78215,88.166)"/>
<use data-text="Y" xlink:href="#font_1_117" transform="matrix(9.962899,0,0,-9.9626,59.99125,88.166)"/>
<use data-text="E" xlink:href="#font_1_49" transform="matrix(9.962899,0,0,-9.9626,68.64901,88.166)"/>
<use data-text="L" xlink:href="#font_1_71" transform="matrix(9.962899,0,0,-9.9626,76.18095,88.166)"/>
<use data-text="L" xlink:href="#font_1_71" transform="matrix(9.962899,0,0,-9.9626,83.07528,88.166)"/>
<use data-text="O" xlink:href="#font_1_80" transform="matrix(9.962899,0,0,-9.9626,89.96961,88.166)"/>
<use data-text="W" xlink:href="#font_1_113" transform="matrix(9.962899,0,0,-9.9626,98.2687,88.166)"/>
<path transform="matrix(1.00003,0,0,-1,58.99022,58.691)" d="M-4.25183 42.5202H4.25183L0 51.02432Z"/>
<path transform="matrix(1.00003,0,0,-1,58.99022,58.691)" stroke-width=".79701" stroke-linecap="butt" stroke-miterlimit="10" stroke-linejoin="miter" fill="none" stroke="#000000" d="M0 0V42.5202"/>
<path transform="matrix(1.00003,0,0,-1,58.99022,58.691)" d="M5.66927 0C5.66927 3.13109 3.13109 5.66927 0 5.66927-3.13109 5.66927-5.66927 3.13109-5.66927 0-5.66927-3.13109-3.13109-5.66927 0-5.66927 3.13109-5.66927 5.66927-3.13109 5.66927 0ZM0 0"/>
</svg>
