<svg xmlns="http://www.w3.org/2000/svg" xmlns:xlink="http://www.w3.org/1999/xlink" xmlns:inkscape="http://www.inkscape.org/namespaces/inkscape" version="1.1" width="210" height="184" viewBox="0 0 210 184">
<defs>
<path id="font_1_107" d="M.5169983 .22200012H.46998597C.46699525 .20199585 .45799256 .13798523 .44400025 .1309967 .43299867 .125 .35798646 .125 .34199525 .125H.19499207C.24198914 .1639862 .2939911 .20698548 .33898927 .23999024 .45298768 .3242035 .5169983 .37124635 .5169983 .4663086 .5169983 .5812988 .41299439 .65527346 .27198792 .65527346 .15098572 .65527346 .056991579 .593277 .056991579 .50331118 .056991579 .44430543 .10499573 .42930604 .1289978 .42930604 .16099549 .42930604 .20098877 .4513092 .20098877 .50131228 .20098877 .55329897 .15899658 .5693054 .14399719 .5733032 .17298889 .5972748 .21099854 .6082611 .24699402 .6082611 .33299256 .6082611 .3789978 .54029849 .3789978 .4653015 .3789978 .39627076 .34098817 .3282013 .2709961 .25712586L.069992069 .051986696C.056991579 .039993287 .056991579 .037994386 .056991579 .017990113V0H.48599244L.5169983 .22200012Z"/>
<path id="font_1_57" d="M.5419922 0V.04699707H.44499208V.15611267H.5419922V.203125H.44499208V.62423709C.44499208 .6512451 .44299317 .65625 .4149933 .65625 .3939972 .65625 .3929901 .6552429 .3809967 .6402283L.03199768 .203125V.15611267H.31999208V.04699707H.20799256V0C.24598694 .0029907227 .33699037 .0029907227 .37998963 .0029907227 .41999818 .0029907227 .5069885 .0029907227 .5419922 0M.33099366 .203125H.083999637L.33099366 .51319888V.203125Z"/>
<path id="font_1_43" d="M.47799684 .117126468C.47799684 .13113404 .46398927 .13113404 .45399476 .13113404 .43598939 .13113404 .43499757 .12913513 .42999269 .11613464 .4039917 .053131105 .35598756 .03413391 .30499269 .03413391 .1659851 .03413391 .1659851 .18112183 .1659851 .22712708 .1659851 .28312684 .1659851 .41311646 .29499818 .41311646 .32998658 .41311646 .34700013 .41011048 .3600006 .40711976 .34199525 .39111329 .33999635 .3701172 .33999635 .3611145 .33999635 .3171234 .375 .29811097 .4019928 .29811097 .43299867 .29811097 .46499635 .3191223 .46499635 .3611145 .46499635 .44711305 .34899903 .453125 .29100038 .453125 .11199951 .45314027 .037994386 .33813478 .037994386 .22213745 .037994386 .08912659 .13198853-.005859375 .28599549-.005859375 .44799806-.005859375 .47799684 .11013794 .47799684 .117126468Z"/>
<path id="font_1_75" d="M.93499758 0V.04699707H.8659973V.30613709C.8659973 .40919496 .8149872 .4501953 .71199038 .4501953 .62098696 .4501953 .56900027 .40019227 .54299929 .3541565 .522995 .44718934 .43099977 .4501953 .3929901 .4501953 .30599977 .4501953 .24899292 .40518189 .21699524 .3421631V.4501953L.04499817 .4423828V.39537049C.10699463 .39537049 .11399841 .39537049 .11399841 .3563385V.04699707H.04499817V0L.17098999 .0029907227 .29699708 0V.04699707H.22799683V.2562256C.22799683 .3653412 .31498719 .41436769 .3769989 .41436769 .41099549 .41436769 .43299867 .39437867 .43299867 .31729127V.04699707H.3639984V0L.48999024 .0029907227 .6159973 0V.04699707H.5469971V.2562256C.5469971 .3653412 .6339874 .41436769 .69599917 .41436769 .7299957 .41436769 .7519989 .39437867 .7519989 .31729127V.04699707H.68299868V0L.8089905 .0029907227 .93499758 0Z"/>
<path id="font_1_106" d="M.526001 .18013C.526001 .23513794 .49699403 .32113648 .35198976 .35212709 .42099 .3731537 .49398805 .4303589 .49398805 .5164032 .49398805 .5933533 .41799928 .65527346 .2769928 .65527346 .1579895 .65527346 .07998657 .59135439 .07998657 .5113983 .07998657 .46839906 .11099243 .44140626 .14898682 .44140626 .19400025 .44140626 .21899414 .47340394 .21899414 .51039126 .21899414 .56840518 .16499329 .5793915 .16099549 .58039858 .19599915 .6082916 .23999024 .616272 .2709961 .616272 .35398866 .616272 .35699464 .5523987 .35699464 .5193939 .35699464 .50639346 .35598756 .3751526 .2519989 .36914063 .21099854 .36712647 .20899964 .36613465 .20399475 .36512757 .19400025 .36413575 .19198609 .35412599 .19198609 .34812928 .19198609 .33013917 .20199585 .33013917 .21998596 .33013917H.2639923C.37298585 .33013917 .37298585 .23243714 .37298585 .18159485 .37298585 .13456726 .37298585 .03225708 .2689972 .03225708 .24299622 .03225708 .19099427 .03627014 .14299011 .06636047 .17599488 .07537842 .20098877 .10046387 .20098877 .14160156 .20098877 .18644715 .16899109 .217453 .125 .217453 .08299255 .217453 .04798889 .19044495 .04798889 .13945008 .04798889 .049346925 .14498902-.0107421879 .27398683-.0107421879 .45298768-.010406494 .526001 .08959961 .526001 .18058777V.18013Z"/>
<path id="font_1_121" d="M.5289917 .31939698C.5289917 .41644288 .5279999 .65527346 .2869873 .65527346 .04598999 .65527346 .04499817 .41744996 .04499817 .31939698 .04499817 .22035218 .04598999-.0107421879 .2869873-.0107421879 .5269928-.0107421879 .5289917 .2193451 .5289917 .31939698M.40098573 .33140565C.40098573 .27537538 .40098573 .18432617 .3939972 .13230896 .37998963 .039260866 .31698609 .025253296 .2869873 .025253296 .25099183 .025253296 .19499207 .04725647 .18199158 .12030029 .17298889 .1723175 .17298889 .27638246 .17298889 .33140565 .17298889 .40344239 .17298889 .46847535 .18099976 .5205078 .19299317 .6092987 .2630005 .6192627 .2869873 .6192627 .32398988 .6192627 .36499024 .6003418 .38398744 .5565033 .40098573 .51950076 .40098573 .41345216 .40098573 .33140565Z"/>
</defs>
<path transform="matrix(1,0,0,-1,26.972,113.916)" d="M0-68.0313H170.07825C176.34044-68.0313 181.4168-37.5731 181.4168 .00002 181.4168 37.57317 176.34044 68.03136 170.07825 68.03136L0 68.0313C-6.26218 68.0313-11.33855 37.5731-11.33855-.00002-11.33855-37.57317-6.26218-68.03136 0-68.03136" fill="#ffffff"/>
<path transform="matrix(1,0,0,-1,26.972,113.916)" d="M0-68.0313C6.26218-68.0313 11.33855-37.5731 11.33855 .00002 11.33855 37.57317 6.26218 68.03136 0 68.03136-6.26218 68.03136-11.33855 37.57317-11.33855 .00002-11.33855-37.5731-6.26218-68.0313 0-68.0313" fill="#ffffff"/>
<path transform="matrix(1,0,0,-1,26.972,113.916)" d="M170.07825-68.0313C176.34044-68.0313 181.4168-37.5731 181.4168 .00002 181.4168 37.57317 176.34044 68.03136 170.07825 68.03136 163.81607 68.03136 158.7397 37.57317 158.7397 .00002 158.7397-37.5731 163.81607-68.0313 170.07825-68.0313" fill="#ffffff"/>
<path transform="matrix(1,0,0,-1,26.972,113.916)" stroke-width=".79701" stroke-linecap="butt" stroke-miterlimit="10" stroke-linejoin="miter" fill="none" stroke="#000000" d="M0-68.0313C6.26218-68.0313 11.33855-37.5731 11.33855 .00002 11.33855 37.57317 6.26218 68.03136 0 68.03136"/>
<path transform="matrix(1,0,0,-1,26.972,113.916)" stroke-width=".79701" stroke-linecap="butt" stroke-miterlimit="10" stroke-linejoin="miter" fill="none" stroke="#000000" d="M0 68.0313C-6.26218 68.0313-11.33855 37.5731-11.33855-.00002-11.33855-37.57317-6.26218-68.03136 0-68.03136"/>
<path transform="matrix(1,0,0,-1,26.972,113.916)" stroke-width=".79701" stroke-linecap="butt" stroke-miterlimit="10" stroke-linejoin="miter" fill="none" stroke="#000000" d="M170.07825-68.0313C176.34044-68.0313 181.4168-37.5731 181.4168 .00002 181.4168 37.57317 176.34044 68.03136 170.07825 68.03136"/>
<path transform="matrix(1,0,0,-1,26.972,113.916)" stroke-width=".79701" stroke-linecap="butt" stroke-miterlimit="10" stroke-linejoin="miter" fill="none" stroke="#000000" d="M170.07825 68.0313C163.81607 68.0313 158.7397 37.5731 158.7397-.00002 158.7397-37.57317 163.81607-68.03136 170.07825-68.03136"/>
<path transform="matrix(1,0,0,-1,26.972,113.916)" stroke-width=".79701" stroke-linecap="butt" stroke-miterlimit="10" stroke-linejoin="miter" fill="none" stroke="#000000" d="M0-68.0313H170.07825"/>
<path transform="matrix(1,0,0,-1,26.972,113.916)" stroke-width=".79701" stroke-linecap="butt" stroke-miterlimit="10" stroke-linejoin="miter" fill="none" stroke="#000000" d="M0 68.0313H170.07825"/>
<path transform="matrix(1,0,0,-1,26.972,113.916)" stroke-width=".79701" stroke-linecap="butt" stroke-miterlimit="10" stroke-linejoin="miter" fill="none" stroke="#ff0000" d="M-22.6771-67.32393V67.32393"/>
<path transform="matrix(0,1,1,0,4.294901,181.23993)" stroke-width=".6376" stroke-linecap="round" stroke-linejoin="round" fill="none" stroke="#ff0000" d="M-1.55415 2.0722C-1.42464 1.29512 0 .1295 .38852 0 0-.1295-1.42464-1.29512-1.55415-2.0722"/>
<path transform="matrix(0,-1,-1,-0,4.294901,46.59207)" stroke-width=".6376" stroke-linecap="round" stroke-linejoin="round" fill="none" stroke="#ff0000" d="M-1.55415 2.0722C-1.42464 1.29512 0 .1295 .38852 0 0-.1295-1.42464-1.29512-1.55415-2.0722"/>
<use data-text="2" xlink:href="#font_1_107" transform="matrix(0,9.9626,9.9626,0,8.074005,98.962)" fill="#ff0000"/>
<use data-text="4" xlink:href="#font_1_57" transform="matrix(0,9.9626,9.9626,0,8.074005,104.69049)" fill="#ff0000"/>
<use data-text="c" xlink:href="#font_1_43" transform="matrix(0,9.9626,9.9626,0,8.074005,114.22469)" fill="#ff0000"/>
<use data-text="m" xlink:href="#font_1_75" transform="matrix(0,9.9626,9.9626,0,8.074005,119.31558)" fill="#ff0000"/>
<path transform="matrix(1,0,0,-1,26.972,113.916)" stroke-width=".79701" stroke-linecap="butt" stroke-miterlimit="10" stroke-linejoin="miter" fill="none" stroke="#0000ff" d="M.70735 79.36984H169.3709"/>
<path transform="matrix(-1,-0,0,1,27.67935,34.546159)" stroke-width=".6376" stroke-linecap="round" stroke-linejoin="round" fill="none" stroke="#0000ff" d="M-1.55415 2.0722C-1.42464 1.29512 0 .1295 .38852 0 0-.1295-1.42464-1.29512-1.55415-2.0722"/>
<path transform="matrix(1,0,0,-1,196.3429,34.546159)" stroke-width=".6376" stroke-linecap="round" stroke-linejoin="round" fill="none" stroke="#0000ff" d="M-1.55415 2.0722C-1.42464 1.29512 0 .1295 .38852 0 0-.1295-1.42464-1.29512-1.55415-2.0722"/>
<use data-text="3" xlink:href="#font_1_106" transform="matrix(0,9.9626,9.9626,0,108.80299,.9189987)" fill="#0000ff"/>
<use data-text="0" xlink:href="#font_1_121" transform="matrix(0,9.9626,9.9626,0,108.80299,6.6474916)" fill="#0000ff"/>
<use data-text="c" xlink:href="#font_1_43" transform="matrix(0,9.9626,9.9626,0,108.80299,16.181694)" fill="#0000ff"/>
<use data-text="m" xlink:href="#font_1_75" transform="matrix(0,9.9626,9.9626,0,108.80299,21.272583)" fill="#0000ff"/>
</svg>
