<svg xmlns="http://www.w3.org/2000/svg" xmlns:xlink="http://www.w3.org/1999/xlink" xmlns:inkscape="http://www.inkscape.org/namespaces/inkscape" version="1.1" width="288" height="386" viewBox="0 0 288 386">
<path transform="matrix(1.00006,0,0,-1,144.03549,384.675)" d="M0 0 141.73404 141.73404C141.73404 220.0126 78.27855 283.4681 0 283.4681-78.27855 283.4681-141.73404 220.0126-141.73404 141.73404Z" fill="#8080ff"/>
<path transform="matrix(1.00006,0,0,-1,144.03549,384.675)" stroke-width=".79701" stroke-linecap="butt" stroke-miterlimit="10" stroke-linejoin="miter" fill="none" stroke="#000000" d="M0 0 141.73404 141.73404"/>
<path transform="matrix(1.00006,0,0,-1,144.03549,384.675)" stroke-width=".79701" stroke-linecap="butt" stroke-miterlimit="10" stroke-linejoin="miter" fill="none" stroke="#000000" d="M0 0-141.73404 141.73404"/>
<path transform="matrix(1.00006,0,0,-1,144.03549,384.675)" stroke-width=".79701" stroke-linecap="butt" stroke-miterlimit="10" stroke-linejoin="miter" fill="none" stroke="#000000" d="M141.73404 141.73404C141.73404 220.0126 78.27855 283.4681 0 283.4681-78.27855 283.4681-141.73404 220.0126-141.73404 141.73404"/>
<path transform="matrix(1.00006,0,0,-1,144.03549,384.675)" d="M42.5202 340.1617C42.5202 363.64527 23.48355 382.68193 0 382.68193-23.48355 382.68193-42.5202 363.64527-42.5202 340.1617-42.5202 316.67817-23.48355 297.6415 0 297.6415 23.48355 297.6415 42.5202 316.67817 42.5202 340.1617ZM0 340.1617" fill="#ff8000"/>
<path transform="matrix(1.00006,0,0,-1,144.03549,384.675)" stroke-width=".79701" stroke-linecap="butt" stroke-miterlimit="10" stroke-linejoin="miter" fill="none" stroke="#000000" d="M42.5202 340.1617C42.5202 363.64527 23.48355 382.68193 0 382.68193-23.48355 382.68193-42.5202 363.64527-42.5202 340.1617-42.5202 316.67817-23.48355 297.6415 0 297.6415 23.48355 297.6415 42.5202 316.67817 42.5202 340.1617ZM0 340.1617"/>
</svg>
