<svg xmlns="http://www.w3.org/2000/svg" xmlns:xlink="http://www.w3.org/1999/xlink" xmlns:inkscape="http://www.inkscape.org/namespaces/inkscape" version="1.1" width="189" height="274" viewBox="0 0 189 274">
<defs>
<path id="font_1_56" d="M.4169922 .20240784C.4169922 .32240296 .33898927 .41540528 .24198914 .41540528 .19099427 .41540528 .147995 .39640809 .11399841 .3604126V.58535769C.12399292 .5813446 .16499329 .5683594 .20698548 .5683594 .2999878 .5683594 .35099793 .61834719 .37998963 .64723208 .37998963 .6551819 .37998963 .66015627 .37399293 .66015627 .37399293 .66015627 .37098695 .66015627 .36299134 .6561737 .32798768 .64126589 .2869873 .62934878 .23699951 .62934878 .20698548 .62927249 .1619873 .63327029 .11299133 .65527346 .101989749 .66015627 .09899902 .66015627 .09899902 .66015627 .09399414 .66026309 .09298706 .65927127 .09298706 .63926699V.3493805C.09298706 .33137513 .09298706 .3263855 .102996829 .3263855 .10798645 .3263855 .10998535 .3283844 .114990238 .33538819 .14698792 .3804016 .19099427 .39941407 .24099732 .39941407 .27598573 .39941407 .35099793 .37739564 .35099793 .20632935 .35099793 .1743164 .35099793 .11630249 .32099916 .0703125 .29599 .029342652 .25698854 .008361816 .21398926 .008361816 .147995 .008361816 .08099365 .05432129 .06298828 .13130188 .066986087 .13009644 .07499695 .12809754 .07899475 .12809754 .09199524 .12809754 .116989139 .13510132 .116989139 .16609192 .116989139 .19309998 .09799194 .20410156 .07899475 .20410156 .055999757 .20410156 .040985109 .190094 .040985109 .16209412 .040985109 .07521057 .10998535-.015625 .21598816-.015625 .31900025-.015625 .4169922 .07322693 .4169922 .2020874V.20240784Z"/>
<path id="font_1_75" d="M.74398806 0V.025985718C.6799927 .025985718 .6759949 .02999878 .6759949 .06904602V.3043213C.6759949 .35438539 .6669922 .43847657 .5479889 .43847657 .47999574 .43847657 .43299867 .3924408 .4149933 .33836366H.4139862C.4019928 .4204712 .34298707 .43847657 .2869873 .43847657 .20799256 .43847657 .16699219 .3774109 .1519928 .33737184H.15098572V.43847657L.032989503 .4273529V.4013672C.09199524 .4013672 .100997928 .39535523 .100997928 .3473053V.06903076C.100997928 .0309906 .09700012 .025985718 .032989503 .025985718V0C.056991579 .0019989014 .100997928 .0019989014 .1269989 .0019989014 .15299988 .0019989014 .19799805 .0019989014 .22200012 0V.025985718C.1579895 .025985718 .1539917 .02999878 .1539917 .06903076V.26123048C.1539917 .35339356 .20999146 .4224701 .27999879 .4224701 .35398866 .4224701 .3619995 .35638429 .3619995 .30833436V.06904602C.3619995 .03100586 .35798646 .025985718 .2939911 .025985718V0C.31799317 .0019989014 .3619995 .0019989014 .3880005 .0019989014 .4139862 .0019989014 .45899964 .0019989014 .48298646 0V.025985718C.4189911 .025985718 .4149933 .02999878 .4149933 .06904602V.26127626C.4149933 .35339356 .47099305 .4224701 .54100039 .4224701 .61499026 .4224701 .6230011 .35638429 .6230011 .30833436V.06904602C.6230011 .03100586 .61898806 .025985718 .5549927 .025985718V0C.57899478 .0019989014 .6230011 .0019989014 .6489868 .0019989014 .6749878 .0019989014 .7200012 .0019989014 .74398806 0Z"/>
<path id="font_1_82" d="M.38398744 0V.025985718H.35398866C.2679901 .025985718 .2659912 .037002565 .2659912 .073013309V.6391907C.2659912 .66012576 .2649994 .6611328 .25099183 .6611328 .21199036 .6142578 .15299988 .5993042 .09700012 .5973053 .09399414 .5973053 .08898926 .5973053 .08799744 .5953064 .08699036 .5933075 .08699036 .5913086 .08699036 .5703125 .117996219 .5703125 .16999817 .5763092 .20999146 .600296V.073013309C.20999146 .037994386 .20799256 .025985718 .12199402 .025985718H.09199524V0L.23799134 .0019989014 .38398744 0Z"/>
<path id="font_1_51" d="M.4249878 .16331482C.4249878 .25427247 .3639984 .2962494 .32398988 .3232422 .30999757 .3332367 .3019867 .33824159 .27198792 .3602295 .33499146 .3922119 .39898683 .4402008 .39898683 .51716616 .39898683 .60813906 .31098939 .6611328 .22999573 .6611328 .13899231 .6611328 .05899048 .59513857 .05899048 .5041809 .05899048 .479187 .06498718 .436203 .10398865 .39822389 .11399841 .3882141 .1559906 .3582306 .18299866 .3392334 .13798523 .31625367 .032989503 .26127626 .032989503 .15130615 .032989503 .048355104 .1309967-.015625 .22799683-.015625 .33499146-.015625 .4249878 .061340333 .4249878 .16331482M.36499024 .51716616C.36499024 .4242096 .26098634 .37123109 .2559967 .37123109 .2559967 .37123109 .2539978 .37123109 .24598694 .37722779L.14099121 .4481964C.1329956 .4532013 .09298706 .48417665 .09298706 .53115847 .09298706 .5921478 .1559906 .63812258 .22799683 .63812258 .30699159 .63812258 .36499024 .5821533 .36499024 .51716616M.3880005 .13832093C.3880005 .06434631 .31399537 .008361816 .22999573 .008361816 .13899231 .008361816 .069992069 .073349 .069992069 .15231323 .069992069 .23127747 .1309967 .29725648 .19999695 .32824708L.32499696 .24327088C.33999635 .23228455 .3880005 .19929505 .3880005 .13832093Z"/>
<path id="font_1_100" d="M.45098878 .62290957V.6449127H.21598816C.09899902 .6449127 .09700012 .6578369 .09298706 .6767578H.07499695L.04598999 .48999024H.06399536C.066986087 .50897219 .07398987 .5599365 .085998538 .57891848 .09199524 .58691409 .1659851 .58691409 .18299866 .58691409H.40299989L.2919922 .42204286C.21798706 .3111267 .16699219 .16123963 .16699219 .030334473 .16699219 .018341065 .16699219-.015625 .20298767-.015625 .23899842-.015625 .23899842 .018341065 .23899842 .031326295V.077301029C.23899842 .24116516 .2669983 .34909059 .31298829 .41804505L.45098878 .62290957Z"/>
</defs>
<path transform="matrix(1.00005,0,0,-1.00003,7.0666506,251.45508)" d="M0 0H56.69362V170.08086H0Z" fill="#00ff00"/>
<path transform="matrix(1.00005,0,0,-1.00003,7.0666506,251.45508)" stroke-width=".79701" stroke-linecap="butt" stroke-miterlimit="10" stroke-linejoin="miter" fill="none" stroke="#000000" d="M0 0H56.69362V170.08086H0Z"/>
<path transform="matrix(1.00005,0,0,-1.00003,7.0666506,251.45508)" d="M0 170.08086 79.37114 249.452H136.06476L56.69362 170.08086" fill="#00ff00"/>
<path transform="matrix(1.00005,0,0,-1.00003,7.0666506,251.45508)" stroke-width=".79701" stroke-linecap="butt" stroke-miterlimit="10" stroke-linejoin="miter" fill="none" stroke="#000000" d="M0 170.08086 79.37114 249.452H136.06476L56.69362 170.08086"/>
<path transform="matrix(1.00005,0,0,-1.00003,7.0666506,251.45508)" d="M56.69362 0 136.06476 79.37114V249.452L56.69362 170.08086Z" fill="#00ff00"/>
<path transform="matrix(1.00005,0,0,-1.00003,7.0666506,251.45508)" d="M56.69362 0 136.06476 79.37114" fill="#0000ff"/>
<path transform="matrix(1.00005,0,0,-1.00003,7.0666506,251.45508)" stroke-width=".79701" stroke-linecap="butt" stroke-miterlimit="10" stroke-linejoin="miter" fill="none" stroke="#000000" d="M56.69362 0 136.06476 79.37114"/>
<path transform="matrix(1.00005,0,0,-1.00003,7.0666506,251.45508)" d="M56.69362 170.08086 136.06476 249.452" fill="#0000ff"/>
<path transform="matrix(1.00005,0,0,-1.00003,7.0666506,251.45508)" stroke-width=".79701" stroke-linecap="butt" stroke-miterlimit="10" stroke-linejoin="miter" fill="none" stroke="#000000" d="M56.69362 170.08086 136.06476 249.452"/>
<path transform="matrix(1.00005,0,0,-1.00003,7.0666506,251.45508)" d="M136.06476 79.37114V249.452" fill="#0000ff"/>
<path transform="matrix(1.00005,0,0,-1.00003,7.0666506,251.45508)" stroke-width=".79701" stroke-linecap="butt" stroke-miterlimit="10" stroke-linejoin="miter" fill="none" stroke="#000000" d="M136.06476 79.37114V249.452"/>
<use data-text="5" xlink:href="#font_1_56" transform="matrix(20.663533,0,0,-20.66312,.21730805,272.2827)"/>
<use data-text="m" xlink:href="#font_1_75" transform="matrix(20.663533,0,0,-20.66312,15.942253,272.2827)"/>
<use data-text="1" xlink:href="#font_1_82" transform="matrix(20.663533,0,0,-20.66312,146.65863,116.38101)"/>
<use data-text="8" xlink:href="#font_1_51" transform="matrix(20.663533,0,0,-20.66312,156.14319,116.38101)"/>
<use data-text="m" xlink:href="#font_1_75" transform="matrix(20.663533,0,0,-20.66312,171.86814,116.38101)"/>
<use data-text="7" xlink:href="#font_1_100" transform="matrix(20.663533,0,0,-20.66312,106.97064,234.94658)"/>
<use data-text="m" xlink:href="#font_1_75" transform="matrix(20.663533,0,0,-20.66312,122.69559,234.94658)"/>
</svg>
