<svg xmlns="http://www.w3.org/2000/svg" xmlns:xlink="http://www.w3.org/1999/xlink" xmlns:inkscape="http://www.inkscape.org/namespaces/inkscape" version="1.1" width="117" height="95" viewBox="0 0 117 95">
<defs>
<path id="font_1_1" d="M.2939911 .64004519C.2939911 .66400149 .2939911 .6660156 .2709961 .6660156 .20899964 .60227969 .12098694 .60227969 .08898926 .60227969V.57128909C.10899353 .57128909 .16799927 .57128909 .21998596 .5972748V.07902527C.21998596 .042999269 .21699524 .0309906 .1269989 .0309906H.09498596V0C.12998963 .0029907227 .21699524 .0029907227 .25698854 .0029907227 .29699708 .0029907227 .38398744 .0029907227 .4189911 0V.0309906H.3869934C.29699708 .0309906 .2939911 .041992189 .2939911 .07902527V.64004519Z"/>
<path id="font_1_2" d="M.1269989 .07699585 .23298645 .18003845C.3889923 .31811524 .44898988 .3721466 .44898988 .47216798 .44898988 .5860901 .35899354 .6660156 .23699951 .6660156 .12399292 .6660156 .049987794 .57411196 .049987794 .48516847 .049987794 .4291687 .099990848 .4291687 .102996829 .4291687 .11999512 .4291687 .15499878 .44117738 .15499878 .48217774 .15499878 .5081787 .13699341 .5341797 .101989749 .5341797 .09399414 .5341797 .09199524 .5341797 .08898926 .5331726 .11199951 .59806826 .1659851 .63500979 .22399903 .63500979 .31498719 .63500979 .35798646 .5541382 .35798646 .47216798 .35798646 .39215089 .30799867 .31311036 .25299073 .25108338L.06098938 .036987306C.049987794 .025985718 .049987794 .023986817 .049987794 0H.42099L.44898988 .17404175H.42399598C.4189911 .14402771 .4119873 .1000061 .4019928 .084991458 .394989 .07699585 .32899476 .07699585 .30699159 .07699585H.1269989Z"/>
<path id="font_2_43" d="M.47799684 .117126468C.47799684 .13113404 .46398927 .13113404 .45399476 .13113404 .43598939 .13113404 .43499757 .12913513 .42999269 .11613464 .4039917 .053131105 .35598756 .03413391 .30499269 .03413391 .1659851 .03413391 .1659851 .18112183 .1659851 .22712708 .1659851 .28312684 .1659851 .41311646 .29499818 .41311646 .32998658 .41311646 .34700013 .41011048 .3600006 .40711976 .34199525 .39111329 .33999635 .3701172 .33999635 .3611145 .33999635 .3171234 .375 .29811097 .4019928 .29811097 .43299867 .29811097 .46499635 .3191223 .46499635 .3611145 .46499635 .44711305 .34899903 .453125 .29100038 .453125 .11199951 .45314027 .037994386 .33813478 .037994386 .22213745 .037994386 .08912659 .13198853-.005859375 .28599549-.005859375 .44799806-.005859375 .47799684 .11013794 .47799684 .117126468Z"/>
<path id="font_2_75" d="M.93499758 0V.04699707H.8659973V.30613709C.8659973 .40919496 .8149872 .4501953 .71199038 .4501953 .62098696 .4501953 .56900027 .40019227 .54299929 .3541565 .522995 .44718934 .43099977 .4501953 .3929901 .4501953 .30599977 .4501953 .24899292 .40518189 .21699524 .3421631V.4501953L.04499817 .4423828V.39537049C.10699463 .39537049 .11399841 .39537049 .11399841 .3563385V.04699707H.04499817V0L.17098999 .0029907227 .29699708 0V.04699707H.22799683V.2562256C.22799683 .3653412 .31498719 .41436769 .3769989 .41436769 .41099549 .41436769 .43299867 .39437867 .43299867 .31729127V.04699707H.3639984V0L.48999024 .0029907227 .6159973 0V.04699707H.5469971V.2562256C.5469971 .3653412 .6339874 .41436769 .69599917 .41436769 .7299957 .41436769 .7519989 .39437867 .7519989 .31729127V.04699707H.68299868V0L.8089905 .0029907227 .93499758 0Z"/>
</defs>
<path transform="matrix(1.00002,0,0,-1,2.29467,81.369)" stroke-width=".79701" stroke-linecap="butt" stroke-miterlimit="10" stroke-linejoin="miter" fill="none" stroke="#000000" d="M0 0H56.69362V56.69362H0Z"/>
<path transform="matrix(1.00002,0,0,-1,2.29467,81.369)" stroke-width=".79701" stroke-linecap="butt" stroke-miterlimit="10" stroke-linejoin="miter" fill="none" stroke="#000000" d="M22.67752 22.67752H79.37114V79.37114H22.67752Z"/>
<path transform="matrix(1.00002,0,0,-1,2.29467,81.369)" stroke-width=".79701" stroke-linecap="butt" stroke-miterlimit="10" stroke-linejoin="miter" fill="none" stroke="#000000" d="M0 0 22.67752 22.67752"/>
<path transform="matrix(1.00002,0,0,-1,2.29467,81.369)" stroke-width=".79701" stroke-linecap="butt" stroke-miterlimit="10" stroke-linejoin="miter" fill="none" stroke="#000000" d="M56.69362 0 79.37114 22.67752"/>
<path transform="matrix(1.00002,0,0,-1,2.29467,81.369)" stroke-width=".79701" stroke-linecap="butt" stroke-miterlimit="10" stroke-linejoin="miter" fill="none" stroke="#000000" d="M56.69362 56.69362 79.37114 79.37114"/>
<path transform="matrix(1.00002,0,0,-1,2.29467,81.369)" stroke-width=".79701" stroke-linecap="butt" stroke-miterlimit="10" stroke-linejoin="miter" fill="none" stroke="#000000" d="M0 56.69362 22.67752 79.37114"/>
<use data-text="1" xlink:href="#font_1_1" transform="matrix(9.962799,0,0,-9.9626,16.434952,93.053)" fill="#ff0000"/>
<use data-text="2" xlink:href="#font_1_2" transform="matrix(9.962799,0,0,-9.9626,21.416352,93.053)" fill="#ff0000"/>
<use data-text="c" xlink:href="#font_2_43" transform="matrix(9.962799,0,0,-9.9626,30.214226,93.053)" fill="#ff0000"/>
<use data-text="m" xlink:href="#font_2_75" transform="matrix(9.962799,0,0,-9.9626,35.305215,93.053)" fill="#ff0000"/>
<use data-text="1" xlink:href="#font_1_1" transform="matrix(9.962799,0,0,-9.9626,73.13009,81.714008)" fill="#0000ff"/>
<use data-text="2" xlink:href="#font_1_2" transform="matrix(9.962799,0,0,-9.9626,78.11149,81.714008)" fill="#0000ff"/>
<use data-text="c" xlink:href="#font_2_43" transform="matrix(9.962799,0,0,-9.9626,86.90936,81.714008)" fill="#0000ff"/>
<use data-text="m" xlink:href="#font_2_75" transform="matrix(9.962799,0,0,-9.9626,92.00035,81.714008)" fill="#0000ff"/>
<use data-text="1" xlink:href="#font_1_1" transform="matrix(9.962799,0,0,-9.9626,87.303379,33.525)" fill="#00b300"/>
<use data-text="2" xlink:href="#font_1_2" transform="matrix(9.962799,0,0,-9.9626,92.284778,33.525)" fill="#00b300"/>
<use data-text="c" xlink:href="#font_2_43" transform="matrix(9.962799,0,0,-9.9626,101.08265,33.525)" fill="#00b300"/>
<use data-text="m" xlink:href="#font_2_75" transform="matrix(9.962799,0,0,-9.9626,106.17364,33.525)" fill="#00b300"/>
</svg>
