<svg xmlns="http://www.w3.org/2000/svg" xmlns:xlink="http://www.w3.org/1999/xlink" xmlns:inkscape="http://www.inkscape.org/namespaces/inkscape" version="1.1" width="317" height="290" viewBox="0 0 317 290">
<defs>
<path id="font_1_116" d="M.58499148 0V.04699707H.5139923L.34599305 .2461853 .46299745 .37631227C.47599793 .39031983 .48199464 .3973236 .5649872 .3973236V.44433595L.47299195 .44132997 .36999513 .44433595V.3973236C.38398744 .3973236 .3959961 .3953247 .4079895 .38832093 .4039917 .38230897 .4039917 .38031007 .3999939 .37631227L.31599427 .2822113 .21798706 .3973236H.2579956V.44433595L.13699341 .44132997 .026992798 .44433595V.3973236H.09799194L.2539978 .21315003 .12298584 .06600952C.10598755 .04699707 .069992069 .04699707 .021987915 .04699707V0L.11399841 .0029907227 .21699524 0V.04699707C.19898987 .04699707 .17999268 .052001954 .17999268 .057998659 .17999268 .057998659 .17999268 .05999756 .18699646 .06800842L.28399659 .17712403 .3939972 .04699707H.35499574V0L.47499085 .0029907227 .58499148 0Z"/>
<path id="font_1_118" d="M.5799866 .3973236V.44433595C.55599978 .44232179 .526001 .44132997 .5009918 .44132997L.4099884 .44433595V.3973236C.4099884 .3973236 .45700074 .3973236 .45700074 .3853302L.45199586 .37332154 .33699037 .12713623 .20999146 .3973236H.2639923V.44433595L.13999939 .44132997 .025985718 .44433595V.3973236H.08999634L.2769928 .000045776369 .2539978-.04798889C.23199463-.09602356 .19999695-.1640625 .1289978-.1640625 .114990238-.1640625 .11299133-.16307068 .10499573-.1600647 .11399841-.1560669 .13699341-.14205933 .13699341-.10702515 .13699341-.07400513 .11299133-.049987794 .07899475-.049987794 .050994874-.049987794 .021987915-.069000247 .021987915-.10803223 .021987915-.15907288 .068984989-.20007324 .1289978-.20007324 .20599365-.20007324 .2639923-.13804627 .29100038-.08100891L.5059967 .37631227C.5130005 .39031983 .5159912 .3973236 .5799866 .3973236Z"/>
<path id="font_1_64" d="M.31799317 .17382813V.27082826H.0129852299V.17382813H.31799317Z"/>
<path id="font_1_57" d="M.5419922 0V.04699707H.44499208V.15611267H.5419922V.203125H.44499208V.62423709C.44499208 .6512451 .44299317 .65625 .4149933 .65625 .3939972 .65625 .3929901 .6552429 .3809967 .6402283L.03199768 .203125V.15611267H.31999208V.04699707H.20799256V0C.24598694 .0029907227 .33699037 .0029907227 .37998963 .0029907227 .41999818 .0029907227 .5069885 .0029907227 .5419922 0M.33099366 .203125H.083999637L.33099366 .51319888V.203125Z"/>
<path id="font_1_107" d="M.5169983 .22200012H.46998597C.46699525 .20199585 .45799256 .13798523 .44400025 .1309967 .43299867 .125 .35798646 .125 .34199525 .125H.19499207C.24198914 .1639862 .2939911 .20698548 .33898927 .23999024 .45298768 .3242035 .5169983 .37124635 .5169983 .4663086 .5169983 .5812988 .41299439 .65527346 .27198792 .65527346 .15098572 .65527346 .056991579 .593277 .056991579 .50331118 .056991579 .44430543 .10499573 .42930604 .1289978 .42930604 .16099549 .42930604 .20098877 .4513092 .20098877 .50131228 .20098877 .55329897 .15899658 .5693054 .14399719 .5733032 .17298889 .5972748 .21099854 .6082611 .24699402 .6082611 .33299256 .6082611 .3789978 .54029849 .3789978 .4653015 .3789978 .39627076 .34098817 .3282013 .2709961 .25712586L.069992069 .051986696C.056991579 .039993287 .056991579 .037994386 .056991579 .017990113V0H.48599244L.5169983 .22200012Z"/>
<path id="font_1_101" d="M.526001 .20495606C.526001 .34495545 .4249878 .41796876 .3039856 .41796876 .28199769 .41781617 .22599793 .41781617 .18399048 .34181214V.36080934C.18399048 .47483827 .20498657 .51797488 .21199036 .53302 .23599243 .5801544 .2899933 .616272 .35099793 .616272 .36898805 .616272 .40299989 .6132202 .42599488 .58984377 .3899994 .58483889 .37199403 .5578308 .37199403 .52783206 .37199403 .49383546 .394989 .46583558 .43399049 .46583558 .47299195 .46583558 .49699403 .49183656 .49699403 .52983096 .49699403 .59187319 .45498658 .65527346 .34899903 .65527346 .21299744 .65527346 .04798889 .5688324 .04798889 .3170166 .04798889 .23808289 .056991579 .15814209 .09799194 .08920288 .14498902 .013244629 .22099304-.0107421879 .29100038-.0107421879 .42999269-.0107421879 .526001 .07121277 .526001 .20510865V.20495606M.3899994 .20710755C.3899994 .10618591 .3899994 .03225708 .2889862 .03225708 .23699951 .03225708 .20999146 .07121277 .20199585 .08720398 .18598938 .11917114 .18598938 .19212342 .18598938 .21009827 .18598938 .33499146 .23999024 .381958 .29499818 .381958 .3899994 .381958 .3899994 .3070221 .3899994 .20710755Z"/>
<path id="font_1_121" d="M.5289917 .31939698C.5289917 .41644288 .5279999 .65527346 .2869873 .65527346 .04598999 .65527346 .04499817 .41744996 .04499817 .31939698 .04499817 .22035218 .04598999-.0107421879 .2869873-.0107421879 .5269928-.0107421879 .5289917 .2193451 .5289917 .31939698M.40098573 .33140565C.40098573 .27537538 .40098573 .18432617 .3939972 .13230896 .37998963 .039260866 .31698609 .025253296 .2869873 .025253296 .25099183 .025253296 .19499207 .04725647 .18199158 .12030029 .17298889 .1723175 .17298889 .27638246 .17298889 .33140565 .17298889 .40344239 .17298889 .46847535 .18099976 .5205078 .19299317 .6092987 .2630005 .6192627 .2869873 .6192627 .32398988 .6192627 .36499024 .6003418 .38398744 .5565033 .40098573 .51950076 .40098573 .41345216 .40098573 .33140565Z"/>
<path id="font_2_2" d="M.48599244 .38136292C.48999024 .39537049 .48999024 .39736939 .48999024 .40437318 .48999024 .42237855 .47599793 .43138124 .46099855 .43138124 .45098878 .43138124 .43499757 .42536927 .42599488 .41036988 .42399598 .405365 .41600038 .37435914 .4119873 .35635377 .40499879 .33035279 .397995 .30334474 .3919983 .27633668L.34700013 .09628296C.34298707 .08126831 .2999878 .011245728 .23399353 .011245728 .18299866 .011245728 .17199707 .055267335 .17199707 .0922699 .17199707 .1382904 .18899536 .20030213 .22299195 .28833009 .23899842 .3293457 .24299622 .3403473 .24299622 .36035157 .24299622 .405365 .21099854 .4423828 .16099549 .4423828 .06599426 .4423828 .0289917 .29733277 .0289917 .28833009 .0289917 .27833558 .038986207 .27833558 .040985109 .27833558 .050994874 .27833558 .051986696 .28033448 .056991579 .29634095 .083999637 .3903656 .12399292 .42037965 .1579895 .42037965 .1659851 .42037965 .18299866 .42037965 .18299866 .3883667 .18299866 .36335755 .17298889 .3373413 .1659851 .31834413 .12599182 .21231079 .10798645 .1552887 .10798645 .10827637 .10798645 .019256592 .17098999-.0107421879 .22999573-.0107421879 .2689972-.0107421879 .30299378 .0062561037 .33099366 .03425598 .31799317-.017745972 .30599977-.06674194 .2659912-.11973572 .23999024-.15385437 .20199585-.18309021 .1559906-.18309021 .14199829-.18309021 .09700012-.18005371 .07998657-.14074707 .09599304-.14074707 .10899353-.14074707 .12298584-.1287384 .1329956-.11973572 .14299011-.10673523 .14299011-.08773804 .14299011-.056747438 .115997318-.052734376 .10598755-.052734376 .08299255-.052734376 .049987794-.068740848 .049987794-.11773682 .049987794-.16796875 .09399414-.20507813 .1559906-.20507813 .25898744-.20507813 .3619995-.11373901 .3899994-.00074768069L.48599244 .38136292Z"/>
<path id="font_3_3" d="M.68699648 .32714845C.70199587 .32714845 .72099307 .32714845 .72099307 .34713746 .72099307 .36714173 .70199587 .36714173 .6879883 .36714173H.08898926C.07499695 .36714173 .055999757 .36714173 .055999757 .34713746 .055999757 .32714845 .07499695 .32714845 .08999634 .32714845H.68699648M.6879883 .13284302C.70199587 .13284302 .72099307 .13284302 .72099307 .15284729 .72099307 .17285156 .70199587 .17285156 .68699648 .17285156H.08999634C.07499695 .17285156 .055999757 .17285156 .055999757 .15284729 .055999757 .13284302 .07499695 .13284302 .08898926 .13284302H.6879883Z"/>
<path id="font_4_1" d="M.6589966 .23046875C.6759949 .23046875 .69400027 .23046875 .69400027 .25045777 .69400027 .27046205 .6759949 .27046205 .6589966 .27046205H.117996219C.100997928 .27046205 .08299255 .27046205 .08299255 .25045777 .08299255 .23046875 .100997928 .23046875 .117996219 .23046875H.6589966Z"/>
<path id="font_5_1" d="M.33499146 .63612368C.33499146 .6630554 .33299256 .6640625 .30499269 .6640625 .24099732 .6014404 .1499939 .6004486 .10899353 .6004486V.5644531C.1329956 .5644531 .19898987 .5644531 .2539978 .592453V.08203125C.2539978 .04899597 .2539978 .035995485 .1539917 .035995485H.115997318V0C.13398743 .0009918213 .25698854 .0039978029 .2939911 .0039978029 .32499696 .0039978029 .45098878 .0009918213 .47299195 0V.035995485H.43499757C.33499146 .035995485 .33499146 .04899597 .33499146 .08203125V.63612368Z"/>
<path id="font_5_2" d="M.5049896 .18203736H.47099305C.46798707 .16001892 .45799256 .100997928 .44499208 .09098816 .43699647 .084991458 .3600006 .084991458 .34599305 .084991458H.1619873C.2669983 .17803955 .3019867 .20603943 .3619995 .25306703 .43598939 .312088 .5049896 .374115 .5049896 .46914674 .5049896 .5900879 .39898683 .6640625 .2709961 .6640625 .14698792 .6640625 .06298828 .57710269 .06298828 .4851532 .06298828 .43414308 .10598755 .42915345 .115997318 .42915345 .13999939 .42915345 .16899109 .44615174 .16899109 .48214723 .16899109 .5001526 .1619873 .53515627 .10998535 .53515627 .14099121 .6060791 .20899964 .62805178 .2559967 .62805178 .35598756 .62805178 .4079895 .5501404 .4079895 .46914674 .4079895 .38212586 .34599305 .3130951 .31399537 .27708436L.07299805 .038986207C.06298828 .02999878 .06298828 .027999878 .06298828 0H.47499085L.5049896 .18203736Z"/>
<path id="font_2_1" d="M.33399964 .30233766C.33999635 .32835389 .36299134 .42037965 .43299867 .42037965 .43798829 .42037965 .46199037 .42037965 .48298646 .40734864 .45498658 .402359 .43499757 .37734986 .43499757 .35334779 .43499757 .33735658 .44599916 .31835938 .47299195 .31835938 .49499513 .31835938 .5269928 .3363495 .5269928 .37635804 .5269928 .42837525 .46798707 .4423828 .43399049 .4423828 .37599183 .4423828 .34098817 .38935853 .32899476 .36634828 .3039856 .43237306 .25 .4423828 .22099304 .4423828 .116989139 .4423828 .05999756 .3133545 .05999756 .28834535 .05999756 .27833558 .069992069 .27833558 .07199097 .27833558 .07998657 .27833558 .08299255 .28033448 .084991458 .28933717 .11898804 .39535523 .18499756 .42037965 .21899414 .42037965 .23799134 .42037965 .272995 .4113617 .272995 .35334779 .272995 .32235719 .2559967 .25532533 .21899414 .11528015 .20298767 .053268434 .16799927 .011245728 .12399292 .011245728 .117996219 .011245728 .09498596 .011245728 .07398987 .024276734 .09899902 .029266358 .12098694 .05027771 .12098694 .07827759 .12098694 .105270389 .09899902 .11328125 .083999637 .11328125 .053985597 .11328125 .0289917 .08728027 .0289917 .055267335 .0289917 .009246826 .07899475-.0107421879 .12298584-.0107421879 .18899536-.0107421879 .22499085 .059280397 .22799683 .0652771 .23999024 .028274537 .27598573-.0107421879 .33599855-.0107421879 .43899537-.0107421879 .49598695 .118270877 .49598695 .14328003 .49598695 .1532898 .4869995 .1532898 .48399354 .1532898 .47499085 .1532898 .47299195 .14929199 .47099305 .14228821 .43798829 .03527832 .36999513 .011245728 .33799745 .011245728 .29899598 .011245728 .2829895 .043273927 .2829895 .07727051 .2829895 .09927368 .2889862 .121276859 .2999878 .16529846L.33399964 .30233766Z"/>
<path id="font_3_1" d="M.40899659 .23046875H.6879883C.70199587 .23046875 .72099307 .23046875 .72099307 .25045777 .72099307 .27046205 .70199587 .27046205 .6879883 .27046205H.40899659V.5500183C.40899659 .56399539 .40899659 .5830078 .3889923 .5830078 .36898805 .5830078 .36898805 .56399539 .36898805 .5500183V.27046205H.08898926C.07499695 .27046205 .055999757 .27046205 .055999757 .25045777 .055999757 .23046875 .07499695 .23046875 .08898926 .23046875H.36898805V-.05000305C.36898805-.06401062 .36898805-.08300781 .3889923-.08300781 .40899659-.08300781 .40899659-.06401062 .40899659-.05000305V.23046875Z"/>
<path id="font_3_2" d="M.2939911 .16503906V.07800293C.2939911 .041992189 .2919922 .0309906 .21798706 .0309906H.19699097V0C.23799134 .0029907227 .2899933 .0029907227 .33198548 .0029907227 .37399293 .0029907227 .4269867 .0029907227 .46798707 0V.0309906H.44699098C.37298585 .0309906 .37098695 .041992189 .37098695 .07800293V.16503906H.47099305V.19602967H.37098695V.65075686C.37098695 .67074587 .37098695 .6767578 .35499574 .6767578 .34599305 .6767578 .34298707 .6767578 .33499146 .66474917L.027999878 .19602967V.16503906H.2939911M.2999878 .19602967H.055999757L.2999878 .5688019V.19602967Z"/>
</defs>
<path transform="matrix(1.00005,0,0,-1.00003,157.20896,217.73415)" stroke-width=".19925" stroke-linecap="butt" stroke-miterlimit="10" stroke-linejoin="miter" fill="none" stroke="#bfbfbf" d="M-141.73404-56.69362H141.73404M-141.73404-28.3468H141.73404M-141.73404 0H141.73404M-141.73404 28.3468H141.73404M-141.73404 56.69362H141.73404M-141.73404 85.04042H141.73404M-141.73404 113.38724H141.73404M-141.73404 141.73404H141.73404M-141.73404 170.08086H141.73404M-141.73404 198.41771H141.73404M-141.73404-56.69362V198.42766M-113.38724-56.69362V198.42766M-85.04042-56.69362V198.42766M-56.69362-56.69362V198.42766M-28.3468-56.69362V198.42766M0-56.69362V198.42766M28.3468-56.69362V198.42766M56.69362-56.69362V198.42766M85.04042-56.69362V198.42766M113.38724-56.69362V198.42766M141.72409-56.69362V198.42766M141.73404 198.42766"/>
<path transform="matrix(1.00005,0,0,-1.00003,157.20896,217.73415)" stroke-width=".79701" stroke-linecap="butt" stroke-miterlimit="10" stroke-linejoin="miter" fill="none" stroke="#000000" d="M-155.90744 0H155.20008"/>
<path transform="matrix(1.00005,0,0,-1.00003,312.41679,217.73415)" stroke-width=".6376" stroke-linecap="round" stroke-linejoin="round" fill="none" stroke="#000000" d="M-1.55415 2.0722C-1.42464 1.29512 0 .1295 .38852 0 0-.1295-1.42464-1.29512-1.55415-2.0722"/>
<use data-text="x" xlink:href="#font_1_116" transform="matrix(9.963098,0,0,-9.962899,310.1006,225.8774)"/>
<path transform="matrix(1.00005,0,0,-1.00003,157.20896,217.73415)" stroke-width=".79701" stroke-linecap="butt" stroke-miterlimit="10" stroke-linejoin="miter" fill="none" stroke="#000000" d="M0-70.867V211.89369"/>
<path transform="matrix(0,-1.00003,-1.00005,-0,157.20896,5.834091)" stroke-width=".6376" stroke-linecap="round" stroke-linejoin="round" fill="none" stroke="#000000" d="M-1.55415 2.0722C-1.42464 1.29512 0 .1295 .38852 0 0-.1295-1.42464-1.29512-1.55415-2.0722"/>
<use data-text="y" xlink:href="#font_1_118" transform="matrix(9.963098,0,0,-9.962899,147.44248,6.341797)"/>
<path transform="matrix(1.00005,0,0,-1.00003,157.20896,217.73415)" stroke-width=".79701" stroke-linecap="butt" stroke-miterlimit="10" stroke-linejoin="miter" fill="none" stroke="#000000" d="M-113.38724-4.25183V4.25183"/>
<use data-text="-" xlink:href="#font_1_64" transform="matrix(9.963098,0,0,-9.962899,39.044054,236.29471)"/>
<use data-text="4" xlink:href="#font_1_57" transform="matrix(9.963098,0,0,-9.962899,42.85991,236.29471)"/>
<path transform="matrix(1.00005,0,0,-1.00003,157.20896,217.73415)" stroke-width=".79701" stroke-linecap="butt" stroke-miterlimit="10" stroke-linejoin="miter" fill="none" stroke="#000000" d="M-56.69362-4.25183V4.25183"/>
<use data-text="-" xlink:href="#font_1_64" transform="matrix(9.963098,0,0,-9.962899,95.73988,236.2847)"/>
<use data-text="2" xlink:href="#font_1_107" transform="matrix(9.963098,0,0,-9.962899,99.55574,236.2847)"/>
<path transform="matrix(1.00005,0,0,-1.00003,157.20896,217.73415)" stroke-width=".79701" stroke-linecap="butt" stroke-miterlimit="10" stroke-linejoin="miter" fill="none" stroke="#000000" d="M56.69362-4.25183V4.25183"/>
<use data-text="2" xlink:href="#font_1_107" transform="matrix(9.963098,0,0,-9.962899,211.04065,236.2847)"/>
<path transform="matrix(1.00005,0,0,-1.00003,157.20896,217.73415)" stroke-width=".79701" stroke-linecap="butt" stroke-miterlimit="10" stroke-linejoin="miter" fill="none" stroke="#000000" d="M113.38724-4.25183V4.25183"/>
<use data-text="4" xlink:href="#font_1_57" transform="matrix(9.963098,0,0,-9.962899,267.7375,236.29471)"/>
<path transform="matrix(1.00005,0,0,-1.00003,157.20896,217.73415)" stroke-width=".79701" stroke-linecap="butt" stroke-miterlimit="10" stroke-linejoin="miter" fill="none" stroke="#000000" d="M-4.25183-56.69362H4.25183"/>
<use data-text="-" xlink:href="#font_1_64" transform="matrix(9.963098,0,0,-9.962899,135.63988,277.69197)"/>
<use data-text="2" xlink:href="#font_1_107" transform="matrix(9.963098,0,0,-9.962899,139.45574,277.69197)"/>
<path transform="matrix(1.00005,0,0,-1.00003,157.20896,217.73415)" stroke-width=".79701" stroke-linecap="butt" stroke-miterlimit="10" stroke-linejoin="miter" fill="none" stroke="#000000" d="M-4.25183 56.69362H4.25183"/>
<use data-text="2" xlink:href="#font_1_107" transform="matrix(9.963098,0,0,-9.962899,139.45507,164.30155)"/>
<path transform="matrix(1.00005,0,0,-1.00003,157.20896,217.73415)" stroke-width=".79701" stroke-linecap="butt" stroke-miterlimit="10" stroke-linejoin="miter" fill="none" stroke="#000000" d="M-4.25183 113.38724H4.25183"/>
<use data-text="4" xlink:href="#font_1_57" transform="matrix(9.963098,0,0,-9.962899,139.45507,107.61183)"/>
<path transform="matrix(1.00005,0,0,-1.00003,157.20896,217.73415)" stroke-width=".79701" stroke-linecap="butt" stroke-miterlimit="10" stroke-linejoin="miter" fill="none" stroke="#000000" d="M-4.25183 170.08086H4.25183"/>
<use data-text="6" xlink:href="#font_1_101" transform="matrix(9.963098,0,0,-9.962899,139.45507,50.856126)"/>
<use data-text="0" xlink:href="#font_1_121" transform="matrix(9.963098,0,0,-9.962899,145.12535,230.61454)"/>
<path transform="matrix(1.00005,0,0,-1.00003,157.20896,217.73415)" d="M-110.3984 170.08086C-110.3984 171.73155-111.73653 173.06969-113.38724 173.06969-115.03793 173.06969-116.37607 171.73155-116.37607 170.08086-116.37607 168.43015-115.03793 167.09203-113.38724 167.09203-111.73653 167.09203-110.3984 168.43015-110.3984 170.08086ZM-113.38724 170.08086" fill="#ff0000"/>
<path transform="matrix(1.00005,0,0,-1.00003,157.20896,217.73415)" d="M-53.70479 141.73404C-53.70479 143.38475-55.04291 144.72287-56.69362 144.72287-58.34431 144.72287-59.68245 143.38475-59.68245 141.73404-59.68245 140.08333-58.34431 138.74521-56.69362 138.74521-55.04291 138.74521-53.70479 140.08333-53.70479 141.73404ZM-56.69362 141.73404" fill="#0000ff"/>
<path transform="matrix(1.00005,0,0,-1.00003,157.20896,217.73415)" d="M2.98883 113.38724C2.98883 115.03793 1.6507 116.37607 0 116.37607-1.6507 116.37607-2.98883 115.03793-2.98883 113.38724-2.98883 111.73653-1.6507 110.3984 0 110.3984 1.6507 110.3984 2.98883 111.73653 2.98883 113.38724ZM0 113.38724" fill="#00ff00"/>
<path transform="matrix(1.00005,0,0,-1.00003,157.20896,217.73415)" d="M59.68245 85.04042C59.68245 86.69113 58.34431 88.02925 56.69362 88.02925 55.04291 88.02925 53.70479 86.69113 53.70479 85.04042 53.70479 83.38971 55.04291 82.05159 56.69362 82.05159 58.34431 82.05159 59.68245 83.38971 59.68245 85.04042ZM56.69362 85.04042" fill="#ff8000"/>
<path transform="matrix(1.00005,0,0,-1.00003,157.20896,217.73415)" d="M116.37607 56.69362C116.37607 58.34431 115.03793 59.68245 113.38724 59.68245 111.73653 59.68245 110.3984 58.34431 110.3984 56.69362 110.3984 55.04291 111.73653 53.70479 113.38724 53.70479 115.03793 53.70479 116.37607 55.04291 116.37607 56.69362ZM113.38724 56.69362" fill="#bf0040"/>
<path transform="matrix(1.00005,0,0,-1.00003,157.20896,217.73415)" stroke-width=".79701" stroke-linecap="butt" stroke-miterlimit="10" stroke-linejoin="miter" fill="none" stroke="#0000ff" d="M-113.38724 170.08086 113.38724 56.69362"/>
<use data-text="y" xlink:href="#font_2_2" transform="matrix(9.963098,0,0,-9.962899,171.98569,149.3561)" fill="#0000ff"/>
<use data-text="=" xlink:href="#font_3_3" transform="matrix(9.963098,0,0,-9.962899,179.99509,149.3561)" fill="#0000ff"/>
<use data-text="&#x2212;" xlink:href="#font_4_1" transform="matrix(9.963098,0,0,-9.962899,190.51163,149.3561)" fill="#0000ff"/>
<use data-text="1" xlink:href="#font_5_1" transform="matrix(6.9741489,0,0,-6.9740097,199.45606,145.43297)" fill="#0000ff"/>
<path transform="matrix(1.00005,0,0,-1.00003,-67.22726,-55.386049)" stroke-width=".3985" stroke-linecap="butt" stroke-miterlimit="10" stroke-linejoin="miter" fill="none" stroke="#0000ff" d="M266.67-202.245H270.641"/>
<use data-text="2" xlink:href="#font_5_2" transform="matrix(6.9741489,0,0,-6.9740097,199.45606,152.79122)" fill="#0000ff"/>
<use data-text="x" xlink:href="#font_2_1" transform="matrix(9.963098,0,0,-9.962899,204.62332,149.35611)" fill="#0000ff"/>
<use data-text="+" xlink:href="#font_3_1" transform="matrix(9.963098,0,0,-9.962899,212.53171,149.35611)" fill="#0000ff"/>
<use data-text="4" xlink:href="#font_3_2" transform="matrix(9.963098,0,0,-9.962899,222.48484,149.35611)" fill="#0000ff"/>
</svg>
