<svg xmlns="http://www.w3.org/2000/svg" xmlns:xlink="http://www.w3.org/1999/xlink" xmlns:inkscape="http://www.inkscape.org/namespaces/inkscape" version="1.1" width="146" height="33" viewBox="0 0 146 33">
<path transform="matrix(1.00008,0,0,-1,73.36635,30.543999)" stroke-width="1.19553" stroke-linecap="butt" stroke-miterlimit="10" stroke-linejoin="miter" fill="none" stroke="#000000" d="M-42.5202 0V28.3468H42.5202V0ZM42.5202 28.3468"/>
<path transform="matrix(1.00008,0,0,-1,73.36635,30.543999)" stroke-width="1.19553" stroke-linecap="butt" stroke-miterlimit="10" stroke-linejoin="miter" fill="none" stroke="#000000" d="M-42.52022 14.17339C-42.52022 22.00124-48.86577 28.34679-56.69362 28.34679-64.52145 28.34679-70.867 22.00124-70.867 14.17339-70.867 6.34554-64.52145 0-56.69362 0-48.86577 0-42.52022 6.34554-42.52022 14.17339ZM-56.69362 14.17339"/>
<path transform="matrix(1.00008,0,0,-1,73.36635,30.543999)" stroke-width="1.19553" stroke-linecap="butt" stroke-miterlimit="10" stroke-linejoin="miter" fill="none" stroke="#000000" d="M70.867 14.17339C70.867 22.00124 64.52145 28.34679 56.69362 28.34679 48.86577 28.34679 42.52022 22.00124 42.52022 14.17339 42.52022 6.34554 48.86577 0 56.69362 0 64.52145 0 70.867 6.34554 70.867 14.17339ZM56.69362 14.17339"/>
</svg>
