<svg xmlns="http://www.w3.org/2000/svg" xmlns:xlink="http://www.w3.org/1999/xlink" xmlns:inkscape="http://www.inkscape.org/namespaces/inkscape" version="1.1" width="161" height="161" viewBox="0 0 161 161">
<path transform="matrix(1.00005,0,0,-1.00003,45.95034,115.387989)" d="M0 0H113.38724V113.38724H0Z" fill="#fff799" fill-opacity=".8"/>
<path transform="matrix(1.00005,0,0,-1.00003,45.95034,115.387989)" d="M-43.65344-43.65344H69.73378V69.73378H-43.65344Z" fill="#80ff80" fill-opacity=".8"/>
<path transform="matrix(1.00005,0,0,-1.00003,45.95034,115.387989)" d="M0 0H113.38724L69.73378-43.65344H-43.65344Z" fill="#8080ff" fill-opacity=".8"/>
<path transform="matrix(1.00005,0,0,-1.00003,45.95034,115.387989)" d="M113.38724 0V113.38724L69.73378 69.73378V-43.65344Z" fill="#ffbf80" fill-opacity=".8"/>
<path transform="matrix(1.00005,0,0,-1.00003,45.95034,115.387989)" d="M113.38724 113.38724H0L-43.65344 69.73378H69.73378Z" fill="#6dcff6" fill-opacity=".8"/>
<path transform="matrix(1.00005,0,0,-1.00003,45.95034,115.387989)" d="M0 113.38724V0L-43.65344-43.65344V69.73378Z" fill="#df809f" fill-opacity=".8"/>
<path transform="matrix(1.00005,0,0,-1.00003,45.95034,115.387989)" stroke-width=".79701" stroke-linecap="butt" stroke-miterlimit="10" stroke-linejoin="miter" fill="none" stroke="#000000" d="M0 0H113.38724V113.38724H0Z"/>
<path transform="matrix(1.00005,0,0,-1.00003,45.95034,115.387989)" stroke-width=".79701" stroke-linecap="butt" stroke-miterlimit="10" stroke-linejoin="miter" fill="none" stroke="#000000" d="M-43.65344-43.65344H69.73378V69.73378H-43.65344Z"/>
<path transform="matrix(1.00005,0,0,-1.00003,45.95034,115.387989)" stroke-width=".79701" stroke-linecap="butt" stroke-miterlimit="10" stroke-linejoin="miter" fill="none" stroke="#000000" d="M0 0-43.65344-43.65344"/>
<path transform="matrix(1.00005,0,0,-1.00003,45.95034,115.387989)" stroke-width=".79701" stroke-linecap="butt" stroke-miterlimit="10" stroke-linejoin="miter" fill="none" stroke="#000000" d="M113.38724 0 69.73378-43.65344"/>
<path transform="matrix(1.00005,0,0,-1.00003,45.95034,115.387989)" stroke-width=".79701" stroke-linecap="butt" stroke-miterlimit="10" stroke-linejoin="miter" fill="none" stroke="#000000" d="M113.38724 113.38724 69.73378 69.73378"/>
<path transform="matrix(1.00005,0,0,-1.00003,45.95034,115.387989)" stroke-width=".79701" stroke-linecap="butt" stroke-miterlimit="10" stroke-linejoin="miter" fill="none" stroke="#000000" d="M0 113.38724-43.65344 69.73378"/>
</svg>
