<svg xmlns="http://www.w3.org/2000/svg" xmlns:xlink="http://www.w3.org/1999/xlink" xmlns:inkscape="http://www.inkscape.org/namespaces/inkscape" version="1.1" width="248" height="181" viewBox="0 0 248 181">
<defs>
<path id="font_1_71" d="M.58200076 .2578125H.5569916C.54599 .15588379 .5319977 .0309906 .35598756 .0309906H.27398683C.22698975 .03060913 .22499085 .037612916 .22499085 .07060242V.6036072C.22499085 .63760378 .22499085 .6516113 .31999208 .6516113H.35299684V.6826172C.31698609 .6796112 .22599793 .6796112 .18499756 .6796112 .1459961 .6796112 .067993167 .6796112 .032989503 .6826172V.6516113H.056991579C.13398743 .6518097 .13598633 .6408081 .13598633 .6048126V.07795715C.13598633 .04197693 .13398743 .0309906 .056991579 .0309906H.032989503V0H.55400088L.58200076 .2578125Z"/>
<path id="font_1_69" d="M.73599246 0V.0309906C.6819916 .0309906 .6609955 .034988405 .6309967 .07896423L.3999939 .41874696 .5799866 .5916443C.58799746 .5996399 .6409912 .65060427 .7220001 .6516113V.6826172C.69599917 .6796112 .6639862 .6796112 .6369934 .6796112 .6009979 .6796112 .5439911 .6796112 .5099945 .6826172V.6516113C.5499878 .65060427 .55599978 .6276245 .55599978 .6186218 .55599978 .6026306 .54599 .5926361 .5379944 .5856476L.22499085 .28683473V.6046295C.22499085 .64060977 .22698975 .6516113 .3039856 .6516113H.32798768V.6826172C.29299928 .6796112 .21899414 .6796112 .18099976 .6796112 .14299011 .6796112 .067993167 .6796112 .032989503 .6826172V.6516113H.056991579C.13398743 .6516113 .13598633 .64060977 .13598633 .6046295V.07795715C.13598633 .041992189 .13398743 .0309906 .056991579 .0309906H.032989503V0C.067993167 .0029907227 .14199829 .0029907227 .17999268 .0029907227 .21798706 .0029907227 .29299928 .0029907227 .32798768 0V.0309906H.3039856C.22698975 .0309906 .22499085 .041992189 .22499085 .07795715V.2528534L.34098817 .3627777 .5219879 .094955448C.5279999 .08595276 .5369873 .07296753 .5369873 .06097412 .5369873 .0309906 .49798585 .0309906 .47799684 .0309906V0C.5130005 .0029907227 .58299258 .0029907227 .62098696 .0029907227L.73599246 0Z"/>
<path id="font_1_67" d="M.46499635 .6516113V.6826172L.33599855 .6796112C.2939911 .6796112 .20599365 .6796112 .16799927 .6826172V.6516113H.20399475C.3019867 .6516113 .3019867 .63861086 .3019867 .6035919V.14746094C.3019867 .055999757 .2519989 0 .19898987 0 .19299317-.00039672853 .125-.00039672853 .08898926 .057617189 .14099121 .057617189 .15299988 .08761597 .15299988 .11361694 .15299988 .14961243 .125 .1696167 .09700012 .1696167 .07499695 .16999817 .040985109 .1559906 .040985109 .11199951 .040985109 .03753662 .11199951-.022460938 .20098877-.022460938 .30299378-.022460938 .37599183 .047531129 .3869934 .122543338 .3880005 .1305542 .3880005 .1325531 .3880005 .16654969V.61061099C.3880005 .6516113 .4019928 .6516113 .46499635 .6516113Z"/>
<path id="font_1_65" d="M.33299256 0V.0309906H.30699159C.22799683 .0309906 .22499085 .041992189 .22499085 .07795715V.6046295C.22499085 .64060977 .22799683 .6516113 .30699159 .6516113H.33299256V.6826172C.2979889 .6796112 .21899414 .6796112 .18099976 .6796112 .14199829 .6796112 .06298828 .6796112 .027999878 .6826172V.6516113H.053985597C.1329956 .6516113 .13598633 .64060977 .13598633 .6046295V.07795715C.13598633 .041992189 .1329956 .0309906 .053985597 .0309906H.027999878V0C.06298828 .0029907227 .14199829 .0029907227 .17999268 .0029907227 .21899414 .0029907227 .2979889 .0029907227 .33299256 0Z"/>
</defs>
<g>
<path transform="matrix(1,0,0,-1.00005,65.53,124.85564)" d="M0 0H170.08086V113.38724H0Z" fill="#b3b3ff" fill-opacity=".5"/>
<path transform="matrix(1,0,0,-1.00005,65.53,124.85564)" stroke-width=".3985" stroke-linecap="butt" stroke-miterlimit="10" stroke-linejoin="miter" fill="none" stroke="#8080ff" stroke-opacity=".5" d="M0 0H170.08086V113.38724H0Z"/>
</g>
<g>
<path transform="matrix(1,0,0,-1.00005,65.53,124.85564)" d="M-54.5668-54.5668H115.51404V58.82042H-54.5668Z" fill="#b3b3ff" fill-opacity=".5"/>
<path transform="matrix(1,0,0,-1.00005,65.53,124.85564)" stroke-width=".3985" stroke-linecap="butt" stroke-miterlimit="10" stroke-linejoin="miter" fill="none" stroke="#8080ff" stroke-opacity=".5" d="M-54.5668-54.5668H115.51404V58.82042H-54.5668Z"/>
</g>
<path transform="matrix(1,0,0,-1.00005,65.53,124.85564)" stroke-width=".3985" stroke-linecap="butt" stroke-miterlimit="10" stroke-linejoin="miter" fill="none" stroke="#8080ff" d="M0 0-54.5668-54.5668"/>
<path transform="matrix(1,0,0,-1.00005,65.53,124.85564)" stroke-width=".3985" stroke-linecap="butt" stroke-miterlimit="10" stroke-linejoin="miter" fill="none" stroke="#8080ff" d="M170.08086 0 115.51404-54.5668"/>
<path transform="matrix(1,0,0,-1.00005,65.53,124.85564)" stroke-width=".3985" stroke-linecap="butt" stroke-miterlimit="10" stroke-linejoin="miter" fill="none" stroke="#8080ff" d="M170.08086 113.38724 115.51404 58.82042"/>
<path transform="matrix(1,0,0,-1.00005,65.53,124.85564)" stroke-width=".3985" stroke-linecap="butt" stroke-miterlimit="10" stroke-linejoin="miter" fill="none" stroke="#8080ff" d="M0 113.38724-54.5668 58.82042"/>
<use data-text="L" xlink:href="#font_1_71" transform="matrix(9.9626,0,0,-9.963098,55.782999,135.18015)"/>
<use data-text="K" xlink:href="#font_1_69" transform="matrix(9.9626,0,0,-9.963098,239.131,135.18015)"/>
<use data-text="J" xlink:href="#font_1_67" transform="matrix(9.9626,0,0,-9.963098,239.131,7.7237856)"/>
<use data-text="I" xlink:href="#font_1_65" transform="matrix(9.9626,0,0,-9.963098,58.414,7.9428026)"/>
<use data-text="L" xlink:href="#font_1_71" transform="matrix(9.9626,0,0,-9.963098,1.2169952,175.90518)"/>
<use data-text="K" xlink:href="#font_1_69" transform="matrix(9.9626,0,0,-9.963098,184.564,175.90518)"/>
<use data-text="J" xlink:href="#font_1_67" transform="matrix(9.9626,0,0,-9.963098,184.564,62.293516)"/>
<use data-text="I" xlink:href="#font_1_65" transform="matrix(9.9626,0,0,-9.963098,3.8470002,62.512525)"/>
</svg>
