<svg xmlns="http://www.w3.org/2000/svg" xmlns:xlink="http://www.w3.org/1999/xlink" xmlns:inkscape="http://www.inkscape.org/namespaces/inkscape" version="1.1" width="265" height="156" viewBox="0 0 265 156">
<defs>
<path id="font_1_82" d="M.49398805 0V.04699707H.35398866V.6231079C.35398866 .6452179 .35398866 .65527346 .32798768 .65527346 .31698609 .65527346 .31498719 .65527346 .30599977 .6482239 .22898865 .5909424 .12599182 .5909424 .10499573 .5909424H.084991458V.5439453H.10499573C.12098694 .5439453 .17599488 .54493716 .23498535 .5639343V.04699707H.09599304V0C.13999939 .0029907227 .24598694 .0029907227 .29499818 .0029907227 .34399415 .0029907227 .44999696 .0029907227 .49398805 0Z"/>
<path id="font_1_107" d="M.5169983 .22200012H.46998597C.46699525 .20199585 .45799256 .13798523 .44400025 .1309967 .43299867 .125 .35798646 .125 .34199525 .125H.19499207C.24198914 .1639862 .2939911 .20698548 .33898927 .23999024 .45298768 .3242035 .5169983 .37124635 .5169983 .4663086 .5169983 .5812988 .41299439 .65527346 .27198792 .65527346 .15098572 .65527346 .056991579 .593277 .056991579 .50331118 .056991579 .44430543 .10499573 .42930604 .1289978 .42930604 .16099549 .42930604 .20098877 .4513092 .20098877 .50131228 .20098877 .55329897 .15899658 .5693054 .14399719 .5733032 .17298889 .5972748 .21099854 .6082611 .24699402 .6082611 .33299256 .6082611 .3789978 .54029849 .3789978 .4653015 .3789978 .39627076 .34098817 .3282013 .2709961 .25712586L.069992069 .051986696C.056991579 .039993287 .056991579 .037994386 .056991579 .017990113V0H.48599244L.5169983 .22200012Z"/>
<path id="font_1_43" d="M.47799684 .117126468C.47799684 .13113404 .46398927 .13113404 .45399476 .13113404 .43598939 .13113404 .43499757 .12913513 .42999269 .11613464 .4039917 .053131105 .35598756 .03413391 .30499269 .03413391 .1659851 .03413391 .1659851 .18112183 .1659851 .22712708 .1659851 .28312684 .1659851 .41311646 .29499818 .41311646 .32998658 .41311646 .34700013 .41011048 .3600006 .40711976 .34199525 .39111329 .33999635 .3701172 .33999635 .3611145 .33999635 .3171234 .375 .29811097 .4019928 .29811097 .43299867 .29811097 .46499635 .3191223 .46499635 .3611145 .46499635 .44711305 .34899903 .453125 .29100038 .453125 .11199951 .45314027 .037994386 .33813478 .037994386 .22213745 .037994386 .08912659 .13198853-.005859375 .28599549-.005859375 .44799806-.005859375 .47799684 .11013794 .47799684 .117126468Z"/>
<path id="font_1_75" d="M.93499758 0V.04699707H.8659973V.30613709C.8659973 .40919496 .8149872 .4501953 .71199038 .4501953 .62098696 .4501953 .56900027 .40019227 .54299929 .3541565 .522995 .44718934 .43099977 .4501953 .3929901 .4501953 .30599977 .4501953 .24899292 .40518189 .21699524 .3421631V.4501953L.04499817 .4423828V.39537049C.10699463 .39537049 .11399841 .39537049 .11399841 .3563385V.04699707H.04499817V0L.17098999 .0029907227 .29699708 0V.04699707H.22799683V.2562256C.22799683 .3653412 .31498719 .41436769 .3769989 .41436769 .41099549 .41436769 .43299867 .39437867 .43299867 .31729127V.04699707H.3639984V0L.48999024 .0029907227 .6159973 0V.04699707H.5469971V.2562256C.5469971 .3653412 .6339874 .41436769 .69599917 .41436769 .7299957 .41436769 .7519989 .39437867 .7519989 .31729127V.04699707H.68299868V0L.8089905 .0029907227 .93499758 0Z"/>
<path id="font_1_100" d="M.55799868 .6435547H.35398866C.33099366 .6435547 .18399048 .6485901 .16999817 .6526184 .14898682 .6566467 .147995 .6656952 .1459961 .67578127H.09899902L.06399536 .42167665H.11099243C.12098694 .49757386 .13398743 .5105591 .13798523 .512558 .14898682 .5185547 .22999573 .5185547 .24699402 .5185547H.41600038C.397995 .49658204 .3789978 .4756012 .36099244 .45362855 .2649994 .34178163 .19299317 .20695496 .19299317 .059158327 .19299317-.0107421879 .24899292-.0107421879 .25498963-.0107421879 .2709961-.0107421879 .31799317-.0057525637 .31799317 .060150148V.10609436C.31799317 .15403748 .32099916 .20196533 .32798768 .24890137 .33699037 .31581117 .35798646 .3747406 .3929901 .41567994L.5479889 .59555056C.55799868 .6065521 .55799868 .608551 .55799868 .6435547Z"/>
<path id="font_1_78" d="M.526001 .32948304C.526001 .39642335 .526001 .65527346 .2889862 .65527346 .14698792 .65527346 .04798889 .57429507 .04798889 .44039918 .04798889 .3025055 .14698792 .22753906 .269989 .22753906 .30499269 .22753906 .35198976 .23452759 .3899994 .3045044V.28251649C.3899994 .20959473 .3809967 .1506958 .3659973 .11669922 .34899903 .077697757 .30599977 .03225708 .23699951 .03225708 .21899414 .03225708 .18299866 .0342865 .15299988 .05470276 .16499329 .05770874 .20199585 .07170105 .20199585 .11669922 .20199585 .1506958 .1789856 .17871094 .13999939 .17871094 .100997928 .17871094 .07699585 .15270996 .07699585 .11470032 .07699585 .046554567 .12799073-.0107421879 .23899842-.0107421879 .36898805-.0107421879 .526001 .07369995 .526001 .32948304M.3889923 .42840577C.3889923 .365448 .36299134 .26353456 .2789917 .26353456 .18399048 .26353456 .18399048 .33847047 .18399048 .43840028 .18399048 .5363312 .18399048 .616272 .29100038 .616272 .34999085 .616272 .37298585 .5633087 .3769989 .5533142 .3889923 .52033999 .3889923 .46238709 .3889923 .42840577Z"/>
</defs>
<path transform="matrix(1,0,0,-1.00006,36.202005,129.56581)" d="M0 0H170.08086L226.77448 56.69362H56.69362Z" fill="#b3b3ff"/>
<path transform="matrix(1,0,0,-1.00006,36.202005,129.56581)" stroke-width=".79701" stroke-linecap="butt" stroke-miterlimit="10" stroke-linejoin="miter" fill="none" stroke="#000000" d="M0 0H170.08086V70.867H0Z"/>
<path transform="matrix(1,0,0,-1.00006,36.202005,129.56581)" stroke-width=".79701" stroke-linecap="butt" stroke-miterlimit="10" stroke-linejoin="miter" fill="none" stroke="#000000" d="M56.69362 56.69362H226.77448V127.56062H56.69362Z"/>
<path transform="matrix(1,0,0,-1.00006,36.202005,129.56581)" stroke-width=".79701" stroke-linecap="butt" stroke-miterlimit="10" stroke-linejoin="miter" fill="none" stroke="#000000" d="M0 0 56.69362 56.69362"/>
<path transform="matrix(1,0,0,-1.00006,36.202005,129.56581)" stroke-width=".79701" stroke-linecap="butt" stroke-miterlimit="10" stroke-linejoin="miter" fill="none" stroke="#000000" d="M170.08086 0 226.77448 56.69362"/>
<path transform="matrix(1,0,0,-1.00006,36.202005,129.56581)" stroke-width=".79701" stroke-linecap="butt" stroke-miterlimit="10" stroke-linejoin="miter" fill="none" stroke="#000000" d="M170.08086 70.867 226.77448 127.56062"/>
<path transform="matrix(1,0,0,-1.00006,36.202005,129.56581)" stroke-width=".79701" stroke-linecap="butt" stroke-miterlimit="10" stroke-linejoin="miter" fill="none" stroke="#000000" d="M0 70.867 56.69362 127.56062"/>
<path transform="matrix(1,0,0,-1.00006,36.202005,129.56581)" stroke-width=".79701" stroke-linecap="butt" stroke-miterlimit="10" stroke-linejoin="miter" fill="none" stroke="#ff0000" d="M.70735-14.17339H169.37349"/>
<path transform="matrix(-1,-0,0,1.00006,36.909357,143.74005)" stroke-width=".6376" stroke-linecap="round" stroke-linejoin="round" fill="none" stroke="#ff0000" d="M-1.55415 2.0722C-1.42464 1.29512 0 .1295 .38852 0 0-.1295-1.42464-1.29512-1.55415-2.0722"/>
<path transform="matrix(1,0,0,-1.00006,205.5755,143.74005)" stroke-width=".6376" stroke-linecap="round" stroke-linejoin="round" fill="none" stroke="#ff0000" d="M-1.55415 2.0722C-1.42464 1.29512 0 .1295 .38852 0 0-.1295-1.42464-1.29512-1.55415-2.0722"/>
<use data-text="1" xlink:href="#font_1_82" transform="matrix(9.9626,0,0,-9.963197,106.288,153.98528)" fill="#ff0000"/>
<use data-text="2" xlink:href="#font_1_107" transform="matrix(9.9626,0,0,-9.963197,112.016498,153.98528)" fill="#ff0000"/>
<use data-text="c" xlink:href="#font_1_43" transform="matrix(9.9626,0,0,-9.963197,121.56067,153.98528)" fill="#ff0000"/>
<use data-text="m" xlink:href="#font_1_75" transform="matrix(9.9626,0,0,-9.963197,126.65155,153.98528)" fill="#ff0000"/>
<path transform="matrix(1,0,0,-1.00006,36.202005,129.56581)" stroke-width=".79701" stroke-linecap="butt" stroke-miterlimit="10" stroke-linejoin="miter" fill="none" stroke="#0000ff" d="M-7.08669 .70735V70.15965"/>
<path transform="matrix(0,1.00006,1,0,29.115315,128.85842)" stroke-width=".6376" stroke-linecap="round" stroke-linejoin="round" fill="none" stroke="#0000ff" d="M-1.55415 2.0722C-1.42464 1.29512 0 .1295 .38852 0 0-.1295-1.42464-1.29512-1.55415-2.0722"/>
<path transform="matrix(0,-1.00006,-1,-0,29.115315,59.401956)" stroke-width=".6376" stroke-linecap="round" stroke-linejoin="round" fill="none" stroke="#0000ff" d="M-1.55415 2.0722C-1.42464 1.29512 0 .1295 .38852 0 0-.1295-1.42464-1.29512-1.55415-2.0722"/>
<use data-text="7" xlink:href="#font_1_100" transform="matrix(9.9626,0,0,-9.963197,1.2170029,97.44289)" fill="#0000ff"/>
<use data-text="c" xlink:href="#font_1_43" transform="matrix(9.9626,0,0,-9.963197,10.761169,97.44289)" fill="#0000ff"/>
<use data-text="m" xlink:href="#font_1_75" transform="matrix(9.9626,0,0,-9.963197,15.852066,97.44289)" fill="#0000ff"/>
<path transform="matrix(1,0,0,-1.00006,36.202005,129.56581)" stroke-width="1.19553" stroke-linecap="butt" stroke-miterlimit="10" stroke-linejoin="miter" fill="none" stroke="#00b300" d="M170.75713-13.49712 226.09819 41.84392"/>
<path transform="matrix(-.7071,.70714238,.7071,.70714238,206.95914,143.06372)" stroke-width=".9564" stroke-linecap="round" stroke-linejoin="round" fill="none" stroke="#00b300" d="M-1.91284 2.55046C-1.75343 1.59402 0 .15938 .4782 0 0-.15938-1.75343-1.59402-1.91284-2.55046"/>
<path transform="matrix(.7071,-.70714238,-.7071,-.70714238,262.30018,87.719409)" stroke-width=".9564" stroke-linecap="round" stroke-linejoin="round" fill="none" stroke="#00b300" d="M-1.91284 2.55046C-1.75343 1.59402 0 .15938 .4782 0 0-.15938-1.75343-1.59402-1.91284-2.55046"/>
<use data-text="9" xlink:href="#font_1_78" transform="matrix(9.9626,0,0,-9.963197,238.548,125.836589)" fill="#00b300"/>
<use data-text="c" xlink:href="#font_1_43" transform="matrix(9.9626,0,0,-9.963197,248.09217,125.836589)" fill="#00b300"/>
<use data-text="m" xlink:href="#font_1_75" transform="matrix(9.9626,0,0,-9.963197,253.18306,125.836589)" fill="#00b300"/>
</svg>
