<svg xmlns="http://www.w3.org/2000/svg" xmlns:xlink="http://www.w3.org/1999/xlink" xmlns:inkscape="http://www.inkscape.org/namespaces/inkscape" version="1.1" width="122" height="122" viewBox="0 0 122 122">
<path transform="matrix(1,0,0,-1.00003,35.035005,87.04014)" d="M0 0H85.04042V85.04042H0Z" fill="#fff799"/>
<path transform="matrix(1,0,0,-1.00003,35.035005,87.04014)" d="M-32.74008-32.74008H52.30034V52.30034H-32.74008Z" fill="#fff799"/>
<path transform="matrix(1,0,0,-1.00003,35.035005,87.04014)" d="M0 0-32.74008-32.74008V52.30034L0 85.04042Z" fill="#fff799"/>
<path transform="matrix(1,0,0,-1.00003,35.035005,87.04014)" d="M85.04042 0 52.30034-32.74008V52.30034L85.04042 85.04042Z" fill="#fff799"/>
<path transform="matrix(1,0,0,-1.00003,35.035005,87.04014)" d="M0 85.04042H85.04042L52.30034 52.30034H-32.74008Z" fill="#ffbf80"/>
<path transform="matrix(1,0,0,-1.00003,35.035005,87.04014)" d="M0 0H85.04042L52.30034-32.74008H-32.74008Z" fill="#ffbf80"/>
<path transform="matrix(1,0,0,-1.00003,35.035005,87.04014)" stroke-width=".79701" stroke-linecap="butt" stroke-miterlimit="10" stroke-linejoin="miter" fill="none" stroke="#000000" d="M0 0H85.04042V85.04042H0Z"/>
<path transform="matrix(1,0,0,-1.00003,35.035005,87.04014)" stroke-width=".79701" stroke-linecap="butt" stroke-miterlimit="10" stroke-linejoin="miter" fill="none" stroke="#000000" d="M-32.74008-32.74008H52.30034V52.30034H-32.74008Z"/>
<path transform="matrix(1,0,0,-1.00003,35.035005,87.04014)" stroke-width=".79701" stroke-linecap="butt" stroke-miterlimit="10" stroke-linejoin="miter" fill="none" stroke="#000000" d="M0 0-32.74008-32.74008"/>
<path transform="matrix(1,0,0,-1.00003,35.035005,87.04014)" stroke-width=".79701" stroke-linecap="butt" stroke-miterlimit="10" stroke-linejoin="miter" fill="none" stroke="#000000" d="M85.04042 0 52.30034-32.74008"/>
<path transform="matrix(1,0,0,-1.00003,35.035005,87.04014)" stroke-width=".79701" stroke-linecap="butt" stroke-miterlimit="10" stroke-linejoin="miter" fill="none" stroke="#000000" d="M85.04042 85.04042 52.30034 52.30034"/>
<path transform="matrix(1,0,0,-1.00003,35.035005,87.04014)" stroke-width=".79701" stroke-linecap="butt" stroke-miterlimit="10" stroke-linejoin="miter" fill="none" stroke="#000000" d="M0 85.04042-32.74008 52.30034"/>
</svg>
