<svg xmlns="http://www.w3.org/2000/svg" xmlns:xlink="http://www.w3.org/1999/xlink" xmlns:inkscape="http://www.inkscape.org/namespaces/inkscape" version="1.1" width="155" height="160" viewBox="0 0 155 160">
<defs>
<path id="font_1_96" d="M.3639984 .38137818C.3639984 .41337586 .33299256 .4423828 .2899933 .4423828 .21699524 .4423828 .18099976 .37538148 .16699219 .3323822V.4423828L.027999878 .43066407V.3996582C.09799194 .3996582 .10598755 .39266969 .10598755 .34370423V.07595825C.10598755 .0309906 .09498596 .0309906 .027999878 .0309906V0L.14199829 .0029907227C.18199158 .0029907227 .22898865 .0029907227 .2689972 0V.0309906H.24798584C.17399597 .0309906 .17199707 .04197693 .17199707 .07795715V.23181153C.17199707 .33137513 .21398926 .42037965 .2899933 .42037965 .29699708 .42037965 .29899598 .42037965 .30099488 .41937257 .2979889 .41838075 .27799989 .40637208 .27799989 .3803711 .27799989 .35237123 .29899598 .33737184 .32099916 .33737184 .33898927 .33737184 .3639984 .3493805 .3639984 .38137818Z"/>
<path id="font_1_63" d="M.5349884 0V.0309906C.48298646 .0309906 .45799256 .0309906 .45700074 .061019899V.25221253C.45700074 .3383026 .45700074 .36932374 .42599488 .405365 .4119873 .42237855 .3789978 .4423828 .32099916 .4423828 .23699951 .4423828 .19299317 .38233949 .1769867 .34629823H.17599488V.69433596L.03199768 .6826172V.6516113C.101989749 .6516113 .10998535 .64463809 .10998535 .59580996V.076034549C.10998535 .0309906 .09899902 .0309906 .03199768 .0309906V0L.14498902 .0029907227 .25698854 0V.0309906C.18998719 .0309906 .1789856 .0309906 .1789856 .076034549V.2602234C.1789856 .36431886 .25 .42037965 .31399537 .42037965 .3769989 .42037965 .3880005 .36631776 .3880005 .30926515V.076034549C.3880005 .0309906 .3769989 .0309906 .30999757 .0309906V0L.4229889 .0029907227 .5349884 0Z"/>
</defs>
<path transform="matrix(1.00003,0,0,-1.00005,82.733219,72.86784)" d="M0 0-70.867 70.867C-90.43611 36.97227-78.82245-6.37018-44.9277-25.93929-11.03296-45.50838 32.3095-33.89471 51.87859 0 64.53572 21.92319 64.53572 48.94383 51.87859 70.867Z" fill="#4d99ff"/>
<path transform="matrix(1.00003,0,0,-1.00005,82.733219,72.86784)" stroke-width=".79701" stroke-linecap="butt" stroke-miterlimit="10" stroke-linejoin="miter" fill="none" stroke="#000000" d="M0 0-70.867 70.867"/>
<path transform="matrix(1.00003,0,0,-1.00005,82.733219,72.86784)" stroke-width=".79701" stroke-linecap="butt" stroke-miterlimit="10" stroke-linejoin="miter" fill="none" stroke="#000000" d="M0 0 70.867 70.867"/>
<path transform="matrix(1.00003,0,0,-1.00005,82.733219,72.86784)" stroke-width=".79701" stroke-linecap="butt" stroke-miterlimit="10" stroke-linejoin="miter" fill="none" stroke="#000000" d="M-70.867 70.867C-90.43611 36.97227-78.82245-6.37018-44.9277-25.93929-11.03296-45.50838 32.3095-33.89471 51.87859 0 64.53572 21.92319 64.53572 48.94383 51.87859 70.867"/>
<path transform="matrix(1.00003,0,0,-1.00005,82.733219,72.86784)" d="M42.5202-42.5202C42.5202-19.03664 23.48355 0 0 0-23.48355 0-42.5202-19.03664-42.5202-42.5202-42.5202-66.00375-23.48355-85.0404 0-85.0404 23.48355-85.0404 42.5202-66.00375 42.5202-42.5202ZM0-42.5202" fill="#ff9900"/>
<path transform="matrix(1.00003,0,0,-1.00005,82.733219,72.86784)" stroke-width=".79701" stroke-linecap="butt" stroke-miterlimit="10" stroke-linejoin="miter" fill="none" stroke="#000000" d="M42.5202-42.5202C42.5202-19.03664 23.48355 0 0 0-23.48355 0-42.5202-19.03664-42.5202-42.5202-42.5202-66.00375-23.48355-85.0404 0-85.0404 23.48355-85.0404 42.5202-66.00375 42.5202-42.5202ZM0-42.5202"/>
<path transform="matrix(1.00003,0,0,-1.00005,82.733219,72.86784)" stroke-width=".3985" stroke-linecap="butt" stroke-dasharray="2.98883,2.98883" stroke-miterlimit="10" stroke-linejoin="miter" fill="none" stroke="#000000" d="M0-42.5202H42.5202"/>
<use data-text="r" xlink:href="#font_1_96" transform="matrix(9.962899,0,0,-9.963098,102.040798,111.8698)"/>
<path transform="matrix(1.00003,0,0,-1.00005,82.733219,72.86784)" stroke-width=".3985" stroke-linecap="butt" stroke-dasharray="2.98883,2.98883" stroke-miterlimit="10" stroke-linejoin="miter" fill="none" stroke="#000000" d="M0 0V70.867"/>
<use data-text="h" xlink:href="#font_1_63" transform="matrix(9.962899,0,0,-9.963098,73.67394,40.890249)"/>
</svg>
