<svg xmlns="http://www.w3.org/2000/svg" xmlns:xlink="http://www.w3.org/1999/xlink" xmlns:inkscape="http://www.inkscape.org/namespaces/inkscape" version="1.1" width="84" height="83" viewBox="0 0 84 83">
<defs>
<path id="font_1_111" d="M.84199526 .63853457V.6855469L.72898867 .6825409C.68899539 .6825409 .6369934 .6825409 .59799197 .6855469V.63853457C.6069946 .63853457 .6859894 .63853457 .6859894 .62654116 .6859894 .6225586 .68299868 .6175537 .6819916 .614563L.47999574 .16001892 .2669983 .63853457H.36099244V.6855469C.32299806 .6825409 .22698975 .6825409 .18399048 .6825409 .14498902 .6825409 .06098938 .6825409 .025985718 .6855469V.63853457H.117996219L.3939972 .018157959C.4019928 .00016784668 .4059906-.0078125 .43399049-.0078125 .44999696-.0078125 .46299745-.0078125 .47399903 .016159058L.73999026 .6165619C.74598696 .6295471 .75 .63853457 .82299807 .63853457H.84199526Z"/>
<path id="font_1_80" d="M.798996 .33924867C.798996 .5552521 .6539917 .6972656 .43199159 .6972656 .20298767 .6972656 .06399536 .5492554 .06399536 .33924867 .06399536 .13224793 .20399475-.0107421879 .43099977-.0107421879 .6609955-.0107421879 .798996 .13424683 .798996 .33924867M.6459961 .3542633C.6459961 .28425599 .6419983 .19525147 .59999087 .12625122 .5549927 .053253175 .4850006 .03125 .43099977 .03125 .37199403 .03125 .29899598 .059249879 .2579956 .1352539 .22499085 .19725037 .21699524 .2682495 .21699524 .3542633 .21699524 .41825868 .21998596 .5032654 .2639923 .57125857 .30499269 .6322632 .37199403 .6572571 .43099977 .6572571 .49499513 .6572571 .56399539 .6292572 .60398867 .56326296 .6419983 .49925233 .6459961 .42225648 .6459961 .3542633Z"/>
<path id="font_1_104" d="M.7569885 .43385316 .73599246 .6748047H.06298828L.041992189 .43385316H.08898926C.09799194 .5468292 .10798645 .62779238 .2519989 .62779238H.32899476V.04699707H.17599488V0C.22999573 .0029907227 .34098817 .0029907227 .3999939 .0029907227 .45899964 .0029907227 .56999209 .0029907227 .6239929 0V.04699707H.47099305V.62779238H.5469971C.6899872 .62779238 .69999697 .54782107 .70999148 .43385316H.7569885Z"/>
<path id="font_1_49" d="M.72299197 .27397157H.6759949C.6539917 .13598633 .6259918 .04699707 .44099427 .04699707H.2889862V.32896424H.34399415C.43998719 .32896424 .44999696 .28596498 .44999696 .2119751H.49699403V.4928894H.44999696C.44999696 .4189453 .44099427 .37597657 .34399415 .37597657H.2889862V.6328125H.44099427C.60198977 .6328125 .6279907 .5598297 .6439972 .43885804H.69099429L.6599884 .6798096H.038986207V.6328125H.14698792V.04699707H.038986207V0H.6769867L.72299197 .27397157Z"/>
</defs>
<path transform="matrix(1.00003,0,0,-1.00008,2.2955018,81.37523)" stroke-width=".79701" stroke-linecap="butt" stroke-miterlimit="10" stroke-linejoin="miter" fill="none" stroke="#000000" d="M0 0H56.69362V56.69362H0Z"/>
<path transform="matrix(1.00003,0,0,-1.00008,2.2955018,81.37523)" stroke-width=".79701" stroke-linecap="butt" stroke-miterlimit="10" stroke-linejoin="miter" fill="none" stroke="#000000" d="M22.67752 22.67752H79.37114V79.37114H22.67752Z"/>
<path transform="matrix(1.00003,0,0,-1.00008,2.2955018,81.37523)" stroke-width=".79701" stroke-linecap="butt" stroke-miterlimit="10" stroke-linejoin="miter" fill="none" stroke="#000000" d="M0 0 22.67752 22.67752"/>
<path transform="matrix(1.00003,0,0,-1.00008,2.2955018,81.37523)" stroke-width=".79701" stroke-linecap="butt" stroke-miterlimit="10" stroke-linejoin="miter" fill="none" stroke="#000000" d="M56.69362 0 79.37114 22.67752"/>
<path transform="matrix(1.00003,0,0,-1.00008,2.2955018,81.37523)" stroke-width=".79701" stroke-linecap="butt" stroke-miterlimit="10" stroke-linejoin="miter" fill="none" stroke="#000000" d="M56.69362 56.69362 79.37114 79.37114"/>
<path transform="matrix(1.00003,0,0,-1.00008,2.2955018,81.37523)" stroke-width=".79701" stroke-linecap="butt" stroke-miterlimit="10" stroke-linejoin="miter" fill="none" stroke="#000000" d="M0 56.69362 22.67752 79.37114"/>
<path transform="matrix(1.00003,0,0,-1.00008,2.2955018,81.37523)" d="M39.68535 56.69362H45.35506V53.85875H39.68535V56.69362" fill="#00ff00"/>
<path transform="matrix(1.00003,0,0,-1.00008,2.2955018,81.37523)" stroke-width="1.19553" stroke-linecap="butt" stroke-miterlimit="10" stroke-linejoin="miter" fill="none" stroke="#000000" d="M39.68535 56.69362H45.35506V53.85875H39.68535V56.69362"/>
<path transform="matrix(1.00003,0,0,-1.00008,2.2955018,81.37523)" d="M14.47113 21.49942H53.561V35.194169H14.47113Z" fill="#0000ff"/>
<use data-text="V" xlink:href="#font_1_111" transform="matrix(9.962899,0,0,-9.963397,20.088036,56.443235)"/>
<use data-text="O" xlink:href="#font_1_80" transform="matrix(9.962899,0,0,-9.963397,28.43695,56.443235)"/>
<use data-text="T" xlink:href="#font_1_104" transform="matrix(9.962899,0,0,-9.963397,37.0449,56.443235)"/>
<use data-text="E" xlink:href="#font_1_49" transform="matrix(9.962899,0,0,-9.963397,45.015214,56.443235)"/>
</svg>
