<svg xmlns="http://www.w3.org/2000/svg" xmlns:xlink="http://www.w3.org/1999/xlink" xmlns:inkscape="http://www.inkscape.org/namespaces/inkscape" version="1.1" width="116" height="116" viewBox="0 0 116 116">
<defs>
<path id="font_1_2" d="M.5029907 .6693268C.5039978 .6733246 .5059967 .6793213 .5059967 .6843262 .5059967 .69433596 .49598695 .69433596 .49398805 .69433596 .49299623 .69433596 .44400025 .6903229 .43899537 .68933108 .42199708 .688324 .40699769 .6863251 .3889923 .68533328 .3639984 .68333438 .35699464 .6823273 .35699464 .6643219 .35699464 .6543274 .36499024 .6543274 .3789978 .6543274 .42799378 .6543274 .42900086 .6453247 .42900086 .6353302 .42900086 .6293335 .4269867 .6213379 .42599488 .61834719L.36499024 .37538148C.35398866 .4013977 .32699586 .44140626 .2749939 .44140626 .1619873 .44140626 .039993287 .29534913 .039993287 .14727783 .039993287 .04824829 .09799194-.009765625 .1659851-.009765625 .22099304-.009765625 .2679901 .033233644 .29599 .06625366 .30599977 .007232666 .35299684-.009765625 .3829956-.009765625 .41299439-.009765625 .43699647 .008224487 .45498658 .04423523 .47099305 .07826233 .4850006 .13928223 .4850006 .14328003 .4850006 .14828491 .48098756 .15228272 .47499085 .15228272 .46598817 .15228272 .46499635 .14727783 .46099855 .13227844 .44599916 .07325745 .4269867 .010223389 .38598634 .010223389 .35699464 .010223389 .35499574 .036239625 .35499574 .056243898 .35499574 .0602417 .35499574 .08125305 .3619995 .10926819L.5029907 .6693268M.30099488 .119277957C.29599 .102264408 .29599 .1002655 .28199769 .08125305 .2599945 .053237916 .21598816 .010223389 .16899109 .010223389 .12799073 .010223389 .10499573 .04724121 .10499573 .10626221 .10499573 .1612854 .13598633 .2733307 .15499878 .3153534 .18899536 .38539125 .23599243 .42140199 .2749939 .42140199 .34098817 .42140199 .35398866 .33937074 .35398866 .33135987 .35398866 .33036805 .35099793 .3173523 .34999085 .3153534L.30099488 .119277957Z"/>
<path id="font_2_3" d="M.6749878 .32421876C.68899539 .32421876 .70700076 .32421876 .70700076 .34220887 .70700076 .36120606 .6899872 .36120606 .6749878 .36120606H.085998538C.07199097 .36120606 .053985597 .36120606 .053985597 .34321595 .053985597 .32421876 .070999149 .32421876 .085998538 .32421876H.6749878M.6749878 .13780213C.68899539 .13780213 .70700076 .13780213 .70700076 .15579224 .70700076 .17480469 .6899872 .17480469 .6749878 .17480469H.085998538C.07199097 .17480469 .053985597 .17480469 .053985597 .15679932 .053985597 .13780213 .070999149 .13780213 .085998538 .13780213H.6749878Z"/>
<path id="font_2_1" d="M.18399048 .35888673C.16699219 .35787965 .16299439 .35688783 .16299439 .34788514 .16299439 .33789063 .16799927 .33789063 .18598938 .33789063H.23199463C.31698609 .33789063 .35499574 .267807 .35499574 .17172241 .35499574 .04058838 .2869873 .005508423 .23799134 .005508423 .18998719 .005508423 .10798645 .028564454 .07899475 .09472656 .11099243 .08970642 .13999939 .10771179 .13999939 .14372254 .13999939 .17271424 .11898804 .1927185 .09098816 .1927185 .066986087 .1927185 .040985109 .1787262 .040985109 .14071656 .040985109 .051620485 .12998963-.021484375 .24099732-.021484375 .3600006-.021484375 .44799806 .06965637 .44799806 .17071533 .44799806 .26280213 .37399293 .33488465 .27799989 .35188294 .36499024 .3769226 .42099 .45011903 .42099 .5282135 .42099 .6071167 .33898927 .66503909 .24198914 .66503909 .14199829 .66503909 .067993167 .604126 .067993167 .5312042 .067993167 .49121095 .09899902 .48321534 .11399841 .48321534 .1349945 .48321534 .15899658 .49821473 .15899658 .5282135 .15899658 .5602112 .1349945 .57421877 .11299133 .57421877 .10699463 .57421877 .10499573 .57421877 .101989749 .57321169 .13999939 .641037 .23399353 .641037 .23899842 .641037 .27198792 .641037 .33699037 .6260681 .33699037 .5282135 .33699037 .5092163 .33399964 .453125 .30499269 .41001893 .2749939 .3658905 .24099732 .36288453 .21398926 .36187745L.18399048 .35888673Z"/>
<path id="font_2_2" d="M.12799073 .5727997C.17098999 .5588074 .20599365 .5578003 .21699524 .5578003 .32998658 .5578003 .4019928 .6409912 .4019928 .6550598 .4019928 .6590576 .3999939 .6640625 .3939972 .6640625 .3919983 .6640625 .3899994 .6640625 .3809967 .66004946 .32499696 .6358795 .2769928 .6328125 .25099183 .6328125 .18499756 .6328125 .13798523 .6530609 .11898804 .6610565 .11199951 .6640625 .10998535 .6640625 .10899353 .6640625 .100997928 .6640625 .100997928 .65805056 .100997928 .64201357V.34495545C.100997928 .32695008 .100997928 .32095338 .11299133 .32095338 .117996219 .32095338 .11898804 .32196046 .1289978 .33395387 .15699768 .37493897 .20399475 .39894105 .2539978 .39894105 .30699159 .39894105 .33299256 .34994508 .34098817 .33294679 .35798646 .29396058 .35899354 .2449646 .35899354 .20697022 .35899354 .16897583 .35899354 .11193848 .33099366 .0667572 .30899049 .03060913 .269989 .005508423 .22599793 .005508423 .1599884 .005508423 .09498596 .050689699 .07699585 .12397766 .08198547 .12197876 .08799744 .12097168 .09298706 .12097168 .10998535 .12097168 .13699341 .13098145 .13699341 .16497803 .13699341 .1929779 .117996219 .20898438 .09298706 .20898438 .07499695 .20898438 .04899597 .19998169 .04899597 .16098023 .04899597 .075790408 .116989139-.021484375 .22799683-.021484375 .34098817-.021484375 .43998719 .073791507 .43998719 .20097351 .43998719 .3199463 .3600006 .4189453 .25498963 .4189453 .19799805 .4189453 .1539917 .39393617 .12799073 .36595155V.5727997Z"/>
<path id="font_1_1" d="M.3909912 .37597657C.37199403 .37597657 .36299134 .37597657 .34899903 .3639679 .34298707 .358963 .33198548 .34396363 .33198548 .3279724 .33198548 .30796815 .34700013 .29597474 .3659973 .29597474 .3899994 .29597474 .4169922 .31596376 .4169922 .3559723 .4169922 .40423585 .37098695 .44140626 .3019867 .44140626 .17098999 .44140626 .039993287 .29797364 .039993287 .15609741 .039993287 .06916809 .09399414-.009765625 .19599915-.009765625 .33198548-.009765625 .41799928 .09614563 .41799928 .10913086 .41799928 .11512756 .4119873 .12013245 .4079895 .12013245 .40499879 .12013245 .4039917 .119125369 .394989 .11013794 .33099366 .02520752 .23599243 .010223389 .19799805 .010223389 .1289978 .010223389 .10699463 .07017517 .10699463 .12013245 .10699463 .15509033 .12399292 .25201417 .1599884 .31996156 .18598938 .36697389 .23999024 .42140199 .30299378 .42140199 .31599427 .42140199 .37098695 .41937257 .3909912 .37597657Z"/>
<path id="font_1_3" d="M.20599365 .29335023C.20799256 .29934693 .23298645 .34936524 .269989 .38137818 .29599 .4053955 .32998658 .42140199 .36898805 .42140199 .40899659 .42140199 .4229889 .39138795 .4229889 .35136415 .4229889 .34536744 .4229889 .32536317 .41099549 .27833558L.38598634 .17529297C.37799073 .14527893 .35899354 .071258548 .35699464 .0602417 .35299684 .04524231 .34700013 .019226075 .34700013 .0152282719 .34700013 .0012207031 .35798646-.009765625 .37298585-.009765625 .40299989-.009765625 .4079895 .01322937 .4169922 .049240114L.47698976 .28834535C.47898866 .29634095 .5309906 .42140199 .6409912 .42140199 .68099978 .42140199 .69499209 .39138795 .69499209 .35136415 .69499209 .29534913 .6559906 .18629456 .6339874 .12628174 .625 .102264408 .6199951 .089263919 .6199951 .071258548 .6199951 .026229859 .651001-.009765625 .69898989-.009765625 .7919922-.009765625 .82699587 .13728333 .82699587 .14328003 .82699587 .14828491 .82299807 .15228272 .81700137 .15228272 .80799868 .15228272 .8069916 .14929199 .8019867 .13227844 .7789917 .052246095 .74198916 .010223389 .70199587 .010223389 .69200137 .010223389 .6759949 .011230469 .6759949 .04324341 .6759949 .069244388 .6879883 .101257327 .69200137 .11227417 .70999148 .16029358 .7549896 .27833558 .7549896 .33636476 .7549896 .39639283 .7200012 .44140626 .6439972 .44140626 .57699587 .44140626 .522995 .4033966 .48298646 .34436036 .47999574 .39839173 .44699098 .44140626 .37199403 .44140626 .2829895 .44140626 .23599243 .37838746 .21798706 .35336305 .21499634 .4104004 .17399597 .44140626 .12998963 .44140626 .100997928 .44140626 .07798767 .42739869 .05899048 .38938905 .040985109 .35336305 .026992798 .29234315 .026992798 .28834535 .026992798 .28434754 .0309906 .27934266 .037994386 .27934266 .04598999 .27934266 .04699707 .28033448 .052993776 .30334474 .067993167 .36238099 .08699036 .42140199 .1269989 .42140199 .1499939 .42140199 .1579895 .4053955 .1579895 .37538148 .1579895 .35336305 .147995 .31436158 .14099121 .28334046L.11299133 .17529297C.10899353 .15628052 .09799194 .11126709 .09298706 .09326172 .085998538 .06724548 .07499695 .020233155 .07499695 .0152282719 .07499695 .0012207031 .085998538-.009765625 .100997928-.009765625 .11299133-.009765625 .1269989-.003768921 .1349945 .011230469 .13699341 .016235352 .1459961 .051239015 .15098572 .071258548L.17298889 .1612854 .20599365 .29335023Z"/>
</defs>
<path transform="matrix(1.00003,0,0,-1.00005,57.99022,58.295114)" d="M56.69363 0C56.69363 31.31142 31.31142 56.69363 0 56.69363-31.31142 56.69363-56.69363 31.31142-56.69363 0-56.69363-31.31142-31.31142-56.69363 0-56.69363 31.31142-56.69363 56.69363-31.31142 56.69363 0ZM0 0" fill="#ffbfbf"/>
<path transform="matrix(1.00003,0,0,-1.00005,57.99022,58.295114)" stroke-width=".79701" stroke-linecap="butt" stroke-miterlimit="10" stroke-linejoin="miter" fill="none" stroke="#000000" d="M-55.98625 0H55.98625"/>
<path transform="matrix(-1.00003,-0,0,1.00005,2.002285,58.295114)" stroke-width=".6376" stroke-linecap="round" stroke-linejoin="round" fill="none" stroke="#000000" d="M-1.55415 2.0722C-1.42464 1.29512 0 .1295 .38852 0 0-.1295-1.42464-1.29512-1.55415-2.0722"/>
<path transform="matrix(1.00003,0,0,-1.00005,113.97815,58.295114)" stroke-width=".6376" stroke-linecap="round" stroke-linejoin="round" fill="none" stroke="#000000" d="M-1.55415 2.0722C-1.42464 1.29512 0 .1295 .38852 0 0-.1295-1.42464-1.29512-1.55415-2.0722"/>
<use data-text="d" xlink:href="#font_1_2" transform="matrix(11.95556,0,0,-11.955797,33.58349,70.31671)"/>
<use data-text="=" xlink:href="#font_2_3" transform="matrix(11.95556,0,0,-11.955797,42.98777,70.31671)"/>
<use data-text="3" xlink:href="#font_2_1" transform="matrix(11.95556,0,0,-11.955797,55.39765,70.31671)"/>
<use data-text="5" xlink:href="#font_2_2" transform="matrix(11.95556,0,0,-11.955797,61.24392,70.31671)"/>
<use data-text="c" xlink:href="#font_1_1" transform="matrix(11.95556,0,0,-11.955797,67.1195,70.31671)"/>
<use data-text="m" xlink:href="#font_1_3" transform="matrix(11.95556,0,0,-11.955797,72.152797,70.31671)"/>
<path transform="matrix(1.00003,0,0,-1.00005,57.99022,58.295114)" d="M1.99255 0C1.99255 1.10046 1.10046 1.99255 0 1.99255-1.10046 1.99255-1.99255 1.10046-1.99255 0-1.99255-1.10046-1.10046-1.99255 0-1.99255 1.10046-1.99255 1.99255-1.10046 1.99255 0ZM0 0"/>
</svg>
