<svg xmlns="http://www.w3.org/2000/svg" xmlns:xlink="http://www.w3.org/1999/xlink" xmlns:inkscape="http://www.inkscape.org/namespaces/inkscape" version="1.1" width="287" height="287" viewBox="0 0 287 287">
<path transform="matrix(1.00008,0,0,-1.00006,2.0966492,285.28117)" stroke-width=".3985" stroke-linecap="butt" stroke-miterlimit="10" stroke-linejoin="miter" fill="none" stroke="#000000" d="M0 0H226.77448V226.77448H0Z"/>
<path transform="matrix(1.00008,0,0,-1.00006,2.0966492,285.28117)" stroke-width=".3985" stroke-linecap="butt" stroke-miterlimit="10" stroke-linejoin="miter" fill="none" stroke="#000000" d="M56.69363 56.69363H283.4681V283.4681H56.69363Z"/>
<path transform="matrix(1.00008,0,0,-1.00006,2.0966492,285.28117)" stroke-width=".3985" stroke-linecap="butt" stroke-miterlimit="10" stroke-linejoin="miter" fill="none" stroke="#000000" d="M0 0 56.69362 56.69362"/>
<path transform="matrix(1.00008,0,0,-1.00006,2.0966492,285.28117)" stroke-width=".3985" stroke-linecap="butt" stroke-miterlimit="10" stroke-linejoin="miter" fill="none" stroke="#000000" d="M226.77448 0 283.4681 56.69362"/>
<path transform="matrix(1.00008,0,0,-1.00006,2.0966492,285.28117)" stroke-width=".3985" stroke-linecap="butt" stroke-miterlimit="10" stroke-linejoin="miter" fill="none" stroke="#000000" d="M226.77448 226.77448 283.4681 283.4681"/>
<path transform="matrix(1.00008,0,0,-1.00006,2.0966492,285.28117)" stroke-width=".3985" stroke-linecap="butt" stroke-miterlimit="10" stroke-linejoin="miter" fill="none" stroke="#000000" d="M0 226.77448 56.69362 283.4681"/>
</svg>
