<svg xmlns="http://www.w3.org/2000/svg" xmlns:xlink="http://www.w3.org/1999/xlink" xmlns:inkscape="http://www.inkscape.org/namespaces/inkscape" version="1.1" width="288" height="392" viewBox="0 0 288 392">
<path transform="matrix(1.00006,0,0,-1.00002,144.03549,390.35154)" d="M0 0 141.73404 141.73404C141.73404 220.0126 78.27855 283.4681 0 283.4681-78.27855 283.4681-141.73404 220.0126-141.73404 141.73404Z" fill="#8080ff"/>
<path transform="matrix(1.00006,0,0,-1.00002,144.03549,390.35154)" stroke-width=".79701" stroke-linecap="butt" stroke-miterlimit="10" stroke-linejoin="miter" fill="none" stroke="#000000" d="M0 0 141.73404 141.73404"/>
<path transform="matrix(1.00006,0,0,-1.00002,144.03549,390.35154)" stroke-width=".79701" stroke-linecap="butt" stroke-miterlimit="10" stroke-linejoin="miter" fill="none" stroke="#000000" d="M0 0-141.73404 141.73404"/>
<path transform="matrix(1.00006,0,0,-1.00002,144.03549,390.35154)" stroke-width=".79701" stroke-linecap="butt" stroke-miterlimit="10" stroke-linejoin="miter" fill="none" stroke="#000000" d="M141.73404 141.73404C141.73404 220.0126 78.27855 283.4681 0 283.4681-78.27855 283.4681-141.73404 220.0126-141.73404 141.73404"/>
<path transform="matrix(1.00006,0,0,-1.00002,144.03549,390.35154)" d="M56.69362 331.6576C56.69362 362.969 31.31142 388.3512 0 388.3512-31.31142 388.3512-56.69362 362.969-56.69362 331.6576-56.69362 300.34617-31.31142 274.96397 0 274.96397 31.31142 274.96397 56.69362 300.34617 56.69362 331.6576ZM0 331.6576" fill="#ff8000"/>
<path transform="matrix(1.00006,0,0,-1.00002,144.03549,390.35154)" stroke-width=".79701" stroke-linecap="butt" stroke-miterlimit="10" stroke-linejoin="miter" fill="none" stroke="#000000" d="M56.69362 331.6576C56.69362 362.969 31.31142 388.3512 0 388.3512-31.31142 388.3512-56.69362 362.969-56.69362 331.6576-56.69362 300.34617-31.31142 274.96397 0 274.96397 31.31142 274.96397 56.69362 300.34617 56.69362 331.6576ZM0 331.6576"/>
</svg>
