<svg xmlns="http://www.w3.org/2000/svg" xmlns:xlink="http://www.w3.org/1999/xlink" xmlns:inkscape="http://www.inkscape.org/namespaces/inkscape" version="1.1" width="118" height="150" viewBox="0 0 118 150">
<defs>
<path id="font_1_100" d="M.4850006 .6435547H.24198914C.11999512 .6435547 .117996219 .6566467 .11399841 .67578127H.08898926L.055999757 .46954347H.08099365C.083999637 .48554994 .09298706 .54855349 .10598755 .5605469 .11299133 .5665436 .19099427 .5665436 .20399475 .5665436H.41099549L.29899598 .40853883C.20899964 .2735443 .17599488 .13453675 .17599488 .03253174 .17599488 .022537232 .17599488-.022460938 .22200012-.022460938 .2679901-.022460938 .2679901 .022537232 .2679901 .03253174V.08354187C.2679901 .13853455 .2709961 .19354248 .2789917 .24754334 .2829895 .27053834 .29699708 .35653688 .34098817 .41854859L.47599793 .608551C.4850006 .62054446 .4850006 .62254336 .4850006 .6435547Z"/>
<path id="font_1_43" d="M.4149933 .119140628C.4149933 .12911988 .40499879 .12911988 .4019928 .12911988 .3929901 .12911988 .3909912 .12512207 .3889923 .119140628 .3600006 .026229859 .29499818 .014251709 .2579956 .014251709 .20498657 .014251709 .116989139 .0572052 .116989139 .21801758 .116989139 .38093568 .19898987 .42323304 .2519989 .42323304 .26098634 .42323304 .32398988 .42222596 .35899354 .38594056 .31799317 .38293458 .31199647 .3529358 .31199647 .3399353 .31199647 .31393434 .32998658 .2939453 .35798646 .2939453 .38398744 .2939453 .4039917 .3109436 .4039917 .34094239 .4039917 .40911866 .32798768 .4482422 .25099183 .4482422 .12599182 .4482422 .033996583 .3399353 .033996583 .21601868 .033996583 .08816528 .1329956-.0107421879 .24899292-.0107421879 .3829956-.0107421879 .4149933 .10914612 .4149933 .119140628Z"/>
<path id="font_1_75" d="M.8129883 0V.0309906C.7609863 .0309906 .73599246 .0309906 .7350006 .061019899V.25221253C.7350006 .3383026 .7350006 .36932374 .70399478 .405365 .6899872 .42237855 .6569977 .4423828 .598999 .4423828 .5149994 .4423828 .47099305 .38233949 .45399476 .34429933 .43998719 .43138124 .3659973 .4423828 .32099916 .4423828 .24798584 .4423828 .20098877 .39935304 .17298889 .33729554V.4423828L.03199768 .43066407V.3996582C.101989749 .3996582 .10998535 .39266969 .10998535 .34370423V.07595825C.10998535 .0309906 .09899902 .0309906 .03199768 .0309906V0L.14498902 .0029907227 .25698854 0V.0309906C.18998719 .0309906 .1789856 .0309906 .1789856 .07595825V.25978089C.1789856 .36431886 .25 .42037965 .31399537 .42037965 .3769989 .42037965 .3880005 .36631776 .3880005 .30926515V.076034549C.3880005 .0309906 .3769989 .0309906 .30999757 .0309906V0L.4229889 .0029907227 .5349884 0V.0309906C.46798707 .0309906 .45700074 .0309906 .45700074 .076034549V.2602234C.45700074 .36431886 .5279999 .42037965 .59199526 .42037965 .6549988 .42037965 .66600039 .36631776 .66600039 .30926515V.076034549C.66600039 .0309906 .6549988 .0309906 .58799746 .0309906V0L.70098879 .0029907227 .8129883 0Z"/>
<path id="font_1_106" d="M.45700074 .17037964C.45700074 .252594 .3939972 .33088685 .2899933 .35191346 .37199403 .37893678 .42999269 .4490509 .42999269 .52809146 .42999269 .6100464 .34199525 .6660156 .24598694 .6660156 .14498902 .6660156 .068984989 .60606387 .068984989 .53009036 .068984989 .49710084 .09098816 .47808839 .11999512 .47808839 .15098572 .47808839 .17098999 .50009158 .17098999 .5290985 .17098999 .57910159 .12399292 .57910159 .10899353 .57910159 .13999939 .62802127 .20599365 .64100649 .24198914 .64100649 .2829895 .64100649 .33799745 .6190338 .33799745 .5290985 .33799745 .51708987 .33599855 .45906068 .30999757 .4149933 .27999879 .36691285 .24598694 .36390687 .22099304 .36291505 .21299744 .36190797 .18899536 .35990907 .18199158 .35990907 .17399597 .35890199 .16699219 .35791017 .16699219 .3479004 .16699219 .33691407 .17399597 .33691407 .19099427 .33691407H.23498535C.31698609 .33691407 .35398866 .2686615 .35398866 .17037964 .35398866 .034469606 .2849884 .0055389406 .24099732 .0055389406 .19799805 .0055389406 .12298584 .022491456 .08799744 .08137512 .12298584 .07637024 .1539917 .09837341 .1539917 .1363678 .1539917 .17237854 .1269989 .19238281 .09799194 .19238281 .07398987 .19238281 .041992189 .17837525 .041992189 .1343689 .041992189 .043441774 .1349945-.022460938 .24398804-.022460938 .3659973-.022460938 .45700074 .06838989 .45700074 .17037964Z"/>
<path id="font_1_107" d="M.44898988 .17396546H.42399598C.4189911 .14398194 .4119873 .099990848 .4019928 .084991458 .394989 .07699585 .32899476 .07699585 .30699159 .07699585H.1269989L.23298645 .17996216C.3889923 .31803895 .44898988 .37210084 .44898988 .47216798 .44898988 .5860901 .35899354 .6660156 .23699951 .6660156 .12399292 .6660156 .049987794 .57411196 .049987794 .48516847 .049987794 .4291687 .099990848 .4291687 .102996829 .4291687 .11999512 .4291687 .15499878 .44117738 .15499878 .48217774 .15499878 .5081787 .13699341 .5341797 .101989749 .5341797 .09399414 .5341797 .09199524 .5341797 .08898926 .5331726 .11199951 .59806826 .1659851 .63500979 .22399903 .63500979 .31498719 .63500979 .35798646 .5541382 .35798646 .47216798 .35798646 .39196778 .30799867 .31297303 .25299073 .25097657L.06098938 .036987306C.049987794 .025985718 .049987794 .023986817 .049987794 0H.42099L.44898988 .17396546Z"/>
<path id="font_1_121" d="M.45999146 .31976319C.45999146 .39982606 .45498658 .47988893 .41999818 .5539398 .37399293 .65000918 .2919922 .6660156 .25 .6660156 .18998719 .6660156 .116989139 .64001467 .07598877 .54693606 .04399109 .47789 .038986207 .39982606 .038986207 .31976319 .038986207 .24472046 .042999269 .15464783 .083999637 .07859802 .1269989-.0024719239 .19999695-.022460938 .24899292-.022460938 .30299378-.022460938 .3789978-.0014648438 .4229889 .09359741 .45498658 .16265869 .45999146 .2407074 .45999146 .31976319M.3769989 .3317871C.3769989 .25672914 .3769989 .18867493 .3659973 .12461853 .35099793 .029556275 .2939911-.00047302247 .24899292-.00047302247 .20999146-.00047302247 .15098572 .024551392 .1329956 .12062073 .12199402 .18066406 .12199402 .2727356 .12199402 .3317871 .12199402 .39582826 .12199402 .46188355 .12998963 .5159149 .14898682 .63500979 .22399903 .64401248 .24899292 .64401248 .28199769 .64401248 .34799195 .6259918 .36698915 .52693179 .3769989 .47088624 .3769989 .39482118 .3769989 .3317871Z"/>
<path id="font_2_1" d="M.5069885 .24998474C.5069885 .3710022 .4099884 .4650116 .2919922 .4650116 .17199707 .4650116 .07699585 .36799623 .07699585 .25097657 .07699585 .1299591 .17399597 .035949708 .2919922 .035949708 .4119873 .035949708 .5069885 .13296509 .5069885 .24998474M.2919922 .08496094C.19799805 .08496094 .12599182 .16096497 .12599182 .24998474 .12599182 .34300233 .19999695 .41601563 .2919922 .41601563 .38598634 .41601563 .45799256 .33999635 .45799256 .25097657 .45799256 .15795899 .38398744 .08496094 .2919922 .08496094Z"/>
<path id="font_3_85" d="M.38198854-.23503113C.38198854-.23002625 .3789978-.22503662 .3789978-.22503662 .34999085-.19802857 .2849884-.13702393 .24299622-.009033203 .21699524 .06997681 .20498657 .16197205 .20498657 .24998474 .20498657 .4469757 .2559967 .60398867 .3659973 .7149811 .3809967 .72998049 .38198854 .73098757 .38198854 .73599246 .38198854 .74697878 .37199403 .75 .3639984 .75 .34700013 .75 .30499269 .7129822 .2869873 .6959839 .1309967 .5409851 .10798645 .35697938 .10798645 .25097657 .10798645 .12597656 .14099121 .015975953 .18798828-.06703186 .2539978-.18203736 .34498597-.24902344 .3639984-.24902344 .37199403-.24902344 .38198854-.24603272 .38198854-.23503113Z"/>
<path id="font_3_35" d="M.59999087 .22319031C.59999087 .3561859 .5059967 .4501953 .36099244 .4501953 .28799439 .4501953 .23799134 .42118836 .21398926 .40118409V.69433596L.036987306 .6863251V.639328C.09899902 .639328 .10598755 .639328 .10598755 .600296V.00018310547H.15299988C.16899109 .019180298 .18598938 .03718567 .20199585 .05618286 .20999146 .04814148 .25898744-.005859375 .34799195-.005859375 .49699403-.005859375 .59999087 .08413696 .59999087 .22315979V.22319031M.47200013 .22315979C.47200013 .17614746 .47200013 .12113953 .44599916 .08213806 .4169922 .041137697 .37098695 .030136109 .33898927 .030136109 .2689972 .030136109 .22999573 .08413696 .21998596 .09913635V.35017396C.24699402 .3851776 .29499818 .41418458 .34999085 .41418458 .47200013 .41418458 .47200013 .2931671 .47200013 .22315979Z"/>
<path id="font_3_86" d="M.33799745 .24998474C.33799745 .37498475 .30499269 .48498536 .2579956 .5679779 .19198609 .6829834 .100997928 .75 .08198547 .75 .07398987 .75 .06399536 .74697878 .06399536 .73599246 .06399536 .73098757 .06399536 .72898867 .08099365 .7129822 .20698548 .5849762 .24099732 .40797425 .24099732 .25097657 .24099732 .053970338 .18998719-.103027347 .07998657-.21403504 .06498718-.22903443 .06399536-.23002625 .06399536-.23503113 .06399536-.24603272 .07398987-.24902344 .08198547-.24902344 .09899902-.24902344 .14099121-.21203614 .15899658-.19502259 .31498719-.040023805 .33799745 .14398194 .33799745 .24998474Z"/>
</defs>
<path transform="matrix(1.00002,0,0,-1.00005,58.988817,91.93994)" stroke-width=".79701" stroke-linecap="butt" stroke-miterlimit="10" stroke-linejoin="miter" fill="none" stroke="#000000" d="M56.69362 0C56.69362 31.31142 31.31142 56.69362 0 56.69362-31.31142 56.69362-56.69362 31.31142-56.69362 0-56.69362-31.31142-31.31142-56.69362 0-56.69362 31.31142-56.69362 56.69362-31.31142 56.69362 0ZM0 0"/>
<path transform="matrix(1.00002,0,0,-1.00005,58.988817,91.93994)" d="M0 0H56.69362C56.69362 31.31142 31.31142 56.69362 0 56.69362-31.31142 56.69362-56.69362 31.31142-56.69362 0-56.69362-31.31142-31.31142-56.69362 0-56.69362 16.75652-56.69362 32.65921-49.27817 43.4294-36.44217Z" fill="#8080ff"/>
<path transform="matrix(1.00002,0,0,-1.00005,58.988817,91.93994)" stroke-width=".79701" stroke-linecap="butt" stroke-miterlimit="10" stroke-linejoin="miter" fill="none" stroke="#000000" d="M0 0H56.69362"/>
<path transform="matrix(1.00002,0,0,-1.00005,58.988817,91.93994)" stroke-width=".79701" stroke-linecap="butt" stroke-miterlimit="10" stroke-linejoin="miter" fill="none" stroke="#000000" d="M0 0 43.4294-36.44217"/>
<use data-text="7" xlink:href="#font_1_100" transform="matrix(9.962799,0,0,-9.963098,82.494289,86.69368)"/>
<use data-text="c" xlink:href="#font_1_43" transform="matrix(9.962799,0,0,-9.963098,90.7933,86.69368)"/>
<use data-text="m" xlink:href="#font_1_75" transform="matrix(9.962799,0,0,-9.963098,95.216777,86.69368)"/>
<use data-text="3" xlink:href="#font_1_106" transform="matrix(9.962799,0,0,-9.963098,20.879052,95.26111)"/>
<use data-text="2" xlink:href="#font_1_107" transform="matrix(9.962799,0,0,-9.963098,25.860436,95.26111)"/>
<use data-text="0" xlink:href="#font_1_121" transform="matrix(9.962799,0,0,-9.963098,30.841835,95.26111)"/>
<use data-text="&#x25e6;" xlink:href="#font_2_1" transform="matrix(6.97394,0,0,-6.9741489,35.82334,91.64593)"/>
<path transform="matrix(1.00002,0,0,-1.00005,58.988817,91.93994)" stroke-width=".79701" stroke-linecap="butt" stroke-miterlimit="10" stroke-linejoin="miter" fill="none" stroke="#000000" d="M14.17339 0C14.17339 7.82784 7.82784 14.17339 0 14.17339-7.82784 14.17339-14.17339 7.82784-14.17339 0-14.17339-7.82784-7.82784-14.17339 0-14.17339 4.18912-14.17339 8.16461-12.31953 10.85733-9.11052"/>
<use data-text="(" xlink:href="#font_3_85" transform="matrix(9.962799,0,0,-9.963098,51.35266,9.390823)"/>
<use data-text="b" xlink:href="#font_3_35" transform="matrix(9.962799,0,0,-9.963098,55.80603,9.390823)"/>
<use data-text=")" xlink:href="#font_3_86" transform="matrix(9.962799,0,0,-9.963098,62.172258,9.390823)"/>
</svg>
