<svg xmlns="http://www.w3.org/2000/svg" xmlns:xlink="http://www.w3.org/1999/xlink" xmlns:inkscape="http://www.inkscape.org/namespaces/inkscape" version="1.1" width="119" height="117" viewBox="0 0 119 117">
<defs>
<path id="font_1_1" d="M.36799623 .61460879C.3769989 .6516113 .3809967 .6536102 .41999818 .6536102H.49198915C.5779877 .6536102 .6419983 .62760928 .6419983 .54959109 .6419983 .49858094 .6159973 .3515625 .4149933 .3515625H.3019867L.36799623 .61460879M.5069885 .33955384C.6309967 .3665619 .7279968 .44657899 .7279968 .5325928 .7279968 .6105957 .6489868 .6826172 .5099945 .6826172H.23899842C.21899414 .6826172 .20999146 .6826172 .20999146 .66360476 .20999146 .6536102 .21699524 .6536102 .23599243 .6536102 .29599 .6536102 .29599 .6456146 .29599 .63461306 .29599 .6325989 .29599 .6266022 .2919922 .6116028L.15699768 .073516849C.147995 .038513185 .1459961 .028518677 .07699585 .028518677 .053985597 .028518677 .04699707 .028518677 .04699707 .009506226 .04699707-.00048828127 .057998659-.00048828127 .06098938-.00048828127 .07899475-.00048828127 .099990848 .0015106201 .11898804 .0015106201H.23699951C.25498963 .0015106201 .27598573-.00048828127 .2939911-.00048828127 .3019867-.00048828127 .31298829-.00048828127 .31298829 .018508912 .31298829 .028518677 .3039856 .028518677 .2889862 .028518677 .22799683 .028518677 .22799683 .036514284 .22799683 .04650879 .22799683 .04751587 .22799683 .054519655 .22999573 .06251526L.29699708 .33155824H.4169922C.5119934 .33155824 .5299988 .2715454 .5299988 .23854065 .5299988 .22354126 .519989 .1845398 .5130005 .15852356 .5019989 .11251831 .49899293 .10151672 .49899293 .08251953 .49899293 .011505127 .5569916-.021484375 .6239929-.021484375 .7049866-.021484375 .73999026 .07751465 .73999026 .09152222 .73999026 .098526 .7350006 .10151672 .72898867 .10151672 .72099307 .10151672 .71899417 .09552002 .71699526 .087524417 .69299319 .01651001 .6519928-.0014953613 .6269989-.0014953613 .60198977-.0014953613 .58599856 .009506226 .58599856 .054519655 .58599856 .07852173 .59799197 .16952515 .598999 .17453003 .60398867 .2115326 .60398867 .2155304 .60398867 .22354126 .60398867 .29655458 .54499819 .32754518 .5069885 .33955384Z"/>
<path id="font_1_2" d="M.30099488 .119277957C.29599 .102264408 .29599 .1002655 .28199769 .08125305 .2599945 .053237916 .21598816 .010223389 .16899109 .010223389 .12799073 .010223389 .10499573 .04724121 .10499573 .10626221 .10499573 .1612854 .13598633 .2733307 .15499878 .3153534 .18899536 .38539125 .23599243 .42140199 .2749939 .42140199 .34098817 .42140199 .35398866 .33937074 .35398866 .33135987 .35398866 .33036805 .35099793 .3173523 .34999085 .3153534L.30099488 .119277957M.36499024 .37538148C.35398866 .4013977 .32699586 .44140626 .2749939 .44140626 .1619873 .44140626 .039993287 .29534913 .039993287 .14727783 .039993287 .04824829 .09799194-.009765625 .1659851-.009765625 .22099304-.009765625 .2679901 .033233644 .29599 .06625366 .30599977 .007232666 .35299684-.009765625 .3829956-.009765625 .41299439-.009765625 .43699647 .008224487 .45498658 .04423523 .47099305 .07824707 .4850006 .13926697 .4850006 .14326477 .4850006 .14826966 .48098756 .15226746 .47499085 .15226746 .46598817 .15226746 .46499635 .14726258 .46099855 .13226319 .44599916 .07324219 .4269867 .010223389 .38598634 .010223389 .35699464 .010223389 .35499574 .036239625 .35499574 .056243898 .35499574 .07923889 .35798646 .09025574 .36698915 .1292572 .37399293 .15426636 .3789978 .17626953 .3869934 .20527649 .42399598 .35533143 .43299867 .39134217 .43299867 .39733888 .43299867 .41133119 .42199708 .42233277 .40699769 .42233277 .375 .42233277 .36698915 .3873291 .36499024 .3753357V.37538148Z"/>
<path id="font_1_3" d="M.5029907 .6693268C.5039978 .6733246 .5059967 .6793213 .5059967 .6843262 .5059967 .69433596 .49598695 .69433596 .49398805 .69433596 .49299623 .69433596 .44400025 .6903229 .43899537 .68933108 .42199708 .688324 .40699769 .6863251 .3889923 .68533328 .3639984 .68333438 .35699464 .6823273 .35699464 .6643219 .35699464 .6543274 .36499024 .6543274 .3789978 .6543274 .42799378 .6543274 .42900086 .6453247 .42900086 .6353302 .42900086 .6293335 .4269867 .6213379 .42599488 .61834719L.36499024 .37538148C.35398866 .4013977 .32699586 .44140626 .2749939 .44140626 .1619873 .44140626 .039993287 .29534913 .039993287 .14727783 .039993287 .04824829 .09799194-.009765625 .1659851-.009765625 .22099304-.009765625 .2679901 .033233644 .29599 .06625366 .30599977 .007232666 .35299684-.009765625 .3829956-.009765625 .41299439-.009765625 .43699647 .008224487 .45498658 .04423523 .47099305 .07826233 .4850006 .13928223 .4850006 .14328003 .4850006 .14828491 .48098756 .15228272 .47499085 .15228272 .46598817 .15228272 .46499635 .14727783 .46099855 .13227844 .44599916 .07325745 .4269867 .010223389 .38598634 .010223389 .35699464 .010223389 .35499574 .036239625 .35499574 .056243898 .35499574 .0602417 .35499574 .08125305 .3619995 .10926819L.5029907 .6693268M.30099488 .119277957C.29599 .102264408 .29599 .1002655 .28199769 .08125305 .2599945 .053237916 .21598816 .010223389 .16899109 .010223389 .12799073 .010223389 .10499573 .04724121 .10499573 .10626221 .10499573 .1612854 .13598633 .2733307 .15499878 .3153534 .18899536 .38539125 .23599243 .42140199 .2749939 .42140199 .34098817 .42140199 .35398866 .33937074 .35398866 .33135987 .35398866 .33036805 .35099793 .3173523 .34999085 .3153534L.30099488 .119277957Z"/>
<path id="font_1_4" d="M.2829895 .14328003C.2829895 .14828491 .2789917 .15228272 .272995 .15228272 .2639923 .15228272 .2630005 .14929199 .2579956 .13227844 .23199463 .041244508 .19099427 .010223389 .1579895 .010223389 .1459961 .010223389 .13198853 .01322937 .13198853 .04324341 .13198853 .070251468 .14399719 .1002655 .15499878 .13027954L.22499085 .31636048C.22799683 .32435609 .23498535 .34236146 .23498535 .3613739 .23498535 .4033966 .20498657 .44140626 .1559906 .44140626 .06399536 .44140626 .026992798 .29634095 .026992798 .28834535 .026992798 .28434754 .0309906 .27934266 .037994386 .27934266 .04699707 .27934266 .04798889 .28334046 .051986696 .29734803 .07598877 .38137818 .11399841 .42140199 .15299988 .42140199 .1619873 .42140199 .1789856 .4203949 .1789856 .38838197 .1789856 .36238099 .1659851 .32936097 .1579895 .3073578L.08799744 .121276859C.08198547 .105270389 .07598877 .089263919 .07598877 .071258548 .07598877 .026229859 .10699463-.009765625 .15499878-.009765625 .24699402-.009765625 .2829895 .13627625 .2829895 .14328003M.2749939 .6242218C.2749939 .6392212 .2630005 .65722659 .24099732 .65722659 .21798706 .65722659 .19198609 .6352234 .19198609 .6092224 .19198609 .58421328 .21299744 .57621768 .22499085 .57621768 .2519989 .57621768 .2749939 .6022186 .2749939 .6242218Z"/>
<path id="font_1_6" d="M.34098817 .058151246C.35398866 .0022277833 .4019928-.009765625 .42599488-.009765625 .45799256-.009765625 .48199464 .011230469 .49798585 .045181276 .5149994 .08113098 .5279999 .14004517 .5279999 .14303589 .5279999 .14802552 .5239868 .15202332 .5179901 .15202332 .5089874 .15202332 .5079956 .14703369 .5039978 .13204956 .48599244 .06315613 .46798707 .010223389 .42799378 .010223389 .397995 .010223389 .397995 .043182374 .397995 .056167604 .397995 .07913208 .40098573 .08911133 .41099549 .13105774 .41799928 .15802002 .4249878 .1849823 .43099977 .2129364L.47200013 .3757019C.47898866 .40066529 .47898866 .40266419 .47898866 .4056549 .47898866 .4206543 .46699525 .43066407 .45199586 .43066407 .4229889 .43066407 .41600038 .4056549 .4099884 .38069154 .3999939 .3417511 .34599305 .12705994 .33898927 .09210205 .33799745 .09225464 .29899598 .010223389 .22599793 .010223389 .17399597 .010223389 .1639862 .055252077 .1639862 .09225464 .1639862 .14929199 .19198609 .22932434 .21798706 .29634095 .22999573 .32835389 .23498535 .34136964 .23498535 .3613739 .23498535 .40438844 .20399475 .44140626 .1559906 .44140626 .06399536 .44140626 .026992798 .29634095 .026992798 .28834535 .026992798 .28434754 .0309906 .27934266 .037994386 .27934266 .04699707 .27934266 .04798889 .28334046 .051986696 .29734803 .07598877 .38337709 .114990238 .42140199 .15299988 .42140199 .16299439 .42140199 .1789856 .4203949 .1789856 .38838197 .1789856 .36238099 .16799927 .33335877 .15299988 .29534913 .10899353 .17630005 .10398865 .13827515 .10398865 .10826111 .10398865 .006225586 .18099976-.009765625 .22200012-.009765625 .28599549-.009765625 .32099916 .034194948 .34098817 .058151246Z"/>
<path id="font_1_5" d="M.22799683 .2002716C.24499512 .19728089 .27198792 .19128418 .27799989 .19029236 .29100038 .18629456 .33599855 .1703186 .33599855 .12234497 .33599855 .09135437 .30799867 .010223389 .19198609 .010223389 .17098999 .010223389 .09599304 .01322937 .07598877 .068359378 .115997318 .06333923 .13598633 .09434509 .13598633 .11634827 .13598633 .13734436 .12199402 .14834595 .101989749 .14834595 .07998657 .14834595 .050994874 .13134766 .050994874 .08634949 .050994874 .027267456 .11099243-.009765625 .19099427-.009765625 .34298707-.009765625 .3880005 .10235596 .3880005 .15434265 .3880005 .16932678 .3880005 .19728089 .35598756 .22923279 .33099366 .25320436 .30699159 .25819398 .25299073 .2691803 .22599793 .275177 .18299866 .28416444 .18299866 .32913209 .18299866 .34913636 .20098877 .42140199 .29599 .42140199 .33799745 .42140199 .3789978 .4053192 .3889923 .36914063 .34498597 .36914063 .34298707 .33113099 .34298707 .33013917 .34298707 .3091278 .3619995 .3031311 .37098695 .3031311 .3849945 .3031311 .41299439 .3141327 .41299439 .35614015 .41299439 .3982849 .375 .44140626 .29699708 .44140626 .1659851 .44140626 .1309967 .33813478 .1309967 .2971344 .1309967 .22125244 .20498657 .20527649 .22799683 .2002716Z"/>
<path id="font_2_104" d="M.68499758 .45214845 .66600039 .6767578H.054992677L.035995485 .45214845H.06098938C.07499695 .6128235 .08999634 .64575198 .24099732 .64575198 .25898744 .64575198 .2849884 .64575198 .29499818 .64375308 .31599427 .6397705 .31599427 .6287842 .31599427 .60583499V.07901001C.31599427 .04499817 .31599427 .0309906 .21099854 .0309906H.17098999V0C.21199036 .0029907227 .31399537 .0029907227 .3600006 .0029907227 .4059906 .0029907227 .5089874 .0029907227 .5499878 0V.0309906H.5099945C.40499879 .0309906 .40499879 .04499817 .40499879 .07901001V.60583499C.40499879 .62579348 .40499879 .6397705 .4229889 .64375308 .43399049 .64575198 .46099855 .64575198 .47999574 .64575198 .6309967 .64575198 .6459961 .6128235 .6599884 .45214845H.68499758Z"/>
<path id="font_2_63" d="M.5349884 0V.0309906C.48298646 .0309906 .45799256 .0309906 .45700074 .061019899V.25221253C.45700074 .3383026 .45700074 .36932374 .42599488 .405365 .4119873 .42237855 .3789978 .4423828 .32099916 .4423828 .23699951 .4423828 .19299317 .38233949 .1769867 .34629823H.17599488V.69433596L.03199768 .6826172V.6516113C.101989749 .6516113 .10998535 .64463809 .10998535 .59580996V.076034549C.10998535 .0309906 .09899902 .0309906 .03199768 .0309906V0L.14498902 .0029907227 .25698854 0V.0309906C.18998719 .0309906 .1789856 .0309906 .1789856 .076034549V.2602234C.1789856 .36431886 .25 .42037965 .31399537 .42037965 .3769989 .42037965 .3880005 .36631776 .3880005 .30926515V.076034549C.3880005 .0309906 .3769989 .0309906 .30999757 .0309906V0L.4229889 .0029907227 .5349884 0Z"/>
<path id="font_2_96" d="M.3639984 .38137818C.3639984 .41337586 .33299256 .4423828 .2899933 .4423828 .21699524 .4423828 .18099976 .37538148 .16699219 .3323822V.4423828L.027999878 .43066407V.3996582C.09799194 .3996582 .10598755 .39266969 .10598755 .34370423V.07595825C.10598755 .0309906 .09498596 .0309906 .027999878 .0309906V0L.14199829 .0029907227C.18199158 .0029907227 .22898865 .0029907227 .2689972 0V.0309906H.24798584C.17399597 .0309906 .17199707 .04197693 .17199707 .07795715V.23181153C.17199707 .33137513 .21398926 .42037965 .2899933 .42037965 .29699708 .42037965 .29899598 .42037965 .30099488 .41937257 .2979889 .41838075 .27799989 .40637208 .27799989 .3803711 .27799989 .35237123 .29899598 .33737184 .32099916 .33737184 .33898927 .33737184 .3639984 .3493805 .3639984 .38137818Z"/>
<path id="font_2_50" d="M.4149933 .11933899C.4149933 .12934876 .40699769 .13134766 .4019928 .13134766 .3929901 .13134766 .3909912 .12535095 .3889923 .11734009 .35398866 .014251709 .2639923 .014251709 .2539978 .014251709 .20399475 .014251709 .1639862 .044281007 .14099121 .08131409 .11099243 .12934876 .11099243 .19540406 .11099243 .23144531H.3899994C.4119873 .23144531 .4149933 .23144531 .4149933 .2524414 .4149933 .35131837 .36099244 .4482422 .23599243 .4482422 .11999512 .4482422 .027999878 .34532167 .027999878 .22042847 .027999878 .08631897 .1329956-.0107421879 .24798584-.0107421879 .36999513-.0107421879 .4149933 .10032654 .4149933 .11933899M.34899903 .2524414H.11199951C.117996219 .40126039 .20199585 .426239 .23599243 .426239 .33898927 .426239 .34899903 .2913971 .34899903 .2524414Z"/>
<path id="font_2_64" d="M.27598573 .18710327V.24511719H.010986328V.18710327H.27598573Z"/>
<path id="font_2_90" d="M.72698977-.010345459C.72698977-.00033569337 .72698977 .010650635 .71598818 .010650635 .70700076 .010650635 .70599368 .0026550294 .7049866-.0073394777 .69898989-.061340333 .6569977-.09133911 .6139984-.09133911 .5669861-.09133911 .5419922-.05734253 .5179901 .006652832 .6359863 .059570314 .72099307 .1876831 .72099307 .3387909 .72099307 .5429535 .56999209 .7050781 .3880005 .7050781 .20899964 .7050781 .055999757 .54496768 .055999757 .3387909 .055999757 .13664246 .20698548-.022460938 .3889923-.022460938 .41999818-.022460938 .45498658-.016464234 .48399354-.007461548 .49899293-.1023407 .5130005-.19433594 .60598757-.19433594 .70799258-.1945343 .72698977-.061538698 .72698977-.010528564V-.010345459M.62098696 .33866883C.62098696 .2605896 .60899356 .11946106 .5029907 .04147339 .48098756 .097457889 .44898988 .14746094 .3899994 .14746094 .33898927 .14746094 .30799867 .10446167 .30799867 .06347656 .30799867 .036468507 .32099916 .017471314 .32199098 .015472412 .2679901 .035461427 .1559906 .10845947 .1559906 .33866883 .1559906 .59898379 .29599 .68006899 .3880005 .68006899 .4850006 .6794586 .62098696 .5934601 .62098696 .3384552V.33866883M.47698976 .025497437C.44299317 .0065307619 .41099549 .002532959 .3889923 .002532959 .33799745 .002532959 .32998658 .048461915 .32998658 .06347656 .32998658 .09246826 .35099793 .12545777 .3899994 .12545777 .44400025 .12545777 .46598817 .083465579 .47698976 .025497437Z"/>
<path id="font_2_109" d="M.5349884 0V.0309906C.46499635 .0309906 .45700074 .037994386 .45700074 .08705139V.4423828L.30999757 .43066407V.3996582C.37998963 .3996582 .3880005 .39266969 .3880005 .34373475V.16601563C.3880005 .07910156 .33999635 .011245728 .2669983 .011245728 .18299866 .011245728 .1789856 .058135988 .1789856 .11009216V.4423828L.03199768 .43066407V.3996582C.10998535 .3996582 .10998535 .39666749 .10998535 .3078003V.15802002C.10998535 .080093387 .10998535-.0107421879 .2619934-.0107421879 .31799317-.0107421879 .3619995 .017242432 .3909912 .07910156V-.0107421879L.5349884 0Z"/>
<path id="font_2_28" d="M.48298646 .08912659V.14511109H.45799256V.08912659C.45799256 .03112793 .43299867 .025131226 .42199708 .025131226 .3889923 .025131226 .3849945 .070129398 .3849945 .07511902V.27508546C.3849945 .31707765 .3849945 .3560791 .34899903 .39312745 .30999757 .43223573 .2599945 .4482422 .21199036 .4482422 .12998963 .4482422 .06098938 .40115357 .06098938 .335083 .06098938 .30508424 .08099365 .28808595 .10699463 .28808595 .1349945 .28808595 .15299988 .30807496 .15299988 .33407594 .15299988 .3460846 .147995 .37908937 .101989749 .38008119 .1289978 .41519166 .17799378 .426239 .20999146 .426239 .25898744 .426239 .31599427 .38710023 .31599427 .29808045V.26107789C.2649994 .25808717 .19499207 .25508119 .13198853 .22509766 .056991579 .19110108 .03199768 .13911438 .03199768 .09512329 .03199768 .014251709 .1289978-.0107421879 .19198609-.0107421879 .2579956-.0107421879 .3039856 .029251099 .32299806 .07624817 .32699586 .036132814 .35398866-.005859375 .40098573-.005859375 .42199708-.005859375 .48298646 .008132935 .48298646 .08912659M.31599427 .14013672C.31599427 .04525757 .24398804 .011245728 .19898987 .011245728 .1499939 .011245728 .10899353 .04624939 .10899353 .09625244 .10899353 .15124512 .15098572 .23425293 .31599427 .24024964V.14013672Z"/>
<path id="font_2_105" d="M.33198548 .12385559V.18066406H.30699159V.12585449C.30699159 .052108766 .2769928 .014251709 .23999024 .014251709 .17298889 .014251709 .17298889 .10491943 .17298889 .12187195V.3996582H.31599427V.43066407H.17298889V.6142578H.147995C.14698792 .5324249 .116989139 .42565919 .018997193 .42166139V.3996582H.10398865V.12408447C.10398865 .0012512207 .19699097-.0107421879 .23298645-.0107421879 .3039856-.0107421879 .33198548 .060180665 .33198548 .12408447V.12385559Z"/>
<path id="font_2_43" d="M.4149933 .119140628C.4149933 .12911988 .40499879 .12911988 .4019928 .12911988 .3929901 .12911988 .3909912 .12512207 .3889923 .119140628 .3600006 .026229859 .29499818 .014251709 .2579956 .014251709 .20498657 .014251709 .116989139 .0572052 .116989139 .21801758 .116989139 .38093568 .19898987 .42323304 .2519989 .42323304 .26098634 .42323304 .32398988 .42222596 .35899354 .38594056 .31799317 .38293458 .31199647 .3529358 .31199647 .3399353 .31199647 .31393434 .32998658 .2939453 .35798646 .2939453 .38398744 .2939453 .4039917 .3109436 .4039917 .34094239 .4039917 .40911866 .32798768 .4482422 .25099183 .4482422 .12599182 .4482422 .033996583 .3399353 .033996583 .21601868 .033996583 .08816528 .1329956-.0107421879 .24899292-.0107421879 .3829956-.0107421879 .4149933 .10914612 .4149933 .119140628Z"/>
<path id="font_2_66" d="M.24699402 0V.0309906C.18099976 .0309906 .1769867 .035995485 .1769867 .075042728V.4423828L.036987306 .43066407V.3996582C.101989749 .3996582 .11099243 .3936615 .11099243 .3447113V.07595825C.11099243 .0309906 .099990848 .0309906 .032989503 .0309906V0L.14299011 .0029907227C.17799378 .0029907227 .21299744 .0009918213 .24699402 0M.19198609 .603775C.19198609 .6307678 .16899109 .6567688 .13899231 .6567688 .10499573 .6567688 .084991458 .6287689 .084991458 .603775 .084991458 .57676699 .10798645 .55078127 .13798523 .55078127 .17199707 .55078127 .19198609 .5787811 .19198609 .603775Z"/>
<path id="font_2_72" d="M.25498963 0V.0309906C.18798828 .0309906 .1769867 .0309906 .1769867 .07601929V.69433596L.032989503 .6826172V.6516113C.102996829 .6516113 .11099243 .64460757 .11099243 .5956421V.07595825C.11099243 .0309906 .099990848 .0309906 .032989503 .0309906V0L.14399719 .0029907227 .25498963 0Z"/>
</defs>
<path transform="matrix(1.00002,0,0,-1,58.988817,58.691)" d="M0 0H56.69362C56.69362 31.31142 31.3114 56.69363 0 56.69363-31.31143 56.69363-56.69365 31.31142-56.69365 0-56.69365-31.31142-31.31143-56.69363 0-56.69363Z" fill="#00ff00"/>
<path transform="matrix(1.00002,0,0,-1,58.988817,58.691)" stroke-width=".79701" stroke-linecap="butt" stroke-miterlimit="10" stroke-linejoin="miter" fill="none" stroke="#000000" d="M56.69362 0C56.69362 31.31142 31.3114 56.69363 0 56.69363-31.31143 56.69363-56.69365 31.31142-56.69365 0-56.69365-31.31142-31.31143-56.69363 0-56.69363V0Z"/>
<path transform="matrix(1.00002,0,0,-1,58.988817,58.691)" stroke-width=".79701" stroke-linecap="butt" stroke-miterlimit="10" stroke-linejoin="miter" fill="none" stroke="#000000" d="M0 0H55.98625"/>
<path transform="matrix(1.00002,0,0,-1,114.97619,58.691)" stroke-width=".6376" stroke-linecap="round" stroke-linejoin="round" fill="none" stroke="#000000" d="M-1.55415 2.0722C-1.42464 1.29512 0 .1295 .38852 0 0-.1295-1.42464-1.29512-1.55415-2.0722"/>
<use data-text="R" xlink:href="#font_1_1" transform="matrix(11.95544,0,0,-11.9552,68.63301,54.972)"/>
<use data-text="a" xlink:href="#font_1_2" transform="matrix(11.95544,0,0,-11.9552,77.63547,54.972)"/>
<use data-text="d" xlink:href="#font_1_3" transform="matrix(11.95544,0,0,-11.9552,83.78056,54.972)"/>
<use data-text="i" xlink:href="#font_1_4" transform="matrix(11.95544,0,0,-11.9552,89.85393,54.972)"/>
<use data-text="u" xlink:href="#font_1_6" transform="matrix(11.95544,0,0,-11.9552,93.847049,54.972)"/>
<use data-text="s" xlink:href="#font_1_5" transform="matrix(11.95544,0,0,-11.9552,100.506229,54.972)"/>
<use data-text="T" xlink:href="#font_2_104" transform="matrix(9.962799,0,0,-9.9626,28.553208,89.583)"/>
<use data-text="h" xlink:href="#font_2_63" transform="matrix(9.962799,0,0,-9.9626,35.746339,89.583)"/>
<use data-text="r" xlink:href="#font_2_96" transform="matrix(9.962799,0,0,-9.9626,41.285646,89.583)"/>
<use data-text="e" xlink:href="#font_2_50" transform="matrix(9.962799,0,0,-9.9626,45.19107,89.583)"/>
<use data-text="e" xlink:href="#font_2_50" transform="matrix(9.962799,0,0,-9.9626,49.614549,89.583)"/>
<use data-text="-" xlink:href="#font_2_64" transform="matrix(9.962799,0,0,-9.9626,54.03804,89.583)"/>
<use data-text="Q" xlink:href="#font_2_90" transform="matrix(9.962799,0,0,-9.9626,57.355669,89.583)"/>
<use data-text="u" xlink:href="#font_2_109" transform="matrix(9.962799,0,0,-9.9626,65.10672,89.583)"/>
<use data-text="a" xlink:href="#font_2_28" transform="matrix(9.962799,0,0,-9.9626,70.64603,89.583)"/>
<use data-text="r" xlink:href="#font_2_96" transform="matrix(9.962799,0,0,-9.9626,75.627429,89.583)"/>
<use data-text="t" xlink:href="#font_2_105" transform="matrix(9.962799,0,0,-9.9626,79.53284,89.583)"/>
<use data-text="e" xlink:href="#font_2_50" transform="matrix(9.962799,0,0,-9.9626,83.40837,89.583)"/>
<use data-text="r" xlink:href="#font_2_96" transform="matrix(9.962799,0,0,-9.9626,87.83186,89.583)"/>
<use data-text="c" xlink:href="#font_2_43" transform="matrix(9.962799,0,0,-9.9626,95.054889,89.583)"/>
<use data-text="i" xlink:href="#font_2_66" transform="matrix(9.962799,0,0,-9.9626,99.47838,89.583)"/>
<use data-text="r" xlink:href="#font_2_96" transform="matrix(9.962799,0,0,-9.9626,102.24803,89.583)"/>
<use data-text="c" xlink:href="#font_2_43" transform="matrix(9.962799,0,0,-9.9626,106.15346,89.583)"/>
<use data-text="l" xlink:href="#font_2_72" transform="matrix(9.962799,0,0,-9.9626,110.576938,89.583)"/>
<use data-text="e" xlink:href="#font_2_50" transform="matrix(9.962799,0,0,-9.9626,113.3466,89.583)"/>
<path transform="matrix(1.00002,0,0,-1,58.988817,58.691)" d="M1.99255 0C1.99255 1.10046 1.10046 1.99255 0 1.99255-1.10046 1.99255-1.99255 1.10046-1.99255 0-1.99255-1.10046-1.10046-1.99255 0-1.99255 1.10046-1.99255 1.99255-1.10046 1.99255 0ZM0 0"/>
</svg>
