<svg xmlns="http://www.w3.org/2000/svg" xmlns:xlink="http://www.w3.org/1999/xlink" xmlns:inkscape="http://www.inkscape.org/namespaces/inkscape" version="1.1" width="456" height="533" viewBox="0 0 456 533">
<defs>
<path id="font_1_27" d="M.71699526 0V.0309906H.69898989C.6389923 .0309906 .625 .037979127 .6139984 .07095337L.397995 .6958008C.3929901 .7088165 .3909912 .7158203 .375 .7158203 .35899354 .7158203 .35598756 .70980837 .35099793 .6958008L.14399719 .09791565C.12599182 .04698181 .085998538 .03199768 .03199768 .0309906V0L.13398743 .0029907227 .24899292 0V.0309906C.19898987 .0309906 .17399597 .05596924 .17399597 .0819397 .17399597 .08493042 .1749878 .09492493 .17599488 .09692383L.22200012 .2277832H.46899415L.5219879 .07495117C.522995 .07095337 .5249939 .064956668 .5249939 .060958864 .5249939 .0309906 .46899415 .0309906 .44198609 .0309906V0C.47799684 .0029907227 .5479889 .0029907227 .58599856 .0029907227L.71699526 0M.45799256 .25878907H.23298645L.34498597 .58380129 .45799256 .25878907Z"/>
<path id="font_1_34" d="M.651001 .18289185C.651001 .26983644 .56900027 .34480287 .45799256 .35679627 .5549927 .3757782 .6239929 .43974305 .6239929 .51368716 .6239929 .6006317 .5319977 .6826172 .4019928 .6826172H.035995485V.6516113H.05999756C.13699341 .6516113 .13899231 .64060977 .13899231 .6046295V.07795715C.13899231 .041992189 .13699341 .0309906 .05999756 .0309906H.035995485V0H.42799378C.5609894-.0002593994 .651001 .08874512 .651001 .18273926V.18289185M.5269928 .5136719C.5269928 .44970704 .47799684 .36573792 .36698915 .36573792H.22200012V.6116333C.22200012 .64460757 .22399903 .6516113 .2709961 .6516113H.394989C.49198915 .65174868 .5269928 .56674197 .5269928 .51374819V.5136719M.5509949 .18386841C.5509949 .1129303 .49899293 .0309906 .3959961 .0309906H.2709961C.22399903 .0309906 .22200012 .037994386 .22200012 .07095337V.34375H.4099884C.5089874 .34399415 .5509949 .25099183 .5509949 .18399048V.18386841Z"/>
<path id="font_1_42" d="M.6649933 .23271179C.6649933 .24272156 .6649933 .24972534 .6519928 .24972534 .6409912 .24972534 .6409912 .24372864 .6399994 .23371887 .6319885 .09059143 .5249939 .008529663 .41600038 .008529663 .35499574 .008529663 .15899658 .042556764 .15899658 .34080506 .15899658 .64004519 .35398866 .67407229 .4149933 .67407229 .5239868 .67407229 .61299136 .58299258 .6329956 .4368744 .6349945 .42286683 .6349945 .41986085 .6489868 .41986085 .6649933 .41986085 .6649933 .42286683 .6649933 .44387818V.68107607C.6649933 .69807437 .6649933 .7050781 .6539917 .7050781 .6499939 .7050781 .6459961 .7050781 .6380005 .69306948L.58799746 .61901858C.5509949 .6550598 .5 .7050781 .4039917 .7050781 .21699524 .7050781 .055999757 .5459595 .055999757 .34179688 .055999757 .1346283 .21798706-.022460938 .4039917-.022460938 .5669861-.022460938 .6649933 .116622928 .6649933 .23271179Z"/>
<path id="font_1_46" d="M.70700076 .33580018C.70700076 .52568057 .57199099 .6826172 .40098573 .6826172H.034988405V.6516113H.05899048C.13598633 .6516113 .13798523 .64060977 .13798523 .6046295V.07795715C.13798523 .041992189 .13598633 .0309906 .05899048 .0309906H.034988405V0H.40098573C.56900027 0 .70700076 .1479187 .70700076 .33580018M.6069946 .33580018C.6069946 .22486878 .58799746 .16490174 .5519867 .11593628 .5319977 .08895874 .47499085 .0309906 .37399293 .0309906H.272995C.22599793 .0309906 .22399903 .037994386 .22399903 .07096863V.6116333C.22399903 .64460757 .22599793 .6516113 .272995 .6516113H.37298585C.43499757 .6516113 .5039978 .6296234 .5549927 .55867007 .59799197 .49969483 .6069946 .41375733 .6069946 .33580018Z"/>
<path id="font_1_49" d="M.6519928 .2579193H.6269989C.60198977 .10397339 .57899478 .0309906 .40699769 .0309906H.27398683C.22698975 .0309906 .22499085 .037994386 .22499085 .07098389V.33789063H.31498719C.4119873 .33789063 .4229889 .30589295 .4229889 .220932H.44799806V.48606874H.4229889C.4229889 .39994813 .4119873 .36888124 .31498719 .36888124H.22499085V.6087799C.22499085 .6416931 .22698975 .64868167 .27398683 .64868167H.40299989C.55599978 .64868167 .58299258 .59381106 .598999 .45507813H.6239929L.59599307 .6796875H.032989503V.64868167H.056991579C.13398743 .64868167 .13598633 .6377106 .13598633 .6017914V.07797241C.13598633 .041992189 .13398743 .0309906 .056991579 .0309906H.032989503V0H.6100006L.6519928 .2579193Z"/>
<path id="font_1_54" d="M.6100006 .45477296 .58200076 .6796875H.032989503V.64868167H.056991579C.13398743 .64868167 .13598633 .63768008 .13598633 .6016998V.07797241C.13598633 .041992189 .13398743 .0309906 .056991579 .0309906H.032989503V0C.067993167 .0029907227 .1459961 .0029907227 .18499756 .0029907227 .22599793 .0029907227 .31698609 .0029907227 .35299684 0V.0309906H.31999208C.22499085 .031188965 .22499085 .044189454 .22499085 .079193118V.3251953H.31098939C.40699769 .3251953 .4169922 .29318238 .4169922 .20819092H.44198609V.4731903H.4169922C.4169922 .38919068 .40699769 .3561859 .31098939 .3561859H.22499085V.6091919C.22499085 .64167788 .22698975 .64868167 .27398683 .64868167H.3939972C.5439911 .64868167 .56900027 .5926819 .58499148 .4546814L.6100006 .45477296Z"/>
<path id="font_1_62" d="M.71598818 0V.0309906H.69200137C.61499026 .0309906 .61299136 .041992189 .61299136 .07797241V.6046448C.61299136 .640625 .61499026 .6516113 .69200137 .6516113H.71598818V.6826172C.68099978 .6796112 .6069946 .6796112 .56900027 .6796112 .5309906 .6796112 .45599366 .6796112 .42099 .6826172V.6516113H.44499208C.5219879 .6516113 .5239868 .640625 .5239868 .6046448V.37083436H.22499085V.6046448C.22499085 .640625 .22698975 .6516113 .3039856 .6516113H.32798768V.6826172C.29299928 .6796112 .21899414 .6796112 .18099976 .6796112 .14299011 .6796112 .067993167 .6796112 .032989503 .6826172V.6516113H.056991579C.13398743 .6516113 .13598633 .640625 .13598633 .6046448V.07797241C.13598633 .041992189 .13398743 .0309906 .056991579 .0309906H.032989503V0C.067993167 .0029907227 .14199829 .0029907227 .17999268 .0029907227 .21798706 .0029907227 .29299928 .0029907227 .32798768 0V.0309906H.3039856C.22698975 .0309906 .22499085 .041992189 .22499085 .07797241V.33984376H.5239868V.07797241C.5239868 .041992189 .5219879 .0309906 .44499208 .0309906H.42099V0C.45599366 .0029907227 .5299988 .0029907227 .56799319 .0029907227 .60598757 .0029907227 .68099978 .0029907227 .71598818 0Z"/>
<path id="font_1_65" d="M.33299256 0V.0309906H.30699159C.22799683 .0309906 .22499085 .041992189 .22499085 .07795715V.6046295C.22499085 .64060977 .22799683 .6516113 .30699159 .6516113H.33299256V.6826172C.2979889 .6796112 .21899414 .6796112 .18099976 .6796112 .14199829 .6796112 .06298828 .6796112 .027999878 .6826172V.6516113H.053985597C.1329956 .6516113 .13598633 .64060977 .13598633 .6046295V.07795715C.13598633 .041992189 .1329956 .0309906 .053985597 .0309906H.027999878V0C.06298828 .0029907227 .14199829 .0029907227 .17999268 .0029907227 .21899414 .0029907227 .2979889 .0029907227 .33299256 0Z"/>
<path id="font_1_101" d="M.45700074 .2036438C.45700074 .33070375 .36799623 .4267578 .25698854 .4267578 .18899536 .4267578 .1519928 .37573243 .13198853 .327713V.35173036C.13198853 .6047821 .2559967 .64100649 .30699159 .64100649 .33099366 .64100649 .37298585 .634964 .394989 .6007538 .37998963 .6007538 .33999635 .6007538 .33999635 .5557556 .33999635 .524765 .3639984 .5097656 .38598634 .5097656 .4019928 .5097656 .43199159 .51875308 .43199159 .5577545 .43199159 .6178589 .3880005 .6660156 .30499269 .6660156 .1769867 .6660156 .041992189 .5367584 .041992189 .31570436 .041992189 .048553468 .1579895-.022460938 .25099183-.022460938 .3619995-.022460938 .45700074 .07156372 .45700074 .2036438M.36698915 .20463562C.36698915 .15661621 .36698915 .10658264 .34999085 .0705719 .31999208 .010528564 .27398683 .0055389406 .25099183 .0055389406 .18798828 .0055389406 .1579895 .06556702 .1519928 .080566409 .13398743 .127594 .13398743 .2076416 .13398743 .22564698 .13398743 .30369569 .1659851 .40374757 .2559967 .40374757 .27198792 .40374757 .31799317 .40374757 .34899903 .34172059 .36698915 .30470277 .36698915 .2536621 .36698915 .20463562Z"/>
<path id="font_1_43" d="M.4149933 .119140628C.4149933 .12911988 .40499879 .12911988 .4019928 .12911988 .3929901 .12911988 .3909912 .12512207 .3889923 .119140628 .3600006 .026229859 .29499818 .014251709 .2579956 .014251709 .20498657 .014251709 .116989139 .0572052 .116989139 .21801758 .116989139 .38093568 .19898987 .42323304 .2519989 .42323304 .26098634 .42323304 .32398988 .42222596 .35899354 .38594056 .31799317 .38293458 .31199647 .3529358 .31199647 .3399353 .31199647 .31393434 .32998658 .2939453 .35798646 .2939453 .38398744 .2939453 .4039917 .3109436 .4039917 .34094239 .4039917 .40911866 .32798768 .4482422 .25099183 .4482422 .12599182 .4482422 .033996583 .3399353 .033996583 .21601868 .033996583 .08816528 .1329956-.0107421879 .24899292-.0107421879 .3829956-.0107421879 .4149933 .10914612 .4149933 .119140628Z"/>
<path id="font_1_75" d="M.8129883 0V.0309906C.7609863 .0309906 .73599246 .0309906 .7350006 .061019899V.25221253C.7350006 .3383026 .7350006 .36932374 .70399478 .405365 .6899872 .42237855 .6569977 .4423828 .598999 .4423828 .5149994 .4423828 .47099305 .38233949 .45399476 .34429933 .43998719 .43138124 .3659973 .4423828 .32099916 .4423828 .24798584 .4423828 .20098877 .39935304 .17298889 .33729554V.4423828L.03199768 .43066407V.3996582C.101989749 .3996582 .10998535 .39266969 .10998535 .34370423V.07595825C.10998535 .0309906 .09899902 .0309906 .03199768 .0309906V0L.14498902 .0029907227 .25698854 0V.0309906C.18998719 .0309906 .1789856 .0309906 .1789856 .07595825V.25978089C.1789856 .36431886 .25 .42037965 .31399537 .42037965 .3769989 .42037965 .3880005 .36631776 .3880005 .30926515V.076034549C.3880005 .0309906 .3769989 .0309906 .30999757 .0309906V0L.4229889 .0029907227 .5349884 0V.0309906C.46798707 .0309906 .45700074 .0309906 .45700074 .076034549V.2602234C.45700074 .36431886 .5279999 .42037965 .59199526 .42037965 .6549988 .42037965 .66600039 .36631776 .66600039 .30926515V.076034549C.66600039 .0309906 .6549988 .0309906 .58799746 .0309906V0L.70098879 .0029907227 .8129883 0Z"/>
</defs>
<path transform="matrix(1.00005,0,0,-1.00008,12.209854,351.39817)" stroke-width=".79701" stroke-linecap="butt" stroke-miterlimit="10" stroke-linejoin="miter" fill="none" stroke="#000000" d="M170.08086 0H0L170.08086-170.08086V0H340.1617V170.08086H170.08086V0"/>
<path transform="matrix(1.00005,0,0,-1.00008,12.209854,351.39817)" stroke-width=".79701" stroke-linecap="butt" stroke-miterlimit="10" stroke-linejoin="miter" fill="none" stroke="#000000" d="M170.08086 170.08086V340.1617"/>
<path transform="matrix(1.00005,0,0,-1.00008,12.209854,351.39817)" stroke-width=".79701" stroke-linecap="butt" stroke-miterlimit="10" stroke-linejoin="miter" fill="none" stroke="#000000" d="M340.1617 0H510.24259"/>
<path transform="matrix(1.00005,0,0,-1.00008,12.209854,351.39817)" d="M170.08086 0H340.1617V170.08086H170.08086Z" fill="#ff4d4d" fill-opacity=".7"/>
<path transform="matrix(1.00005,0,0,-1.00008,12.209854,351.39817)" d="M170.08086 0V-170.08086L0 0Z" fill="#4d4dff" fill-opacity=".7"/>
<path transform="matrix(1.00005,0,0,-1.00008,12.209854,351.39817)" d="M0 0H170.08086V-170.08086Z" fill="#4dff4d" fill-opacity=".7"/>
<path transform="matrix(1.00005,0,0,-1.00008,12.209854,351.39817)" d="M340.1617 0H510.24259Z" fill="#a6a6a6" fill-opacity=".7"/>
<path transform="matrix(1.00005,0,0,-1.00008,12.209854,351.39817)" d="M170.08086 170.08086V340.1617Z" fill="#ffa64d" fill-opacity=".7"/>
<path transform="matrix(1.00005,0,0,-1.00008,12.209854,351.39817)" d="M170.08086 0H340.1617 510.24259Z" fill="#d24d79" fill-opacity=".7"/>
<use data-text="A" xlink:href="#font_1_27" transform="matrix(9.963098,0,0,-9.963397,1.217308,362.052)"/>
<use data-text="B" xlink:href="#font_1_34" transform="matrix(9.963098,0,0,-9.963397,185.81952,361.723)"/>
<use data-text="C" xlink:href="#font_1_42" transform="matrix(9.963098,0,0,-9.963397,355.90907,361.943)"/>
<use data-text="D" xlink:href="#font_1_46" transform="matrix(9.963098,0,0,-9.963397,178.49315,177.78328)"/>
<use data-text="E" xlink:href="#font_1_49" transform="matrix(9.963098,0,0,-9.963397,178.90718,531.7876)"/>
<use data-text="F" xlink:href="#font_1_54" transform="matrix(9.963098,0,0,-9.963397,179.04619,7.6886599)"/>
<use data-text="H" xlink:href="#font_1_62" transform="matrix(9.963098,0,0,-9.963397,355.90907,184.70583)"/>
<use data-text="I" xlink:href="#font_1_65" transform="matrix(9.963098,0,0,-9.963397,525.9975,361.723)"/>
<path transform="matrix(1.00005,0,0,-1.00008,12.209854,351.39817)" stroke-width=".3985" stroke-linecap="butt" stroke-miterlimit="10" stroke-linejoin="miter" fill="none" stroke="#000000" d="M0 0H170.08086"/>
<use data-text="6" xlink:href="#font_1_101" transform="matrix(9.963098,0,0,-9.963397,86.743579,361.554)"/>
<use data-text="c" xlink:href="#font_1_43" transform="matrix(9.963098,0,0,-9.963397,95.03288,361.554)"/>
<use data-text="m" xlink:href="#font_1_75" transform="matrix(9.963098,0,0,-9.963397,99.4565,361.554)"/>
<path transform="matrix(1.00005,0,0,-1.00008,12.209854,351.39817)" stroke-width=".3985" stroke-linecap="butt" stroke-miterlimit="10" stroke-linejoin="miter" fill="none" stroke="#000000" d="M170.08086 0H340.1617"/>
<use data-text="6" xlink:href="#font_1_101" transform="matrix(9.963098,0,0,-9.963397,256.83308,361.554)"/>
<use data-text="c" xlink:href="#font_1_43" transform="matrix(9.963098,0,0,-9.963397,265.12239,361.554)"/>
<use data-text="m" xlink:href="#font_1_75" transform="matrix(9.963098,0,0,-9.963397,269.546,361.554)"/>
<path transform="matrix(1.00005,0,0,-1.00008,12.209854,351.39817)" stroke-width=".3985" stroke-linecap="butt" stroke-miterlimit="10" stroke-linejoin="miter" fill="none" stroke="#000000" d="M170.08086 0V170.08086"/>
<use data-text="6" xlink:href="#font_1_101" transform="matrix(9.963098,0,0,-9.963397,185.81952,269.55964)"/>
<use data-text="c" xlink:href="#font_1_43" transform="matrix(9.963098,0,0,-9.963397,194.10883,269.55964)"/>
<use data-text="m" xlink:href="#font_1_75" transform="matrix(9.963098,0,0,-9.963397,198.53244,269.55964)"/>
<path transform="matrix(1.00005,0,0,-1.00008,12.209854,351.39817)" stroke-width=".3985" stroke-linecap="butt" stroke-miterlimit="10" stroke-linejoin="miter" fill="none" stroke="#000000" d="M170.08086 170.08086H340.1617"/>
<use data-text="6" xlink:href="#font_1_101" transform="matrix(9.963098,0,0,-9.963397,270.86378,184.51181)"/>
<use data-text="c" xlink:href="#font_1_43" transform="matrix(9.963098,0,0,-9.963397,279.15309,184.51181)"/>
<use data-text="m" xlink:href="#font_1_75" transform="matrix(9.963098,0,0,-9.963397,283.57667,184.51181)"/>
<path transform="matrix(1.00005,0,0,-1.00008,12.209854,351.39817)" stroke-width=".3985" stroke-linecap="butt" stroke-miterlimit="10" stroke-linejoin="miter" fill="none" stroke="#000000" d="M170.08086 170.08086V340.1617"/>
<use data-text="6" xlink:href="#font_1_101" transform="matrix(9.963098,0,0,-9.963397,185.81952,99.46501)"/>
<use data-text="c" xlink:href="#font_1_43" transform="matrix(9.963098,0,0,-9.963397,194.10883,99.46501)"/>
<use data-text="m" xlink:href="#font_1_75" transform="matrix(9.963098,0,0,-9.963397,198.53244,99.46501)"/>
<path transform="matrix(1.00005,0,0,-1.00008,12.209854,351.39817)" stroke-width=".3985" stroke-linecap="butt" stroke-miterlimit="10" stroke-linejoin="miter" fill="none" stroke="#000000" d="M340.1617 0H510.24259"/>
<use data-text="6" xlink:href="#font_1_101" transform="matrix(9.963098,0,0,-9.963397,426.92158,361.554)"/>
<use data-text="c" xlink:href="#font_1_43" transform="matrix(9.963098,0,0,-9.963397,435.21089,361.554)"/>
<use data-text="m" xlink:href="#font_1_75" transform="matrix(9.963098,0,0,-9.963397,439.63453,361.554)"/>
</svg>
