<svg xmlns="http://www.w3.org/2000/svg" xmlns:xlink="http://www.w3.org/1999/xlink" xmlns:inkscape="http://www.inkscape.org/namespaces/inkscape" version="1.1" width="174" height="174" viewBox="0 0 174 174">
<defs>
<path id="font_1_82" d="M.48298646 0V.042999269H.34599305V.6270447C.34599305 .65625 .34399415 .65625 .31199647 .65625 .23799134 .5918274 .1269989 .5918274 .10499573 .5918274H.085998538V.5488281H.10499573C.13999939 .5488281 .19299317 .5548248 .23298645 .5678253V.042999269H.09399414V0L.28799439 .0019989014 .48298646 0Z"/>
<path id="font_1_107" d="M.5049896 .21514893H.46299745C.45999146 .19412232 .45298768 .13502503 .43798829 .125 .42999269 .117996219 .35198976 .117996219 .33699037 .117996219H.18199158L.32598878 .23718262C.43699647 .3203125 .5049896 .37139894 .5049896 .46749879 .5049896 .5853729 .397995 .65625 .2659912 .65625 .15299988 .65625 .055999757 .5923462 .055999757 .49749757 .055999757 .44448854 .09899902 .42948915 .12199402 .42948915 .15299988 .42948915 .18899536 .45048524 .18899536 .49649049 .18899536 .5384979 .1579895 .559494 .1269989 .5634918 .16699219 .6092682 .21998596 .6132355 .24099732 .6132355 .33299256 .6132355 .3769989 .5384979 .3769989 .4664917 .3769989 .38842774 .32398988 .3163147 .2829895 .27323915L.06599426 .04598999C.055999757 .036987306 .055999757 .034988405 .055999757 .016998291V0H.47599793L.5049896 .21514893Z"/>
<path id="font_1_106" d="M.5139923 .17938233C.5139923 .22834778 .4889984 .32321168 .33399964 .35020448 .42199708 .37719728 .48298646 .43919374 .48298646 .5181885 .48298646 .5932007 .41099549 .65625 .27198792 .65625 .1599884 .65625 .07798767 .59721377 .07798767 .5161896 .07798767 .46618653 .116989139 .4501953 .14299011 .4501953 .17199707 .4501953 .20698548 .4691925 .20698548 .5151825 .20698548 .53819277 .19699097 .57218936 .1499939 .5791931 .19198609 .62023928 .2599945 .62023928 .2659912 .62023928 .35499574 .62023928 .35499574 .55119326 .35499574 .52119448 .35499574 .49118043 .35099793 .44519044 .31900025 .40419007 .29299928 .37020875 .2669983 .36820985 .22898865 .36621095 .21699524 .36520387 .19699097 .36419679 .19299317 .36219789 .18699646 .35920716 .18699646 .35220338 .18699646 .34820558 .18699646 .33120729 .19299317 .33120729 .21299744 .33120729H.26098634C.37298585 .33120729 .37298585 .2273407 .37298585 .17938233 .37298585 .1343689 .37298585 .028274537 .2649994 .028274537 .24398804 .028274537 .17799378 .031280519 .12998963 .06536865 .17298889 .07437134 .18798828 .1053772 .18798828 .13537598 .18798828 .17637635 .15899658 .20536804 .117996219 .20536804 .07598877 .20527649 .04699707 .17626953 .04699707 .13427735 .04699707 .042266847 .14698792-.01171875 .269989-.01171875 .43499757-.01171875 .5139923 .07926941 .5139923 .17927552V.17938233Z"/>
<path id="font_1_57" d="M.5299988 0V.042999269H.43299867V.15718079H.5299988V.20019531H.43299867V.62919619C.43299867 .65419009 .43199159 .6582031 .40699769 .6582031 .3889923 .6582031 .3869934 .6582031 .375 .6431885L.0309906 .20019531V.15718079H.31498719V.042999269H.20599365V0C.23498535 .0019989014 .33399964 .0019989014 .36999513 .0019989014 .4039917 .0019989014 .5029907 .0019989014 .5299988 0M.32398988 .20019531H.07699585L.32398988 .5181885V.20019531Z"/>
<path id="font_1_56" d="M.5049896 .20114136C.5049896 .32315064 .42199708 .41015626 .2849884 .41015626 .24499512 .41015626 .19699097 .4021454 .1539917 .3701477V.51953127C.18798828 .51101687 .21499634 .51101687 .22999573 .51101687 .2539978 .5115204 .31098939 .5115204 .37799073 .55252078 .40899659 .57147219 .46099855 .61634829 .46099855 .6392822 .46099855 .64427188 .46099855 .65625 .44898988 .65625 .44898988 .65625 .44599916 .65625 .43598939 .6512604 .3899994 .6351013 .34098817 .62402346 .2849884 .62402346 .22799683 .62402346 .17999268 .6351013 .1329956 .6522217 .12599182 .65423586 .12298584 .65625 .11999512 .65625 .10798645 .65625 .10798645 .6461792 .10798645 .62905886V.33825685C.10798645 .31932069 .10798645 .3083496 .12799073 .3083496 .13798523 .3083496 .13999939 .3093567 .147995 .31932069 .1599884 .33328248 .19599915 .3771515 .2809906 .3771515 .37298585 .3771515 .37298585 .283432 .37298585 .2046051 .37298585 .13259888 .37298585 .028274537 .25 .028274537 .21299744 .028274537 .1499939 .04234314 .115997318 .099594119 .16899109 .09916687 .18199158 .13916016 .18199158 .16116333 .18199158 .19760132 .1559906 .22460938 .11898804 .22460938 .08898926 .22460938 .055999757 .206604 .055999757 .15960694 .055999757 .07247925 .1349945-.01171875 .2539978-.01171875 .4079895-.01184082 .5049896 .0771637 .5049896 .20117188V.20114136Z"/>
<path id="font_1_101" d="M.5139923 .20610047C.5139923 .34596253 .4169922 .41992188 .2979889 .41992188 .27799989 .41992188 .21398926 .41992188 .17399597 .33496095V.36193849C.17399597 .42295838 .1769867 .4855957 .20498657 .53959658 .22698975 .581604 .27799989 .62023928 .34298707 .62023928 .3619995 .62023928 .397995 .61727908 .42199708 .5926056 .38398744 .5886078 .36799623 .5606079 .36799623 .53359988 .36799623 .49760438 .394989 .47460938 .4269867 .47460938 .45298768 .47460938 .48599244 .49160768 .48599244 .53559878 .48599244 .5955658 .44599916 .65625 .34098817 .65625 .21598816 .65625 .04699707 .578598 .04699707 .31698609 .04699707 .25004579 .04699707-.01171875 .28399659-.01171875 .41600038-.01171875 .5139923 .0662384 .5139923 .20610047M.3869934 .20709229C.3869934 .10820007 .3869934 .028274537 .2829895 .028274537 .21899414 .028274537 .19400025 .082214359 .18998719 .09020996 .17599488 .123184207 .17599488 .20309448 .17599488 .21209717 .17599488 .33496095 .22898865 .3869171 .28799439 .3869171 .3869934 .3869171 .3869934 .30699159 .3869934 .20709229Z"/>
</defs>
<path transform="matrix(1.00002,0,0,-1,87.33638,87.038)" stroke-width=".79701" stroke-linecap="butt" stroke-miterlimit="10" stroke-linejoin="miter" fill="none" stroke="#000000" d="M85.04045 0C85.04045 46.96715 46.96715 85.04045 0 85.04045-46.96715 85.04045-85.04045 46.96715-85.04045 0-85.04045-46.96715-46.96715-85.04045 0-85.04045 46.96715-85.04045 85.04045-46.96715 85.04045 0ZM0 0"/>
<path transform="matrix(1.00002,0,0,-1,87.33638,87.038)" stroke-width=".79701" stroke-linecap="butt" stroke-miterlimit="10" stroke-linejoin="miter" fill="none" stroke="#000000" d="M0 0H85.04045"/>
<path transform="matrix(1.00002,0,0,-1,87.33638,87.038)" stroke-width=".79701" stroke-linecap="butt" stroke-miterlimit="10" stroke-linejoin="miter" fill="none" stroke="#000000" d="M0 0 42.52022 73.64738"/>
<path transform="matrix(1.00002,0,0,-1,87.33638,87.038)" stroke-width=".79701" stroke-linecap="butt" stroke-miterlimit="10" stroke-linejoin="miter" fill="none" stroke="#000000" d="M0 0-42.52022 73.64738"/>
<path transform="matrix(1.00002,0,0,-1,87.33638,87.038)" stroke-width=".79701" stroke-linecap="butt" stroke-miterlimit="10" stroke-linejoin="miter" fill="none" stroke="#000000" d="M0 0H-85.04045"/>
<path transform="matrix(1.00002,0,0,-1,87.33638,87.038)" stroke-width=".79701" stroke-linecap="butt" stroke-miterlimit="10" stroke-linejoin="miter" fill="none" stroke="#000000" d="M0 0-42.52022-73.64738"/>
<path transform="matrix(1.00002,0,0,-1,87.33638,87.038)" stroke-width=".79701" stroke-linecap="butt" stroke-miterlimit="10" stroke-linejoin="miter" fill="none" stroke="#000000" d="M0 0 42.52022-73.64738"/>
<use data-text="1" xlink:href="#font_1_82" transform="matrix(14.346487,0,0,-14.3462,132.39728,63.397005)"/>
<use data-text="2" xlink:href="#font_1_107" transform="matrix(14.346487,0,0,-14.3462,83.2983,35.050004)"/>
<use data-text="3" xlink:href="#font_1_106" transform="matrix(14.346487,0,0,-14.3462,34.19832,63.311006)"/>
<use data-text="4" xlink:href="#font_1_57" transform="matrix(14.346487,0,0,-14.3462,34.19832,120.105)"/>
<use data-text="5" xlink:href="#font_1_56" transform="matrix(14.346487,0,0,-14.3462,83.2983,148.35102)"/>
<use data-text="6" xlink:href="#font_1_101" transform="matrix(14.346487,0,0,-14.3462,132.39728,120.004)"/>
<path transform="matrix(1.00002,0,0,-1,87.33638,87.038)" d="M5.66927 0C5.66927 3.13109 3.13109 5.66927 0 5.66927-3.13109 5.66927-5.66927 3.13109-5.66927 0-5.66927-3.13109-3.13109-5.66927 0-5.66927 3.13109-5.66927 5.66927-3.13109 5.66927 0ZM0 0"/>
<path transform="matrix(1.00002,0,0,-1,87.33638,87.038)" stroke-width=".3985" stroke-linecap="butt" stroke-miterlimit="10" stroke-linejoin="miter" fill="none" stroke="#000000" d="M5.66927 0C5.66927 3.13109 3.13109 5.66927 0 5.66927-3.13109 5.66927-5.66927 3.13109-5.66927 0-5.66927-3.13109-3.13109-5.66927 0-5.66927 3.13109-5.66927 5.66927-3.13109 5.66927 0ZM0 0"/>
<path transform="matrix(1.00002,0,0,-1,87.33638,87.038)" stroke-width=".79701" stroke-linecap="butt" stroke-miterlimit="10" stroke-linejoin="miter" fill="none" stroke="#000000" d="M0 0V27.63943"/>
<path transform="matrix(0,-1,-1.00002,-0,87.33638,59.398576)" stroke-width=".6376" stroke-linecap="round" stroke-linejoin="round" fill="none" stroke="#000000" d="M-1.55415 2.0722C-1.42464 1.29512 0 .1295 .38852 0 0-.1295-1.42464-1.29512-1.55415-2.0722"/>
</svg>
