<svg xmlns="http://www.w3.org/2000/svg" xmlns:xlink="http://www.w3.org/1999/xlink" xmlns:inkscape="http://www.inkscape.org/namespaces/inkscape" version="1.1" width="348" height="168" viewBox="0 0 348 168">
<defs>
<path id="font_1_71" d="M.6279907 .26982118H.58599856C.57899478 .2008667 .5629883 .042999269 .3829956 .042999269H.27598573V.64253237H.40899659V.6855469L.21798706 .6835327C.18099976 .6835327 .066986087 .6835327 .037994386 .6855469V.64253237H.14399719V.042999269H.037994386V0H.598999L.6279907 .26982118Z"/>
<path id="font_1_50" d="M.48098756 .11706543C.48098756 .13206482 .46598817 .13206482 .45999146 .13206482 .44400025 .13206482 .44299317 .12905884 .43699647 .11607361 .41099549 .051116945 .34498597 .030136109 .29699708 .030136109 .1519928 .030136109 .15098572 .16503906 .15098572 .22099304H.45199586C.47499085 .22099304 .48098756 .22099304 .48098756 .24598694 .48098756 .27601625 .47399903 .35105897 .42799378 .3981018 .38598634 .4401245 .32998658 .453125 .27198792 .453125 .115997318 .453125 .0309906 .35105897 .0309906 .22499085 .0309906 .08509827 .13398743-.005859375 .2849884-.005859375 .43598939-.005859375 .48098756 .1000824 .48098756 .11706543M.3889923 .25H.15098572C.15299988 .29101563 .1539917 .3300476 .1749878 .3660736 .19400025 .3981018 .22898865 .42012025 .27198792 .42012025 .3789978 .42012025 .3880005 .30003358 .3889923 .25Z"/>
<path id="font_1_77" d="M.59999087 0V.042999269H.5309906V.30613709C.5309906 .40118409 .48999024 .4501953 .37998963 .4501953 .30799867 .4501953 .24598694 .41519166 .21199036 .34014894H.21099854V.4501953L.041992189 .4423828V.3993683C.10398865 .3993683 .11099243 .3993683 .11099243 .36035157V.042999269H.041992189V0C.06498718 .0019989014 .13699341 .0019989014 .16499329 .0019989014 .19299317 .0019989014 .2659912 .0019989014 .2889862 0V.042999269H.21998596V.25627137C.21998596 .3643341 .2999878 .41719056 .3639984 .41719056 .40098573 .41719056 .42199708 .3932495 .42199708 .31733705V.042999269H.35299684V0C.37599183 .0019989014 .44799806 .0019989014 .47599793 .0019989014 .5039978 .0019989014 .57699587 .0019989014 .59999087 0Z"/>
<path id="font_1_59" d="M.54499819 .40003968C.54499819 .42404176 .5269928 .4560547 .4850006 .4560547 .44198609 .4560547 .40098573 .43504334 .37998963 .41705323 .33898927 .44119264 .2999878 .4501953 .24899292 .4501953 .11099243 .4501953 .055999757 .3731842 .055999757 .30319215 .055999757 .27218629 .06599426 .23118592 .10798645 .19718933 .09098816 .17819214 .07299805 .14318848 .07299805 .10719299 .07299805 .064193729 .09599304 .027191163 .116989139 .011184692 .09298706 .0052490236 .0309906-.01776123 .0309906-.0748291 .0309906-.13391114 .09599304-.20095825 .27999879-.20095825 .44599916-.20095825 .5299988-.14692688 .5299988-.07182312 .5299988 .01625061 .47200013 .04525757 .44699098 .057250978 .39898683 .08125305 .33499146 .08125305 .24699402 .08125305 .22200012 .08125305 .17799378 .08125305 .17298889 .08224487 .12998963 .08924866 .117996219 .12724304 .117996219 .14624024 .117996219 .15423584 .11898804 .16923523 .12998963 .18223572 .17799378 .15625 .23399353 .15625 .24899292 .15625 .3869934 .15625 .44198609 .23320008 .44198609 .30314637 .44198609 .35411073 .41299439 .39007569 .40098573 .4000702 .42999269 .41604615 .45399476 .42004396 .47099305 .42204286 .46798707 .41705323 .46499635 .41305543 .46499635 .4000702 .46499635 .37908937 .47898866 .36009217 .5049896 .36009217 .5309906 .36009217 .54499819 .37908937 .54499819 .4000702V.40003968M.33599855 .30314637C.33599855 .2571869 .33599855 .18824768 .24899292 .18824768 .1619873 .18812561 .1619873 .25715638 .1619873 .30316163 .1619873 .34916688 .1619873 .41818238 .24899292 .41818238 .33599855 .41818238 .33599855 .34916688 .33599855 .30316163V.30314637M.44799806-.075927738C.44799806-.1109314 .41299439-.16894531 .2809906-.16894531 .14898682-.16874695 .11299133-.11274719 .11299133-.07475281 .11299133-.0107421879 .17599488-.0107421879 .19099427-.0107421879H.30499269C.37799073-.0107421879 .44799806-.023742676 .44799806-.07574463V-.075927738Z"/>
<path id="font_1_105" d="M.37399293 .124176029V.17721558H.33198548V.1251831C.33198548 .059143068 .3019867 .030136109 .2709961 .030136109 .21099854 .030136109 .21099854 .09716797 .21099854 .12017822V.4013214H.35499574V.44433595H.21099854V.6357422H.16899109C.16799927 .53652957 .11999512 .43733216 .020996094 .43432618V.4013214H.101989749V.123184207C.101989749 .01713562 .18399048-.005859375 .2559967-.005859375 .32998658-.005859375 .37399293 .05014038 .37399293 .124176029Z"/>
<path id="font_1_63" d="M.59999087 0V.042999269H.5309906V.30659486C.5309906 .4012909 .48999024 .4501953 .37998963 .4501953 .2789917 .4501953 .22999573 .37942506 .21598816 .34960938H.21499634V.69433596L.041992189 .6855469V.64253237C.10398865 .64253237 .11099243 .64253237 .11099243 .6036682V.042999269H.041992189V0C.06498718 .0019989014 .13699341 .0019989014 .16499329 .0019989014 .19299317 .0019989014 .2659912 .0019989014 .2889862 0V.042999269H.21998596V.25610353C.21998596 .36416627 .2999878 .41719056 .3639984 .41719056 .40098573 .41719056 .42199708 .39317323 .42199708 .31713868V.042999269H.35299684V0C.37599183 .0019989014 .44799806 .0019989014 .47599793 .0019989014 .5039978 .0019989014 .57699587 .0019989014 .59999087 0Z"/>
<path id="font_1_62" d="M.84098818 0V.042999269H.7350006V.64253237H.84098818V.6855469C.81199648 .6835327 .7049866 .6835327 .6689911 .6835327 .6329956 .6835327 .526001 .6835327 .49699403 .6855469V.64253237H.6029968V.3779297H.27598573V.64253237H.38198854V.6855469C.35299684 .6835327 .24598694 .6835327 .20999146 .6835327 .17399597 .6835327 .066986087 .6835327 .037994386 .6855469V.64253237H.14399719V.042999269H.037994386V0C.066986087 .0019989014 .17399597 .0019989014 .20999146 .0019989014 .24598694 .0019989014 .35299684 .0019989014 .38198854 0V.042999269H.27598573V.33491517H.6029968V.042999269H.49699403V0C.526001 .0019989014 .6329956 .0019989014 .6689911 .0019989014 .7049866 .0019989014 .81199648 .0019989014 .84098818 0Z"/>
<path id="font_1_66" d="M.2789917 0V.042999269H.21699524V.4501953L.04699707 .4423828V.3993683C.10598755 .3993683 .11299133 .3993683 .11299133 .3603363V.042999269H.04399109V0C.066986087 .0019989014 .13598633 .0019989014 .16299439 .0019989014 .19099427 .0019989014 .25498963 .0019989014 .2789917 0M.22898865 .6081238C.22898865 .64912417 .19499207 .68013 .15699768 .68013 .115997318 .68013 .083999637 .64712527 .083999637 .6081238 .083999637 .5671234 .117996219 .5361328 .1559906 .5361328 .19699097 .5361328 .22898865 .5691223 .22898865 .6081238Z"/>
<path id="font_1_113" d="M1.1389923 .64253237V.6855469L1.0299988 .6835327C1.0009918 .6835327 .9279938 .6835327 .9039917 .6855469V.64253237C.91600039 .64253237 1.0039978 .64253237 1.0039978 .6285553 1.0039978 .6285553 1.0039978 .6255646 1 .61657717L.83200076 .17102051 .6529999 .64253237H.7480011V.6855469C.71598818 .6835327 .6230011 .6835327 .58499148 .6835327 .55400088 .6835327 .45700074 .6835327 .43299867 .6855469V.64253237H.5169983L.55799868 .5346527 .42099 .17102051 .24299622 .64253237H.33699037V.6855469C.30799867 .6835327 .20999146 .6835327 .17399597 .6835327 .14199829 .6835327 .04699707 .6835327 .021987915 .6855469V.64253237H.10598755L.34399415 .015182495C.34999085-.0018005371 .35299684-.0087890629 .375-.0087890629 .39698792-.0087890629 .3999939-.0018005371 .4059906 .014175415L.5799866 .4747162 .7549896 .014175415C.7609863-.0018005371 .7639923-.0087890629 .7859955-.0087890629 .8049927-.0087890629 .80999758-.0048065187 .81700137 .014175415L1.04599 .6185608C1.0529938 .6365509 1.0549927 .64253237 1.1389923 .64253237Z"/>
<path id="font_1_47" d="M.58898928 0V.042999269C.5269928 .042999269 .519989 .042999269 .519989 .08201599V.69433596L.34700013 .6855469V.64253237C.40899659 .64253237 .41600038 .64253237 .41600038 .6036682V.40219117C.3939972 .42118836 .34999085 .4501953 .2809906 .4501953 .13899231 .4501953 .037994386 .36218263 .037994386 .22215271 .037994386 .07914734 .13699341-.005859375 .269989-.005859375 .32499696-.005859375 .37199403 .013137817 .41099549 .046142579V-.005859375L.58898928 0M.41099549 .100997928C.36898805 .040130617 .31799317 .027130127 .28199769 .027130127 .1579895 .027130127 .1579895 .15414429 .1579895 .22015381 .1579895 .26716615 .1579895 .3171692 .17999268 .35517884 .21099854 .4111786 .269989 .41719056 .29299928 .41719056 .33399964 .41719056 .37799073 .39918519 .41099549 .35517884V.100997928Z"/>
</defs>
<path transform="matrix(1.00006,0,0,-1.00006,79.2349,129.56581)" d="M0 0H170.08086L226.77448 56.69362H56.69362Z" fill="#b3b3ff"/>
<path transform="matrix(1.00006,0,0,-1.00006,79.2349,129.56581)" stroke-width=".79701" stroke-linecap="butt" stroke-miterlimit="10" stroke-linejoin="miter" fill="none" stroke="#000000" d="M0 0H170.08086V70.867H0Z"/>
<path transform="matrix(1.00006,0,0,-1.00006,79.2349,129.56581)" stroke-width=".79701" stroke-linecap="butt" stroke-miterlimit="10" stroke-linejoin="miter" fill="none" stroke="#000000" d="M56.69362 56.69362H226.77448V127.56062H56.69362Z"/>
<path transform="matrix(1.00006,0,0,-1.00006,79.2349,129.56581)" stroke-width=".79701" stroke-linecap="butt" stroke-miterlimit="10" stroke-linejoin="miter" fill="none" stroke="#000000" d="M0 0 56.69362 56.69362"/>
<path transform="matrix(1.00006,0,0,-1.00006,79.2349,129.56581)" stroke-width=".79701" stroke-linecap="butt" stroke-miterlimit="10" stroke-linejoin="miter" fill="none" stroke="#000000" d="M170.08086 0 226.77448 56.69362"/>
<path transform="matrix(1.00006,0,0,-1.00006,79.2349,129.56581)" stroke-width=".79701" stroke-linecap="butt" stroke-miterlimit="10" stroke-linejoin="miter" fill="none" stroke="#000000" d="M170.08086 70.867 226.77448 127.56062"/>
<path transform="matrix(1.00006,0,0,-1.00006,79.2349,129.56581)" stroke-width=".79701" stroke-linecap="butt" stroke-miterlimit="10" stroke-linejoin="miter" fill="none" stroke="#000000" d="M0 70.867 56.69362 127.56062"/>
<path transform="matrix(1.00006,0,0,-1.00006,79.2349,129.56581)" stroke-width=".79701" stroke-linecap="butt" stroke-miterlimit="10" stroke-linejoin="miter" fill="none" stroke="#ff0000" d="M.70735-14.17339H169.37349"/>
<path transform="matrix(-1.00006,-0,0,1.00006,79.94229,143.74005)" stroke-width=".6376" stroke-linecap="round" stroke-linejoin="round" fill="none" stroke="#ff0000" d="M-1.55415 2.0722C-1.42464 1.29512 0 .1295 .38852 0 0-.1295-1.42464-1.29512-1.55415-2.0722"/>
<path transform="matrix(1.00006,0,0,-1.00006,248.61856,143.74005)" stroke-width=".6376" stroke-linecap="round" stroke-linejoin="round" fill="none" stroke="#ff0000" d="M-1.55415 2.0722C-1.42464 1.29512 0 .1295 .38852 0 0-.1295-1.42464-1.29512-1.55415-2.0722"/>
<use data-text="L" xlink:href="#font_1_71" transform="matrix(20.66374,0,0,-20.66374,128.73787,161.79975)" fill="#ff0000"/>
<use data-text="e" xlink:href="#font_1_50" transform="matrix(20.66374,0,0,-20.66374,142.70656,161.79975)" fill="#ff0000"/>
<use data-text="n" xlink:href="#font_1_77" transform="matrix(20.66374,0,0,-20.66374,153.30707,161.79975)" fill="#ff0000"/>
<use data-text="g" xlink:href="#font_1_59" transform="matrix(20.66374,0,0,-20.66374,166.22191,161.79975)" fill="#ff0000"/>
<use data-text="t" xlink:href="#font_1_105" transform="matrix(20.66374,0,0,-20.66374,177.85558,161.79975)" fill="#ff0000"/>
<use data-text="h" xlink:href="#font_1_63" transform="matrix(20.66374,0,0,-20.66374,186.9063,161.79975)" fill="#ff0000"/>
<path transform="matrix(1.00006,0,0,-1.00006,79.2349,129.56581)" stroke-width=".79701" stroke-linecap="butt" stroke-miterlimit="10" stroke-linejoin="miter" fill="none" stroke="#0000ff" d="M-7.08669 .70735V70.15965"/>
<path transform="matrix(0,1.00006,1.00006,0,72.14779,128.85842)" stroke-width=".6376" stroke-linecap="round" stroke-linejoin="round" fill="none" stroke="#0000ff" d="M-1.55415 2.0722C-1.42464 1.29512 0 .1295 .38852 0 0-.1295-1.42464-1.29512-1.55415-2.0722"/>
<path transform="matrix(0,-1.00006,-1.00006,-0,72.14779,59.401956)" stroke-width=".6376" stroke-linecap="round" stroke-linejoin="round" fill="none" stroke="#0000ff" d="M-1.55415 2.0722C-1.42464 1.29512 0 .1295 .38852 0 0-.1295-1.42464-1.29512-1.55415-2.0722"/>
<use data-text="H" xlink:href="#font_1_62" transform="matrix(20.66374,0,0,-20.66374,.216156,99.22399)" fill="#0000ff"/>
<use data-text="e" xlink:href="#font_1_50" transform="matrix(20.66374,0,0,-20.66374,18.400254,99.22399)" fill="#0000ff"/>
<use data-text="i" xlink:href="#font_1_66" transform="matrix(20.66374,0,0,-20.66374,29.000748,99.22399)" fill="#0000ff"/>
<use data-text="g" xlink:href="#font_1_59" transform="matrix(20.66374,0,0,-20.66374,35.468507,99.22399)" fill="#0000ff"/>
<use data-text="h" xlink:href="#font_1_63" transform="matrix(20.66374,0,0,-20.66374,47.102205,99.22399)" fill="#0000ff"/>
<use data-text="t" xlink:href="#font_1_105" transform="matrix(20.66374,0,0,-20.66374,59.376466,99.22399)" fill="#0000ff"/>
<path transform="matrix(1.00006,0,0,-1.00006,79.2349,129.56581)" stroke-width="1.19553" stroke-linecap="butt" stroke-miterlimit="10" stroke-linejoin="miter" fill="none" stroke="#00b300" d="M170.75713-13.49712 226.09819 41.84392"/>
<path transform="matrix(-.70714238,.70714238,.70714238,.70714238,250.00229,143.06372)" stroke-width=".9564" stroke-linecap="round" stroke-linejoin="round" fill="none" stroke="#00b300" d="M-1.91284 2.55046C-1.75343 1.59402 0 .15938 .4782 0 0-.15938-1.75343-1.59402-1.91284-2.55046"/>
<path transform="matrix(.70714238,-.70714238,-.70714238,-.70714238,305.34663,87.719409)" stroke-width=".9564" stroke-linecap="round" stroke-linejoin="round" fill="none" stroke="#00b300" d="M-1.91284 2.55046C-1.75343 1.59402 0 .15938 .4782 0 0-.15938-1.75343-1.59402-1.91284-2.55046"/>
<use data-text="W" xlink:href="#font_1_113" transform="matrix(20.66374,0,0,-20.66374,281.59303,133.65106)" fill="#00b300"/>
<use data-text="i" xlink:href="#font_1_66" transform="matrix(20.66374,0,0,-20.66374,305.6043,133.65106)" fill="#00b300"/>
<use data-text="d" xlink:href="#font_1_47" transform="matrix(20.66374,0,0,-20.66374,312.07206,133.65106)" fill="#00b300"/>
<use data-text="t" xlink:href="#font_1_105" transform="matrix(20.66374,0,0,-20.66374,324.98689,133.65106)" fill="#00b300"/>
<use data-text="h" xlink:href="#font_1_63" transform="matrix(20.66374,0,0,-20.66374,334.0376,133.65106)" fill="#00b300"/>
</svg>
