<svg xmlns="http://www.w3.org/2000/svg" xmlns:xlink="http://www.w3.org/1999/xlink" xmlns:inkscape="http://www.inkscape.org/namespaces/inkscape" version="1.1" width="117" height="108" viewBox="0 0 117 108">
<defs>
<path id="font_1_4" d="M.3889923 .40924073C.35798646 .4032135 .34199525 .3812256 .34199525 .3592224 .34199525 .33522035 .36099244 .32722474 .375 .32722474 .40299989 .32722474 .42599488 .35121156 .42599488 .3812256 .42599488 .41329957 .394989 .44140626 .34498597 .44140626 .30499269 .44140626 .25898744 .42340089 .21699524 .36221314 .20999146 .41532899 .16999817 .44140626 .12998963 .44140626 .09098816 .44140626 .070999149 .41127015 .05899048 .3892212 .041992189 .3532257 .026992798 .2932129 .026992798 .28822328 .026992798 .28422547 .0309906 .27922059 .037994386 .27922059 .04598999 .27922059 .04699707 .2802124 .052993776 .30322267 .067993167 .3632202 .08699036 .42140199 .1269989 .42140199 .15098572 .42140199 .1579895 .40422059 .1579895 .37521363 .1579895 .3532257 .147995 .31422425 .14099121 .28321839L.11299133 .17521668C.10899353 .15621948 .09799194 .11122131 .09298706 .0932312 .085998538 .067230228 .07499695 .020233155 .07499695 .0152282719 .07499695 .0012207031 .085998538-.009765625 .100997928-.009765625 .11199951-.009765625 .1309967-.0027770997 .13699341 .017227173 .13999939 .025222779 .1769867 .17622376 .18299866 .19921875 .18798828 .22122193 .19400025 .24221802 .19898987 .2642212 .20298767 .2782135 .20698548 .29421998 .20999146 .30722047 .21299744 .31622315 .23999024 .36521913 .2649994 .3872223 .2769928 .39822389 .30299378 .42140199 .34399415 .42140199 .3600006 .42140199 .37599183 .41836549 .3889923 .40924073Z"/>
<path id="font_2_4" d="M.6749878 .32421876C.68899539 .32421876 .70700076 .32421876 .70700076 .34220887 .70700076 .36120606 .6899872 .36120606 .6749878 .36120606H.085998538C.07199097 .36120606 .053985597 .36120606 .053985597 .34321595 .053985597 .32421876 .070999149 .32421876 .085998538 .32421876H.6749878M.6749878 .13780213C.68899539 .13780213 .70700076 .13780213 .70700076 .15579224 .70700076 .17480469 .6899872 .17480469 .6749878 .17480469H.085998538C.07199097 .17480469 .053985597 .17480469 .053985597 .15679932 .053985597 .13780213 .070999149 .13780213 .085998538 .13780213H.6749878Z"/>
<path id="font_2_1" d="M.12799073 .5727997C.17098999 .5588074 .20599365 .5578003 .21699524 .5578003 .32998658 .5578003 .4019928 .6409912 .4019928 .6550598 .4019928 .6590576 .3999939 .6640625 .3939972 .6640625 .3919983 .6640625 .3899994 .6640625 .3809967 .66004946 .32499696 .6358795 .2769928 .6328125 .25099183 .6328125 .18499756 .6328125 .13798523 .6530609 .11898804 .6610565 .11199951 .6640625 .10998535 .6640625 .10899353 .6640625 .100997928 .6640625 .100997928 .65805056 .100997928 .64201357V.34495545C.100997928 .32695008 .100997928 .32095338 .11299133 .32095338 .117996219 .32095338 .11898804 .32196046 .1289978 .33395387 .15699768 .37493897 .20399475 .39894105 .2539978 .39894105 .30699159 .39894105 .33299256 .34994508 .34098817 .33294679 .35798646 .29396058 .35899354 .2449646 .35899354 .20697022 .35899354 .16897583 .35899354 .11193848 .33099366 .0667572 .30899049 .03060913 .269989 .005508423 .22599793 .005508423 .1599884 .005508423 .09498596 .050689699 .07699585 .12397766 .08198547 .12197876 .08799744 .12097168 .09298706 .12097168 .10998535 .12097168 .13699341 .13098145 .13699341 .16497803 .13699341 .1929779 .117996219 .20898438 .09298706 .20898438 .07499695 .20898438 .04899597 .19998169 .04899597 .16098023 .04899597 .075790408 .116989139-.021484375 .22799683-.021484375 .34098817-.021484375 .43998719 .073791507 .43998719 .20097351 .43998719 .3199463 .3600006 .4189453 .25498963 .4189453 .19799805 .4189453 .1539917 .39393617 .12799073 .36595155V.5727997Z"/>
<path id="font_2_2" d="M.12298584 .34773255C.12298584 .60061648 .24598694 .641037 .2999878 .641037 .33599855 .641037 .37199403 .62991335 .3909912 .5996094 .3789978 .5996094 .34098817 .5996094 .34098817 .558609 .34098817 .53660586 .35598756 .51760867 .38198854 .51760867 .40699769 .51760867 .42399598 .53260806 .42399598 .56159976 .42399598 .6137543 .38598634 .66503909 .29899598 .66503909 .17298889 .66503909 .040985109 .53559878 .040985109 .31570436 .040985109 .040527345 .16099549-.021484375 .24598694-.021484375 .35499574-.021484375 .44799806 .07354736 .44799806 .2036438 .44799806 .33673097 .35499574 .42578126 .25498963 .42578126 .1659851 .42578126 .1329956 .34873963 .12298584 .32070924V.34773255M.24598694 .005508423C.18299866 .005508423 .15299988 .061538698 .14399719 .08256531 .1349945 .10858154 .125 .15760803 .125 .22766114 .125 .30670167 .16099549 .40577699 .25099183 .40577699 .30599977 .40577699 .33499146 .3687439 .34999085 .33473207 .3659973 .29769898 .3659973 .2476654 .3659973 .20463562 .3659973 .15361023 .3659973 .10858154 .34700013 .07055664 .32199098 .022521973 .28599549 .005508423 .24598694 .005508423Z"/>
<path id="font_1_1" d="M.18399048 .04798889C.18399048 .07699585 .1599884 .09700012 .13598633 .09700012 .10699463 .09700012 .08699036 .07299805 .08699036 .04899597 .08699036 .019989014 .11099243 0 .1349945 0 .1639862 0 .18399048 .023986817 .18399048 .04798889Z"/>
<path id="font_2_3" d="M.47499085 .62054446V.6435547H.23399353C.11299133 .6435547 .11099243 .6567688 .10699463 .67578127H.084991458L.053985597 .47554017H.07598877C.07899475 .49354554 .08799744 .555542 .100997928 .5665436 .10899353 .5725403 .18399048 .5725403 .19799805 .5725403H.4099884L.3039856 .42053224C.2769928 .38153077 .17599488 .21751404 .17599488 .029510498 .17599488 .018508912 .17599488-.021484375 .21699524-.021484375 .25898744-.021484375 .25898744 .017501831 .25898744 .030517579V.08052063C.25898744 .2295227 .2829895 .34553529 .32998658 .41253663L.47499085 .62054446Z"/>
<path id="font_1_2" d="M.3909912 .37597657C.37199403 .37597657 .36299134 .37597657 .34899903 .3639679 .34298707 .358963 .33198548 .34396363 .33198548 .3279724 .33198548 .30796815 .34700013 .29597474 .3659973 .29597474 .3899994 .29597474 .4169922 .31596376 .4169922 .3559723 .4169922 .40423585 .37098695 .44140626 .3019867 .44140626 .17098999 .44140626 .039993287 .29797364 .039993287 .15609741 .039993287 .06916809 .09399414-.009765625 .19599915-.009765625 .33198548-.009765625 .41799928 .09614563 .41799928 .10913086 .41799928 .11512756 .4119873 .12013245 .4079895 .12013245 .40499879 .12013245 .4039917 .119125369 .394989 .11013794 .33099366 .02520752 .23599243 .010223389 .19799805 .010223389 .1289978 .010223389 .10699463 .07017517 .10699463 .12013245 .10699463 .15509033 .12399292 .25201417 .1599884 .31996156 .18598938 .36697389 .23999024 .42140199 .30299378 .42140199 .31599427 .42140199 .37098695 .41937257 .3909912 .37597657Z"/>
<path id="font_1_3" d="M.20599365 .29335023C.20799256 .29934693 .23298645 .34936524 .269989 .38137818 .29599 .4053955 .32998658 .42140199 .36898805 .42140199 .40899659 .42140199 .4229889 .39138795 .4229889 .35136415 .4229889 .34536744 .4229889 .32536317 .41099549 .27833558L.38598634 .17529297C.37799073 .14527893 .35899354 .071258548 .35699464 .0602417 .35299684 .04524231 .34700013 .019226075 .34700013 .0152282719 .34700013 .0012207031 .35798646-.009765625 .37298585-.009765625 .40299989-.009765625 .4079895 .01322937 .4169922 .049240114L.47698976 .28834535C.47898866 .29634095 .5309906 .42140199 .6409912 .42140199 .68099978 .42140199 .69499209 .39138795 .69499209 .35136415 .69499209 .29534913 .6559906 .18629456 .6339874 .12628174 .625 .102264408 .6199951 .089263919 .6199951 .071258548 .6199951 .026229859 .651001-.009765625 .69898989-.009765625 .7919922-.009765625 .82699587 .13728333 .82699587 .14328003 .82699587 .14828491 .82299807 .15228272 .81700137 .15228272 .80799868 .15228272 .8069916 .14929199 .8019867 .13227844 .7789917 .052246095 .74198916 .010223389 .70199587 .010223389 .69200137 .010223389 .6759949 .011230469 .6759949 .04324341 .6759949 .069244388 .6879883 .101257327 .69200137 .11227417 .70999148 .16029358 .7549896 .27833558 .7549896 .33636476 .7549896 .39639283 .7200012 .44140626 .6439972 .44140626 .57699587 .44140626 .522995 .4033966 .48298646 .34436036 .47999574 .39839173 .44699098 .44140626 .37199403 .44140626 .2829895 .44140626 .23599243 .37838746 .21798706 .35336305 .21499634 .4104004 .17399597 .44140626 .12998963 .44140626 .100997928 .44140626 .07798767 .42739869 .05899048 .38938905 .040985109 .35336305 .026992798 .29234315 .026992798 .28834535 .026992798 .28434754 .0309906 .27934266 .037994386 .27934266 .04598999 .27934266 .04699707 .28033448 .052993776 .30334474 .067993167 .36238099 .08699036 .42140199 .1269989 .42140199 .1499939 .42140199 .1579895 .4053955 .1579895 .37538148 .1579895 .35336305 .147995 .31436158 .14099121 .28334046L.11299133 .17529297C.10899353 .15628052 .09799194 .11126709 .09298706 .09326172 .085998538 .06724548 .07499695 .020233155 .07499695 .0152282719 .07499695 .0012207031 .085998538-.009765625 .100997928-.009765625 .11299133-.009765625 .1269989-.003768921 .1349945 .011230469 .13699341 .016235352 .1459961 .051239015 .15098572 .071258548L.17298889 .1612854 .20599365 .29335023Z"/>
<path id="font_3_85" d="M.38198854-.23503113C.38198854-.23002625 .3789978-.22503662 .3789978-.22503662 .34999085-.19802857 .2849884-.13702393 .24299622-.009033203 .21699524 .06997681 .20498657 .16197205 .20498657 .24998474 .20498657 .4469757 .2559967 .60398867 .3659973 .7149811 .3809967 .72998049 .38198854 .73098757 .38198854 .73599246 .38198854 .74697878 .37199403 .75 .3639984 .75 .34700013 .75 .30499269 .7129822 .2869873 .6959839 .1309967 .5409851 .10798645 .35697938 .10798645 .25097657 .10798645 .12597656 .14099121 .015975953 .18798828-.06703186 .2539978-.18203736 .34498597-.24902344 .3639984-.24902344 .37199403-.24902344 .38198854-.24603272 .38198854-.23503113Z"/>
<path id="font_3_28" d="M.5529938 .023986817C.5529938 .04699707 .5399933 .04699707 .5269928 .04699707 .46598817 .04798889 .46598817 .06100464 .46598817 .083999637V.29907228C.46598817 .3881073 .394989 .453125 .24598694 .453125 .18899536 .453125 .066986087 .44911195 .066986087 .36109925 .066986087 .3170929 .101989749 .29808045 .1289978 .29808045 .1599884 .29808045 .19198609 .3190918 .19198609 .36109925 .19198609 .39111329 .17298889 .40811158 .16999817 .41011048 .19799805 .41612245 .22999573 .41711427 .24198914 .41711427 .31698609 .41711427 .35198976 .3751068 .35198976 .29907228V.26506043C.2809906 .2620697 .026992798 .25306703 .026992798 .10801697 .026992798 .012130737 .15098572-.005859375 .21998596-.005859375 .2999878-.005859375 .34700013 .035125734 .36898805 .07713318 .36898805 .04598999 .36898805 0 .47299195 0H.5209961C.54100039 0 .5529938 0 .5529938 .023986817M.35198976 .13899231C.35198976 .043151857 .2599945 .030136109 .23498535 .030136109 .18399048 .030136109 .14399719 .06517029 .14399719 .10922241 .14399719 .21734619 .3019867 .23136902 .35198976 .234375V.13899231Z"/>
<path id="font_3_86" d="M.33799745 .24998474C.33799745 .37498475 .30499269 .48498536 .2579956 .5679779 .19198609 .6829834 .100997928 .75 .08198547 .75 .07398987 .75 .06399536 .74697878 .06399536 .73599246 .06399536 .73098757 .06399536 .72898867 .08099365 .7129822 .20698548 .5849762 .24099732 .40797425 .24099732 .25097657 .24099732 .053970338 .18998719-.103027347 .07998657-.21403504 .06498718-.22903443 .06399536-.23002625 .06399536-.23503113 .06399536-.24603272 .07398987-.24902344 .08198547-.24902344 .09899902-.24902344 .14099121-.21203614 .15899658-.19502259 .31498719-.040023805 .33799745 .14398194 .33799745 .24998474Z"/>
</defs>
<path transform="matrix(1.00002,0,0,-1.00005,58.59079,49.41782)" d="M-56.69362 0C-56.69362-31.31142-31.3114-56.69363 0-56.69363 31.31143-56.69363 56.69365-31.31142 56.69365 0H0Z" fill="#0000ff"/>
<path transform="matrix(1.00002,0,0,-1.00005,58.59079,49.41782)" stroke-width=".79701" stroke-linecap="butt" stroke-miterlimit="10" stroke-linejoin="miter" fill="none" stroke="#000000" d="M0 0H55.98625"/>
<path transform="matrix(1.00002,0,0,-1.00005,114.57816,49.41782)" stroke-width=".6376" stroke-linecap="round" stroke-linejoin="round" fill="none" stroke="#000000" d="M-1.55415 2.0722C-1.42464 1.29512 0 .1295 .38852 0 0-.1295-1.42464-1.29512-1.55415-2.0722"/>
<use data-text="r" xlink:href="#font_1_4" transform="matrix(11.95544,0,0,-11.955797,58.21978,45.698637)"/>
<use data-text="=" xlink:href="#font_2_4" transform="matrix(11.95544,0,0,-11.955797,67.14097,45.698637)"/>
<use data-text="5" xlink:href="#font_2_1" transform="matrix(11.95544,0,0,-11.955797,79.55071,45.698637)"/>
<use data-text="6" xlink:href="#font_2_2" transform="matrix(11.95544,0,0,-11.955797,85.396938,45.698637)"/>
<use data-text="." xlink:href="#font_1_1" transform="matrix(11.95544,0,0,-11.955797,91.27245,45.698637)"/>
<use data-text="7" xlink:href="#font_2_3" transform="matrix(11.95544,0,0,-11.955797,94.52451,45.698637)"/>
<use data-text="c" xlink:href="#font_1_2" transform="matrix(11.95544,0,0,-11.955797,100.37763,45.698637)"/>
<use data-text="m" xlink:href="#font_1_3" transform="matrix(11.95544,0,0,-11.955797,105.410869,45.698637)"/>
<path transform="matrix(1.00002,0,0,-1.00005,58.59079,49.41782)" d="M1.99255 0C1.99255 1.10046 1.10046 1.99255 0 1.99255-1.10046 1.99255-1.99255 1.10046-1.99255 0-1.99255-1.10046-1.10046-1.99255 0-1.99255 1.10046-1.99255 1.99255-1.10046 1.99255 0ZM0 0"/>
<use data-text="(" xlink:href="#font_3_85" transform="matrix(9.962799,0,0,-9.963098,51.352647,9.39082)"/>
<use data-text="a" xlink:href="#font_3_28" transform="matrix(9.962799,0,0,-9.963098,55.806016,9.39082)"/>
<use data-text=")" xlink:href="#font_3_86" transform="matrix(9.962799,0,0,-9.963098,61.375215,9.39082)"/>
</svg>
