<svg xmlns="http://www.w3.org/2000/svg" xmlns:xlink="http://www.w3.org/1999/xlink" xmlns:inkscape="http://www.inkscape.org/namespaces/inkscape" version="1.1" width="146" height="146" viewBox="0 0 146 146">
<path transform="matrix(1.00003,0,0,-1,73.163639,72.865009)" stroke-width=".79701" stroke-linecap="butt" stroke-miterlimit="10" stroke-linejoin="miter" fill="none" stroke="#000000" d="M-70.867-70.867V70.867H70.867V-70.867ZM70.867 70.867"/>
<path transform="matrix(1.00003,0,0,-1,73.163639,72.865009)" stroke-width=".3985" stroke-linecap="butt" stroke-dasharray="2.98883,2.98883" stroke-miterlimit="10" stroke-linejoin="miter" fill="none" stroke="#000000" d="M-56.69362-70.867V70.867"/>
<path transform="matrix(1.00003,0,0,-1,73.163639,72.865009)" stroke-width=".3985" stroke-linecap="butt" stroke-dasharray="2.98883,2.98883" stroke-miterlimit="10" stroke-linejoin="miter" fill="none" stroke="#000000" d="M-28.3468-70.867V70.867"/>
<path transform="matrix(1.00003,0,0,-1,73.163639,72.865009)" stroke-width=".3985" stroke-linecap="butt" stroke-dasharray="2.98883,2.98883" stroke-miterlimit="10" stroke-linejoin="miter" fill="none" stroke="#000000" d="M0-70.867V70.867"/>
<path transform="matrix(1.00003,0,0,-1,73.163639,72.865009)" stroke-width=".3985" stroke-linecap="butt" stroke-dasharray="2.98883,2.98883" stroke-miterlimit="10" stroke-linejoin="miter" fill="none" stroke="#000000" d="M28.3468-70.867V70.867"/>
<path transform="matrix(1.00003,0,0,-1,73.163639,72.865009)" stroke-width=".3985" stroke-linecap="butt" stroke-dasharray="2.98883,2.98883" stroke-miterlimit="10" stroke-linejoin="miter" fill="none" stroke="#000000" d="M56.69362-70.867V70.867"/>
<path transform="matrix(1.00003,0,0,-1,73.163639,72.865009)" stroke-width=".3985" stroke-linecap="butt" stroke-dasharray="2.98883,2.98883" stroke-miterlimit="10" stroke-linejoin="miter" fill="none" stroke="#000000" d="M-70.867-56.69362H70.867"/>
<path transform="matrix(1.00003,0,0,-1,73.163639,72.865009)" stroke-width=".3985" stroke-linecap="butt" stroke-dasharray="2.98883,2.98883" stroke-miterlimit="10" stroke-linejoin="miter" fill="none" stroke="#000000" d="M-70.867-28.3468H70.867"/>
<path transform="matrix(1.00003,0,0,-1,73.163639,72.865009)" stroke-width=".3985" stroke-linecap="butt" stroke-dasharray="2.98883,2.98883" stroke-miterlimit="10" stroke-linejoin="miter" fill="none" stroke="#000000" d="M-70.867 0H70.867"/>
<path transform="matrix(1.00003,0,0,-1,73.163639,72.865009)" stroke-width=".3985" stroke-linecap="butt" stroke-dasharray="2.98883,2.98883" stroke-miterlimit="10" stroke-linejoin="miter" fill="none" stroke="#000000" d="M-70.867 28.3468H70.867"/>
<path transform="matrix(1.00003,0,0,-1,73.163639,72.865009)" stroke-width=".3985" stroke-linecap="butt" stroke-dasharray="2.98883,2.98883" stroke-miterlimit="10" stroke-linejoin="miter" fill="none" stroke="#000000" d="M-70.867 56.69362H70.867"/>
<path transform="matrix(1.00003,0,0,-1,73.163639,72.865009)" stroke-width=".79701" stroke-linecap="butt" stroke-miterlimit="10" stroke-linejoin="miter" fill="none" stroke="#ff0000" d="M-56.69362 0C-55.04173 13.7655-50.77951 25.83852-42.5202 36.85092-34.2609 47.86333-26.83768 53.94052-14.17339 56.69362-1.50911 59.4467 11.66512 57.08119 22.67752 51.02432 33.68991 44.96745 40.31775 35.97377 42.5202 25.51193 44.72264 15.05011 37.8704 4.32314 34.01608-2.83484 30.16176-9.99283 27.08249-8.58545 22.67752-11.33855 18.27254-14.09163 20.1485-10.95139 11.33855-17.00824 2.52858-23.0651-10.56387-39.21654-22.67752-42.5202-34.79115-45.82387-44.41689-42.27539-51.02432-34.01608-57.63176-25.75676-58.34549-13.7655-56.69362 0Z"/>
</svg>
