<svg xmlns="http://www.w3.org/2000/svg" xmlns:xlink="http://www.w3.org/1999/xlink" xmlns:inkscape="http://www.inkscape.org/namespaces/inkscape" version="1.1" width="336" height="279" viewBox="0 0 336 279">
<defs>
<path id="font_1_111" d="M.7299957 .6516113V.6826172C.69898989 .680603 .6589966 .6796112 .6329956 .6796112L.5189972 .6826172V.6516113C.57099917 .6506195 .59199526 .6246033 .59199526 .6016083 .59199526 .5936127 .58898928 .5876007 .58699038 .581604L.4039917 .09954834 .21299744 .60461428C.20698548 .61860659 .20698548 .62260439 .20698548 .62260439 .20698548 .6516113 .2639923 .6516113 .2889862 .6516113V.6826172C.25299073 .6796112 .18399048 .6796112 .1459961 .6796112L.018997193 .6826172V.6516113C.083999637 .6516113 .102996829 .6516113 .116989139 .6136017L.34899903-.00047302247C.35598756-.019470215 .36099244-.022460938 .37399293-.022460938 .3909912-.022460938 .3929901-.017471314 .397995-.0034637452L.62098696 .58461C.6349945 .62161257 .6619873 .6506195 .7299957 .6516113Z"/>
</defs>
<path transform="matrix(1.00003,0,0,-1,97.25148,181.543)" d="M0 0H141.73404V85.04042H0Z" fill="#bfbfbf"/>
<path transform="matrix(1.00003,0,0,-1,97.25148,181.543)" d="M0 85.04042H141.73404L70.867 170.08086Z" fill="#0000ff"/>
<path transform="matrix(1.00003,0,0,-1,97.25148,181.543)" d="M141.73404 85.04042V0L226.77448 42.5202Z" fill="#ff8000"/>
<path transform="matrix(1.00003,0,0,-1,97.25148,181.543)" d="M0 0H141.73404L70.867-85.04042Z" fill="#00ff00"/>
<path transform="matrix(1.00003,0,0,-1,97.25148,181.543)" d="M0 0V85.04042L-85.04042 42.5202Z" fill="#fff200"/>
<path transform="matrix(1.00003,0,0,-1,97.25148,181.543)" stroke-width=".79701" stroke-linecap="butt" stroke-miterlimit="10" stroke-linejoin="miter" fill="none" stroke="#000000" d="M0 0H141.73404V85.04042H0Z"/>
<path transform="matrix(1.00003,0,0,-1,97.25148,181.543)" stroke-width=".79701" stroke-linecap="butt" stroke-miterlimit="10" stroke-linejoin="miter" fill="none" stroke="#000000" d="M0 85.04042H141.73404L70.867 170.08086Z"/>
<path transform="matrix(1.00003,0,0,-1,97.25148,181.543)" stroke-width=".79701" stroke-linecap="butt" stroke-miterlimit="10" stroke-linejoin="miter" fill="none" stroke="#000000" d="M141.73404 85.04042V0L226.77448 42.5202Z"/>
<path transform="matrix(1.00003,0,0,-1,97.25148,181.543)" stroke-width=".79701" stroke-linecap="butt" stroke-miterlimit="10" stroke-linejoin="miter" fill="none" stroke="#000000" d="M0 0H141.73404L70.867-85.04042Z"/>
<path transform="matrix(1.00003,0,0,-1,97.25148,181.543)" stroke-width=".79701" stroke-linecap="butt" stroke-miterlimit="10" stroke-linejoin="miter" fill="none" stroke="#000000" d="M0 0V85.04042L-85.04042 42.5202Z"/>
<use data-text="V" xlink:href="#font_1_111" transform="matrix(9.962899,0,0,-9.9626,164.38449,7.722992)"/>
<use data-text="V" xlink:href="#font_1_111" transform="matrix(9.962899,0,0,-9.9626,327.5524,142.316)"/>
<use data-text="V" xlink:href="#font_1_111" transform="matrix(9.962899,0,0,-9.9626,164.38449,276.908)"/>
<use data-text="V" xlink:href="#font_1_111" transform="matrix(9.962899,0,0,-9.9626,1.2165985,142.316)"/>
</svg>
