<svg xmlns="http://www.w3.org/2000/svg" xmlns:xlink="http://www.w3.org/1999/xlink" xmlns:inkscape="http://www.inkscape.org/namespaces/inkscape" version="1.1" width="207" height="150" viewBox="0 0 207 150">
<path transform="matrix(1,0,0,-1.00009,35.234,115.59396)" stroke-width="1.19553" stroke-linecap="butt" stroke-miterlimit="10" stroke-linejoin="miter" fill="none" stroke="#000000" d="M0 0H170.08086V113.38724H0Z"/>
<path transform="matrix(1,0,0,-1.00009,35.234,115.59396)" stroke-width="1.19553" stroke-linecap="butt" stroke-miterlimit="10" stroke-linejoin="miter" fill="none" stroke="#000000" d="M-32.74007-32.74007H137.34078V80.64716H-32.74007Z"/>
<path transform="matrix(1,0,0,-1.00009,35.234,115.59396)" stroke-width="1.19553" stroke-linecap="butt" stroke-miterlimit="10" stroke-linejoin="miter" fill="none" stroke="#000000" d="M0 0-32.74007-32.74007"/>
<path transform="matrix(1,0,0,-1.00009,35.234,115.59396)" stroke-width="1.19553" stroke-linecap="butt" stroke-miterlimit="10" stroke-linejoin="miter" fill="none" stroke="#000000" d="M170.08086 0 137.34078-32.74007"/>
<path transform="matrix(1,0,0,-1.00009,35.234,115.59396)" stroke-width="1.19553" stroke-linecap="butt" stroke-miterlimit="10" stroke-linejoin="miter" fill="none" stroke="#000000" d="M170.08086 113.38724 137.34078 80.64716"/>
<path transform="matrix(1,0,0,-1.00009,35.234,115.59396)" stroke-width="1.19553" stroke-linecap="butt" stroke-miterlimit="10" stroke-linejoin="miter" fill="none" stroke="#000000" d="M0 113.38724-32.74007 80.64716"/>
</svg>
