<svg xmlns="http://www.w3.org/2000/svg" xmlns:xlink="http://www.w3.org/1999/xlink" xmlns:inkscape="http://www.inkscape.org/namespaces/inkscape" version="1.1" width="175" height="174" viewBox="0 0 175 174">
<defs>
<path id="font_1_82" d="M.49398805 0V.04699707H.35398866V.6231079C.35398866 .6452179 .35398866 .65527346 .32798768 .65527346 .31698609 .65527346 .31498719 .65527346 .30599977 .6482239 .22898865 .5909424 .12599182 .5909424 .10499573 .5909424H.084991458V.5439453H.10499573C.12098694 .5439453 .17599488 .54493716 .23498535 .5639343V.04699707H.09599304V0C.13999939 .0029907227 .24598694 .0029907227 .29499818 .0029907227 .34399415 .0029907227 .44999696 .0029907227 .49398805 0Z"/>
<path id="font_1_107" d="M.5169983 .22200012H.46998597C.46699525 .20199585 .45799256 .13798523 .44400025 .1309967 .43299867 .125 .35798646 .125 .34199525 .125H.19499207C.24198914 .1639862 .2939911 .20698548 .33898927 .23999024 .45298768 .3242035 .5169983 .37124635 .5169983 .4663086 .5169983 .5812988 .41299439 .65527346 .27198792 .65527346 .15098572 .65527346 .056991579 .593277 .056991579 .50331118 .056991579 .44430543 .10499573 .42930604 .1289978 .42930604 .16099549 .42930604 .20098877 .4513092 .20098877 .50131228 .20098877 .55329897 .15899658 .5693054 .14399719 .5733032 .17298889 .5972748 .21099854 .6082611 .24699402 .6082611 .33299256 .6082611 .3789978 .54029849 .3789978 .4653015 .3789978 .39627076 .34098817 .3282013 .2709961 .25712586L.069992069 .051986696C.056991579 .039993287 .056991579 .037994386 .056991579 .017990113V0H.48599244L.5169983 .22200012Z"/>
<path id="font_1_106" d="M.526001 .18013C.526001 .23513794 .49699403 .32113648 .35198976 .35212709 .42099 .3731537 .49398805 .4303589 .49398805 .5164032 .49398805 .5933533 .41799928 .65527346 .2769928 .65527346 .1579895 .65527346 .07998657 .59135439 .07998657 .5113983 .07998657 .46839906 .11099243 .44140626 .14898682 .44140626 .19400025 .44140626 .21899414 .47340394 .21899414 .51039126 .21899414 .56840518 .16499329 .5793915 .16099549 .58039858 .19599915 .6082916 .23999024 .616272 .2709961 .616272 .35398866 .616272 .35699464 .5523987 .35699464 .5193939 .35699464 .50639346 .35598756 .3751526 .2519989 .36914063 .21099854 .36712647 .20899964 .36613465 .20399475 .36512757 .19400025 .36413575 .19198609 .35412599 .19198609 .34812928 .19198609 .33013917 .20199585 .33013917 .21998596 .33013917H.2639923C.37298585 .33013917 .37298585 .23243714 .37298585 .18159485 .37298585 .13456726 .37298585 .03225708 .2689972 .03225708 .24299622 .03225708 .19099427 .03627014 .14299011 .06636047 .17599488 .07537842 .20098877 .10046387 .20098877 .14160156 .20098877 .18644715 .16899109 .217453 .125 .217453 .08299255 .217453 .04798889 .19044495 .04798889 .13945008 .04798889 .049346925 .14498902-.0107421879 .27398683-.0107421879 .45298768-.010406494 .526001 .08959961 .526001 .18058777V.18013Z"/>
<path id="font_1_57" d="M.5419922 0V.04699707H.44499208V.15611267H.5419922V.203125H.44499208V.62423709C.44499208 .6512451 .44299317 .65625 .4149933 .65625 .3939972 .65625 .3929901 .6552429 .3809967 .6402283L.03199768 .203125V.15611267H.31999208V.04699707H.20799256V0C.24598694 .0029907227 .33699037 .0029907227 .37998963 .0029907227 .41999818 .0029907227 .5069885 .0029907227 .5419922 0M.33099366 .203125H.083999637L.33099366 .51319888V.203125Z"/>
<path id="font_1_56" d="M.5169983 .20121765C.5169983 .31617738 .43798829 .4091797 .2899933 .4091797 .26098634 .4091797 .20799256 .4061737 .16099549 .37417604V.5060425C.18899536 .5010376 .19999695 .4990387 .23399353 .4990387 .37998963 .4990387 .47200013 .6120453 .47200013 .637146 .47200013 .64419558 .46998597 .65527346 .45799256 .65527346 .45498658 .65527346 .45399476 .65527346 .44299317 .6512451 .38598634 .62908938 .33299256 .6230469 .2899933 .6230469 .21398926 .6230469 .16099549 .6421814 .1349945 .6512451 .12599182 .65426638 .125 .65527346 .12199402 .65527346 .10798645 .65527346 .10798645 .64419558 .10798645 .6280823V.33618165C.10798645 .31817628 .10798645 .30519105 .12998963 .30519105 .14299011 .30519105 .14498902 .30918885 .1519928 .31718446 .19099427 .36317445 .24499512 .37316896 .28599549 .37316896 .375 .37316896 .375 .28518678 .375 .20521546 .375 .13223267 .375 .03225708 .25498963 .03225708 .23098755 .03225708 .16799927 .037246705 .12599182 .09423828 .1619873 .09648132 .19099427 .1204834 .19099427 .16148377 .19099427 .21447754 .147995 .22949219 .12399292 .22949219 .10899353 .22949219 .056991579 .2204895 .056991579 .15948487 .056991579 .074417117 .1349945-.0107421879 .25898744-.0107421879 .4189911-.0107421879 .5169983 .079437259 .5169983 .20147705V.20121765Z"/>
<path id="font_1_101" d="M.526001 .20495606C.526001 .34495545 .4249878 .41796876 .3039856 .41796876 .28199769 .41781617 .22599793 .41781617 .18399048 .34181214V.36080934C.18399048 .47483827 .20498657 .51797488 .21199036 .53302 .23599243 .5801544 .2899933 .616272 .35099793 .616272 .36898805 .616272 .40299989 .6132202 .42599488 .58984377 .3899994 .58483889 .37199403 .5578308 .37199403 .52783206 .37199403 .49383546 .394989 .46583558 .43399049 .46583558 .47299195 .46583558 .49699403 .49183656 .49699403 .52983096 .49699403 .59187319 .45498658 .65527346 .34899903 .65527346 .21299744 .65527346 .04798889 .5688324 .04798889 .3170166 .04798889 .23808289 .056991579 .15814209 .09799194 .08920288 .14498902 .013244629 .22099304-.0107421879 .29100038-.0107421879 .42999269-.0107421879 .526001 .07121277 .526001 .20510865V.20495606M.3899994 .20710755C.3899994 .10618591 .3899994 .03225708 .2889862 .03225708 .23699951 .03225708 .20999146 .07121277 .20199585 .08720398 .18598938 .11917114 .18598938 .19212342 .18598938 .21009827 .18598938 .33499146 .23999024 .381958 .29499818 .381958 .3899994 .381958 .3899994 .3070221 .3899994 .20710755Z"/>
<path id="font_1_100" d="M.55799868 .6435547H.35398866C.33099366 .6435547 .18399048 .6485901 .16999817 .6526184 .14898682 .6566467 .147995 .6656952 .1459961 .67578127H.09899902L.06399536 .42167665H.11099243C.12098694 .49757386 .13398743 .5105591 .13798523 .512558 .14898682 .5185547 .22999573 .5185547 .24699402 .5185547H.41600038C.397995 .49658204 .3789978 .4756012 .36099244 .45362855 .2649994 .34178163 .19299317 .20695496 .19299317 .059158327 .19299317-.0107421879 .24899292-.0107421879 .25498963-.0107421879 .2709961-.0107421879 .31799317-.0057525637 .31799317 .060150148V.10609436C.31799317 .15403748 .32099916 .20196533 .32798768 .24890137 .33699037 .31581117 .35798646 .3747406 .3929901 .41567994L.5479889 .59555056C.55799868 .6065521 .55799868 .608551 .55799868 .6435547Z"/>
<path id="font_1_51" d="M.526001 .1875C.526001 .29545594 .44198609 .3424225 .3929901 .3704071 .46299745 .40638734 .49398805 .45036317 .49398805 .5083313 .49398805 .61027529 .40299989 .65527346 .2889862 .65527346 .1499939 .65527346 .07998657 .57629397 .07998657 .48034669 .07998657 .43637086 .09799194 .3734131 .17599488 .32943727 .09199524 .29244996 .04798889 .23548889 .04798889 .16145325 .04798889 .040267946 .1559906-.0107421879 .2849884-.0107421879 .44499208-.0107421879 .526001 .077316287 .526001 .1875M.4189911 .5073242C.4189911 .45835877 .3929901 .42437745 .34899903 .395401L.19898987 .4793396C.18299866 .4883423 .15499878 .5053253 .15499878 .53930667 .15499878 .6092682 .24499512 .616272 .2849884 .616272 .36898805 .616272 .4189911 .57528689 .4189911 .5073242M.43998719 .13240052C.43998719 .04827881 .34599305 .03225708 .2889862 .03225708 .19099427 .03225708 .13398743 .08332825 .13398743 .16145325 .13398743 .2394867 .18699646 .28245545 .22200012 .30244447L.35899354 .2264862C.40299989 .20149231 .43998719 .18048096 .43998719 .13240052Z"/>
<path id="font_1_78" d="M.526001 .32948304C.526001 .39642335 .526001 .65527346 .2889862 .65527346 .14698792 .65527346 .04798889 .57429507 .04798889 .44039918 .04798889 .3025055 .14698792 .22753906 .269989 .22753906 .30499269 .22753906 .35198976 .23452759 .3899994 .3045044V.28251649C.3899994 .20959473 .3809967 .1506958 .3659973 .11669922 .34899903 .077697757 .30599977 .03225708 .23699951 .03225708 .21899414 .03225708 .18299866 .0342865 .15299988 .05470276 .16499329 .05770874 .20199585 .07170105 .20199585 .11669922 .20199585 .1506958 .1789856 .17871094 .13999939 .17871094 .100997928 .17871094 .07699585 .15270996 .07699585 .11470032 .07699585 .046554567 .12799073-.0107421879 .23899842-.0107421879 .36898805-.0107421879 .526001 .07369995 .526001 .32948304M.3889923 .42840577C.3889923 .365448 .36299134 .26353456 .2789917 .26353456 .18399048 .26353456 .18399048 .33847047 .18399048 .43840028 .18399048 .5363312 .18399048 .616272 .29100038 .616272 .34999085 .616272 .37298585 .5633087 .3769989 .5533142 .3889923 .52033999 .3889923 .46238709 .3889923 .42840577Z"/>
<path id="font_1_121" d="M.5289917 .31939698C.5289917 .41644288 .5279999 .65527346 .2869873 .65527346 .04598999 .65527346 .04499817 .41744996 .04499817 .31939698 .04499817 .22035218 .04598999-.0107421879 .2869873-.0107421879 .5269928-.0107421879 .5289917 .2193451 .5289917 .31939698M.40098573 .33140565C.40098573 .27537538 .40098573 .18432617 .3939972 .13230896 .37998963 .039260866 .31698609 .025253296 .2869873 .025253296 .25099183 .025253296 .19499207 .04725647 .18199158 .12030029 .17298889 .1723175 .17298889 .27638246 .17298889 .33140565 .17298889 .40344239 .17298889 .46847535 .18099976 .5205078 .19299317 .6092987 .2630005 .6192627 .2869873 .6192627 .32398988 .6192627 .36499024 .6003418 .38398744 .5565033 .40098573 .51950076 .40098573 .41345216 .40098573 .33140565Z"/>
</defs>
<path transform="matrix(1.00008,0,0,-1.00005,87.54147,87.240558)" stroke-width="1.19553" stroke-linecap="butt" stroke-miterlimit="10" stroke-linejoin="miter" fill="none" stroke="#bf0040" d="M-85.04042-85.04042H85.04042M-85.04042-56.69362H85.04042M-85.04042-28.3468H85.04042M-85.04042 0H85.04042M-85.04042 28.3468H85.04042M-85.04042 56.69362H85.04042M-85.04042 85.03047H85.04042M-85.04042-85.04042V85.04042M-56.69362-85.04042V85.04042M-28.3468-85.04042V85.04042M0-85.04042V85.04042M28.3468-85.04042V85.04042M56.69362-85.04042V85.04042M85.03047-85.04042V85.04042M85.04042 85.04042"/>
<path transform="matrix(1.00008,0,0,-1.00005,87.54147,87.240558)" stroke-width="1.19553" stroke-linecap="butt" stroke-miterlimit="10" stroke-linejoin="miter" fill="none" stroke="#0000ff" d="M-56.69362 0C-56.69362 28.3468-42.5202 56.69362-28.3468 56.69362-14.17339 70.867 14.17339 70.867 28.3468 56.69362 42.5202 56.69362 56.69362 28.3468 56.69362 0 56.69362-28.3468 42.5202-56.69362 28.3468-56.69362 14.17339-70.867-14.17339-70.867-28.3468-56.69362-42.5202-56.69362-56.69362-28.3468-56.69362 0"/>
<use data-text="1" xlink:href="#font_1_82" transform="matrix(9.963397,0,0,-9.963098,70.502109,47.981595)"/>
<use data-text="2" xlink:href="#font_1_107" transform="matrix(9.963397,0,0,-9.963098,98.85138,47.981595)"/>
<use data-text="3" xlink:href="#font_1_106" transform="matrix(9.963397,0,0,-9.963098,70.502109,76.27501)"/>
<use data-text="4" xlink:href="#font_1_57" transform="matrix(9.963397,0,0,-9.963098,98.85138,76.33401)"/>
<use data-text="5" xlink:href="#font_1_56" transform="matrix(9.963397,0,0,-9.963098,70.502109,104.62242)"/>
<use data-text="6" xlink:href="#font_1_101" transform="matrix(9.963397,0,0,-9.963098,98.85138,104.62242)"/>
<use data-text="7" xlink:href="#font_1_100" transform="matrix(9.963397,0,0,-9.963098,70.502109,133.07584)"/>
<use data-text="8" xlink:href="#font_1_51" transform="matrix(9.963397,0,0,-9.963098,98.85138,132.97084)"/>
<use data-text="1" xlink:href="#font_1_82" transform="matrix(9.963397,0,0,-9.963098,98.85138,19.633179)" fill="#0000ff"/>
<use data-text="2" xlink:href="#font_1_107" transform="matrix(9.963397,0,0,-9.963098,70.502109,19.633179)" fill="#0000ff"/>
<use data-text="3" xlink:href="#font_1_106" transform="matrix(9.963397,0,0,-9.963098,42.15384,47.92659)" fill="#0000ff"/>
<use data-text="4" xlink:href="#font_1_57" transform="matrix(9.963397,0,0,-9.963098,42.15384,76.33401)" fill="#0000ff"/>
<use data-text="5" xlink:href="#font_1_56" transform="matrix(9.963397,0,0,-9.963098,42.15384,104.62242)" fill="#0000ff"/>
<use data-text="6" xlink:href="#font_1_101" transform="matrix(9.963397,0,0,-9.963098,42.15384,132.97084)" fill="#0000ff"/>
<use data-text="7" xlink:href="#font_1_100" transform="matrix(9.963397,0,0,-9.963098,70.502109,161.42426)" fill="#0000ff"/>
<use data-text="8" xlink:href="#font_1_51" transform="matrix(9.963397,0,0,-9.963098,98.85138,161.31925)" fill="#0000ff"/>
<use data-text="9" xlink:href="#font_1_78" transform="matrix(9.963397,0,0,-9.963098,127.200649,132.97084)" fill="#0000ff"/>
<use data-text="1" xlink:href="#font_1_82" transform="matrix(9.963397,0,0,-9.963098,124.33641,104.62242)" fill="#0000ff"/>
<use data-text="0" xlink:href="#font_1_121" transform="matrix(9.963397,0,0,-9.963098,130.06539,104.62242)" fill="#0000ff"/>
<use data-text="1" xlink:href="#font_1_82" transform="matrix(9.963397,0,0,-9.963098,124.33641,76.32901)" fill="#0000ff"/>
<use data-text="1" xlink:href="#font_1_82" transform="matrix(9.963397,0,0,-9.963098,130.06539,76.32901)" fill="#0000ff"/>
<use data-text="1" xlink:href="#font_1_82" transform="matrix(9.963397,0,0,-9.963098,124.33641,47.981595)" fill="#0000ff"/>
<use data-text="2" xlink:href="#font_1_107" transform="matrix(9.963397,0,0,-9.963098,130.06539,47.981595)" fill="#0000ff"/>
</svg>
