<svg xmlns="http://www.w3.org/2000/svg" xmlns:xlink="http://www.w3.org/1999/xlink" xmlns:inkscape="http://www.inkscape.org/namespaces/inkscape" version="1.1" width="175" height="174" viewBox="0 0 175 174">
<path transform="matrix(1.00008,0,0,-1.00005,87.54147,87.240558)" stroke-width="1.19553" stroke-linecap="butt" stroke-miterlimit="10" stroke-linejoin="miter" fill="none" stroke="#bf0040" d="M-85.04042-85.04042H85.04042M-85.04042-56.69362H85.04042M-85.04042-28.3468H85.04042M-85.04042 0H85.04042M-85.04042 28.3468H85.04042M-85.04042 56.69362H85.04042M-85.04042 85.03047H85.04042M-85.04042-85.04042V85.04042M-56.69362-85.04042V85.04042M-28.3468-85.04042V85.04042M0-85.04042V85.04042M28.3468-85.04042V85.04042M56.69362-85.04042V85.04042M85.03047-85.04042V85.04042M85.04042 85.04042"/>
<path transform="matrix(1.00008,0,0,-1.00005,87.54147,87.240558)" stroke-width="1.19553" stroke-linecap="butt" stroke-miterlimit="10" stroke-linejoin="miter" fill="none" stroke="#0000ff" d="M-56.69362 0C-56.69362 28.3468-42.5202 56.69362-28.3468 56.69362-14.17339 70.867 14.17339 70.867 28.3468 56.69362 42.5202 56.69362 56.69362 28.3468 56.69362 0 56.69362-28.3468 42.5202-56.69362 28.3468-56.69362 14.17339-70.867-14.17339-70.867-28.3468-56.69362-42.5202-56.69362-56.69362-28.3468-56.69362 0"/>
</svg>
