<svg xmlns="http://www.w3.org/2000/svg" xmlns:xlink="http://www.w3.org/1999/xlink" xmlns:inkscape="http://www.inkscape.org/namespaces/inkscape" version="1.1" width="145" height="18" viewBox="0 0 145 18">
<path transform="matrix(1.00006,0,0,-1.00002,2.0959855,15.973)" d="M0 0V14.17339H28.3468V0ZM28.3468 14.17339" fill="#0000ff"/>
<path transform="matrix(1.00006,0,0,-1.00002,2.0959855,15.973)" stroke-width=".3985" stroke-linecap="butt" stroke-miterlimit="10" stroke-linejoin="miter" fill="none" stroke="#000000" d="M0 0V14.17339H28.3468V0ZM28.3468 14.17339"/>
<path transform="matrix(1.00006,0,0,-1.00002,2.0959855,15.973)" d="M28.3468 0V14.17339H56.69362V0ZM56.69362 14.17339" fill="#0000ff"/>
<path transform="matrix(1.00006,0,0,-1.00002,2.0959855,15.973)" stroke-width=".3985" stroke-linecap="butt" stroke-miterlimit="10" stroke-linejoin="miter" fill="none" stroke="#000000" d="M28.3468 0V14.17339H56.69362V0ZM56.69362 14.17339"/>
<path transform="matrix(1.00006,0,0,-1.00002,2.0959855,15.973)" d="M56.69362 0V14.17339H85.04042V0ZM85.04042 14.17339" fill="#0000ff"/>
<path transform="matrix(1.00006,0,0,-1.00002,2.0959855,15.973)" stroke-width=".3985" stroke-linecap="butt" stroke-miterlimit="10" stroke-linejoin="miter" fill="none" stroke="#000000" d="M56.69362 0V14.17339H85.04042V0ZM85.04042 14.17339"/>
<path transform="matrix(1.00006,0,0,-1.00002,2.0959855,15.973)" d="M85.04042 0V14.17339H113.38724V0ZM113.38724 14.17339" fill="#0000ff"/>
<path transform="matrix(1.00006,0,0,-1.00002,2.0959855,15.973)" stroke-width=".3985" stroke-linecap="butt" stroke-miterlimit="10" stroke-linejoin="miter" fill="none" stroke="#000000" d="M85.04042 0V14.17339H113.38724V0ZM113.38724 14.17339"/>
<path transform="matrix(1.00006,0,0,-1.00002,2.0959855,15.973)" d="M113.38724 0V14.17339H141.73404V0ZM141.73404 14.17339" fill="#0000ff"/>
<path transform="matrix(1.00006,0,0,-1.00002,2.0959855,15.973)" stroke-width=".3985" stroke-linecap="butt" stroke-miterlimit="10" stroke-linejoin="miter" fill="none" stroke="#000000" d="M113.38724 0V14.17339H141.73404V0ZM141.73404 14.17339"/>
</svg>
