<svg xmlns="http://www.w3.org/2000/svg" xmlns:xlink="http://www.w3.org/1999/xlink" xmlns:inkscape="http://www.inkscape.org/namespaces/inkscape" version="1.1" width="288" height="358" viewBox="0 0 288 358">
<path transform="matrix(1.00006,0,0,-1.00006,144.03549,356.35145)" d="M0 0 141.73404 141.73404C141.73404 220.0126 78.27855 283.4681 0 283.4681-78.27855 283.4681-141.73404 220.0126-141.73404 141.73404Z" fill="#8080ff"/>
<path transform="matrix(1.00006,0,0,-1.00006,144.03549,356.35145)" stroke-width=".79701" stroke-linecap="butt" stroke-miterlimit="10" stroke-linejoin="miter" fill="none" stroke="#000000" d="M0 0 141.73404 141.73404"/>
<path transform="matrix(1.00006,0,0,-1.00006,144.03549,356.35145)" stroke-width=".79701" stroke-linecap="butt" stroke-miterlimit="10" stroke-linejoin="miter" fill="none" stroke="#000000" d="M0 0-141.73404 141.73404"/>
<path transform="matrix(1.00006,0,0,-1.00006,144.03549,356.35145)" stroke-width=".79701" stroke-linecap="butt" stroke-miterlimit="10" stroke-linejoin="miter" fill="none" stroke="#000000" d="M141.73404 141.73404C141.73404 220.0126 78.27855 283.4681 0 283.4681-78.27855 283.4681-141.73404 220.0126-141.73404 141.73404"/>
<path transform="matrix(1.00006,0,0,-1.00006,144.03549,356.35145)" d="M42.5202 311.8149C42.5202 335.29847 23.48355 354.3351 0 354.3351-23.48355 354.3351-42.5202 335.29847-42.5202 311.8149-42.5202 288.33134-23.48355 269.2947 0 269.2947 23.48355 269.2947 42.5202 288.33134 42.5202 311.8149ZM0 311.8149" fill="#ff8000"/>
<path transform="matrix(1.00006,0,0,-1.00006,144.03549,356.35145)" stroke-width=".79701" stroke-linecap="butt" stroke-miterlimit="10" stroke-linejoin="miter" fill="none" stroke="#000000" d="M42.5202 311.8149C42.5202 335.29847 23.48355 354.3351 0 354.3351-23.48355 354.3351-42.5202 335.29847-42.5202 311.8149-42.5202 288.33134-23.48355 269.2947 0 269.2947 23.48355 269.2947 42.5202 288.33134 42.5202 311.8149ZM0 311.8149"/>
</svg>
