<svg xmlns="http://www.w3.org/2000/svg" xmlns:xlink="http://www.w3.org/1999/xlink" xmlns:inkscape="http://www.inkscape.org/namespaces/inkscape" version="1.1" width="118" height="146" viewBox="0 0 118 146">
<path transform="matrix(1.00003,0,0,-1,58.99022,87.038)" d="M-56.69362-56.69362H56.69362V56.69362H-56.69362Z" fill="#ffbf80"/>
<path transform="matrix(1.00003,0,0,-1,58.99022,87.038)" stroke-width=".3985" stroke-linecap="butt" stroke-miterlimit="10" stroke-linejoin="miter" fill="none" stroke="#ffbf80" d="M-56.69362-56.69362H56.69362V56.69362H-56.69362Z"/>
<path transform="matrix(1.00003,0,0,-1,58.99022,87.038)" d="M-56.69362-56.69362 0 85.04042 56.69362-56.69362Z" fill="#8080ff"/>
<path transform="matrix(1.00003,0,0,-1,58.99022,87.038)" stroke-width=".3985" stroke-linecap="butt" stroke-miterlimit="10" stroke-linejoin="miter" fill="none" stroke="#8080ff" d="M-56.69362-56.69362 0 85.04042 56.69362-56.69362Z"/>
<path transform="matrix(1.00003,0,0,-1,58.99022,87.038)" d="M56.69362-56.69362 0 85.04042 56.69362 56.69362Z" fill="#8080ff"/>
<path transform="matrix(1.00003,0,0,-1,58.99022,87.038)" stroke-width=".3985" stroke-linecap="butt" stroke-miterlimit="10" stroke-linejoin="miter" fill="none" stroke="#8080ff" d="M56.69362-56.69362 0 85.04042 56.69362 56.69362Z"/>
<path transform="matrix(1.00003,0,0,-1,58.99022,87.038)" d="M56.69362 56.69362 0 85.04042-56.69362 56.69362Z" fill="#8080ff"/>
<path transform="matrix(1.00003,0,0,-1,58.99022,87.038)" stroke-width=".3985" stroke-linecap="butt" stroke-miterlimit="10" stroke-linejoin="miter" fill="none" stroke="#8080ff" d="M56.69362 56.69362 0 85.04042-56.69362 56.69362Z"/>
<path transform="matrix(1.00003,0,0,-1,58.99022,87.038)" d="M-56.69362 56.69362 0 85.04042-56.69362-56.69362Z" fill="#8080ff"/>
<path transform="matrix(1.00003,0,0,-1,58.99022,87.038)" stroke-width=".3985" stroke-linecap="butt" stroke-miterlimit="10" stroke-linejoin="miter" fill="none" stroke="#8080ff" d="M-56.69362 56.69362 0 85.04042-56.69362-56.69362Z"/>
<path transform="matrix(1.00003,0,0,-1,58.99022,87.038)" stroke-width=".79701" stroke-linecap="butt" stroke-miterlimit="10" stroke-linejoin="miter" fill="none" stroke="#000000" d="M-56.69362-56.69362H56.69362V56.69362H-56.69362Z"/>
<path transform="matrix(1.00003,0,0,-1,58.99022,87.038)" stroke-width=".79701" stroke-linecap="butt" stroke-miterlimit="10" stroke-linejoin="miter" fill="none" stroke="#000000" d="M-56.69362-56.69362 0 85.04042 56.69362-56.69362"/>
<path transform="matrix(1.00003,0,0,-1,58.99022,87.038)" stroke-width=".79701" stroke-linecap="butt" stroke-miterlimit="10" stroke-linejoin="miter" fill="none" stroke="#000000" d="M56.69362-56.69362 0 85.04042 56.69362 56.69362"/>
<path transform="matrix(1.00003,0,0,-1,58.99022,87.038)" stroke-width=".79701" stroke-linecap="butt" stroke-miterlimit="10" stroke-linejoin="miter" fill="none" stroke="#000000" d="M56.69362 56.69362 0 85.04042-56.69362 56.69362"/>
<path transform="matrix(1.00003,0,0,-1,58.99022,87.038)" stroke-width=".79701" stroke-linecap="butt" stroke-miterlimit="10" stroke-linejoin="miter" fill="none" stroke="#000000" d="M-56.69362 56.69362 0 85.04042-56.69362-56.69362"/>
</svg>
