<svg xmlns="http://www.w3.org/2000/svg" xmlns:xlink="http://www.w3.org/1999/xlink" xmlns:inkscape="http://www.inkscape.org/namespaces/inkscape" version="1.1" width="84" height="83" viewBox="0 0 84 83">
<path transform="matrix(1.00003,0,0,-1.00008,2.2955018,81.37523)" stroke-width=".79701" stroke-linecap="butt" stroke-miterlimit="10" stroke-linejoin="miter" fill="none" stroke="#000000" d="M0 0H56.69362V56.69362H0Z"/>
<path transform="matrix(1.00003,0,0,-1.00008,2.2955018,81.37523)" stroke-width=".79701" stroke-linecap="butt" stroke-miterlimit="10" stroke-linejoin="miter" fill="none" stroke="#000000" d="M22.67752 22.67752H79.37114V79.37114H22.67752Z"/>
<path transform="matrix(1.00003,0,0,-1.00008,2.2955018,81.37523)" stroke-width=".79701" stroke-linecap="butt" stroke-miterlimit="10" stroke-linejoin="miter" fill="none" stroke="#000000" d="M0 0 22.67752 22.67752"/>
<path transform="matrix(1.00003,0,0,-1.00008,2.2955018,81.37523)" stroke-width=".79701" stroke-linecap="butt" stroke-miterlimit="10" stroke-linejoin="miter" fill="none" stroke="#000000" d="M56.69362 0 79.37114 22.67752"/>
<path transform="matrix(1.00003,0,0,-1.00008,2.2955018,81.37523)" stroke-width=".79701" stroke-linecap="butt" stroke-miterlimit="10" stroke-linejoin="miter" fill="none" stroke="#000000" d="M56.69362 56.69362 79.37114 79.37114"/>
<path transform="matrix(1.00003,0,0,-1.00008,2.2955018,81.37523)" stroke-width=".79701" stroke-linecap="butt" stroke-miterlimit="10" stroke-linejoin="miter" fill="none" stroke="#000000" d="M0 56.69362 22.67752 79.37114"/>
</svg>
