<svg xmlns="http://www.w3.org/2000/svg" xmlns:xlink="http://www.w3.org/1999/xlink" xmlns:inkscape="http://www.inkscape.org/namespaces/inkscape" version="1.1" width="182" height="102" viewBox="0 0 182 102">
<defs>
<path id="font_1_82" d="M.38398744 0V.025985718H.35398866C.2679901 .025985718 .2659912 .037002565 .2659912 .073013309V.6391907C.2659912 .66012576 .2649994 .6611328 .25099183 .6611328 .21199036 .6142578 .15299988 .5993042 .09700012 .5973053 .09399414 .5973053 .08898926 .5973053 .08799744 .5953064 .08699036 .5933075 .08699036 .5913086 .08699036 .5703125 .117996219 .5703125 .16999817 .5763092 .20999146 .600296V.073013309C.20999146 .037994386 .20799256 .025985718 .12199402 .025985718H.09199524V0L.23799134 .0019989014 .38398744 0Z"/>
<path id="font_1_121" d="M.41999818 .3212433C.41999818 .38223268 .4189911 .4861908 .3769989 .5661621 .33999635 .6361389 .2809906 .6611328 .22898865 .6611328 .18099976 .6611328 .11999512 .63912966 .08198547 .56715396 .041992189 .4921875 .037994386 .3992157 .037994386 .3212433 .037994386 .26426698 .038986207 .17730713 .069992069 .10133362 .11299133-.0016326904 .18998719-.015625 .22898865-.015625 .2749939-.015625 .34498597 .0033721924 .38598634 .09832764 .41600038 .16731262 .41999818 .24827576 .41999818 .3212433M.35598756 .33224488C.35598756 .26727296 .35598756 .18730164 .34399415 .12832642 .32299806 .019363404 .2639923 .00036621095 .22898865 .00036621095 .16499329 .00036621095 .1269989 .055343629 .11299133 .13131714 .101989749 .19029236 .101989749 .27626039 .101989749 .33224488 .101989749 .4092102 .101989749 .4731903 .114990238 .5341644 .13398743 .6191406 .18998719 .64512637 .22898865 .64512637 .269989 .64512637 .32299806 .61813357 .34199525 .53616335 .35499574 .479187 .35598756 .4122162 .35598756 .33224488Z"/>
<path id="font_1_43" d="M.38398744 .11817932C.38398744 .122177127 .3829956 .1251831 .37599183 .1251831 .36898805 .1251831 .36799623 .124176029 .3639984 .11117554 .33799745 .030181885 .2809906 .010177612 .23799134 .010177612 .17399597 .010177612 .09700012 .06918335 .09700012 .21717835 .09700012 .36930848 .17098999 .42437745 .22999573 .42437745 .2689972 .42437745 .32699586 .40534974 .34899903 .35029603 .32998658 .35029603 .3019867 .35029603 .3019867 .31529237 .3019867 .28729249 .32499696 .27929688 .33799745 .27929688 .34498597 .27931214 .37399293 .28230287 .37399293 .31732179 .37399293 .3883667 .30599977 .4423828 .22898865 .4423828 .12298584 .4423828 .032989503 .3443451 .032989503 .21627808 .032989503 .083221439 .1269989-.0078125 .22898865-.0078125 .35299684-.0078125 .38398744 .10722351 .38398744 .1182251V.11817932Z"/>
<path id="font_1_75" d="M.74398806 0V.025985718C.6799927 .025985718 .6759949 .02999878 .6759949 .06904602V.3043213C.6759949 .35438539 .6669922 .43847657 .5479889 .43847657 .47999574 .43847657 .43299867 .3924408 .4149933 .33836366H.4139862C.4019928 .4204712 .34298707 .43847657 .2869873 .43847657 .20799256 .43847657 .16699219 .3774109 .1519928 .33737184H.15098572V.43847657L.032989503 .4273529V.4013672C.09199524 .4013672 .100997928 .39535523 .100997928 .3473053V.06903076C.100997928 .0309906 .09700012 .025985718 .032989503 .025985718V0C.056991579 .0019989014 .100997928 .0019989014 .1269989 .0019989014 .15299988 .0019989014 .19799805 .0019989014 .22200012 0V.025985718C.1579895 .025985718 .1539917 .02999878 .1539917 .06903076V.26123048C.1539917 .35339356 .20999146 .4224701 .27999879 .4224701 .35398866 .4224701 .3619995 .35638429 .3619995 .30833436V.06904602C.3619995 .03100586 .35798646 .025985718 .2939911 .025985718V0C.31799317 .0019989014 .3619995 .0019989014 .3880005 .0019989014 .4139862 .0019989014 .45899964 .0019989014 .48298646 0V.025985718C.4189911 .025985718 .4149933 .02999878 .4149933 .06904602V.26127626C.4149933 .35339356 .47099305 .4224701 .54100039 .4224701 .61499026 .4224701 .6230011 .35638429 .6230011 .30833436V.06904602C.6230011 .03100586 .61898806 .025985718 .5549927 .025985718V0C.57899478 .0019989014 .6230011 .0019989014 .6489868 .0019989014 .6749878 .0019989014 .7200012 .0019989014 .74398806 0Z"/>
<path id="font_1_56" d="M.4169922 .20240784C.4169922 .32240296 .33898927 .41540528 .24198914 .41540528 .19099427 .41540528 .147995 .39640809 .11399841 .3604126V.58535769C.12399292 .5813446 .16499329 .5683594 .20698548 .5683594 .2999878 .5683594 .35099793 .61834719 .37998963 .64723208 .37998963 .6551819 .37998963 .66015627 .37399293 .66015627 .37399293 .66015627 .37098695 .66015627 .36299134 .6561737 .32798768 .64126589 .2869873 .62934878 .23699951 .62934878 .20698548 .62927249 .1619873 .63327029 .11299133 .65527346 .101989749 .66015627 .09899902 .66015627 .09899902 .66015627 .09399414 .66026309 .09298706 .65927127 .09298706 .63926699V.3493805C.09298706 .33137513 .09298706 .3263855 .102996829 .3263855 .10798645 .3263855 .10998535 .3283844 .114990238 .33538819 .14698792 .3804016 .19099427 .39941407 .24099732 .39941407 .27598573 .39941407 .35099793 .37739564 .35099793 .20632935 .35099793 .1743164 .35099793 .11630249 .32099916 .0703125 .29599 .029342652 .25698854 .008361816 .21398926 .008361816 .147995 .008361816 .08099365 .05432129 .06298828 .13130188 .066986087 .13009644 .07499695 .12809754 .07899475 .12809754 .09199524 .12809754 .116989139 .13510132 .116989139 .16609192 .116989139 .19309998 .09799194 .20410156 .07899475 .20410156 .055999757 .20410156 .040985109 .190094 .040985109 .16209412 .040985109 .07521057 .10998535-.015625 .21598816-.015625 .31900025-.015625 .4169922 .07322693 .4169922 .2020874V.20240784Z"/>
<path id="font_1_51" d="M.4249878 .16331482C.4249878 .25427247 .3639984 .2962494 .32398988 .3232422 .30999757 .3332367 .3019867 .33824159 .27198792 .3602295 .33499146 .3922119 .39898683 .4402008 .39898683 .51716616 .39898683 .60813906 .31098939 .6611328 .22999573 .6611328 .13899231 .6611328 .05899048 .59513857 .05899048 .5041809 .05899048 .479187 .06498718 .436203 .10398865 .39822389 .11399841 .3882141 .1559906 .3582306 .18299866 .3392334 .13798523 .31625367 .032989503 .26127626 .032989503 .15130615 .032989503 .048355104 .1309967-.015625 .22799683-.015625 .33499146-.015625 .4249878 .061340333 .4249878 .16331482M.36499024 .51716616C.36499024 .4242096 .26098634 .37123109 .2559967 .37123109 .2559967 .37123109 .2539978 .37123109 .24598694 .37722779L.14099121 .4481964C.1329956 .4532013 .09298706 .48417665 .09298706 .53115847 .09298706 .5921478 .1559906 .63812258 .22799683 .63812258 .30699159 .63812258 .36499024 .5821533 .36499024 .51716616M.3880005 .13832093C.3880005 .06434631 .31399537 .008361816 .22999573 .008361816 .13899231 .008361816 .069992069 .073349 .069992069 .15231323 .069992069 .23127747 .1309967 .29725648 .19999695 .32824708L.32499696 .24327088C.33999635 .23228455 .3880005 .19929505 .3880005 .13832093Z"/>
</defs>
<path transform="matrix(1.00005,0,0,-1.00003,56.54117,78.734889)" stroke-width=".79701" stroke-linecap="butt" stroke-miterlimit="10" stroke-linejoin="miter" fill="none" stroke="#000000" d="M0 0H63.7803V42.5202H0Z"/>
<path transform="matrix(1.00005,0,0,-1.00003,56.54117,78.734889)" stroke-width=".79701" stroke-linecap="butt" stroke-miterlimit="10" stroke-linejoin="miter" fill="none" stroke="#000000" d="M0 42.5202 34.01608 76.53629H97.79639L63.7803 42.5202"/>
<path transform="matrix(1.00005,0,0,-1.00003,56.54117,78.734889)" stroke-width="1.19553" stroke-linecap="butt" stroke-miterlimit="10" stroke-linejoin="miter" fill="none" stroke="#000000" d="M63.7803 0 97.79639 34.01608"/>
<path transform="matrix(1.00005,0,0,-1.00003,56.54117,78.734889)" stroke-width="1.19553" stroke-linecap="butt" stroke-miterlimit="10" stroke-linejoin="miter" fill="none" stroke="#000000" d="M63.7803 42.5202 97.79639 76.53629"/>
<path transform="matrix(1.00005,0,0,-1.00003,56.54117,78.734889)" stroke-width="1.19553" stroke-linecap="butt" stroke-miterlimit="10" stroke-linejoin="miter" fill="none" stroke="#000000" d="M97.79639 34.01608V76.53629"/>
<use data-text="1" xlink:href="#font_1_82" transform="matrix(20.663533,0,0,-20.66312,-.7826996,64.13845)"/>
<use data-text="0" xlink:href="#font_1_121" transform="matrix(20.663533,0,0,-20.66312,8.7018589,64.13845)"/>
<use data-text="c" xlink:href="#font_1_43" transform="matrix(20.663533,0,0,-20.66312,24.406128,64.13845)"/>
<use data-text="m" xlink:href="#font_1_75" transform="matrix(20.663533,0,0,-20.66312,32.795534,64.13845)"/>
<use data-text="1" xlink:href="#font_1_82" transform="matrix(20.663533,0,0,-20.66312,63.656526,100.16553)"/>
<use data-text="5" xlink:href="#font_1_56" transform="matrix(20.663533,0,0,-20.66312,73.14108,100.16553)"/>
<use data-text="c" xlink:href="#font_1_43" transform="matrix(20.663533,0,0,-20.66312,88.84535,100.16553)"/>
<use data-text="m" xlink:href="#font_1_75" transform="matrix(20.663533,0,0,-20.66312,97.23476,100.16553)"/>
<use data-text="8" xlink:href="#font_1_51" transform="matrix(20.663533,0,0,-20.66312,140.85338,77.48685)"/>
<use data-text="c" xlink:href="#font_1_43" transform="matrix(20.663533,0,0,-20.66312,156.55765,77.48685)"/>
<use data-text="m" xlink:href="#font_1_75" transform="matrix(20.663533,0,0,-20.66312,164.94705,77.48685)"/>
</svg>
