<svg xmlns="http://www.w3.org/2000/svg" xmlns:xlink="http://www.w3.org/1999/xlink" xmlns:inkscape="http://www.inkscape.org/namespaces/inkscape" version="1.1" width="146" height="146" viewBox="0 0 146 146">
<path transform="matrix(1.00003,0,0,-1,44.81678,101.211)" d="M0 0H56.69362V56.69362H0Z" fill="#8080ff"/>
<path transform="matrix(1.00003,0,0,-1,44.81678,101.211)" d="M0 56.69362H56.69362L28.3468 99.21382Z" fill="#8080ff"/>
<path transform="matrix(1.00003,0,0,-1,44.81678,101.211)" d="M56.69362 56.69362V0L99.21382 28.3468Z" fill="#8080ff"/>
<path transform="matrix(1.00003,0,0,-1,44.81678,101.211)" d="M0 0H56.69362L28.3468-42.5202Z" fill="#8080ff"/>
<path transform="matrix(1.00003,0,0,-1,44.81678,101.211)" d="M0 0V56.69362L-42.5202 28.3468Z" fill="#8080ff"/>
<path transform="matrix(1.00003,0,0,-1,44.81678,101.211)" stroke-width=".79701" stroke-linecap="butt" stroke-miterlimit="10" stroke-linejoin="miter" fill="none" stroke="#000000" d="M0 0H56.69362V56.69362H0Z"/>
<path transform="matrix(1.00003,0,0,-1,44.81678,101.211)" stroke-width=".79701" stroke-linecap="butt" stroke-miterlimit="10" stroke-linejoin="miter" fill="none" stroke="#000000" d="M0 56.69362H56.69362L28.3468 99.21382Z"/>
<path transform="matrix(1.00003,0,0,-1,44.81678,101.211)" stroke-width=".79701" stroke-linecap="butt" stroke-miterlimit="10" stroke-linejoin="miter" fill="none" stroke="#000000" d="M56.69362 56.69362V0L99.21382 28.3468Z"/>
<path transform="matrix(1.00003,0,0,-1,44.81678,101.211)" stroke-width=".79701" stroke-linecap="butt" stroke-miterlimit="10" stroke-linejoin="miter" fill="none" stroke="#000000" d="M0 0H56.69362L28.3468-42.5202Z"/>
<path transform="matrix(1.00003,0,0,-1,44.81678,101.211)" stroke-width=".79701" stroke-linecap="butt" stroke-miterlimit="10" stroke-linejoin="miter" fill="none" stroke="#000000" d="M0 0V56.69362L-42.5202 28.3468Z"/>
</svg>
