<svg xmlns="http://www.w3.org/2000/svg" xmlns:xlink="http://www.w3.org/1999/xlink" xmlns:inkscape="http://www.inkscape.org/namespaces/inkscape" version="1.1" width="261" height="262" viewBox="0 0 261 262">
<defs>
<path id="font_1_116" d="M.58499148 0V.04699707H.5139923L.34599305 .2461853 .46299745 .37631227C.47599793 .39031983 .48199464 .3973236 .5649872 .3973236V.44433595L.47299195 .44132997 .36999513 .44433595V.3973236C.38398744 .3973236 .3959961 .3953247 .4079895 .38832093 .4039917 .38230897 .4039917 .38031007 .3999939 .37631227L.31599427 .2822113 .21798706 .3973236H.2579956V.44433595L.13699341 .44132997 .026992798 .44433595V.3973236H.09799194L.2539978 .21315003 .12298584 .06600952C.10598755 .04699707 .069992069 .04699707 .021987915 .04699707V0L.11399841 .0029907227 .21699524 0V.04699707C.19898987 .04699707 .17999268 .052001954 .17999268 .057998659 .17999268 .057998659 .17999268 .05999756 .18699646 .06800842L.28399659 .17712403 .3939972 .04699707H.35499574V0L.47499085 .0029907227 .58499148 0Z"/>
<path id="font_1_118" d="M.5799866 .3973236V.44433595C.55599978 .44232179 .526001 .44132997 .5009918 .44132997L.4099884 .44433595V.3973236C.4099884 .3973236 .45700074 .3973236 .45700074 .3853302L.45199586 .37332154 .33699037 .12713623 .20999146 .3973236H.2639923V.44433595L.13999939 .44132997 .025985718 .44433595V.3973236H.08999634L.2769928 .000045776369 .2539978-.04798889C.23199463-.09602356 .19999695-.1640625 .1289978-.1640625 .114990238-.1640625 .11299133-.16307068 .10499573-.1600647 .11399841-.1560669 .13699341-.14205933 .13699341-.10702515 .13699341-.07400513 .11299133-.049987794 .07899475-.049987794 .050994874-.049987794 .021987915-.069000247 .021987915-.10803223 .021987915-.15907288 .068984989-.20007324 .1289978-.20007324 .20599365-.20007324 .2639923-.13804627 .29100038-.08100891L.5059967 .37631227C.5130005 .39031983 .5159912 .3973236 .5799866 .3973236Z"/>
<path id="font_1_64" d="M.31799317 .17382813V.27082826H.0129852299V.17382813H.31799317Z"/>
<path id="font_1_57" d="M.5419922 0V.04699707H.44499208V.15611267H.5419922V.203125H.44499208V.62423709C.44499208 .6512451 .44299317 .65625 .4149933 .65625 .3939972 .65625 .3929901 .6552429 .3809967 .6402283L.03199768 .203125V.15611267H.31999208V.04699707H.20799256V0C.24598694 .0029907227 .33699037 .0029907227 .37998963 .0029907227 .41999818 .0029907227 .5069885 .0029907227 .5419922 0M.33099366 .203125H.083999637L.33099366 .51319888V.203125Z"/>
<path id="font_1_106" d="M.526001 .18013C.526001 .23513794 .49699403 .32113648 .35198976 .35212709 .42099 .3731537 .49398805 .4303589 .49398805 .5164032 .49398805 .5933533 .41799928 .65527346 .2769928 .65527346 .1579895 .65527346 .07998657 .59135439 .07998657 .5113983 .07998657 .46839906 .11099243 .44140626 .14898682 .44140626 .19400025 .44140626 .21899414 .47340394 .21899414 .51039126 .21899414 .56840518 .16499329 .5793915 .16099549 .58039858 .19599915 .6082916 .23999024 .616272 .2709961 .616272 .35398866 .616272 .35699464 .5523987 .35699464 .5193939 .35699464 .50639346 .35598756 .3751526 .2519989 .36914063 .21099854 .36712647 .20899964 .36613465 .20399475 .36512757 .19400025 .36413575 .19198609 .35412599 .19198609 .34812928 .19198609 .33013917 .20199585 .33013917 .21998596 .33013917H.2639923C.37298585 .33013917 .37298585 .23243714 .37298585 .18159485 .37298585 .13456726 .37298585 .03225708 .2689972 .03225708 .24299622 .03225708 .19099427 .03627014 .14299011 .06636047 .17599488 .07537842 .20098877 .10046387 .20098877 .14160156 .20098877 .18644715 .16899109 .217453 .125 .217453 .08299255 .217453 .04798889 .19044495 .04798889 .13945008 .04798889 .049346925 .14498902-.0107421879 .27398683-.0107421879 .45298768-.010406494 .526001 .08959961 .526001 .18058777V.18013Z"/>
<path id="font_1_107" d="M.5169983 .22200012H.46998597C.46699525 .20199585 .45799256 .13798523 .44400025 .1309967 .43299867 .125 .35798646 .125 .34199525 .125H.19499207C.24198914 .1639862 .2939911 .20698548 .33898927 .23999024 .45298768 .3242035 .5169983 .37124635 .5169983 .4663086 .5169983 .5812988 .41299439 .65527346 .27198792 .65527346 .15098572 .65527346 .056991579 .593277 .056991579 .50331118 .056991579 .44430543 .10499573 .42930604 .1289978 .42930604 .16099549 .42930604 .20098877 .4513092 .20098877 .50131228 .20098877 .55329897 .15899658 .5693054 .14399719 .5733032 .17298889 .5972748 .21099854 .6082611 .24699402 .6082611 .33299256 .6082611 .3789978 .54029849 .3789978 .4653015 .3789978 .39627076 .34098817 .3282013 .2709961 .25712586L.069992069 .051986696C.056991579 .039993287 .056991579 .037994386 .056991579 .017990113V0H.48599244L.5169983 .22200012Z"/>
<path id="font_1_82" d="M.49398805 0V.04699707H.35398866V.6231079C.35398866 .6452179 .35398866 .65527346 .32798768 .65527346 .31698609 .65527346 .31498719 .65527346 .30599977 .6482239 .22898865 .5909424 .12599182 .5909424 .10499573 .5909424H.084991458V.5439453H.10499573C.12098694 .5439453 .17599488 .54493716 .23498535 .5639343V.04699707H.09599304V0C.13999939 .0029907227 .24598694 .0029907227 .29499818 .0029907227 .34399415 .0029907227 .44999696 .0029907227 .49398805 0Z"/>
<path id="font_1_121" d="M.5289917 .31939698C.5289917 .41644288 .5279999 .65527346 .2869873 .65527346 .04598999 .65527346 .04499817 .41744996 .04499817 .31939698 .04499817 .22035218 .04598999-.0107421879 .2869873-.0107421879 .5269928-.0107421879 .5289917 .2193451 .5289917 .31939698M.40098573 .33140565C.40098573 .27537538 .40098573 .18432617 .3939972 .13230896 .37998963 .039260866 .31698609 .025253296 .2869873 .025253296 .25099183 .025253296 .19499207 .04725647 .18199158 .12030029 .17298889 .1723175 .17298889 .27638246 .17298889 .33140565 .17298889 .40344239 .17298889 .46847535 .18099976 .5205078 .19299317 .6092987 .2630005 .6192627 .2869873 .6192627 .32398988 .6192627 .36499024 .6003418 .38398744 .5565033 .40098573 .51950076 .40098573 .41345216 .40098573 .33140565Z"/>
</defs>
<path transform="matrix(1,0,0,-1.00009,128.854,132.69977)" stroke-width=".19925" stroke-linecap="butt" stroke-miterlimit="10" stroke-linejoin="miter" fill="none" stroke="#bfbfbf" d="M-113.38724-113.38724H113.38724M-113.38724-85.04042H113.38724M-113.38724-56.69362H113.38724M-113.38724-28.3468H113.38724M-113.38724 0H113.38724M-113.38724 28.3468H113.38724M-113.38724 56.69362H113.38724M-113.38724 85.04042H113.38724M-113.38724 113.37727H113.38724M-113.38724-113.38724V113.38724M-85.04042-113.38724V113.38724M-56.69362-113.38724V113.38724M-28.3468-113.38724V113.38724M0-113.38724V113.38724M28.3468-113.38724V113.38724M56.69362-113.38724V113.38724M85.04042-113.38724V113.38724M113.37727-113.38724V113.38724M113.38724 113.38724"/>
<path transform="matrix(1,0,0,-1.00009,128.854,132.69977)" stroke-width=".79701" stroke-linecap="butt" stroke-miterlimit="10" stroke-linejoin="miter" fill="none" stroke="#000000" d="M-127.56062 0H126.85327"/>
<path transform="matrix(1,0,0,-1.00009,255.70728,132.69977)" stroke-width=".6376" stroke-linecap="round" stroke-linejoin="round" fill="none" stroke="#000000" d="M-1.55415 2.0722C-1.42464 1.29512 0 .1295 .38852 0 0-.1295-1.42464-1.29512-1.55415-2.0722"/>
<use data-text="x" xlink:href="#font_1_116" transform="matrix(9.9626,0,0,-9.963496,253.391,140.8435)"/>
<path transform="matrix(1,0,0,-1.00009,128.854,132.69977)" stroke-width=".79701" stroke-linecap="butt" stroke-miterlimit="10" stroke-linejoin="miter" fill="none" stroke="#000000" d="M0-127.56062V126.85327"/>
<path transform="matrix(0,-1.00009,-1,-0,128.854,5.835083)" stroke-width=".6376" stroke-linecap="round" stroke-linejoin="round" fill="none" stroke="#000000" d="M-1.55415 2.0722C-1.42464 1.29512 0 .1295 .38852 0 0-.1295-1.42464-1.29512-1.55415-2.0722"/>
<use data-text="y" xlink:href="#font_1_118" transform="matrix(9.9626,0,0,-9.963496,119.088008,6.343399)"/>
<path transform="matrix(1,0,0,-1.00009,128.854,132.69977)" stroke-width=".79701" stroke-linecap="butt" stroke-miterlimit="10" stroke-linejoin="miter" fill="none" stroke="#000000" d="M-113.38724-2.83484V2.83484"/>
<use data-text="-" xlink:href="#font_1_64" transform="matrix(9.9626,0,0,-9.963496,10.695007,148.42618)"/>
<use data-text="4" xlink:href="#font_1_57" transform="matrix(9.9626,0,0,-9.963496,14.510681,148.42618)"/>
<path transform="matrix(1,0,0,-1.00009,128.854,132.69977)" stroke-width=".79701" stroke-linecap="butt" stroke-miterlimit="10" stroke-linejoin="miter" fill="none" stroke="#000000" d="M-85.04042-2.83484V2.83484"/>
<use data-text="-" xlink:href="#font_1_64" transform="matrix(9.9626,0,0,-9.963496,39.041,148.41619)"/>
<use data-text="3" xlink:href="#font_1_106" transform="matrix(9.9626,0,0,-9.963496,42.856676,148.41619)"/>
<path transform="matrix(1,0,0,-1.00009,128.854,132.69977)" stroke-width=".79701" stroke-linecap="butt" stroke-miterlimit="10" stroke-linejoin="miter" fill="none" stroke="#000000" d="M-56.69362-2.83484V2.83484"/>
<use data-text="-" xlink:href="#font_1_64" transform="matrix(9.9626,0,0,-9.963496,67.388,148.41619)"/>
<use data-text="2" xlink:href="#font_1_107" transform="matrix(9.9626,0,0,-9.963496,71.203678,148.41619)"/>
<path transform="matrix(1,0,0,-1.00009,128.854,132.69977)" stroke-width=".79701" stroke-linecap="butt" stroke-miterlimit="10" stroke-linejoin="miter" fill="none" stroke="#000000" d="M-28.3468-2.83484V2.83484"/>
<use data-text="-" xlink:href="#font_1_64" transform="matrix(9.9626,0,0,-9.963496,95.735,148.41619)"/>
<use data-text="1" xlink:href="#font_1_82" transform="matrix(9.9626,0,0,-9.963496,99.550678,148.41619)"/>
<path transform="matrix(1,0,0,-1.00009,128.854,132.69977)" stroke-width=".79701" stroke-linecap="butt" stroke-miterlimit="10" stroke-linejoin="miter" fill="none" stroke="#000000" d="M28.3468-2.83484V2.83484"/>
<use data-text="1" xlink:href="#font_1_82" transform="matrix(9.9626,0,0,-9.963496,154.337,148.41619)"/>
<path transform="matrix(1,0,0,-1.00009,128.854,132.69977)" stroke-width=".79701" stroke-linecap="butt" stroke-miterlimit="10" stroke-linejoin="miter" fill="none" stroke="#000000" d="M56.69362-2.83484V2.83484"/>
<use data-text="2" xlink:href="#font_1_107" transform="matrix(9.9626,0,0,-9.963496,182.683,148.41619)"/>
<path transform="matrix(1,0,0,-1.00009,128.854,132.69977)" stroke-width=".79701" stroke-linecap="butt" stroke-miterlimit="10" stroke-linejoin="miter" fill="none" stroke="#000000" d="M85.04042-2.83484V2.83484"/>
<use data-text="3" xlink:href="#font_1_106" transform="matrix(9.9626,0,0,-9.963496,211.03,148.41619)"/>
<path transform="matrix(1,0,0,-1.00009,128.854,132.69977)" stroke-width=".79701" stroke-linecap="butt" stroke-miterlimit="10" stroke-linejoin="miter" fill="none" stroke="#000000" d="M113.38724-2.83484V2.83484"/>
<use data-text="4" xlink:href="#font_1_57" transform="matrix(9.9626,0,0,-9.963496,239.37702,148.42618)"/>
<path transform="matrix(1,0,0,-1.00009,128.854,132.69977)" stroke-width=".79701" stroke-linecap="butt" stroke-miterlimit="10" stroke-linejoin="miter" fill="none" stroke="#000000" d="M-2.83484-113.38724H2.83484"/>
<use data-text="-" xlink:href="#font_1_64" transform="matrix(9.9626,0,0,-9.963496,110.121,249.36527)"/>
<use data-text="4" xlink:href="#font_1_57" transform="matrix(9.9626,0,0,-9.963496,113.936679,249.36527)"/>
<path transform="matrix(1,0,0,-1.00009,128.854,132.69977)" stroke-width=".79701" stroke-linecap="butt" stroke-miterlimit="10" stroke-linejoin="miter" fill="none" stroke="#000000" d="M-2.83484-85.04042H2.83484"/>
<use data-text="-" xlink:href="#font_1_64" transform="matrix(9.9626,0,0,-9.963496,110.121,220.95572)"/>
<use data-text="3" xlink:href="#font_1_106" transform="matrix(9.9626,0,0,-9.963496,113.936679,220.95572)"/>
<path transform="matrix(1,0,0,-1.00009,128.854,132.69977)" stroke-width=".79701" stroke-linecap="butt" stroke-miterlimit="10" stroke-linejoin="miter" fill="none" stroke="#000000" d="M-2.83484-56.69362H2.83484"/>
<use data-text="-" xlink:href="#font_1_64" transform="matrix(9.9626,0,0,-9.963496,110.121,192.66117)"/>
<use data-text="2" xlink:href="#font_1_107" transform="matrix(9.9626,0,0,-9.963496,113.936679,192.66117)"/>
<path transform="matrix(1,0,0,-1.00009,128.854,132.69977)" stroke-width=".79701" stroke-linecap="butt" stroke-miterlimit="10" stroke-linejoin="miter" fill="none" stroke="#000000" d="M-2.83484-28.3468H2.83484"/>
<use data-text="-" xlink:href="#font_1_64" transform="matrix(9.9626,0,0,-9.963496,110.121,164.31262)"/>
<use data-text="1" xlink:href="#font_1_82" transform="matrix(9.9626,0,0,-9.963496,113.936679,164.31262)"/>
<path transform="matrix(1,0,0,-1.00009,128.854,132.69977)" stroke-width=".79701" stroke-linecap="butt" stroke-miterlimit="10" stroke-linejoin="miter" fill="none" stroke="#000000" d="M-2.83484 28.3468H2.83484"/>
<use data-text="1" xlink:href="#font_1_82" transform="matrix(9.9626,0,0,-9.963496,113.936008,107.61351)"/>
<path transform="matrix(1,0,0,-1.00009,128.854,132.69977)" stroke-width=".79701" stroke-linecap="butt" stroke-miterlimit="10" stroke-linejoin="miter" fill="none" stroke="#000000" d="M-2.83484 56.69362H2.83484"/>
<use data-text="2" xlink:href="#font_1_107" transform="matrix(9.9626,0,0,-9.963496,113.936008,79.26396)"/>
<path transform="matrix(1,0,0,-1.00009,128.854,132.69977)" stroke-width=".79701" stroke-linecap="butt" stroke-miterlimit="10" stroke-linejoin="miter" fill="none" stroke="#000000" d="M-2.83484 85.04042H2.83484"/>
<use data-text="3" xlink:href="#font_1_106" transform="matrix(9.9626,0,0,-9.963496,113.936008,50.860406)"/>
<path transform="matrix(1,0,0,-1.00009,128.854,132.69977)" stroke-width=".79701" stroke-linecap="butt" stroke-miterlimit="10" stroke-linejoin="miter" fill="none" stroke="#000000" d="M-2.83484 113.38724H2.83484"/>
<use data-text="4" xlink:href="#font_1_57" transform="matrix(9.9626,0,0,-9.963496,113.936008,22.570855)"/>
<use data-text="0" xlink:href="#font_1_121" transform="matrix(9.9626,0,0,-9.963496,116.771,145.58094)"/>
</svg>
