<svg xmlns="http://www.w3.org/2000/svg" xmlns:xlink="http://www.w3.org/1999/xlink" xmlns:inkscape="http://www.inkscape.org/namespaces/inkscape" version="1.1" width="161" height="161" viewBox="0 0 161 161">
<defs>
<path id="font_1_111" d="M.84199526 .63853457V.6855469L.72898867 .6825409C.68899539 .6825409 .6369934 .6825409 .59799197 .6855469V.63853457C.6069946 .63853457 .6859894 .63853457 .6859894 .62654116 .6859894 .6225586 .68299868 .6175537 .6819916 .614563L.47999574 .16001892 .2669983 .63853457H.36099244V.6855469C.32299806 .6825409 .22698975 .6825409 .18399048 .6825409 .14498902 .6825409 .06098938 .6825409 .025985718 .6855469V.63853457H.117996219L.3939972 .018157959C.4019928 .00016784668 .4059906-.0078125 .43399049-.0078125 .44999696-.0078125 .46299745-.0078125 .47399903 .016159058L.73999026 .6165619C.74598696 .6295471 .75 .63853457 .82299807 .63853457H.84199526Z"/>
<path id="font_1_80" d="M.798996 .33924867C.798996 .5552521 .6539917 .6972656 .43199159 .6972656 .20298767 .6972656 .06399536 .5492554 .06399536 .33924867 .06399536 .13224793 .20399475-.0107421879 .43099977-.0107421879 .6609955-.0107421879 .798996 .13424683 .798996 .33924867M.6459961 .3542633C.6459961 .28425599 .6419983 .19525147 .59999087 .12625122 .5549927 .053253175 .4850006 .03125 .43099977 .03125 .37199403 .03125 .29899598 .059249879 .2579956 .1352539 .22499085 .19725037 .21699524 .2682495 .21699524 .3542633 .21699524 .41825868 .21998596 .5032654 .2639923 .57125857 .30499269 .6322632 .37199403 .6572571 .43099977 .6572571 .49499513 .6572571 .56399539 .6292572 .60398867 .56326296 .6419983 .49925233 .6459961 .42225648 .6459961 .3542633Z"/>
<path id="font_1_104" d="M.7569885 .43385316 .73599246 .6748047H.06298828L.041992189 .43385316H.08898926C.09799194 .5468292 .10798645 .62779238 .2519989 .62779238H.32899476V.04699707H.17599488V0C.22999573 .0029907227 .34098817 .0029907227 .3999939 .0029907227 .45899964 .0029907227 .56999209 .0029907227 .6239929 0V.04699707H.47099305V.62779238H.5469971C.6899872 .62779238 .69999697 .54782107 .70999148 .43385316H.7569885Z"/>
<path id="font_1_49" d="M.72299197 .27397157H.6759949C.6539917 .13598633 .6259918 .04699707 .44099427 .04699707H.2889862V.32896424H.34399415C.43998719 .32896424 .44999696 .28596498 .44999696 .2119751H.49699403V.4928894H.44999696C.44999696 .4189453 .44099427 .37597657 .34399415 .37597657H.2889862V.6328125H.44099427C.60198977 .6328125 .6279907 .5598297 .6439972 .43885804H.69099429L.6599884 .6798096H.038986207V.6328125H.14698792V.04699707H.038986207V0H.6769867L.72299197 .27397157Z"/>
</defs>
<path transform="matrix(1.00005,0,0,-1.00003,45.95034,115.387989)" d="M0 0H113.38724V113.38724H0Z" fill="#add8e6"/>
<path transform="matrix(1.00005,0,0,-1.00003,45.95034,115.387989)" d="M-43.65344-43.65344H69.73378V69.73378H-43.65344Z" fill="#add8e6"/>
<path transform="matrix(1.00005,0,0,-1.00003,45.95034,115.387989)" d="M0 0-43.65344-43.65344V69.73378L0 113.38724Z" fill="#add8e6"/>
<path transform="matrix(1.00005,0,0,-1.00003,45.95034,115.387989)" stroke-width=".79701" stroke-linecap="butt" stroke-miterlimit="10" stroke-linejoin="miter" fill="none" stroke="#000000" d="M0 0H113.38724V113.38724H0Z"/>
<path transform="matrix(1.00005,0,0,-1.00003,45.95034,115.387989)" stroke-width=".79701" stroke-linecap="butt" stroke-miterlimit="10" stroke-linejoin="miter" fill="none" stroke="#000000" d="M-43.65344-43.65344H69.73378V69.73378H-43.65344Z"/>
<path transform="matrix(1.00005,0,0,-1.00003,45.95034,115.387989)" stroke-width=".79701" stroke-linecap="butt" stroke-miterlimit="10" stroke-linejoin="miter" fill="none" stroke="#000000" d="M0 0-43.65344-43.65344"/>
<path transform="matrix(1.00005,0,0,-1.00003,45.95034,115.387989)" stroke-width=".79701" stroke-linecap="butt" stroke-miterlimit="10" stroke-linejoin="miter" fill="none" stroke="#000000" d="M113.38724 0 69.73378-43.65344"/>
<path transform="matrix(1.00005,0,0,-1.00003,45.95034,115.387989)" stroke-width=".79701" stroke-linecap="butt" stroke-miterlimit="10" stroke-linejoin="miter" fill="none" stroke="#000000" d="M113.38724 113.38724 69.73378 69.73378"/>
<path transform="matrix(1.00005,0,0,-1.00003,45.95034,115.387989)" stroke-width=".79701" stroke-linecap="butt" stroke-miterlimit="10" stroke-linejoin="miter" fill="none" stroke="#000000" d="M0 113.38724-43.65344 69.73378"/>
<path transform="matrix(1.00005,0,0,-1.00003,45.95034,115.387989)" d="M1.70073 24.37958H24.37782V13.04016H1.70073Z"/>
<use data-text="V" xlink:href="#font_1_111" transform="matrix(14.944646,0,0,-14.944348,55.630815,75.15829)" fill="#ff0000"/>
<use data-text="O" xlink:href="#font_1_80" transform="matrix(14.944646,0,0,-14.944348,68.154438,75.15829)" fill="#ff0000"/>
<use data-text="T" xlink:href="#font_1_104" transform="matrix(14.944646,0,0,-14.944348,81.066608,75.15829)" fill="#ff0000"/>
<use data-text="E" xlink:href="#font_1_49" transform="matrix(14.944646,0,0,-14.944348,93.02231,75.15829)" fill="#ff0000"/>
</svg>
