<svg xmlns="http://www.w3.org/2000/svg" xmlns:xlink="http://www.w3.org/1999/xlink" xmlns:inkscape="http://www.inkscape.org/namespaces/inkscape" version="1.1" width="288" height="386" viewBox="0 0 288 386">
<path transform="matrix(1.00006,0,0,-1,144.03549,384.675)" d="M0 0 141.73404 141.73404C141.73404 220.0126 78.27855 283.4681 0 283.4681-78.27855 283.4681-141.73404 220.0126-141.73404 141.73404Z" fill="#8080ff"/>
<path transform="matrix(1.00006,0,0,-1,144.03549,384.675)" stroke-width=".79701" stroke-linecap="butt" stroke-miterlimit="10" stroke-linejoin="miter" fill="none" stroke="#000000" d="M0 0 141.73404 141.73404"/>
<path transform="matrix(1.00006,0,0,-1,144.03549,384.675)" stroke-width=".79701" stroke-linecap="butt" stroke-miterlimit="10" stroke-linejoin="miter" fill="none" stroke="#000000" d="M0 0-141.73404 141.73404"/>
<path transform="matrix(1.00006,0,0,-1,144.03549,384.675)" stroke-width=".79701" stroke-linecap="butt" stroke-miterlimit="10" stroke-linejoin="miter" fill="none" stroke="#000000" d="M141.73404 141.73404C141.73404 220.0126 78.27855 283.4681 0 283.4681-78.27855 283.4681-141.73404 220.0126-141.73404 141.73404"/>
<path transform="matrix(1.00006,0,0,-1,144.03549,384.675)" d="M56.69362 325.9883C56.69362 357.29975 31.31142 382.68193 0 382.68193-31.31142 382.68193-56.69362 357.29975-56.69362 325.9883-56.69362 294.67689-31.31142 269.29469 0 269.29469 31.31142 269.29469 56.69362 294.67689 56.69362 325.9883ZM0 325.9883" fill="#ff8000"/>
<path transform="matrix(1.00006,0,0,-1,144.03549,384.675)" stroke-width=".79701" stroke-linecap="butt" stroke-miterlimit="10" stroke-linejoin="miter" fill="none" stroke="#000000" d="M56.69362 325.9883C56.69362 357.29975 31.31142 382.68193 0 382.68193-31.31142 382.68193-56.69362 357.29975-56.69362 325.9883-56.69362 294.67689-31.31142 269.29469 0 269.29469 31.31142 269.29469 56.69362 294.67689 56.69362 325.9883ZM0 325.9883"/>
</svg>
