<svg xmlns="http://www.w3.org/2000/svg" xmlns:xlink="http://www.w3.org/1999/xlink" xmlns:inkscape="http://www.inkscape.org/namespaces/inkscape" version="1.1" width="89" height="117" viewBox="0 0 89 117">
<defs>
<path id="font_1_63" d="M.625 .14816284C.625 .16217041 .6119995 .16217041 .5970001 .16217041 .5779877 .16217041 .57299807 .16217041 .56900027 .14916992 .5609894 .123168949 .5339966 .028182984 .47698976 .028182984 .47200013 .028182984 .46299745 .028182984 .46299745 .046173097 .46299745 .06716919 .47299195 .093170169 .48599244 .12716675 .5 .16416931 .54499819 .28215028 .54499819 .33914186 .54499819 .4221344 .48599244 .45214845 .40699769 .45214845 .35598756 .45214845 .31599427 .43614198 .272995 .4011383L.33799745 .66041567C.33898927 .66542056 .34098817 .67141726 .34098817 .6764221 .34098817 .6954193 .32299806 .6944275 .30899049 .6934204L.18598938 .6874237C.1749878 .6864166 .15499878 .6864166 .15499878 .6574249 .15499878 .63941958 .17298889 .63941958 .18199158 .63941958 .19400025 .63941958 .21199036 .63842776 .22399903 .63742068L.07998657 .057174684C.07598877 .042175294 .07598877 .04017639 .07598877 .035186769 .07598877 .010177612 .09498596-.0078125 .12199402-.0078125 .13398743-.0078125 .17199707-.002822876 .18399048 .045181276L.24598694 .29415895C.25299073 .32214356 .30899049 .4161377 .3999939 .4161377 .44299317 .4161377 .44299317 .3781433 .44299317 .35914613 .44299317 .29914857 .39698792 .17616272 .3789978 .13116455 .36999513 .106170658 .36698915 .09617615 .36698915 .08117676 .36698915 .025177002 .41799928-.0078125 .47200013-.0078125 .57598879-.0078125 .625 .12716675 .625 .14816284Z"/>
<path id="font_1_96" d="M.56199648 .36314393C.56199648 .4161377 .5079956 .45214845 .43499757 .45214845 .39698792 .45214845 .34999085 .44114686 .30699159 .39814759 .2899933 .42913819 .25 .45214845 .20098877 .45214845 .1539917 .45214845 .1289978 .4181366 .115997318 .39814759 .08999634 .3561554 .07699585 .30015565 .07699585 .29615785 .07699585 .28215028 .08999634 .28215028 .10499573 .28215028 .1289978 .28215028 .12998963 .28315736 .13699341 .30815126 .14498902 .341156 .16299439 .4161377 .19699097 .4161377 .20899964 .4161377 .21598816 .4081421 .21598816 .3851471 .21598816 .3661499 .21398926 .3581543 .20999146 .34214784L.13899231 .057174684C.1349945 .042175294 .1349945 .04017639 .1349945 .03517151 .1349945 .004180908 .15899658-.0078125 .17999268-.0078125 .18699646-.0078125 .22999573-.0058135988 .24299622 .046173097L.31098939 .31814576C.31698609 .341156 .3619995 .4161377 .43199159 .4161377 .44299317 .4161377 .46699525 .41514588 .4869995 .3991394 .44099427 .3781433 .43998719 .33615113 .43998719 .33215333 .43998719 .30715943 .45899964 .28614808 .48999024 .28614808 .5279999 .28614808 .56199648 .31814576 .56199648 .36314393Z"/>
</defs>
<path transform="matrix(1.00006,0,0,-1,44.81755,101.211)" stroke-width=".79701" stroke-linecap="butt" stroke-miterlimit="10" stroke-linejoin="miter" fill="none" stroke="#000000" d="M-42.5202 0C-42.5202-7.82784-23.48354-14.17339 0-14.17339 23.48357-14.17339 42.52023-7.82784 42.52023 0"/>
<path transform="matrix(1.00006,0,0,-1,44.81755,101.211)" stroke-width=".79701" stroke-linecap="butt" stroke-dasharray="2.98883,2.98883" stroke-miterlimit="10" stroke-linejoin="miter" fill="none" stroke="#000000" d="M42.5202 0C42.5202 7.82784 23.48354 14.17339 0 14.17339-23.48357 14.17339-42.52023 7.82784-42.52023 0"/>
<path transform="matrix(1.00006,0,0,-1,44.81755,101.211)" stroke-width=".79701" stroke-linecap="butt" stroke-miterlimit="10" stroke-linejoin="miter" fill="none" stroke="#000000" d="M-42.5202 85.04042C-42.5202 77.21257-23.48354 70.86702 0 70.86702 23.48357 70.86702 42.52023 77.21257 42.52023 85.04042"/>
<path transform="matrix(1.00006,0,0,-1,44.81755,101.211)" stroke-width=".79701" stroke-linecap="butt" stroke-miterlimit="10" stroke-linejoin="miter" fill="none" stroke="#000000" d="M42.5202 85.04042C42.5202 92.86827 23.48354 99.21382 0 99.21382-23.48357 99.21382-42.52023 92.86827-42.52023 85.04042"/>
<path transform="matrix(1.00006,0,0,-1,44.81755,101.211)" stroke-width=".79701" stroke-linecap="butt" stroke-miterlimit="10" stroke-linejoin="miter" fill="none" stroke="#000000" d="M-42.5202 0V85.04042"/>
<path transform="matrix(1.00006,0,0,-1,44.81755,101.211)" d="M42.5202 0V85.04042" fill="#0000ff"/>
<path transform="matrix(1.00006,0,0,-1,44.81755,101.211)" stroke-width=".79701" stroke-linecap="butt" stroke-miterlimit="10" stroke-linejoin="miter" fill="none" stroke="#000000" d="M42.5202 0V85.04042"/>
<path transform="matrix(1.00006,0,0,-1,44.81755,101.211)" stroke-width=".3985" stroke-linecap="butt" stroke-dasharray="2.98883,2.98883" stroke-miterlimit="10" stroke-linejoin="miter" fill="none" stroke="#000000" d="M0 0V85.04042"/>
<path transform="matrix(1.00006,0,0,-1,44.81755,101.211)" d="M-13.06711 35.69774H-.19925022V49.342668H-13.06711Z" fill="#ffbfbf"/>
<use data-text="h" xlink:href="#font_1_63" transform="matrix(9.963197,0,0,-9.9626,35.06997,62.113)"/>
<path transform="matrix(1.00006,0,0,-1,44.81755,101.211)" stroke-width=".3985" stroke-linecap="butt" stroke-dasharray="2.98883,2.98883" stroke-miterlimit="10" stroke-linejoin="miter" fill="none" stroke="#000000" d="M0 0H42.5202"/>
<path transform="matrix(1.00006,0,0,-1,44.81755,101.211)" d="M15.14-11.42323H27.3802V-.19925022H15.14Z" fill="#ffbfbf"/>
<use data-text="r" xlink:href="#font_1_96" transform="matrix(9.963197,0,0,-9.9626,63.279657,109.23399)"/>
<path transform="matrix(1.00006,0,0,-1,44.81755,101.211)" d="M1.49442 0C1.49442 .82533 .82533 1.49442 0 1.49442-.82533 1.49442-1.49442 .82533-1.49442 0-1.49442-.82533-.82533-1.49442 0-1.49442 .82533-1.49442 1.49442-.82533 1.49442 0ZM0 0"/>
<path transform="matrix(1.00006,0,0,-1,44.81755,101.211)" d="M1.49442 85.04042C1.49442 85.86577 .82533 86.53484 0 86.53484-.82533 86.53484-1.49442 85.86577-1.49442 85.04042-1.49442 84.21507-.82533 83.546 0 83.546 .82533 83.546 1.49442 84.21507 1.49442 85.04042ZM0 85.04042"/>
</svg>
